<?xml version="1.0" standalone="no"?>
 <!DOCTYPE svg PUBLIC "-//W3C//DTD SVG 1.1//EN" 
 "http://www.w3.org/Graphics/SVG/1.1/DTD/svg11.dtd"> 
<svg
  xmlns:svg="http://www.w3.org/2000/svg"
  xmlns="http://www.w3.org/2000/svg"
  xmlns:xlink="http://www.w3.org/1999/xlink"
  version="1.1"
  width="111.5822mm" height="128.6764mm" viewBox="0.0000 0.0000 111.5822 128.6764">
<title>SVG Image created as dc31-front-brd.svg date 2023/07/25 13:22:50 </title>
  <desc>Image generated by PCBNEW </desc>
<g style="fill:#000000; fill-opacity:1.0000;stroke:#000000; stroke-opacity:1.0000;
stroke-linecap:round; stroke-linejoin:round;"
 transform="translate(0 0) scale(1 1)">
</g>
<g style="fill:#000000; fill-opacity:0.0; 
stroke:#000000; stroke-width:0.0000; stroke-opacity:1; 
stroke-linecap:round; stroke-linejoin:round;">
</g>
<g style="fill:#000000; fill-opacity:0.0; 
stroke:#000000; stroke-width:0.2000; stroke-opacity:1; 
stroke-linecap:round; stroke-linejoin:round;">
<circle cx="104.0014" cy="125.5990" r="1.6000" /> 
<path d="M111.0014 128.5964
L0.6036 128.5964
" />
<path d="M0.1000 128.1014
L0.1000 0.6000
" />
<path d="M111.0014 128.5964 A0.5000 0.5000 0.0 0 0 111.5014 128.0964" />
<circle cx="69.2200" cy="19.9300" r="3.1000" /> 
</g>
<g style="fill:#000000; fill-opacity:0.0; 
stroke:#000000; stroke-width:0.0500; stroke-opacity:1; 
stroke-linecap:round; stroke-linejoin:round;">
<circle cx="4.9500" cy="116.0700" r="1.5000" /> 
</g>
<g style="fill:#000000; fill-opacity:0.0; 
stroke:#000000; stroke-width:0.2000; stroke-opacity:1; 
stroke-linecap:round; stroke-linejoin:round;">
<circle cx="46.3900" cy="39.2900" r="7.8000" /> 
<circle cx="102.7100" cy="19.9300" r="3.1000" /> 
<circle cx="104.0014" cy="3.0990" r="1.6000" /> 
</g>
<g style="fill:#000000; fill-opacity:0.0; 
stroke:#000000; stroke-width:0.0500; stroke-opacity:1; 
stroke-linecap:round; stroke-linejoin:round;">
<circle cx="106.6100" cy="116.0700" r="1.5000" /> 
</g>
<g style="fill:#000000; fill-opacity:0.0; 
stroke:#000000; stroke-width:0.2000; stroke-opacity:1; 
stroke-linecap:round; stroke-linejoin:round;">
<path style="fill:#000000; fill-opacity:0.0; 
stroke:#000000; stroke-width:0.2000; stroke-opacity:1; 
stroke-linecap:round; stroke-linejoin:round;fill:none"
d="M 22.5800,10.1200
52.6200,10.1200
52.6200,22.1200
22.5800,22.1200
Z" /> 
<path d="M111.0014 0.1000
L0.6000 0.1000
" />
<path d="M0.6000 0.1000 A0.5000 0.5000 0.0 0 0 0.1000 0.6000" />
</g>
<g style="fill:#000000; fill-opacity:0.0; 
stroke:#000000; stroke-width:0.0500; stroke-opacity:1; 
stroke-linecap:round; stroke-linejoin:round;">
<circle cx="4.9500" cy="12.5900" r="1.5000" /> 
</g>
<g style="fill:#000000; fill-opacity:0.0; 
stroke:#000000; stroke-width:0.2000; stroke-opacity:1; 
stroke-linecap:round; stroke-linejoin:round;">
<circle cx="85.9400" cy="19.9400" r="3.1000" /> 
<path d="M111.5014 0.6000
L111.5014 128.0964
" />
<path style="fill:#000000; fill-opacity:0.0; 
stroke:#000000; stroke-width:0.2000; stroke-opacity:1; 
stroke-linecap:round; stroke-linejoin:round;fill:none"
d="M 17.8300,52.4400
55.8900,52.4400
55.8900,71.4800
17.8300,71.4800
Z" /> 
<path d="M0.1086 128.1014 A0.4950 0.4950 0.0 0 0 0.6036 128.5964" />
<circle cx="85.9500" cy="30.9500" r="3.1000" /> 
<path d="M111.5014 0.6000 A0.5000 0.5000 0.0 0 0 111.0014 0.1000" />
</g>
<g style="fill:#000000; fill-opacity:0.0; 
stroke:#000000; stroke-width:0.0500; stroke-opacity:1; 
stroke-linecap:round; stroke-linejoin:round;">
<circle cx="106.6100" cy="12.5900" r="1.5000" /> 
</g>
<g style="fill:#000000; fill-opacity:0.0; 
stroke:#000000; stroke-width:0.2000; stroke-opacity:1; 
stroke-linecap:round; stroke-linejoin:round;">
<path style="fill:#000000; fill-opacity:0.0; 
stroke:#000000; stroke-width:0.2000; stroke-opacity:1; 
stroke-linecap:round; stroke-linejoin:round;fill:none"
d="M 17.8300,78.2700
94.0000,78.2700
94.0000,116.3800
17.8300,116.3800
Z" /> 
<circle cx="7.6014" cy="125.5990" r="1.6000" /> 
<circle cx="7.6014" cy="3.0990" r="1.6000" /> 
<circle cx="102.7000" cy="30.9600" r="3.1000" /> 
<circle cx="27.3400" cy="39.2900" r="7.8000" /> 
<g >
</g>
<g >
</g>
<g >
</g>
<g >
</g>
<g >
</g>
<g >
</g>
<g >
</g>
<g >
</g>
<g >
</g>
<g >
</g>
<g >
</g>
<g >
</g>
<g >
</g>
<g >
</g>
<g >
</g>
<g >
</g>
<g >
</g>
<g >
</g>
<g >
</g>
<g >
</g>
<g >
</g>
</g> 
</svg>
