%TF.GenerationSoftware,KiCad,Pcbnew,7.0.2*%
%TF.CreationDate,2023-07-23T02:14:46-06:00*%
%TF.ProjectId,dc31,64633331-2e6b-4696-9361-645f70636258,1.1*%
%TF.SameCoordinates,Original*%
%TF.FileFunction,Soldermask,Bot*%
%TF.FilePolarity,Negative*%
%FSLAX46Y46*%
G04 Gerber Fmt 4.6, Leading zero omitted, Abs format (unit mm)*
G04 Created by KiCad (PCBNEW 7.0.2) date 2023-07-23 02:14:46*
%MOMM*%
%LPD*%
G01*
G04 APERTURE LIST*
G04 Aperture macros list*
%AMRoundRect*
0 Rectangle with rounded corners*
0 $1 Rounding radius*
0 $2 $3 $4 $5 $6 $7 $8 $9 X,Y pos of 4 corners*
0 Add a 4 corners polygon primitive as box body*
4,1,4,$2,$3,$4,$5,$6,$7,$8,$9,$2,$3,0*
0 Add four circle primitives for the rounded corners*
1,1,$1+$1,$2,$3*
1,1,$1+$1,$4,$5*
1,1,$1+$1,$6,$7*
1,1,$1+$1,$8,$9*
0 Add four rect primitives between the rounded corners*
20,1,$1+$1,$2,$3,$4,$5,0*
20,1,$1+$1,$4,$5,$6,$7,0*
20,1,$1+$1,$6,$7,$8,$9,0*
20,1,$1+$1,$8,$9,$2,$3,0*%
%AMHorizOval*
0 Thick line with rounded ends*
0 $1 width*
0 $2 $3 position (X,Y) of the first rounded end (center of the circle)*
0 $4 $5 position (X,Y) of the second rounded end (center of the circle)*
0 Add line between two ends*
20,1,$1,$2,$3,$4,$5,0*
0 Add two circle primitives to create the rounded ends*
1,1,$1,$2,$3*
1,1,$1,$4,$5*%
G04 Aperture macros list end*
%ADD10C,3.991874*%
%ADD11C,3.000000*%
%ADD12O,1.200000X2.200000*%
%ADD13O,2.200000X1.200000*%
%ADD14C,2.000000*%
%ADD15C,2.250000*%
%ADD16HorizOval,2.250000X0.654995X0.730004X-0.654995X-0.730004X0*%
%ADD17HorizOval,2.250000X0.025506X0.374132X-0.025506X-0.374132X0*%
%ADD18O,2.150000X1.750000*%
%ADD19C,3.987800*%
%ADD20C,1.200000*%
%ADD21C,1.800000*%
%ADD22O,3.200000X3.500000*%
%ADD23R,1.700000X1.700000*%
%ADD24O,1.700000X1.700000*%
%ADD25O,1.800000X1.800000*%
%ADD26O,1.500000X1.500000*%
%ADD27C,0.900000*%
%ADD28O,2.000000X1.200000*%
%ADD29RoundRect,0.250000X0.600000X0.600000X-0.600000X0.600000X-0.600000X-0.600000X0.600000X-0.600000X0*%
%ADD30C,1.700000*%
%ADD31R,1.500000X1.500000*%
G04 APERTURE END LIST*
D10*
X183250337Y-93624400D02*
G75*
G03*
X183250337Y-93624400I-1995937J0D01*
G01*
D11*
%TO.C,J8*%
X165575895Y-51210000D03*
D12*
X162025895Y-51610000D03*
D13*
X162875895Y-49090000D03*
X169175895Y-53330000D03*
D12*
X169925895Y-50810000D03*
D13*
X164475895Y-53330000D03*
%TD*%
D11*
%TO.C,J6*%
X182330000Y-62220000D03*
D12*
X178780000Y-62620000D03*
D13*
X179630000Y-60100000D03*
X185930000Y-64340000D03*
D12*
X186680000Y-61820000D03*
D13*
X181230000Y-64340000D03*
%TD*%
D11*
%TO.C,J5*%
X182320000Y-51210000D03*
D12*
X178770000Y-51610000D03*
D13*
X179620000Y-49090000D03*
X185920000Y-53330000D03*
D12*
X186670000Y-50810000D03*
D13*
X181220000Y-53330000D03*
%TD*%
D11*
%TO.C,J4*%
X199064105Y-51210000D03*
D12*
X195514105Y-51610000D03*
D13*
X196364105Y-49090000D03*
X202664105Y-53330000D03*
D12*
X203414105Y-50810000D03*
D13*
X197964105Y-53330000D03*
%TD*%
D11*
%TO.C,J2*%
X199064105Y-62230000D03*
D12*
X195514105Y-62630000D03*
D13*
X196364105Y-60110000D03*
X202664105Y-64350000D03*
D12*
X203414105Y-61830000D03*
D13*
X197964105Y-64350000D03*
%TD*%
D14*
%TO.C,SW1*%
X123710000Y-113180000D03*
D15*
X121210000Y-115080000D03*
D16*
X120554995Y-115809996D03*
D14*
X128710000Y-115280000D03*
D17*
X126220000Y-114330000D03*
D18*
X128990000Y-119080000D03*
D19*
X123710000Y-119080000D03*
D20*
X118490000Y-123280000D03*
D18*
X118430000Y-119080000D03*
%TD*%
D21*
%TO.C,SW12*%
X145260000Y-63560000D03*
X140260000Y-63560000D03*
X142760000Y-78060000D03*
X145260000Y-78060000D03*
X140260000Y-78060000D03*
D22*
X148360000Y-70560000D03*
X137160000Y-70560000D03*
%TD*%
D23*
%TO.C,J3*%
X197070000Y-137139600D03*
D24*
X197070000Y-139679600D03*
X197070000Y-142219600D03*
X197070000Y-144759600D03*
X197070000Y-147299600D03*
%TD*%
D25*
%TO.C,U1*%
X204870000Y-95535000D03*
D26*
X201840000Y-95235000D03*
X201840000Y-90385000D03*
D25*
X204870000Y-90085000D03*
%TD*%
D14*
%TO.C,SW8*%
X180860000Y-132230000D03*
D15*
X178360000Y-134130000D03*
D16*
X177704995Y-134859996D03*
D14*
X185860000Y-134330000D03*
D17*
X183370000Y-133380000D03*
D18*
X186140000Y-138130000D03*
D19*
X180860000Y-138130000D03*
D20*
X175640000Y-142330000D03*
D18*
X175580000Y-138130000D03*
%TD*%
D14*
%TO.C,SW7*%
X161810000Y-132230000D03*
D15*
X159310000Y-134130000D03*
D16*
X158654995Y-134859996D03*
D14*
X166810000Y-134330000D03*
D17*
X164320000Y-133380000D03*
D18*
X167090000Y-138130000D03*
D19*
X161810000Y-138130000D03*
D20*
X156590000Y-142330000D03*
D18*
X156530000Y-138130000D03*
%TD*%
D14*
%TO.C,SW3*%
X161810000Y-113180000D03*
D15*
X159310000Y-115080000D03*
D16*
X158654995Y-115809996D03*
D14*
X166810000Y-115280000D03*
D17*
X164320000Y-114330000D03*
D18*
X167090000Y-119080000D03*
D19*
X161810000Y-119080000D03*
D20*
X156590000Y-123280000D03*
D18*
X156530000Y-119080000D03*
%TD*%
D14*
%TO.C,SW2*%
X142760000Y-113180000D03*
D15*
X140260000Y-115080000D03*
D16*
X139604995Y-115809996D03*
D14*
X147760000Y-115280000D03*
D17*
X145270000Y-114330000D03*
D18*
X148040000Y-119080000D03*
D19*
X142760000Y-119080000D03*
D20*
X137540000Y-123280000D03*
D18*
X137480000Y-119080000D03*
%TD*%
D14*
%TO.C,SW5*%
X123710000Y-132230000D03*
D15*
X121210000Y-134130000D03*
D16*
X120554995Y-134859996D03*
D14*
X128710000Y-134330000D03*
D17*
X126220000Y-133380000D03*
D18*
X128990000Y-138130000D03*
D19*
X123710000Y-138130000D03*
D20*
X118490000Y-142330000D03*
D18*
X118430000Y-138130000D03*
%TD*%
D14*
%TO.C,SW9*%
X123710000Y-87340000D03*
D15*
X121210000Y-89240000D03*
D16*
X120554995Y-89969996D03*
D14*
X128710000Y-89440000D03*
D17*
X126220000Y-88490000D03*
D18*
X128990000Y-93240000D03*
D19*
X123710000Y-93240000D03*
D20*
X118490000Y-97440000D03*
D18*
X118430000Y-93240000D03*
%TD*%
D27*
%TO.C,SW14*%
X202735000Y-113370000D03*
X202735000Y-120170000D03*
%TD*%
D21*
%TO.C,SW11*%
X126210000Y-63560000D03*
X121210000Y-63560000D03*
X123710000Y-78060000D03*
X126210000Y-78060000D03*
X121210000Y-78060000D03*
D22*
X129310000Y-70560000D03*
X118110000Y-70560000D03*
%TD*%
D14*
%TO.C,SW4*%
X180860000Y-113180000D03*
D15*
X178360000Y-115080000D03*
D16*
X177704995Y-115809996D03*
D14*
X185860000Y-115280000D03*
D17*
X183370000Y-114330000D03*
D18*
X186140000Y-119080000D03*
D19*
X180860000Y-119080000D03*
D20*
X175640000Y-123280000D03*
D18*
X175580000Y-119080000D03*
%TD*%
D20*
%TO.C,J9*%
X130690000Y-45420000D03*
X138670000Y-45420000D03*
%TD*%
D28*
%TO.C,J1*%
X115480000Y-51190000D03*
X115480000Y-48650000D03*
X115480000Y-46110000D03*
X115480000Y-43570000D03*
%TD*%
D14*
%TO.C,SW6*%
X142760000Y-132230000D03*
D15*
X140260000Y-134130000D03*
D16*
X139604995Y-134859996D03*
D14*
X147760000Y-134330000D03*
D17*
X145270000Y-133380000D03*
D18*
X148040000Y-138130000D03*
D19*
X142760000Y-138130000D03*
D20*
X137540000Y-142330000D03*
D18*
X137480000Y-138130000D03*
%TD*%
D14*
%TO.C,SW10*%
X142760000Y-87340000D03*
D15*
X140260000Y-89240000D03*
D16*
X139604995Y-89969996D03*
D14*
X147760000Y-89440000D03*
D17*
X145270000Y-88490000D03*
D18*
X148040000Y-93240000D03*
D19*
X142760000Y-93240000D03*
D20*
X137540000Y-97440000D03*
D18*
X137480000Y-93240000D03*
%TD*%
D29*
%TO.C,J7*%
X105587800Y-117703600D03*
D30*
X103047800Y-117703600D03*
X105587800Y-120243600D03*
X103047800Y-120243600D03*
X105587800Y-122783600D03*
X103047800Y-122783600D03*
X105587800Y-125323600D03*
X103047800Y-125323600D03*
X105587800Y-127863600D03*
X103047800Y-127863600D03*
%TD*%
D31*
%TO.C,TP2*%
X202950000Y-126680000D03*
%TD*%
%TO.C,TP3*%
X202890000Y-130970000D03*
%TD*%
M02*
