%TF.GenerationSoftware,KiCad,Pcbnew,7.0.2*%
%TF.CreationDate,2023-06-20T02:09:05-06:00*%
%TF.ProjectId,dc31,64633331-2e6b-4696-9361-645f70636258,rev?*%
%TF.SameCoordinates,Original*%
%TF.FileFunction,Legend,Top*%
%TF.FilePolarity,Positive*%
%FSLAX46Y46*%
G04 Gerber Fmt 4.6, Leading zero omitted, Abs format (unit mm)*
G04 Created by KiCad (PCBNEW 7.0.2) date 2023-06-20 02:09:05*
%MOMM*%
%LPD*%
G01*
G04 APERTURE LIST*
G04 Aperture macros list*
%AMHorizOval*
0 Thick line with rounded ends*
0 $1 width*
0 $2 $3 position (X,Y) of the first rounded end (center of the circle)*
0 $4 $5 position (X,Y) of the second rounded end (center of the circle)*
0 Add line between two ends*
20,1,$1,$2,$3,$4,$5,0*
0 Add two circle primitives to create the rounded ends*
1,1,$1,$2,$3*
1,1,$1,$4,$5*%
G04 Aperture macros list end*
%ADD10C,0.300000*%
%ADD11C,0.150000*%
%ADD12C,0.120000*%
%ADD13C,0.127000*%
%ADD14O,2.000000X1.200000*%
%ADD15C,1.600000*%
%ADD16C,2.250000*%
%ADD17O,1.800000X1.800000*%
%ADD18O,1.500000X1.500000*%
%ADD19O,1.700000X1.700000*%
%ADD20R,1.700000X1.700000*%
%ADD21O,2.150000X1.750000*%
%ADD22C,1.200000*%
%ADD23C,3.987800*%
%ADD24HorizOval,2.250000X0.025506X0.374132X-0.025506X-0.374132X0*%
%ADD25C,2.000000*%
%ADD26HorizOval,2.250000X0.654995X0.730004X-0.654995X-0.730004X0*%
%ADD27R,1.500000X0.900000*%
%ADD28C,1.500000*%
%ADD29O,3.200000X3.500000*%
%ADD30C,1.800000*%
G04 APERTURE END LIST*
D10*
X175468190Y-65825238D02*
X175468190Y-63825238D01*
X175468190Y-63825238D02*
X176134857Y-65253809D01*
X176134857Y-65253809D02*
X176801523Y-63825238D01*
X176801523Y-63825238D02*
X176801523Y-65825238D01*
X177753904Y-65825238D02*
X177753904Y-63825238D01*
X178706285Y-65825238D02*
X178706285Y-63825238D01*
X178706285Y-63825238D02*
X179182475Y-63825238D01*
X179182475Y-63825238D02*
X179468190Y-63920476D01*
X179468190Y-63920476D02*
X179658666Y-64110952D01*
X179658666Y-64110952D02*
X179753904Y-64301428D01*
X179753904Y-64301428D02*
X179849142Y-64682380D01*
X179849142Y-64682380D02*
X179849142Y-64968095D01*
X179849142Y-64968095D02*
X179753904Y-65349047D01*
X179753904Y-65349047D02*
X179658666Y-65539523D01*
X179658666Y-65539523D02*
X179468190Y-65730000D01*
X179468190Y-65730000D02*
X179182475Y-65825238D01*
X179182475Y-65825238D02*
X178706285Y-65825238D01*
X180706285Y-65825238D02*
X180706285Y-63825238D01*
X183563428Y-63825238D02*
X183944381Y-63825238D01*
X183944381Y-63825238D02*
X184134857Y-63920476D01*
X184134857Y-63920476D02*
X184325333Y-64110952D01*
X184325333Y-64110952D02*
X184420571Y-64491904D01*
X184420571Y-64491904D02*
X184420571Y-65158571D01*
X184420571Y-65158571D02*
X184325333Y-65539523D01*
X184325333Y-65539523D02*
X184134857Y-65730000D01*
X184134857Y-65730000D02*
X183944381Y-65825238D01*
X183944381Y-65825238D02*
X183563428Y-65825238D01*
X183563428Y-65825238D02*
X183372952Y-65730000D01*
X183372952Y-65730000D02*
X183182476Y-65539523D01*
X183182476Y-65539523D02*
X183087238Y-65158571D01*
X183087238Y-65158571D02*
X183087238Y-64491904D01*
X183087238Y-64491904D02*
X183182476Y-64110952D01*
X183182476Y-64110952D02*
X183372952Y-63920476D01*
X183372952Y-63920476D02*
X183563428Y-63825238D01*
X186134857Y-64491904D02*
X186134857Y-65825238D01*
X185277714Y-64491904D02*
X185277714Y-65539523D01*
X185277714Y-65539523D02*
X185372952Y-65730000D01*
X185372952Y-65730000D02*
X185563428Y-65825238D01*
X185563428Y-65825238D02*
X185849143Y-65825238D01*
X185849143Y-65825238D02*
X186039619Y-65730000D01*
X186039619Y-65730000D02*
X186134857Y-65634761D01*
X186801524Y-64491904D02*
X187563428Y-64491904D01*
X187087238Y-63825238D02*
X187087238Y-65539523D01*
X187087238Y-65539523D02*
X187182476Y-65730000D01*
X187182476Y-65730000D02*
X187372952Y-65825238D01*
X187372952Y-65825238D02*
X187563428Y-65825238D01*
X176468190Y-40045238D02*
X176468190Y-38045238D01*
X176468190Y-38045238D02*
X177134857Y-39473809D01*
X177134857Y-39473809D02*
X177801523Y-38045238D01*
X177801523Y-38045238D02*
X177801523Y-40045238D01*
X178753904Y-40045238D02*
X178753904Y-38045238D01*
X179706285Y-40045238D02*
X179706285Y-38045238D01*
X179706285Y-38045238D02*
X180182475Y-38045238D01*
X180182475Y-38045238D02*
X180468190Y-38140476D01*
X180468190Y-38140476D02*
X180658666Y-38330952D01*
X180658666Y-38330952D02*
X180753904Y-38521428D01*
X180753904Y-38521428D02*
X180849142Y-38902380D01*
X180849142Y-38902380D02*
X180849142Y-39188095D01*
X180849142Y-39188095D02*
X180753904Y-39569047D01*
X180753904Y-39569047D02*
X180658666Y-39759523D01*
X180658666Y-39759523D02*
X180468190Y-39950000D01*
X180468190Y-39950000D02*
X180182475Y-40045238D01*
X180182475Y-40045238D02*
X179706285Y-40045238D01*
X181706285Y-40045238D02*
X181706285Y-38045238D01*
X184182476Y-40045238D02*
X184182476Y-38045238D01*
X185134857Y-38711904D02*
X185134857Y-40045238D01*
X185134857Y-38902380D02*
X185230095Y-38807142D01*
X185230095Y-38807142D02*
X185420571Y-38711904D01*
X185420571Y-38711904D02*
X185706286Y-38711904D01*
X185706286Y-38711904D02*
X185896762Y-38807142D01*
X185896762Y-38807142D02*
X185992000Y-38997619D01*
X185992000Y-38997619D02*
X185992000Y-40045238D01*
X191480952Y-65690000D02*
X191766666Y-65785238D01*
X191766666Y-65785238D02*
X192242857Y-65785238D01*
X192242857Y-65785238D02*
X192433333Y-65690000D01*
X192433333Y-65690000D02*
X192528571Y-65594761D01*
X192528571Y-65594761D02*
X192623809Y-65404285D01*
X192623809Y-65404285D02*
X192623809Y-65213809D01*
X192623809Y-65213809D02*
X192528571Y-65023333D01*
X192528571Y-65023333D02*
X192433333Y-64928095D01*
X192433333Y-64928095D02*
X192242857Y-64832857D01*
X192242857Y-64832857D02*
X191861904Y-64737619D01*
X191861904Y-64737619D02*
X191671428Y-64642380D01*
X191671428Y-64642380D02*
X191576190Y-64547142D01*
X191576190Y-64547142D02*
X191480952Y-64356666D01*
X191480952Y-64356666D02*
X191480952Y-64166190D01*
X191480952Y-64166190D02*
X191576190Y-63975714D01*
X191576190Y-63975714D02*
X191671428Y-63880476D01*
X191671428Y-63880476D02*
X191861904Y-63785238D01*
X191861904Y-63785238D02*
X192338095Y-63785238D01*
X192338095Y-63785238D02*
X192623809Y-63880476D01*
X193290476Y-64451904D02*
X193766666Y-65785238D01*
X194242857Y-64451904D02*
X193766666Y-65785238D01*
X193766666Y-65785238D02*
X193576190Y-66261428D01*
X193576190Y-66261428D02*
X193480952Y-66356666D01*
X193480952Y-66356666D02*
X193290476Y-66451904D01*
X195004762Y-64451904D02*
X195004762Y-65785238D01*
X195004762Y-64642380D02*
X195100000Y-64547142D01*
X195100000Y-64547142D02*
X195290476Y-64451904D01*
X195290476Y-64451904D02*
X195576191Y-64451904D01*
X195576191Y-64451904D02*
X195766667Y-64547142D01*
X195766667Y-64547142D02*
X195861905Y-64737619D01*
X195861905Y-64737619D02*
X195861905Y-65785238D01*
X197671429Y-65690000D02*
X197480953Y-65785238D01*
X197480953Y-65785238D02*
X197100000Y-65785238D01*
X197100000Y-65785238D02*
X196909524Y-65690000D01*
X196909524Y-65690000D02*
X196814286Y-65594761D01*
X196814286Y-65594761D02*
X196719048Y-65404285D01*
X196719048Y-65404285D02*
X196719048Y-64832857D01*
X196719048Y-64832857D02*
X196814286Y-64642380D01*
X196814286Y-64642380D02*
X196909524Y-64547142D01*
X196909524Y-64547142D02*
X197100000Y-64451904D01*
X197100000Y-64451904D02*
X197480953Y-64451904D01*
X197480953Y-64451904D02*
X197671429Y-64547142D01*
X200433334Y-63785238D02*
X200814287Y-63785238D01*
X200814287Y-63785238D02*
X201004763Y-63880476D01*
X201004763Y-63880476D02*
X201195239Y-64070952D01*
X201195239Y-64070952D02*
X201290477Y-64451904D01*
X201290477Y-64451904D02*
X201290477Y-65118571D01*
X201290477Y-65118571D02*
X201195239Y-65499523D01*
X201195239Y-65499523D02*
X201004763Y-65690000D01*
X201004763Y-65690000D02*
X200814287Y-65785238D01*
X200814287Y-65785238D02*
X200433334Y-65785238D01*
X200433334Y-65785238D02*
X200242858Y-65690000D01*
X200242858Y-65690000D02*
X200052382Y-65499523D01*
X200052382Y-65499523D02*
X199957144Y-65118571D01*
X199957144Y-65118571D02*
X199957144Y-64451904D01*
X199957144Y-64451904D02*
X200052382Y-64070952D01*
X200052382Y-64070952D02*
X200242858Y-63880476D01*
X200242858Y-63880476D02*
X200433334Y-63785238D01*
X203004763Y-64451904D02*
X203004763Y-65785238D01*
X202147620Y-64451904D02*
X202147620Y-65499523D01*
X202147620Y-65499523D02*
X202242858Y-65690000D01*
X202242858Y-65690000D02*
X202433334Y-65785238D01*
X202433334Y-65785238D02*
X202719049Y-65785238D01*
X202719049Y-65785238D02*
X202909525Y-65690000D01*
X202909525Y-65690000D02*
X203004763Y-65594761D01*
X203671430Y-64451904D02*
X204433334Y-64451904D01*
X203957144Y-63785238D02*
X203957144Y-65499523D01*
X203957144Y-65499523D02*
X204052382Y-65690000D01*
X204052382Y-65690000D02*
X204242858Y-65785238D01*
X204242858Y-65785238D02*
X204433334Y-65785238D01*
X192790952Y-40040000D02*
X193076666Y-40135238D01*
X193076666Y-40135238D02*
X193552857Y-40135238D01*
X193552857Y-40135238D02*
X193743333Y-40040000D01*
X193743333Y-40040000D02*
X193838571Y-39944761D01*
X193838571Y-39944761D02*
X193933809Y-39754285D01*
X193933809Y-39754285D02*
X193933809Y-39563809D01*
X193933809Y-39563809D02*
X193838571Y-39373333D01*
X193838571Y-39373333D02*
X193743333Y-39278095D01*
X193743333Y-39278095D02*
X193552857Y-39182857D01*
X193552857Y-39182857D02*
X193171904Y-39087619D01*
X193171904Y-39087619D02*
X192981428Y-38992380D01*
X192981428Y-38992380D02*
X192886190Y-38897142D01*
X192886190Y-38897142D02*
X192790952Y-38706666D01*
X192790952Y-38706666D02*
X192790952Y-38516190D01*
X192790952Y-38516190D02*
X192886190Y-38325714D01*
X192886190Y-38325714D02*
X192981428Y-38230476D01*
X192981428Y-38230476D02*
X193171904Y-38135238D01*
X193171904Y-38135238D02*
X193648095Y-38135238D01*
X193648095Y-38135238D02*
X193933809Y-38230476D01*
X194600476Y-38801904D02*
X195076666Y-40135238D01*
X195552857Y-38801904D02*
X195076666Y-40135238D01*
X195076666Y-40135238D02*
X194886190Y-40611428D01*
X194886190Y-40611428D02*
X194790952Y-40706666D01*
X194790952Y-40706666D02*
X194600476Y-40801904D01*
X196314762Y-38801904D02*
X196314762Y-40135238D01*
X196314762Y-38992380D02*
X196410000Y-38897142D01*
X196410000Y-38897142D02*
X196600476Y-38801904D01*
X196600476Y-38801904D02*
X196886191Y-38801904D01*
X196886191Y-38801904D02*
X197076667Y-38897142D01*
X197076667Y-38897142D02*
X197171905Y-39087619D01*
X197171905Y-39087619D02*
X197171905Y-40135238D01*
X198981429Y-40040000D02*
X198790953Y-40135238D01*
X198790953Y-40135238D02*
X198410000Y-40135238D01*
X198410000Y-40135238D02*
X198219524Y-40040000D01*
X198219524Y-40040000D02*
X198124286Y-39944761D01*
X198124286Y-39944761D02*
X198029048Y-39754285D01*
X198029048Y-39754285D02*
X198029048Y-39182857D01*
X198029048Y-39182857D02*
X198124286Y-38992380D01*
X198124286Y-38992380D02*
X198219524Y-38897142D01*
X198219524Y-38897142D02*
X198410000Y-38801904D01*
X198410000Y-38801904D02*
X198790953Y-38801904D01*
X198790953Y-38801904D02*
X198981429Y-38897142D01*
X201362382Y-40135238D02*
X201362382Y-38135238D01*
X202314763Y-38801904D02*
X202314763Y-40135238D01*
X202314763Y-38992380D02*
X202410001Y-38897142D01*
X202410001Y-38897142D02*
X202600477Y-38801904D01*
X202600477Y-38801904D02*
X202886192Y-38801904D01*
X202886192Y-38801904D02*
X203076668Y-38897142D01*
X203076668Y-38897142D02*
X203171906Y-39087619D01*
X203171906Y-39087619D02*
X203171906Y-40135238D01*
D11*
%TO.C,J4*%
X118786666Y-50922619D02*
X118786666Y-51636904D01*
X118786666Y-51636904D02*
X118739047Y-51779761D01*
X118739047Y-51779761D02*
X118643809Y-51875000D01*
X118643809Y-51875000D02*
X118500952Y-51922619D01*
X118500952Y-51922619D02*
X118405714Y-51922619D01*
X119691428Y-51255952D02*
X119691428Y-51922619D01*
X119453333Y-50875000D02*
X119215238Y-51589285D01*
X119215238Y-51589285D02*
X119834285Y-51589285D01*
%TO.C,J3*%
X176208666Y-54290619D02*
X176208666Y-55004904D01*
X176208666Y-55004904D02*
X176161047Y-55147761D01*
X176161047Y-55147761D02*
X176065809Y-55243000D01*
X176065809Y-55243000D02*
X175922952Y-55290619D01*
X175922952Y-55290619D02*
X175827714Y-55290619D01*
X176589619Y-54290619D02*
X177208666Y-54290619D01*
X177208666Y-54290619D02*
X176875333Y-54671571D01*
X176875333Y-54671571D02*
X177018190Y-54671571D01*
X177018190Y-54671571D02*
X177113428Y-54719190D01*
X177113428Y-54719190D02*
X177161047Y-54766809D01*
X177161047Y-54766809D02*
X177208666Y-54862047D01*
X177208666Y-54862047D02*
X177208666Y-55100142D01*
X177208666Y-55100142D02*
X177161047Y-55195380D01*
X177161047Y-55195380D02*
X177113428Y-55243000D01*
X177113428Y-55243000D02*
X177018190Y-55290619D01*
X177018190Y-55290619D02*
X176732476Y-55290619D01*
X176732476Y-55290619D02*
X176637238Y-55243000D01*
X176637238Y-55243000D02*
X176589619Y-55195380D01*
%TO.C,D6*%
X141891905Y-155112619D02*
X141891905Y-154112619D01*
X141891905Y-154112619D02*
X142130000Y-154112619D01*
X142130000Y-154112619D02*
X142272857Y-154160238D01*
X142272857Y-154160238D02*
X142368095Y-154255476D01*
X142368095Y-154255476D02*
X142415714Y-154350714D01*
X142415714Y-154350714D02*
X142463333Y-154541190D01*
X142463333Y-154541190D02*
X142463333Y-154684047D01*
X142463333Y-154684047D02*
X142415714Y-154874523D01*
X142415714Y-154874523D02*
X142368095Y-154969761D01*
X142368095Y-154969761D02*
X142272857Y-155065000D01*
X142272857Y-155065000D02*
X142130000Y-155112619D01*
X142130000Y-155112619D02*
X141891905Y-155112619D01*
X143320476Y-154112619D02*
X143130000Y-154112619D01*
X143130000Y-154112619D02*
X143034762Y-154160238D01*
X143034762Y-154160238D02*
X142987143Y-154207857D01*
X142987143Y-154207857D02*
X142891905Y-154350714D01*
X142891905Y-154350714D02*
X142844286Y-154541190D01*
X142844286Y-154541190D02*
X142844286Y-154922142D01*
X142844286Y-154922142D02*
X142891905Y-155017380D01*
X142891905Y-155017380D02*
X142939524Y-155065000D01*
X142939524Y-155065000D02*
X143034762Y-155112619D01*
X143034762Y-155112619D02*
X143225238Y-155112619D01*
X143225238Y-155112619D02*
X143320476Y-155065000D01*
X143320476Y-155065000D02*
X143368095Y-155017380D01*
X143368095Y-155017380D02*
X143415714Y-154922142D01*
X143415714Y-154922142D02*
X143415714Y-154684047D01*
X143415714Y-154684047D02*
X143368095Y-154588809D01*
X143368095Y-154588809D02*
X143320476Y-154541190D01*
X143320476Y-154541190D02*
X143225238Y-154493571D01*
X143225238Y-154493571D02*
X143034762Y-154493571D01*
X143034762Y-154493571D02*
X142939524Y-154541190D01*
X142939524Y-154541190D02*
X142891905Y-154588809D01*
X142891905Y-154588809D02*
X142844286Y-154684047D01*
%TO.C,J5*%
X192624876Y-54246619D02*
X192624876Y-54960904D01*
X192624876Y-54960904D02*
X192577257Y-55103761D01*
X192577257Y-55103761D02*
X192482019Y-55199000D01*
X192482019Y-55199000D02*
X192339162Y-55246619D01*
X192339162Y-55246619D02*
X192243924Y-55246619D01*
X193577257Y-54246619D02*
X193101067Y-54246619D01*
X193101067Y-54246619D02*
X193053448Y-54722809D01*
X193053448Y-54722809D02*
X193101067Y-54675190D01*
X193101067Y-54675190D02*
X193196305Y-54627571D01*
X193196305Y-54627571D02*
X193434400Y-54627571D01*
X193434400Y-54627571D02*
X193529638Y-54675190D01*
X193529638Y-54675190D02*
X193577257Y-54722809D01*
X193577257Y-54722809D02*
X193624876Y-54818047D01*
X193624876Y-54818047D02*
X193624876Y-55056142D01*
X193624876Y-55056142D02*
X193577257Y-55151380D01*
X193577257Y-55151380D02*
X193529638Y-55199000D01*
X193529638Y-55199000D02*
X193434400Y-55246619D01*
X193434400Y-55246619D02*
X193196305Y-55246619D01*
X193196305Y-55246619D02*
X193101067Y-55199000D01*
X193101067Y-55199000D02*
X193053448Y-55151380D01*
%TO.C,D1*%
X123071905Y-107842619D02*
X123071905Y-106842619D01*
X123071905Y-106842619D02*
X123310000Y-106842619D01*
X123310000Y-106842619D02*
X123452857Y-106890238D01*
X123452857Y-106890238D02*
X123548095Y-106985476D01*
X123548095Y-106985476D02*
X123595714Y-107080714D01*
X123595714Y-107080714D02*
X123643333Y-107271190D01*
X123643333Y-107271190D02*
X123643333Y-107414047D01*
X123643333Y-107414047D02*
X123595714Y-107604523D01*
X123595714Y-107604523D02*
X123548095Y-107699761D01*
X123548095Y-107699761D02*
X123452857Y-107795000D01*
X123452857Y-107795000D02*
X123310000Y-107842619D01*
X123310000Y-107842619D02*
X123071905Y-107842619D01*
X124595714Y-107842619D02*
X124024286Y-107842619D01*
X124310000Y-107842619D02*
X124310000Y-106842619D01*
X124310000Y-106842619D02*
X124214762Y-106985476D01*
X124214762Y-106985476D02*
X124119524Y-107080714D01*
X124119524Y-107080714D02*
X124024286Y-107128333D01*
%TO.C,D7*%
X161131905Y-155002619D02*
X161131905Y-154002619D01*
X161131905Y-154002619D02*
X161370000Y-154002619D01*
X161370000Y-154002619D02*
X161512857Y-154050238D01*
X161512857Y-154050238D02*
X161608095Y-154145476D01*
X161608095Y-154145476D02*
X161655714Y-154240714D01*
X161655714Y-154240714D02*
X161703333Y-154431190D01*
X161703333Y-154431190D02*
X161703333Y-154574047D01*
X161703333Y-154574047D02*
X161655714Y-154764523D01*
X161655714Y-154764523D02*
X161608095Y-154859761D01*
X161608095Y-154859761D02*
X161512857Y-154955000D01*
X161512857Y-154955000D02*
X161370000Y-155002619D01*
X161370000Y-155002619D02*
X161131905Y-155002619D01*
X162036667Y-154002619D02*
X162703333Y-154002619D01*
X162703333Y-154002619D02*
X162274762Y-155002619D01*
%TO.C,J2*%
X176188666Y-42016619D02*
X176188666Y-42730904D01*
X176188666Y-42730904D02*
X176141047Y-42873761D01*
X176141047Y-42873761D02*
X176045809Y-42969000D01*
X176045809Y-42969000D02*
X175902952Y-43016619D01*
X175902952Y-43016619D02*
X175807714Y-43016619D01*
X176617238Y-42111857D02*
X176664857Y-42064238D01*
X176664857Y-42064238D02*
X176760095Y-42016619D01*
X176760095Y-42016619D02*
X176998190Y-42016619D01*
X176998190Y-42016619D02*
X177093428Y-42064238D01*
X177093428Y-42064238D02*
X177141047Y-42111857D01*
X177141047Y-42111857D02*
X177188666Y-42207095D01*
X177188666Y-42207095D02*
X177188666Y-42302333D01*
X177188666Y-42302333D02*
X177141047Y-42445190D01*
X177141047Y-42445190D02*
X176569619Y-43016619D01*
X176569619Y-43016619D02*
X177188666Y-43016619D01*
%TO.C,D8*%
X180161905Y-155072619D02*
X180161905Y-154072619D01*
X180161905Y-154072619D02*
X180400000Y-154072619D01*
X180400000Y-154072619D02*
X180542857Y-154120238D01*
X180542857Y-154120238D02*
X180638095Y-154215476D01*
X180638095Y-154215476D02*
X180685714Y-154310714D01*
X180685714Y-154310714D02*
X180733333Y-154501190D01*
X180733333Y-154501190D02*
X180733333Y-154644047D01*
X180733333Y-154644047D02*
X180685714Y-154834523D01*
X180685714Y-154834523D02*
X180638095Y-154929761D01*
X180638095Y-154929761D02*
X180542857Y-155025000D01*
X180542857Y-155025000D02*
X180400000Y-155072619D01*
X180400000Y-155072619D02*
X180161905Y-155072619D01*
X181304762Y-154501190D02*
X181209524Y-154453571D01*
X181209524Y-154453571D02*
X181161905Y-154405952D01*
X181161905Y-154405952D02*
X181114286Y-154310714D01*
X181114286Y-154310714D02*
X181114286Y-154263095D01*
X181114286Y-154263095D02*
X181161905Y-154167857D01*
X181161905Y-154167857D02*
X181209524Y-154120238D01*
X181209524Y-154120238D02*
X181304762Y-154072619D01*
X181304762Y-154072619D02*
X181495238Y-154072619D01*
X181495238Y-154072619D02*
X181590476Y-154120238D01*
X181590476Y-154120238D02*
X181638095Y-154167857D01*
X181638095Y-154167857D02*
X181685714Y-154263095D01*
X181685714Y-154263095D02*
X181685714Y-154310714D01*
X181685714Y-154310714D02*
X181638095Y-154405952D01*
X181638095Y-154405952D02*
X181590476Y-154453571D01*
X181590476Y-154453571D02*
X181495238Y-154501190D01*
X181495238Y-154501190D02*
X181304762Y-154501190D01*
X181304762Y-154501190D02*
X181209524Y-154548809D01*
X181209524Y-154548809D02*
X181161905Y-154596428D01*
X181161905Y-154596428D02*
X181114286Y-154691666D01*
X181114286Y-154691666D02*
X181114286Y-154882142D01*
X181114286Y-154882142D02*
X181161905Y-154977380D01*
X181161905Y-154977380D02*
X181209524Y-155025000D01*
X181209524Y-155025000D02*
X181304762Y-155072619D01*
X181304762Y-155072619D02*
X181495238Y-155072619D01*
X181495238Y-155072619D02*
X181590476Y-155025000D01*
X181590476Y-155025000D02*
X181638095Y-154977380D01*
X181638095Y-154977380D02*
X181685714Y-154882142D01*
X181685714Y-154882142D02*
X181685714Y-154691666D01*
X181685714Y-154691666D02*
X181638095Y-154596428D01*
X181638095Y-154596428D02*
X181590476Y-154548809D01*
X181590476Y-154548809D02*
X181495238Y-154501190D01*
%TO.C,D3*%
X161161905Y-108022619D02*
X161161905Y-107022619D01*
X161161905Y-107022619D02*
X161400000Y-107022619D01*
X161400000Y-107022619D02*
X161542857Y-107070238D01*
X161542857Y-107070238D02*
X161638095Y-107165476D01*
X161638095Y-107165476D02*
X161685714Y-107260714D01*
X161685714Y-107260714D02*
X161733333Y-107451190D01*
X161733333Y-107451190D02*
X161733333Y-107594047D01*
X161733333Y-107594047D02*
X161685714Y-107784523D01*
X161685714Y-107784523D02*
X161638095Y-107879761D01*
X161638095Y-107879761D02*
X161542857Y-107975000D01*
X161542857Y-107975000D02*
X161400000Y-108022619D01*
X161400000Y-108022619D02*
X161161905Y-108022619D01*
X162066667Y-107022619D02*
X162685714Y-107022619D01*
X162685714Y-107022619D02*
X162352381Y-107403571D01*
X162352381Y-107403571D02*
X162495238Y-107403571D01*
X162495238Y-107403571D02*
X162590476Y-107451190D01*
X162590476Y-107451190D02*
X162638095Y-107498809D01*
X162638095Y-107498809D02*
X162685714Y-107594047D01*
X162685714Y-107594047D02*
X162685714Y-107832142D01*
X162685714Y-107832142D02*
X162638095Y-107927380D01*
X162638095Y-107927380D02*
X162590476Y-107975000D01*
X162590476Y-107975000D02*
X162495238Y-108022619D01*
X162495238Y-108022619D02*
X162209524Y-108022619D01*
X162209524Y-108022619D02*
X162114286Y-107975000D01*
X162114286Y-107975000D02*
X162066667Y-107927380D01*
%TO.C,J6*%
X192524876Y-42020619D02*
X192524876Y-42734904D01*
X192524876Y-42734904D02*
X192477257Y-42877761D01*
X192477257Y-42877761D02*
X192382019Y-42973000D01*
X192382019Y-42973000D02*
X192239162Y-43020619D01*
X192239162Y-43020619D02*
X192143924Y-43020619D01*
X193429638Y-42020619D02*
X193239162Y-42020619D01*
X193239162Y-42020619D02*
X193143924Y-42068238D01*
X193143924Y-42068238D02*
X193096305Y-42115857D01*
X193096305Y-42115857D02*
X193001067Y-42258714D01*
X193001067Y-42258714D02*
X192953448Y-42449190D01*
X192953448Y-42449190D02*
X192953448Y-42830142D01*
X192953448Y-42830142D02*
X193001067Y-42925380D01*
X193001067Y-42925380D02*
X193048686Y-42973000D01*
X193048686Y-42973000D02*
X193143924Y-43020619D01*
X193143924Y-43020619D02*
X193334400Y-43020619D01*
X193334400Y-43020619D02*
X193429638Y-42973000D01*
X193429638Y-42973000D02*
X193477257Y-42925380D01*
X193477257Y-42925380D02*
X193524876Y-42830142D01*
X193524876Y-42830142D02*
X193524876Y-42592047D01*
X193524876Y-42592047D02*
X193477257Y-42496809D01*
X193477257Y-42496809D02*
X193429638Y-42449190D01*
X193429638Y-42449190D02*
X193334400Y-42401571D01*
X193334400Y-42401571D02*
X193143924Y-42401571D01*
X193143924Y-42401571D02*
X193048686Y-42449190D01*
X193048686Y-42449190D02*
X193001067Y-42496809D01*
X193001067Y-42496809D02*
X192953448Y-42592047D01*
%TO.C,D5*%
X123001905Y-155112619D02*
X123001905Y-154112619D01*
X123001905Y-154112619D02*
X123240000Y-154112619D01*
X123240000Y-154112619D02*
X123382857Y-154160238D01*
X123382857Y-154160238D02*
X123478095Y-154255476D01*
X123478095Y-154255476D02*
X123525714Y-154350714D01*
X123525714Y-154350714D02*
X123573333Y-154541190D01*
X123573333Y-154541190D02*
X123573333Y-154684047D01*
X123573333Y-154684047D02*
X123525714Y-154874523D01*
X123525714Y-154874523D02*
X123478095Y-154969761D01*
X123478095Y-154969761D02*
X123382857Y-155065000D01*
X123382857Y-155065000D02*
X123240000Y-155112619D01*
X123240000Y-155112619D02*
X123001905Y-155112619D01*
X124478095Y-154112619D02*
X124001905Y-154112619D01*
X124001905Y-154112619D02*
X123954286Y-154588809D01*
X123954286Y-154588809D02*
X124001905Y-154541190D01*
X124001905Y-154541190D02*
X124097143Y-154493571D01*
X124097143Y-154493571D02*
X124335238Y-154493571D01*
X124335238Y-154493571D02*
X124430476Y-154541190D01*
X124430476Y-154541190D02*
X124478095Y-154588809D01*
X124478095Y-154588809D02*
X124525714Y-154684047D01*
X124525714Y-154684047D02*
X124525714Y-154922142D01*
X124525714Y-154922142D02*
X124478095Y-155017380D01*
X124478095Y-155017380D02*
X124430476Y-155065000D01*
X124430476Y-155065000D02*
X124335238Y-155112619D01*
X124335238Y-155112619D02*
X124097143Y-155112619D01*
X124097143Y-155112619D02*
X124001905Y-155065000D01*
X124001905Y-155065000D02*
X123954286Y-155017380D01*
%TO.C,SW9*%
X162202667Y-49063000D02*
X162345524Y-49110619D01*
X162345524Y-49110619D02*
X162583619Y-49110619D01*
X162583619Y-49110619D02*
X162678857Y-49063000D01*
X162678857Y-49063000D02*
X162726476Y-49015380D01*
X162726476Y-49015380D02*
X162774095Y-48920142D01*
X162774095Y-48920142D02*
X162774095Y-48824904D01*
X162774095Y-48824904D02*
X162726476Y-48729666D01*
X162726476Y-48729666D02*
X162678857Y-48682047D01*
X162678857Y-48682047D02*
X162583619Y-48634428D01*
X162583619Y-48634428D02*
X162393143Y-48586809D01*
X162393143Y-48586809D02*
X162297905Y-48539190D01*
X162297905Y-48539190D02*
X162250286Y-48491571D01*
X162250286Y-48491571D02*
X162202667Y-48396333D01*
X162202667Y-48396333D02*
X162202667Y-48301095D01*
X162202667Y-48301095D02*
X162250286Y-48205857D01*
X162250286Y-48205857D02*
X162297905Y-48158238D01*
X162297905Y-48158238D02*
X162393143Y-48110619D01*
X162393143Y-48110619D02*
X162631238Y-48110619D01*
X162631238Y-48110619D02*
X162774095Y-48158238D01*
X163107429Y-48110619D02*
X163345524Y-49110619D01*
X163345524Y-49110619D02*
X163536000Y-48396333D01*
X163536000Y-48396333D02*
X163726476Y-49110619D01*
X163726476Y-49110619D02*
X163964572Y-48110619D01*
X164393143Y-49110619D02*
X164583619Y-49110619D01*
X164583619Y-49110619D02*
X164678857Y-49063000D01*
X164678857Y-49063000D02*
X164726476Y-49015380D01*
X164726476Y-49015380D02*
X164821714Y-48872523D01*
X164821714Y-48872523D02*
X164869333Y-48682047D01*
X164869333Y-48682047D02*
X164869333Y-48301095D01*
X164869333Y-48301095D02*
X164821714Y-48205857D01*
X164821714Y-48205857D02*
X164774095Y-48158238D01*
X164774095Y-48158238D02*
X164678857Y-48110619D01*
X164678857Y-48110619D02*
X164488381Y-48110619D01*
X164488381Y-48110619D02*
X164393143Y-48158238D01*
X164393143Y-48158238D02*
X164345524Y-48205857D01*
X164345524Y-48205857D02*
X164297905Y-48301095D01*
X164297905Y-48301095D02*
X164297905Y-48539190D01*
X164297905Y-48539190D02*
X164345524Y-48634428D01*
X164345524Y-48634428D02*
X164393143Y-48682047D01*
X164393143Y-48682047D02*
X164488381Y-48729666D01*
X164488381Y-48729666D02*
X164678857Y-48729666D01*
X164678857Y-48729666D02*
X164774095Y-48682047D01*
X164774095Y-48682047D02*
X164821714Y-48634428D01*
X164821714Y-48634428D02*
X164869333Y-48539190D01*
%TO.C,D4*%
X180301905Y-107912619D02*
X180301905Y-106912619D01*
X180301905Y-106912619D02*
X180540000Y-106912619D01*
X180540000Y-106912619D02*
X180682857Y-106960238D01*
X180682857Y-106960238D02*
X180778095Y-107055476D01*
X180778095Y-107055476D02*
X180825714Y-107150714D01*
X180825714Y-107150714D02*
X180873333Y-107341190D01*
X180873333Y-107341190D02*
X180873333Y-107484047D01*
X180873333Y-107484047D02*
X180825714Y-107674523D01*
X180825714Y-107674523D02*
X180778095Y-107769761D01*
X180778095Y-107769761D02*
X180682857Y-107865000D01*
X180682857Y-107865000D02*
X180540000Y-107912619D01*
X180540000Y-107912619D02*
X180301905Y-107912619D01*
X181730476Y-107245952D02*
X181730476Y-107912619D01*
X181492381Y-106865000D02*
X181254286Y-107579285D01*
X181254286Y-107579285D02*
X181873333Y-107579285D01*
%TO.C,D2*%
X142101905Y-107952619D02*
X142101905Y-106952619D01*
X142101905Y-106952619D02*
X142340000Y-106952619D01*
X142340000Y-106952619D02*
X142482857Y-107000238D01*
X142482857Y-107000238D02*
X142578095Y-107095476D01*
X142578095Y-107095476D02*
X142625714Y-107190714D01*
X142625714Y-107190714D02*
X142673333Y-107381190D01*
X142673333Y-107381190D02*
X142673333Y-107524047D01*
X142673333Y-107524047D02*
X142625714Y-107714523D01*
X142625714Y-107714523D02*
X142578095Y-107809761D01*
X142578095Y-107809761D02*
X142482857Y-107905000D01*
X142482857Y-107905000D02*
X142340000Y-107952619D01*
X142340000Y-107952619D02*
X142101905Y-107952619D01*
X143054286Y-107047857D02*
X143101905Y-107000238D01*
X143101905Y-107000238D02*
X143197143Y-106952619D01*
X143197143Y-106952619D02*
X143435238Y-106952619D01*
X143435238Y-106952619D02*
X143530476Y-107000238D01*
X143530476Y-107000238D02*
X143578095Y-107047857D01*
X143578095Y-107047857D02*
X143625714Y-107143095D01*
X143625714Y-107143095D02*
X143625714Y-107238333D01*
X143625714Y-107238333D02*
X143578095Y-107381190D01*
X143578095Y-107381190D02*
X143006667Y-107952619D01*
X143006667Y-107952619D02*
X143625714Y-107952619D01*
D12*
%TO.C,J4*%
X114830000Y-51620000D02*
X117830000Y-51620000D01*
X114850000Y-40370000D02*
X152850000Y-40370000D01*
X114850000Y-48910000D02*
X117850000Y-48910000D01*
X114850000Y-52370000D02*
X114850000Y-40370000D01*
X117850000Y-40370000D02*
X117850000Y-52370000D01*
X152850000Y-40370000D02*
X152850000Y-52370000D01*
X152850000Y-52370000D02*
X114850000Y-52370000D01*
D13*
%TO.C,J3*%
X175320000Y-53880000D02*
X175320000Y-61980000D01*
X175320000Y-61980000D02*
X187620000Y-61980000D01*
X187620000Y-53880000D02*
X175320000Y-53880000D01*
X187620000Y-61980000D02*
X187620000Y-53880000D01*
D10*
X174761419Y-57980000D02*
G75*
G03*
X174761419Y-57980000I-141419J0D01*
G01*
D11*
%TO.C,SW8*%
X173848000Y-131915000D02*
X175848000Y-131915000D01*
X173848000Y-133915000D02*
X173848000Y-131915000D01*
X173848000Y-145915000D02*
X173848000Y-143915000D01*
X175858000Y-145915000D02*
X173848000Y-145915000D01*
X185838000Y-131915000D02*
X187848000Y-131915000D01*
X187848000Y-131915000D02*
X187848000Y-133915000D01*
X187848000Y-143905000D02*
X187848000Y-145915000D01*
X187848000Y-145915000D02*
X185838000Y-145915000D01*
D12*
%TO.C,D6*%
X139098000Y-150020000D02*
X146398000Y-150020000D01*
X139098000Y-155520000D02*
X146398000Y-155520000D01*
X146398000Y-155520000D02*
X146398000Y-154370000D01*
D11*
%TO.C,REF\u002A\u002A*%
X190600000Y-85300000D02*
X190600000Y-76290000D01*
X205600000Y-76290000D02*
X205600000Y-85300000D01*
X190600000Y-85300000D02*
G75*
G03*
X205600000Y-85300000I7500000J0D01*
G01*
X205600000Y-76290000D02*
G75*
G03*
X190600000Y-76290000I-7500000J0D01*
G01*
D13*
%TO.C,J5*%
X191768210Y-53890000D02*
X191768210Y-61990000D01*
X191768210Y-61990000D02*
X204068210Y-61990000D01*
X204068210Y-53890000D02*
X191768210Y-53890000D01*
X204068210Y-61990000D02*
X204068210Y-53890000D01*
D10*
X191209629Y-57990000D02*
G75*
G03*
X191209629Y-57990000I-141419J0D01*
G01*
D11*
%TO.C,SW2*%
X135748000Y-112865000D02*
X137748000Y-112865000D01*
X135748000Y-114865000D02*
X135748000Y-112865000D01*
X135748000Y-126865000D02*
X135748000Y-124865000D01*
X137758000Y-126865000D02*
X135748000Y-126865000D01*
X147738000Y-112865000D02*
X149748000Y-112865000D01*
X149748000Y-112865000D02*
X149748000Y-114865000D01*
X149748000Y-124855000D02*
X149748000Y-126865000D01*
X149748000Y-126865000D02*
X147738000Y-126865000D01*
%TO.C,SW7*%
X154798000Y-131915000D02*
X156798000Y-131915000D01*
X154798000Y-133915000D02*
X154798000Y-131915000D01*
X154798000Y-145915000D02*
X154798000Y-143915000D01*
X156808000Y-145915000D02*
X154798000Y-145915000D01*
X166788000Y-131915000D02*
X168798000Y-131915000D01*
X168798000Y-131915000D02*
X168798000Y-133915000D01*
X168798000Y-143905000D02*
X168798000Y-145915000D01*
X168798000Y-145915000D02*
X166788000Y-145915000D01*
D12*
%TO.C,D1*%
X120048000Y-102788000D02*
X127348000Y-102788000D01*
X120048000Y-108288000D02*
X127348000Y-108288000D01*
X127348000Y-108288000D02*
X127348000Y-107138000D01*
%TO.C,D7*%
X158148000Y-150020000D02*
X165448000Y-150020000D01*
X158148000Y-155520000D02*
X165448000Y-155520000D01*
X165448000Y-155520000D02*
X165448000Y-154370000D01*
D13*
%TO.C,J2*%
X175330000Y-41650000D02*
X175330000Y-49750000D01*
X175330000Y-49750000D02*
X187630000Y-49750000D01*
X187630000Y-41650000D02*
X175330000Y-41650000D01*
X187630000Y-49750000D02*
X187630000Y-41650000D01*
D10*
X174771419Y-45750000D02*
G75*
G03*
X174771419Y-45750000I-141419J0D01*
G01*
D12*
%TO.C,D8*%
X177198000Y-150020000D02*
X184498000Y-150020000D01*
X177198000Y-155520000D02*
X184498000Y-155520000D01*
X184498000Y-155520000D02*
X184498000Y-154370000D01*
D11*
%TO.C,SW3*%
X154798000Y-112865000D02*
X156798000Y-112865000D01*
X154798000Y-114865000D02*
X154798000Y-112865000D01*
X154798000Y-126865000D02*
X154798000Y-124865000D01*
X156808000Y-126865000D02*
X154798000Y-126865000D01*
X166788000Y-112865000D02*
X168798000Y-112865000D01*
X168798000Y-112865000D02*
X168798000Y-114865000D01*
X168798000Y-124855000D02*
X168798000Y-126865000D01*
X168798000Y-126865000D02*
X166788000Y-126865000D01*
%TO.C,SW5*%
X116698000Y-131915000D02*
X118698000Y-131915000D01*
X116698000Y-133915000D02*
X116698000Y-131915000D01*
X116698000Y-145915000D02*
X116698000Y-143915000D01*
X118708000Y-145915000D02*
X116698000Y-145915000D01*
X128688000Y-131915000D02*
X130698000Y-131915000D01*
X130698000Y-131915000D02*
X130698000Y-133915000D01*
X130698000Y-143905000D02*
X130698000Y-145915000D01*
X130698000Y-145915000D02*
X128688000Y-145915000D01*
%TO.C,SW4*%
X173848000Y-112865000D02*
X175848000Y-112865000D01*
X173848000Y-114865000D02*
X173848000Y-112865000D01*
X173848000Y-126865000D02*
X173848000Y-124865000D01*
X175858000Y-126865000D02*
X173848000Y-126865000D01*
X185838000Y-112865000D02*
X187848000Y-112865000D01*
X187848000Y-112865000D02*
X187848000Y-114865000D01*
X187848000Y-124855000D02*
X187848000Y-126865000D01*
X187848000Y-126865000D02*
X185838000Y-126865000D01*
%TO.C,SW6*%
X135748000Y-131915000D02*
X137748000Y-131915000D01*
X135748000Y-133915000D02*
X135748000Y-131915000D01*
X135748000Y-145915000D02*
X135748000Y-143915000D01*
X137758000Y-145915000D02*
X135748000Y-145915000D01*
X147738000Y-131915000D02*
X149748000Y-131915000D01*
X149748000Y-131915000D02*
X149748000Y-133915000D01*
X149748000Y-143905000D02*
X149748000Y-145915000D01*
X149748000Y-145915000D02*
X147738000Y-145915000D01*
D12*
%TO.C,D3*%
X158148000Y-102788000D02*
X165448000Y-102788000D01*
X158148000Y-108288000D02*
X165448000Y-108288000D01*
X165448000Y-108288000D02*
X165448000Y-107138000D01*
D13*
%TO.C,J6*%
X191778210Y-41660000D02*
X191778210Y-49760000D01*
X191778210Y-49760000D02*
X204078210Y-49760000D01*
X204078210Y-41660000D02*
X191778210Y-41660000D01*
X204078210Y-49760000D02*
X204078210Y-41660000D01*
D10*
X191219629Y-45760000D02*
G75*
G03*
X191219629Y-45760000I-141419J0D01*
G01*
D12*
%TO.C,D5*%
X120048000Y-150020000D02*
X127348000Y-150020000D01*
X120048000Y-155520000D02*
X127348000Y-155520000D01*
X127348000Y-155520000D02*
X127348000Y-154370000D01*
D11*
%TO.C,SW1*%
X116698000Y-112865000D02*
X118698000Y-112865000D01*
X116698000Y-114865000D02*
X116698000Y-112865000D01*
X116698000Y-126865000D02*
X116698000Y-124865000D01*
X118708000Y-126865000D02*
X116698000Y-126865000D01*
X128688000Y-112865000D02*
X130698000Y-112865000D01*
X130698000Y-112865000D02*
X130698000Y-114865000D01*
X130698000Y-124855000D02*
X130698000Y-126865000D01*
X130698000Y-126865000D02*
X128688000Y-126865000D01*
D12*
%TO.C,D4*%
X177198000Y-102788000D02*
X184498000Y-102788000D01*
X177198000Y-108288000D02*
X184498000Y-108288000D01*
X184498000Y-108288000D02*
X184498000Y-107138000D01*
%TO.C,D2*%
X139098000Y-102788000D02*
X146398000Y-102788000D01*
X139098000Y-108288000D02*
X146398000Y-108288000D01*
X146398000Y-108288000D02*
X146398000Y-107138000D01*
%TD*%
%LPC*%
D14*
%TO.C,J4*%
X116350000Y-50180000D03*
X116350000Y-47640000D03*
X116350000Y-45100000D03*
X116350000Y-42560000D03*
%TD*%
D15*
%TO.C,J3*%
X178220000Y-60480000D03*
X184900000Y-60480000D03*
D16*
X177160000Y-57930000D03*
X186060000Y-57930000D03*
X179310000Y-56430000D03*
X183760000Y-56430000D03*
%TD*%
D17*
%TO.C,U1*%
X98480000Y-72985000D03*
D18*
X101510000Y-73285000D03*
X101510000Y-78135000D03*
D17*
X98480000Y-78435000D03*
D19*
X98350000Y-66820000D03*
X100890000Y-66820000D03*
D20*
X103430000Y-66820000D03*
D19*
X105970000Y-66820000D03*
X108510000Y-66820000D03*
X111050000Y-66820000D03*
X113590000Y-66820000D03*
D20*
X116130000Y-66820000D03*
D19*
X118670000Y-66820000D03*
X121210000Y-66820000D03*
X123750000Y-66820000D03*
X126290000Y-66820000D03*
D20*
X128830000Y-66820000D03*
D19*
X131370000Y-66820000D03*
X133910000Y-66820000D03*
X136450000Y-66820000D03*
X138990000Y-66820000D03*
D20*
X141530000Y-66820000D03*
D19*
X144070000Y-66820000D03*
X146610000Y-66820000D03*
X146610000Y-84600000D03*
X144070000Y-84600000D03*
D20*
X141530000Y-84600000D03*
D19*
X138990000Y-84600000D03*
X136450000Y-84600000D03*
X133910000Y-84600000D03*
X131370000Y-84600000D03*
D20*
X128830000Y-84600000D03*
D19*
X126290000Y-84600000D03*
X123750000Y-84600000D03*
X121210000Y-84600000D03*
X118670000Y-84600000D03*
D20*
X116130000Y-84600000D03*
D19*
X113590000Y-84600000D03*
X111050000Y-84600000D03*
X108510000Y-84600000D03*
X105970000Y-84600000D03*
D20*
X103430000Y-84600000D03*
D19*
X100890000Y-84600000D03*
X98350000Y-84600000D03*
X146380000Y-73170000D03*
D20*
X146380000Y-75710000D03*
D19*
X146380000Y-78250000D03*
%TD*%
D21*
%TO.C,SW8*%
X175568000Y-138915000D03*
D22*
X175628000Y-143115000D03*
D23*
X180848000Y-138915000D03*
D21*
X186128000Y-138915000D03*
D24*
X183358000Y-134165000D03*
D25*
X185848000Y-135115000D03*
D26*
X177692995Y-135644996D03*
D16*
X178348000Y-134915000D03*
D25*
X180848000Y-133015000D03*
%TD*%
D27*
%TO.C,D6*%
X140298000Y-151120000D03*
X140298000Y-154420000D03*
X145198000Y-154420000D03*
X145198000Y-151120000D03*
%TD*%
D28*
%TO.C,REF\u002A\u002A*%
X195130000Y-85956152D03*
X201130000Y-85956152D03*
X198130000Y-84760000D03*
X196130000Y-84224102D03*
X200130000Y-84224102D03*
X192933848Y-83760000D03*
X203326152Y-83760000D03*
X194665898Y-82760000D03*
X201594102Y-82760000D03*
X197130000Y-82492051D03*
X199130000Y-82492051D03*
X194130000Y-80760000D03*
X196130000Y-80760000D03*
X198130000Y-80760000D03*
X200130000Y-80760000D03*
X202130000Y-80760000D03*
X197130000Y-79027949D03*
X199130000Y-79027949D03*
X194665898Y-78760000D03*
X201594102Y-78760000D03*
X192933848Y-77760000D03*
X203326152Y-77760000D03*
X196130000Y-77295898D03*
X200130000Y-77295898D03*
X198130000Y-76760000D03*
X195130000Y-75563848D03*
X201130000Y-75563848D03*
%TD*%
D15*
%TO.C,J5*%
X194668210Y-60490000D03*
X201348210Y-60490000D03*
D16*
X193608210Y-57940000D03*
X202508210Y-57940000D03*
X195758210Y-56440000D03*
X200208210Y-56440000D03*
%TD*%
D21*
%TO.C,SW2*%
X137468000Y-119865000D03*
D22*
X137528000Y-124065000D03*
D23*
X142748000Y-119865000D03*
D21*
X148028000Y-119865000D03*
D24*
X145258000Y-115115000D03*
D25*
X147748000Y-116065000D03*
D26*
X139592995Y-116594996D03*
D16*
X140248000Y-115865000D03*
D25*
X142748000Y-113965000D03*
%TD*%
D21*
%TO.C,SW7*%
X156518000Y-138915000D03*
D22*
X156578000Y-143115000D03*
D23*
X161798000Y-138915000D03*
D21*
X167078000Y-138915000D03*
D24*
X164308000Y-134165000D03*
D25*
X166798000Y-135115000D03*
D26*
X158642995Y-135644996D03*
D16*
X159298000Y-134915000D03*
D25*
X161798000Y-133015000D03*
%TD*%
D27*
%TO.C,D1*%
X121248000Y-103888000D03*
X121248000Y-107188000D03*
X126148000Y-107188000D03*
X126148000Y-103888000D03*
%TD*%
%TO.C,D7*%
X159348000Y-151120000D03*
X159348000Y-154420000D03*
X164248000Y-154420000D03*
X164248000Y-151120000D03*
%TD*%
D15*
%TO.C,J2*%
X178230000Y-48250000D03*
X184910000Y-48250000D03*
D16*
X177170000Y-45700000D03*
X186070000Y-45700000D03*
X179320000Y-44200000D03*
X183770000Y-44200000D03*
%TD*%
D27*
%TO.C,D8*%
X178398000Y-151120000D03*
X178398000Y-154420000D03*
X183298000Y-154420000D03*
X183298000Y-151120000D03*
%TD*%
D21*
%TO.C,SW3*%
X156518000Y-119865000D03*
D22*
X156578000Y-124065000D03*
D23*
X161798000Y-119865000D03*
D21*
X167078000Y-119865000D03*
D24*
X164308000Y-115115000D03*
D25*
X166798000Y-116065000D03*
D26*
X158642995Y-116594996D03*
D16*
X159298000Y-115865000D03*
D25*
X161798000Y-113965000D03*
%TD*%
D21*
%TO.C,SW5*%
X118418000Y-138915000D03*
D22*
X118478000Y-143115000D03*
D23*
X123698000Y-138915000D03*
D21*
X128978000Y-138915000D03*
D24*
X126208000Y-134165000D03*
D25*
X128698000Y-135115000D03*
D26*
X120542995Y-135644996D03*
D16*
X121198000Y-134915000D03*
D25*
X123698000Y-133015000D03*
%TD*%
D22*
%TO.C,J1*%
X101020000Y-55060000D03*
X101020000Y-47080000D03*
%TD*%
D21*
%TO.C,SW4*%
X175568000Y-119865000D03*
D22*
X175628000Y-124065000D03*
D23*
X180848000Y-119865000D03*
D21*
X186128000Y-119865000D03*
D24*
X183358000Y-115115000D03*
D25*
X185848000Y-116065000D03*
D26*
X177692995Y-116594996D03*
D16*
X178348000Y-115865000D03*
D25*
X180848000Y-113965000D03*
%TD*%
D21*
%TO.C,SW6*%
X137468000Y-138915000D03*
D22*
X137528000Y-143115000D03*
D23*
X142748000Y-138915000D03*
D21*
X148028000Y-138915000D03*
D24*
X145258000Y-134165000D03*
D25*
X147748000Y-135115000D03*
D26*
X139592995Y-135644996D03*
D16*
X140248000Y-134915000D03*
D25*
X142748000Y-133015000D03*
%TD*%
D27*
%TO.C,D3*%
X159348000Y-103888000D03*
X159348000Y-107188000D03*
X164248000Y-107188000D03*
X164248000Y-103888000D03*
%TD*%
D15*
%TO.C,J6*%
X194678210Y-48260000D03*
X201358210Y-48260000D03*
D16*
X193618210Y-45710000D03*
X202518210Y-45710000D03*
X195768210Y-44210000D03*
X200218210Y-44210000D03*
%TD*%
D27*
%TO.C,D5*%
X121248000Y-151120000D03*
X121248000Y-154420000D03*
X126148000Y-154420000D03*
X126148000Y-151120000D03*
%TD*%
D21*
%TO.C,SW1*%
X118418000Y-119865000D03*
D22*
X118478000Y-124065000D03*
D23*
X123698000Y-119865000D03*
D21*
X128978000Y-119865000D03*
D24*
X126208000Y-115115000D03*
D25*
X128698000Y-116065000D03*
D26*
X120542995Y-116594996D03*
D16*
X121198000Y-115865000D03*
D25*
X123698000Y-113965000D03*
%TD*%
D29*
%TO.C,SW9*%
X157936000Y-48148000D03*
X169136000Y-48148000D03*
D30*
X161036000Y-55648000D03*
X166036000Y-55648000D03*
X163536000Y-55648000D03*
X161036000Y-41148000D03*
X166036000Y-41148000D03*
%TD*%
D27*
%TO.C,D4*%
X178398000Y-103888000D03*
X178398000Y-107188000D03*
X183298000Y-107188000D03*
X183298000Y-103888000D03*
%TD*%
%TO.C,D2*%
X140298000Y-103888000D03*
X140298000Y-107188000D03*
X145198000Y-107188000D03*
X145198000Y-103888000D03*
%TD*%
%LPD*%
M02*
