%TF.GenerationSoftware,KiCad,Pcbnew,7.0.2*%
%TF.CreationDate,2023-06-20T02:09:05-06:00*%
%TF.ProjectId,dc31,64633331-2e6b-4696-9361-645f70636258,rev?*%
%TF.SameCoordinates,Original*%
%TF.FileFunction,Soldermask,Top*%
%TF.FilePolarity,Negative*%
%FSLAX46Y46*%
G04 Gerber Fmt 4.6, Leading zero omitted, Abs format (unit mm)*
G04 Created by KiCad (PCBNEW 7.0.2) date 2023-06-20 02:09:05*
%MOMM*%
%LPD*%
G01*
G04 APERTURE LIST*
G04 Aperture macros list*
%AMHorizOval*
0 Thick line with rounded ends*
0 $1 width*
0 $2 $3 position (X,Y) of the first rounded end (center of the circle)*
0 $4 $5 position (X,Y) of the second rounded end (center of the circle)*
0 Add line between two ends*
20,1,$1,$2,$3,$4,$5,0*
0 Add two circle primitives to create the rounded ends*
1,1,$1,$2,$3*
1,1,$1,$4,$5*%
G04 Aperture macros list end*
%ADD10O,2.000000X1.200000*%
%ADD11C,1.600000*%
%ADD12C,2.250000*%
%ADD13O,1.800000X1.800000*%
%ADD14O,1.500000X1.500000*%
%ADD15O,1.700000X1.700000*%
%ADD16R,1.700000X1.700000*%
%ADD17O,2.150000X1.750000*%
%ADD18C,1.200000*%
%ADD19C,3.987800*%
%ADD20HorizOval,2.250000X0.025506X0.374132X-0.025506X-0.374132X0*%
%ADD21C,2.000000*%
%ADD22HorizOval,2.250000X0.654995X0.730004X-0.654995X-0.730004X0*%
%ADD23R,1.500000X0.900000*%
%ADD24C,1.500000*%
%ADD25O,3.200000X3.500000*%
%ADD26C,1.800000*%
G04 APERTURE END LIST*
D10*
%TO.C,J4*%
X116350000Y-50180000D03*
X116350000Y-47640000D03*
X116350000Y-45100000D03*
X116350000Y-42560000D03*
%TD*%
D11*
%TO.C,J3*%
X178220000Y-60480000D03*
X184900000Y-60480000D03*
D12*
X177160000Y-57930000D03*
X186060000Y-57930000D03*
X179310000Y-56430000D03*
X183760000Y-56430000D03*
%TD*%
D13*
%TO.C,U1*%
X98480000Y-72985000D03*
D14*
X101510000Y-73285000D03*
X101510000Y-78135000D03*
D13*
X98480000Y-78435000D03*
D15*
X98350000Y-66820000D03*
X100890000Y-66820000D03*
D16*
X103430000Y-66820000D03*
D15*
X105970000Y-66820000D03*
X108510000Y-66820000D03*
X111050000Y-66820000D03*
X113590000Y-66820000D03*
D16*
X116130000Y-66820000D03*
D15*
X118670000Y-66820000D03*
X121210000Y-66820000D03*
X123750000Y-66820000D03*
X126290000Y-66820000D03*
D16*
X128830000Y-66820000D03*
D15*
X131370000Y-66820000D03*
X133910000Y-66820000D03*
X136450000Y-66820000D03*
X138990000Y-66820000D03*
D16*
X141530000Y-66820000D03*
D15*
X144070000Y-66820000D03*
X146610000Y-66820000D03*
X146610000Y-84600000D03*
X144070000Y-84600000D03*
D16*
X141530000Y-84600000D03*
D15*
X138990000Y-84600000D03*
X136450000Y-84600000D03*
X133910000Y-84600000D03*
X131370000Y-84600000D03*
D16*
X128830000Y-84600000D03*
D15*
X126290000Y-84600000D03*
X123750000Y-84600000D03*
X121210000Y-84600000D03*
X118670000Y-84600000D03*
D16*
X116130000Y-84600000D03*
D15*
X113590000Y-84600000D03*
X111050000Y-84600000D03*
X108510000Y-84600000D03*
X105970000Y-84600000D03*
D16*
X103430000Y-84600000D03*
D15*
X100890000Y-84600000D03*
X98350000Y-84600000D03*
X146380000Y-73170000D03*
D16*
X146380000Y-75710000D03*
D15*
X146380000Y-78250000D03*
%TD*%
D17*
%TO.C,SW8*%
X175568000Y-138915000D03*
D18*
X175628000Y-143115000D03*
D19*
X180848000Y-138915000D03*
D17*
X186128000Y-138915000D03*
D20*
X183358000Y-134165000D03*
D21*
X185848000Y-135115000D03*
D22*
X177692995Y-135644996D03*
D12*
X178348000Y-134915000D03*
D21*
X180848000Y-133015000D03*
%TD*%
D23*
%TO.C,D6*%
X140298000Y-151120000D03*
X140298000Y-154420000D03*
X145198000Y-154420000D03*
X145198000Y-151120000D03*
%TD*%
D24*
%TO.C,REF\u002A\u002A*%
X195130000Y-85956152D03*
X201130000Y-85956152D03*
X198130000Y-84760000D03*
X196130000Y-84224102D03*
X200130000Y-84224102D03*
X192933848Y-83760000D03*
X203326152Y-83760000D03*
X194665898Y-82760000D03*
X201594102Y-82760000D03*
X197130000Y-82492051D03*
X199130000Y-82492051D03*
X194130000Y-80760000D03*
X196130000Y-80760000D03*
X198130000Y-80760000D03*
X200130000Y-80760000D03*
X202130000Y-80760000D03*
X197130000Y-79027949D03*
X199130000Y-79027949D03*
X194665898Y-78760000D03*
X201594102Y-78760000D03*
X192933848Y-77760000D03*
X203326152Y-77760000D03*
X196130000Y-77295898D03*
X200130000Y-77295898D03*
X198130000Y-76760000D03*
X195130000Y-75563848D03*
X201130000Y-75563848D03*
%TD*%
D11*
%TO.C,J5*%
X194668210Y-60490000D03*
X201348210Y-60490000D03*
D12*
X193608210Y-57940000D03*
X202508210Y-57940000D03*
X195758210Y-56440000D03*
X200208210Y-56440000D03*
%TD*%
D17*
%TO.C,SW2*%
X137468000Y-119865000D03*
D18*
X137528000Y-124065000D03*
D19*
X142748000Y-119865000D03*
D17*
X148028000Y-119865000D03*
D20*
X145258000Y-115115000D03*
D21*
X147748000Y-116065000D03*
D22*
X139592995Y-116594996D03*
D12*
X140248000Y-115865000D03*
D21*
X142748000Y-113965000D03*
%TD*%
D17*
%TO.C,SW7*%
X156518000Y-138915000D03*
D18*
X156578000Y-143115000D03*
D19*
X161798000Y-138915000D03*
D17*
X167078000Y-138915000D03*
D20*
X164308000Y-134165000D03*
D21*
X166798000Y-135115000D03*
D22*
X158642995Y-135644996D03*
D12*
X159298000Y-134915000D03*
D21*
X161798000Y-133015000D03*
%TD*%
D23*
%TO.C,D1*%
X121248000Y-103888000D03*
X121248000Y-107188000D03*
X126148000Y-107188000D03*
X126148000Y-103888000D03*
%TD*%
%TO.C,D7*%
X159348000Y-151120000D03*
X159348000Y-154420000D03*
X164248000Y-154420000D03*
X164248000Y-151120000D03*
%TD*%
D11*
%TO.C,J2*%
X178230000Y-48250000D03*
X184910000Y-48250000D03*
D12*
X177170000Y-45700000D03*
X186070000Y-45700000D03*
X179320000Y-44200000D03*
X183770000Y-44200000D03*
%TD*%
D23*
%TO.C,D8*%
X178398000Y-151120000D03*
X178398000Y-154420000D03*
X183298000Y-154420000D03*
X183298000Y-151120000D03*
%TD*%
D17*
%TO.C,SW3*%
X156518000Y-119865000D03*
D18*
X156578000Y-124065000D03*
D19*
X161798000Y-119865000D03*
D17*
X167078000Y-119865000D03*
D20*
X164308000Y-115115000D03*
D21*
X166798000Y-116065000D03*
D22*
X158642995Y-116594996D03*
D12*
X159298000Y-115865000D03*
D21*
X161798000Y-113965000D03*
%TD*%
D17*
%TO.C,SW5*%
X118418000Y-138915000D03*
D18*
X118478000Y-143115000D03*
D19*
X123698000Y-138915000D03*
D17*
X128978000Y-138915000D03*
D20*
X126208000Y-134165000D03*
D21*
X128698000Y-135115000D03*
D22*
X120542995Y-135644996D03*
D12*
X121198000Y-134915000D03*
D21*
X123698000Y-133015000D03*
%TD*%
D18*
%TO.C,J1*%
X101020000Y-55060000D03*
X101020000Y-47080000D03*
%TD*%
D17*
%TO.C,SW4*%
X175568000Y-119865000D03*
D18*
X175628000Y-124065000D03*
D19*
X180848000Y-119865000D03*
D17*
X186128000Y-119865000D03*
D20*
X183358000Y-115115000D03*
D21*
X185848000Y-116065000D03*
D22*
X177692995Y-116594996D03*
D12*
X178348000Y-115865000D03*
D21*
X180848000Y-113965000D03*
%TD*%
D17*
%TO.C,SW6*%
X137468000Y-138915000D03*
D18*
X137528000Y-143115000D03*
D19*
X142748000Y-138915000D03*
D17*
X148028000Y-138915000D03*
D20*
X145258000Y-134165000D03*
D21*
X147748000Y-135115000D03*
D22*
X139592995Y-135644996D03*
D12*
X140248000Y-134915000D03*
D21*
X142748000Y-133015000D03*
%TD*%
D23*
%TO.C,D3*%
X159348000Y-103888000D03*
X159348000Y-107188000D03*
X164248000Y-107188000D03*
X164248000Y-103888000D03*
%TD*%
D11*
%TO.C,J6*%
X194678210Y-48260000D03*
X201358210Y-48260000D03*
D12*
X193618210Y-45710000D03*
X202518210Y-45710000D03*
X195768210Y-44210000D03*
X200218210Y-44210000D03*
%TD*%
D23*
%TO.C,D5*%
X121248000Y-151120000D03*
X121248000Y-154420000D03*
X126148000Y-154420000D03*
X126148000Y-151120000D03*
%TD*%
D17*
%TO.C,SW1*%
X118418000Y-119865000D03*
D18*
X118478000Y-124065000D03*
D19*
X123698000Y-119865000D03*
D17*
X128978000Y-119865000D03*
D20*
X126208000Y-115115000D03*
D21*
X128698000Y-116065000D03*
D22*
X120542995Y-116594996D03*
D12*
X121198000Y-115865000D03*
D21*
X123698000Y-113965000D03*
%TD*%
D25*
%TO.C,SW9*%
X157936000Y-48148000D03*
X169136000Y-48148000D03*
D26*
X161036000Y-55648000D03*
X166036000Y-55648000D03*
X163536000Y-55648000D03*
X161036000Y-41148000D03*
X166036000Y-41148000D03*
%TD*%
D23*
%TO.C,D4*%
X178398000Y-103888000D03*
X178398000Y-107188000D03*
X183298000Y-107188000D03*
X183298000Y-103888000D03*
%TD*%
%TO.C,D2*%
X140298000Y-103888000D03*
X140298000Y-107188000D03*
X145198000Y-107188000D03*
X145198000Y-103888000D03*
%TD*%
M02*
