%TF.GenerationSoftware,KiCad,Pcbnew,7.0.2*%
%TF.CreationDate,2023-06-20T02:09:05-06:00*%
%TF.ProjectId,dc31,64633331-2e6b-4696-9361-645f70636258,rev?*%
%TF.SameCoordinates,Original*%
%TF.FileFunction,Profile,NP*%
%FSLAX46Y46*%
G04 Gerber Fmt 4.6, Leading zero omitted, Abs format (unit mm)*
G04 Created by KiCad (PCBNEW 7.0.2) date 2023-06-20 02:09:05*
%MOMM*%
%LPD*%
G01*
G04 APERTURE LIST*
%TA.AperFunction,Profile*%
%ADD10C,0.200000*%
%TD*%
%TA.AperFunction,Profile*%
%ADD11C,0.010000*%
%TD*%
G04 APERTURE END LIST*
D10*
X201971400Y-156869000D02*
G75*
G03*
X201971400Y-156869000I-1600000J0D01*
G01*
X201971400Y-34369000D02*
G75*
G03*
X201971400Y-34369000I-1600000J0D01*
G01*
X105571400Y-156869000D02*
G75*
G03*
X105571400Y-156869000I-1600000J0D01*
G01*
X105571400Y-34369000D02*
G75*
G03*
X105571400Y-34369000I-1600000J0D01*
G01*
X96471400Y-31369000D02*
X207871400Y-31369000D01*
X207871400Y-159869000D01*
X96471400Y-159869000D01*
X96471400Y-31369000D01*
D11*
%TO.C,J3*%
X184400000Y-61280000D02*
X185400000Y-61280000D01*
X185400000Y-59680000D02*
X184400000Y-59680000D01*
X184400000Y-59680000D02*
G75*
G03*
X184400000Y-61280000I0J-800000D01*
G01*
X185400000Y-61280000D02*
G75*
G03*
X185400000Y-59680000I0J800000D01*
G01*
%TO.C,J5*%
X200848210Y-61290000D02*
X201848210Y-61290000D01*
X201848210Y-59690000D02*
X200848210Y-59690000D01*
X200848210Y-59690000D02*
G75*
G03*
X200848210Y-61290000I0J-800000D01*
G01*
X201848210Y-61290000D02*
G75*
G03*
X201848210Y-59690000I0J800000D01*
G01*
%TO.C,J2*%
X184410000Y-49050000D02*
X185410000Y-49050000D01*
X185410000Y-47450000D02*
X184410000Y-47450000D01*
X184410000Y-47450000D02*
G75*
G03*
X184410000Y-49050000I0J-800000D01*
G01*
X185410000Y-49050000D02*
G75*
G03*
X185410000Y-47450000I0J800000D01*
G01*
%TO.C,J6*%
X200858210Y-49060000D02*
X201858210Y-49060000D01*
X201858210Y-47460000D02*
X200858210Y-47460000D01*
X200858210Y-47460000D02*
G75*
G03*
X200858210Y-49060000I0J-800000D01*
G01*
X201858210Y-49060000D02*
G75*
G03*
X201858210Y-47460000I0J800000D01*
G01*
%TD*%
M02*
