%TF.GenerationSoftware,KiCad,Pcbnew,7.0.2*%
%TF.CreationDate,2023-06-20T02:09:05-06:00*%
%TF.ProjectId,dc31,64633331-2e6b-4696-9361-645f70636258,rev?*%
%TF.SameCoordinates,Original*%
%TF.FileFunction,Legend,Bot*%
%TF.FilePolarity,Positive*%
%FSLAX46Y46*%
G04 Gerber Fmt 4.6, Leading zero omitted, Abs format (unit mm)*
G04 Created by KiCad (PCBNEW 7.0.2) date 2023-06-20 02:09:05*
%MOMM*%
%LPD*%
G01*
G04 APERTURE LIST*
G04 Aperture macros list*
%AMRoundRect*
0 Rectangle with rounded corners*
0 $1 Rounding radius*
0 $2 $3 $4 $5 $6 $7 $8 $9 X,Y pos of 4 corners*
0 Add a 4 corners polygon primitive as box body*
4,1,4,$2,$3,$4,$5,$6,$7,$8,$9,$2,$3,0*
0 Add four circle primitives for the rounded corners*
1,1,$1+$1,$2,$3*
1,1,$1+$1,$4,$5*
1,1,$1+$1,$6,$7*
1,1,$1+$1,$8,$9*
0 Add four rect primitives between the rounded corners*
20,1,$1+$1,$2,$3,$4,$5,0*
20,1,$1+$1,$4,$5,$6,$7,0*
20,1,$1+$1,$6,$7,$8,$9,0*
20,1,$1+$1,$8,$9,$2,$3,0*%
%AMHorizOval*
0 Thick line with rounded ends*
0 $1 width*
0 $2 $3 position (X,Y) of the first rounded end (center of the circle)*
0 $4 $5 position (X,Y) of the second rounded end (center of the circle)*
0 Add line between two ends*
20,1,$1,$2,$3,$4,$5,0*
0 Add two circle primitives to create the rounded ends*
1,1,$1,$2,$3*
1,1,$1,$4,$5*%
G04 Aperture macros list end*
%ADD10C,0.400000*%
%ADD11C,0.150000*%
%ADD12C,0.120000*%
%ADD13C,0.200000*%
%ADD14C,0.300000*%
%ADD15O,2.000000X1.200000*%
%ADD16RoundRect,0.150000X0.825000X0.150000X-0.825000X0.150000X-0.825000X-0.150000X0.825000X-0.150000X0*%
%ADD17RoundRect,0.200000X0.200000X0.275000X-0.200000X0.275000X-0.200000X-0.275000X0.200000X-0.275000X0*%
%ADD18C,1.600000*%
%ADD19C,2.250000*%
%ADD20O,1.800000X1.800000*%
%ADD21O,1.500000X1.500000*%
%ADD22O,1.700000X1.700000*%
%ADD23R,1.700000X3.500000*%
%ADD24R,1.700000X1.700000*%
%ADD25R,3.500000X1.700000*%
%ADD26RoundRect,0.160000X-0.160000X0.840000X-0.160000X-0.840000X0.160000X-0.840000X0.160000X0.840000X0*%
%ADD27RoundRect,0.225000X-0.225000X-0.250000X0.225000X-0.250000X0.225000X0.250000X-0.225000X0.250000X0*%
%ADD28RoundRect,0.200000X-0.200000X-0.275000X0.200000X-0.275000X0.200000X0.275000X-0.200000X0.275000X0*%
%ADD29RoundRect,0.150000X-0.150000X0.587500X-0.150000X-0.587500X0.150000X-0.587500X0.150000X0.587500X0*%
%ADD30O,2.150000X1.750000*%
%ADD31C,1.200000*%
%ADD32C,3.987800*%
%ADD33HorizOval,2.250000X0.025506X0.374132X-0.025506X-0.374132X0*%
%ADD34C,2.000000*%
%ADD35HorizOval,2.250000X0.654995X0.730004X-0.654995X-0.730004X0*%
%ADD36R,1.500000X1.500000*%
%ADD37C,1.500000*%
%ADD38RoundRect,0.225000X-0.225000X-0.375000X0.225000X-0.375000X0.225000X0.375000X-0.225000X0.375000X0*%
%ADD39RoundRect,0.062500X0.350000X0.062500X-0.350000X0.062500X-0.350000X-0.062500X0.350000X-0.062500X0*%
%ADD40RoundRect,0.062500X0.062500X0.350000X-0.062500X0.350000X-0.062500X-0.350000X0.062500X-0.350000X0*%
%ADD41R,1.230000X1.230000*%
%ADD42RoundRect,0.100000X-0.637500X-0.100000X0.637500X-0.100000X0.637500X0.100000X-0.637500X0.100000X0*%
%ADD43R,1.600000X0.700000*%
%ADD44R,1.400000X1.200000*%
%ADD45R,2.200000X1.200000*%
%ADD46R,1.400000X1.600000*%
%ADD47O,3.200000X3.500000*%
%ADD48C,1.800000*%
%ADD49RoundRect,0.225000X0.225000X0.250000X-0.225000X0.250000X-0.225000X-0.250000X0.225000X-0.250000X0*%
G04 APERTURE END LIST*
D10*
X186095714Y-158622857D02*
X186095714Y-155622857D01*
X186095714Y-155622857D02*
X185381428Y-155622857D01*
X185381428Y-155622857D02*
X184952857Y-155765714D01*
X184952857Y-155765714D02*
X184667142Y-156051428D01*
X184667142Y-156051428D02*
X184524285Y-156337142D01*
X184524285Y-156337142D02*
X184381428Y-156908571D01*
X184381428Y-156908571D02*
X184381428Y-157337142D01*
X184381428Y-157337142D02*
X184524285Y-157908571D01*
X184524285Y-157908571D02*
X184667142Y-158194285D01*
X184667142Y-158194285D02*
X184952857Y-158480000D01*
X184952857Y-158480000D02*
X185381428Y-158622857D01*
X185381428Y-158622857D02*
X186095714Y-158622857D01*
X181381428Y-158337142D02*
X181524285Y-158480000D01*
X181524285Y-158480000D02*
X181952857Y-158622857D01*
X181952857Y-158622857D02*
X182238571Y-158622857D01*
X182238571Y-158622857D02*
X182667142Y-158480000D01*
X182667142Y-158480000D02*
X182952857Y-158194285D01*
X182952857Y-158194285D02*
X183095714Y-157908571D01*
X183095714Y-157908571D02*
X183238571Y-157337142D01*
X183238571Y-157337142D02*
X183238571Y-156908571D01*
X183238571Y-156908571D02*
X183095714Y-156337142D01*
X183095714Y-156337142D02*
X182952857Y-156051428D01*
X182952857Y-156051428D02*
X182667142Y-155765714D01*
X182667142Y-155765714D02*
X182238571Y-155622857D01*
X182238571Y-155622857D02*
X181952857Y-155622857D01*
X181952857Y-155622857D02*
X181524285Y-155765714D01*
X181524285Y-155765714D02*
X181381428Y-155908571D01*
X180381428Y-155622857D02*
X178381428Y-155622857D01*
X178381428Y-155622857D02*
X180381428Y-158622857D01*
X180381428Y-158622857D02*
X178381428Y-158622857D01*
X177238571Y-158622857D02*
X177238571Y-156622857D01*
X177238571Y-155622857D02*
X177381428Y-155765714D01*
X177381428Y-155765714D02*
X177238571Y-155908571D01*
X177238571Y-155908571D02*
X177095714Y-155765714D01*
X177095714Y-155765714D02*
X177238571Y-155622857D01*
X177238571Y-155622857D02*
X177238571Y-155908571D01*
X174524286Y-158622857D02*
X174524286Y-157051428D01*
X174524286Y-157051428D02*
X174667143Y-156765714D01*
X174667143Y-156765714D02*
X174952857Y-156622857D01*
X174952857Y-156622857D02*
X175524286Y-156622857D01*
X175524286Y-156622857D02*
X175810000Y-156765714D01*
X174524286Y-158480000D02*
X174810000Y-158622857D01*
X174810000Y-158622857D02*
X175524286Y-158622857D01*
X175524286Y-158622857D02*
X175810000Y-158480000D01*
X175810000Y-158480000D02*
X175952857Y-158194285D01*
X175952857Y-158194285D02*
X175952857Y-157908571D01*
X175952857Y-157908571D02*
X175810000Y-157622857D01*
X175810000Y-157622857D02*
X175524286Y-157480000D01*
X175524286Y-157480000D02*
X174810000Y-157480000D01*
X174810000Y-157480000D02*
X174524286Y-157337142D01*
X170952857Y-155908571D02*
X170810000Y-155765714D01*
X170810000Y-155765714D02*
X170524286Y-155622857D01*
X170524286Y-155622857D02*
X169810000Y-155622857D01*
X169810000Y-155622857D02*
X169524286Y-155765714D01*
X169524286Y-155765714D02*
X169381428Y-155908571D01*
X169381428Y-155908571D02*
X169238571Y-156194285D01*
X169238571Y-156194285D02*
X169238571Y-156480000D01*
X169238571Y-156480000D02*
X169381428Y-156908571D01*
X169381428Y-156908571D02*
X171095714Y-158622857D01*
X171095714Y-158622857D02*
X169238571Y-158622857D01*
X167381428Y-155622857D02*
X167095714Y-155622857D01*
X167095714Y-155622857D02*
X166810000Y-155765714D01*
X166810000Y-155765714D02*
X166667143Y-155908571D01*
X166667143Y-155908571D02*
X166524285Y-156194285D01*
X166524285Y-156194285D02*
X166381428Y-156765714D01*
X166381428Y-156765714D02*
X166381428Y-157480000D01*
X166381428Y-157480000D02*
X166524285Y-158051428D01*
X166524285Y-158051428D02*
X166667143Y-158337142D01*
X166667143Y-158337142D02*
X166810000Y-158480000D01*
X166810000Y-158480000D02*
X167095714Y-158622857D01*
X167095714Y-158622857D02*
X167381428Y-158622857D01*
X167381428Y-158622857D02*
X167667143Y-158480000D01*
X167667143Y-158480000D02*
X167810000Y-158337142D01*
X167810000Y-158337142D02*
X167952857Y-158051428D01*
X167952857Y-158051428D02*
X168095714Y-157480000D01*
X168095714Y-157480000D02*
X168095714Y-156765714D01*
X168095714Y-156765714D02*
X167952857Y-156194285D01*
X167952857Y-156194285D02*
X167810000Y-155908571D01*
X167810000Y-155908571D02*
X167667143Y-155765714D01*
X167667143Y-155765714D02*
X167381428Y-155622857D01*
X165238571Y-155908571D02*
X165095714Y-155765714D01*
X165095714Y-155765714D02*
X164810000Y-155622857D01*
X164810000Y-155622857D02*
X164095714Y-155622857D01*
X164095714Y-155622857D02*
X163810000Y-155765714D01*
X163810000Y-155765714D02*
X163667142Y-155908571D01*
X163667142Y-155908571D02*
X163524285Y-156194285D01*
X163524285Y-156194285D02*
X163524285Y-156480000D01*
X163524285Y-156480000D02*
X163667142Y-156908571D01*
X163667142Y-156908571D02*
X165381428Y-158622857D01*
X165381428Y-158622857D02*
X163524285Y-158622857D01*
X162524285Y-155622857D02*
X160667142Y-155622857D01*
X160667142Y-155622857D02*
X161667142Y-156765714D01*
X161667142Y-156765714D02*
X161238571Y-156765714D01*
X161238571Y-156765714D02*
X160952857Y-156908571D01*
X160952857Y-156908571D02*
X160809999Y-157051428D01*
X160809999Y-157051428D02*
X160667142Y-157337142D01*
X160667142Y-157337142D02*
X160667142Y-158051428D01*
X160667142Y-158051428D02*
X160809999Y-158337142D01*
X160809999Y-158337142D02*
X160952857Y-158480000D01*
X160952857Y-158480000D02*
X161238571Y-158622857D01*
X161238571Y-158622857D02*
X162095714Y-158622857D01*
X162095714Y-158622857D02*
X162381428Y-158480000D01*
X162381428Y-158480000D02*
X162524285Y-158337142D01*
X157238571Y-158480000D02*
X156810000Y-158622857D01*
X156810000Y-158622857D02*
X156095714Y-158622857D01*
X156095714Y-158622857D02*
X155810000Y-158480000D01*
X155810000Y-158480000D02*
X155667142Y-158337142D01*
X155667142Y-158337142D02*
X155524285Y-158051428D01*
X155524285Y-158051428D02*
X155524285Y-157765714D01*
X155524285Y-157765714D02*
X155667142Y-157480000D01*
X155667142Y-157480000D02*
X155810000Y-157337142D01*
X155810000Y-157337142D02*
X156095714Y-157194285D01*
X156095714Y-157194285D02*
X156667142Y-157051428D01*
X156667142Y-157051428D02*
X156952857Y-156908571D01*
X156952857Y-156908571D02*
X157095714Y-156765714D01*
X157095714Y-156765714D02*
X157238571Y-156480000D01*
X157238571Y-156480000D02*
X157238571Y-156194285D01*
X157238571Y-156194285D02*
X157095714Y-155908571D01*
X157095714Y-155908571D02*
X156952857Y-155765714D01*
X156952857Y-155765714D02*
X156667142Y-155622857D01*
X156667142Y-155622857D02*
X155952857Y-155622857D01*
X155952857Y-155622857D02*
X155524285Y-155765714D01*
X153095714Y-158480000D02*
X153381428Y-158622857D01*
X153381428Y-158622857D02*
X153952857Y-158622857D01*
X153952857Y-158622857D02*
X154238571Y-158480000D01*
X154238571Y-158480000D02*
X154381428Y-158194285D01*
X154381428Y-158194285D02*
X154381428Y-157051428D01*
X154381428Y-157051428D02*
X154238571Y-156765714D01*
X154238571Y-156765714D02*
X153952857Y-156622857D01*
X153952857Y-156622857D02*
X153381428Y-156622857D01*
X153381428Y-156622857D02*
X153095714Y-156765714D01*
X153095714Y-156765714D02*
X152952857Y-157051428D01*
X152952857Y-157051428D02*
X152952857Y-157337142D01*
X152952857Y-157337142D02*
X154381428Y-157622857D01*
X150381428Y-156622857D02*
X150381428Y-159622857D01*
X150381428Y-158480000D02*
X150667142Y-158622857D01*
X150667142Y-158622857D02*
X151238570Y-158622857D01*
X151238570Y-158622857D02*
X151524285Y-158480000D01*
X151524285Y-158480000D02*
X151667142Y-158337142D01*
X151667142Y-158337142D02*
X151809999Y-158051428D01*
X151809999Y-158051428D02*
X151809999Y-157194285D01*
X151809999Y-157194285D02*
X151667142Y-156908571D01*
X151667142Y-156908571D02*
X151524285Y-156765714D01*
X151524285Y-156765714D02*
X151238570Y-156622857D01*
X151238570Y-156622857D02*
X150667142Y-156622857D01*
X150667142Y-156622857D02*
X150381428Y-156765714D01*
X147667142Y-156622857D02*
X147667142Y-158622857D01*
X148952856Y-156622857D02*
X148952856Y-158194285D01*
X148952856Y-158194285D02*
X148809999Y-158480000D01*
X148809999Y-158480000D02*
X148524284Y-158622857D01*
X148524284Y-158622857D02*
X148095713Y-158622857D01*
X148095713Y-158622857D02*
X147809999Y-158480000D01*
X147809999Y-158480000D02*
X147667142Y-158337142D01*
X145095713Y-158480000D02*
X145381427Y-158622857D01*
X145381427Y-158622857D02*
X145952856Y-158622857D01*
X145952856Y-158622857D02*
X146238570Y-158480000D01*
X146238570Y-158480000D02*
X146381427Y-158194285D01*
X146381427Y-158194285D02*
X146381427Y-157051428D01*
X146381427Y-157051428D02*
X146238570Y-156765714D01*
X146238570Y-156765714D02*
X145952856Y-156622857D01*
X145952856Y-156622857D02*
X145381427Y-156622857D01*
X145381427Y-156622857D02*
X145095713Y-156765714D01*
X145095713Y-156765714D02*
X144952856Y-157051428D01*
X144952856Y-157051428D02*
X144952856Y-157337142D01*
X144952856Y-157337142D02*
X146381427Y-157622857D01*
X143667141Y-156622857D02*
X143667141Y-158622857D01*
X143667141Y-156908571D02*
X143524284Y-156765714D01*
X143524284Y-156765714D02*
X143238569Y-156622857D01*
X143238569Y-156622857D02*
X142809998Y-156622857D01*
X142809998Y-156622857D02*
X142524284Y-156765714D01*
X142524284Y-156765714D02*
X142381427Y-157051428D01*
X142381427Y-157051428D02*
X142381427Y-158622857D01*
X139667141Y-158480000D02*
X139952855Y-158622857D01*
X139952855Y-158622857D02*
X140524283Y-158622857D01*
X140524283Y-158622857D02*
X140809998Y-158480000D01*
X140809998Y-158480000D02*
X140952855Y-158337142D01*
X140952855Y-158337142D02*
X141095712Y-158051428D01*
X141095712Y-158051428D02*
X141095712Y-157194285D01*
X141095712Y-157194285D02*
X140952855Y-156908571D01*
X140952855Y-156908571D02*
X140809998Y-156765714D01*
X140809998Y-156765714D02*
X140524283Y-156622857D01*
X140524283Y-156622857D02*
X139952855Y-156622857D01*
X139952855Y-156622857D02*
X139667141Y-156765714D01*
X137238569Y-158480000D02*
X137524283Y-158622857D01*
X137524283Y-158622857D02*
X138095712Y-158622857D01*
X138095712Y-158622857D02*
X138381426Y-158480000D01*
X138381426Y-158480000D02*
X138524283Y-158194285D01*
X138524283Y-158194285D02*
X138524283Y-157051428D01*
X138524283Y-157051428D02*
X138381426Y-156765714D01*
X138381426Y-156765714D02*
X138095712Y-156622857D01*
X138095712Y-156622857D02*
X137524283Y-156622857D01*
X137524283Y-156622857D02*
X137238569Y-156765714D01*
X137238569Y-156765714D02*
X137095712Y-157051428D01*
X137095712Y-157051428D02*
X137095712Y-157337142D01*
X137095712Y-157337142D02*
X138524283Y-157622857D01*
X135809997Y-158622857D02*
X135809997Y-156622857D01*
X135809997Y-157194285D02*
X135667140Y-156908571D01*
X135667140Y-156908571D02*
X135524283Y-156765714D01*
X135524283Y-156765714D02*
X135238568Y-156622857D01*
X135238568Y-156622857D02*
X134952854Y-156622857D01*
X131667140Y-158622857D02*
X131667140Y-155622857D01*
X131667140Y-155622857D02*
X130524283Y-155622857D01*
X130524283Y-155622857D02*
X130238568Y-155765714D01*
X130238568Y-155765714D02*
X130095711Y-155908571D01*
X130095711Y-155908571D02*
X129952854Y-156194285D01*
X129952854Y-156194285D02*
X129952854Y-156622857D01*
X129952854Y-156622857D02*
X130095711Y-156908571D01*
X130095711Y-156908571D02*
X130238568Y-157051428D01*
X130238568Y-157051428D02*
X130524283Y-157194285D01*
X130524283Y-157194285D02*
X131667140Y-157194285D01*
X128667140Y-158622857D02*
X128667140Y-156622857D01*
X128667140Y-157194285D02*
X128524283Y-156908571D01*
X128524283Y-156908571D02*
X128381426Y-156765714D01*
X128381426Y-156765714D02*
X128095711Y-156622857D01*
X128095711Y-156622857D02*
X127809997Y-156622857D01*
X126381425Y-158622857D02*
X126667140Y-158480000D01*
X126667140Y-158480000D02*
X126809997Y-158337142D01*
X126809997Y-158337142D02*
X126952854Y-158051428D01*
X126952854Y-158051428D02*
X126952854Y-157194285D01*
X126952854Y-157194285D02*
X126809997Y-156908571D01*
X126809997Y-156908571D02*
X126667140Y-156765714D01*
X126667140Y-156765714D02*
X126381425Y-156622857D01*
X126381425Y-156622857D02*
X125952854Y-156622857D01*
X125952854Y-156622857D02*
X125667140Y-156765714D01*
X125667140Y-156765714D02*
X125524283Y-156908571D01*
X125524283Y-156908571D02*
X125381425Y-157194285D01*
X125381425Y-157194285D02*
X125381425Y-158051428D01*
X125381425Y-158051428D02*
X125524283Y-158337142D01*
X125524283Y-158337142D02*
X125667140Y-158480000D01*
X125667140Y-158480000D02*
X125952854Y-158622857D01*
X125952854Y-158622857D02*
X126381425Y-158622857D01*
X124524282Y-156622857D02*
X123381425Y-156622857D01*
X124095711Y-155622857D02*
X124095711Y-158194285D01*
X124095711Y-158194285D02*
X123952854Y-158480000D01*
X123952854Y-158480000D02*
X123667139Y-158622857D01*
X123667139Y-158622857D02*
X123381425Y-158622857D01*
X121952853Y-158622857D02*
X122238568Y-158480000D01*
X122238568Y-158480000D02*
X122381425Y-158337142D01*
X122381425Y-158337142D02*
X122524282Y-158051428D01*
X122524282Y-158051428D02*
X122524282Y-157194285D01*
X122524282Y-157194285D02*
X122381425Y-156908571D01*
X122381425Y-156908571D02*
X122238568Y-156765714D01*
X122238568Y-156765714D02*
X121952853Y-156622857D01*
X121952853Y-156622857D02*
X121524282Y-156622857D01*
X121524282Y-156622857D02*
X121238568Y-156765714D01*
X121238568Y-156765714D02*
X121095711Y-156908571D01*
X121095711Y-156908571D02*
X120952853Y-157194285D01*
X120952853Y-157194285D02*
X120952853Y-158051428D01*
X120952853Y-158051428D02*
X121095711Y-158337142D01*
X121095711Y-158337142D02*
X121238568Y-158480000D01*
X121238568Y-158480000D02*
X121524282Y-158622857D01*
X121524282Y-158622857D02*
X121952853Y-158622857D01*
D11*
X175559523Y-91830000D02*
X175416666Y-91877619D01*
X175416666Y-91877619D02*
X175178571Y-91877619D01*
X175178571Y-91877619D02*
X175083333Y-91830000D01*
X175083333Y-91830000D02*
X175035714Y-91782380D01*
X175035714Y-91782380D02*
X174988095Y-91687142D01*
X174988095Y-91687142D02*
X174988095Y-91591904D01*
X174988095Y-91591904D02*
X175035714Y-91496666D01*
X175035714Y-91496666D02*
X175083333Y-91449047D01*
X175083333Y-91449047D02*
X175178571Y-91401428D01*
X175178571Y-91401428D02*
X175369047Y-91353809D01*
X175369047Y-91353809D02*
X175464285Y-91306190D01*
X175464285Y-91306190D02*
X175511904Y-91258571D01*
X175511904Y-91258571D02*
X175559523Y-91163333D01*
X175559523Y-91163333D02*
X175559523Y-91068095D01*
X175559523Y-91068095D02*
X175511904Y-90972857D01*
X175511904Y-90972857D02*
X175464285Y-90925238D01*
X175464285Y-90925238D02*
X175369047Y-90877619D01*
X175369047Y-90877619D02*
X175130952Y-90877619D01*
X175130952Y-90877619D02*
X174988095Y-90925238D01*
X174559523Y-91877619D02*
X174559523Y-90877619D01*
X174559523Y-90877619D02*
X174178571Y-90877619D01*
X174178571Y-90877619D02*
X174083333Y-90925238D01*
X174083333Y-90925238D02*
X174035714Y-90972857D01*
X174035714Y-90972857D02*
X173988095Y-91068095D01*
X173988095Y-91068095D02*
X173988095Y-91210952D01*
X173988095Y-91210952D02*
X174035714Y-91306190D01*
X174035714Y-91306190D02*
X174083333Y-91353809D01*
X174083333Y-91353809D02*
X174178571Y-91401428D01*
X174178571Y-91401428D02*
X174559523Y-91401428D01*
X173559523Y-91496666D02*
X172797619Y-91496666D01*
X175559523Y-82900000D02*
X175416666Y-82947619D01*
X175416666Y-82947619D02*
X175178571Y-82947619D01*
X175178571Y-82947619D02*
X175083333Y-82900000D01*
X175083333Y-82900000D02*
X175035714Y-82852380D01*
X175035714Y-82852380D02*
X174988095Y-82757142D01*
X174988095Y-82757142D02*
X174988095Y-82661904D01*
X174988095Y-82661904D02*
X175035714Y-82566666D01*
X175035714Y-82566666D02*
X175083333Y-82519047D01*
X175083333Y-82519047D02*
X175178571Y-82471428D01*
X175178571Y-82471428D02*
X175369047Y-82423809D01*
X175369047Y-82423809D02*
X175464285Y-82376190D01*
X175464285Y-82376190D02*
X175511904Y-82328571D01*
X175511904Y-82328571D02*
X175559523Y-82233333D01*
X175559523Y-82233333D02*
X175559523Y-82138095D01*
X175559523Y-82138095D02*
X175511904Y-82042857D01*
X175511904Y-82042857D02*
X175464285Y-81995238D01*
X175464285Y-81995238D02*
X175369047Y-81947619D01*
X175369047Y-81947619D02*
X175130952Y-81947619D01*
X175130952Y-81947619D02*
X174988095Y-81995238D01*
X174559523Y-82947619D02*
X174559523Y-81947619D01*
X174559523Y-81947619D02*
X174178571Y-81947619D01*
X174178571Y-81947619D02*
X174083333Y-81995238D01*
X174083333Y-81995238D02*
X174035714Y-82042857D01*
X174035714Y-82042857D02*
X173988095Y-82138095D01*
X173988095Y-82138095D02*
X173988095Y-82280952D01*
X173988095Y-82280952D02*
X174035714Y-82376190D01*
X174035714Y-82376190D02*
X174083333Y-82423809D01*
X174083333Y-82423809D02*
X174178571Y-82471428D01*
X174178571Y-82471428D02*
X174559523Y-82471428D01*
X173559523Y-82566666D02*
X172797619Y-82566666D01*
X173178571Y-82947619D02*
X173178571Y-82185714D01*
X186058095Y-90115238D02*
X186153333Y-90067619D01*
X186153333Y-90067619D02*
X186296190Y-90067619D01*
X186296190Y-90067619D02*
X186439047Y-90115238D01*
X186439047Y-90115238D02*
X186534285Y-90210476D01*
X186534285Y-90210476D02*
X186581904Y-90305714D01*
X186581904Y-90305714D02*
X186629523Y-90496190D01*
X186629523Y-90496190D02*
X186629523Y-90639047D01*
X186629523Y-90639047D02*
X186581904Y-90829523D01*
X186581904Y-90829523D02*
X186534285Y-90924761D01*
X186534285Y-90924761D02*
X186439047Y-91020000D01*
X186439047Y-91020000D02*
X186296190Y-91067619D01*
X186296190Y-91067619D02*
X186200952Y-91067619D01*
X186200952Y-91067619D02*
X186058095Y-91020000D01*
X186058095Y-91020000D02*
X186010476Y-90972380D01*
X186010476Y-90972380D02*
X186010476Y-90639047D01*
X186010476Y-90639047D02*
X186200952Y-90639047D01*
X185153333Y-91067619D02*
X185153333Y-90543809D01*
X185153333Y-90543809D02*
X185200952Y-90448571D01*
X185200952Y-90448571D02*
X185296190Y-90400952D01*
X185296190Y-90400952D02*
X185486666Y-90400952D01*
X185486666Y-90400952D02*
X185581904Y-90448571D01*
X185153333Y-91020000D02*
X185248571Y-91067619D01*
X185248571Y-91067619D02*
X185486666Y-91067619D01*
X185486666Y-91067619D02*
X185581904Y-91020000D01*
X185581904Y-91020000D02*
X185629523Y-90924761D01*
X185629523Y-90924761D02*
X185629523Y-90829523D01*
X185629523Y-90829523D02*
X185581904Y-90734285D01*
X185581904Y-90734285D02*
X185486666Y-90686666D01*
X185486666Y-90686666D02*
X185248571Y-90686666D01*
X185248571Y-90686666D02*
X185153333Y-90639047D01*
X184677142Y-91067619D02*
X184677142Y-90400952D01*
X184677142Y-90067619D02*
X184724761Y-90115238D01*
X184724761Y-90115238D02*
X184677142Y-90162857D01*
X184677142Y-90162857D02*
X184629523Y-90115238D01*
X184629523Y-90115238D02*
X184677142Y-90067619D01*
X184677142Y-90067619D02*
X184677142Y-90162857D01*
X184200952Y-90400952D02*
X184200952Y-91067619D01*
X184200952Y-90496190D02*
X184153333Y-90448571D01*
X184153333Y-90448571D02*
X184058095Y-90400952D01*
X184058095Y-90400952D02*
X183915238Y-90400952D01*
X183915238Y-90400952D02*
X183820000Y-90448571D01*
X183820000Y-90448571D02*
X183772381Y-90543809D01*
X183772381Y-90543809D02*
X183772381Y-91067619D01*
%TO.C,U8*%
X164141904Y-66562619D02*
X164141904Y-67372142D01*
X164141904Y-67372142D02*
X164094285Y-67467380D01*
X164094285Y-67467380D02*
X164046666Y-67515000D01*
X164046666Y-67515000D02*
X163951428Y-67562619D01*
X163951428Y-67562619D02*
X163760952Y-67562619D01*
X163760952Y-67562619D02*
X163665714Y-67515000D01*
X163665714Y-67515000D02*
X163618095Y-67467380D01*
X163618095Y-67467380D02*
X163570476Y-67372142D01*
X163570476Y-67372142D02*
X163570476Y-66562619D01*
X162951428Y-66991190D02*
X163046666Y-66943571D01*
X163046666Y-66943571D02*
X163094285Y-66895952D01*
X163094285Y-66895952D02*
X163141904Y-66800714D01*
X163141904Y-66800714D02*
X163141904Y-66753095D01*
X163141904Y-66753095D02*
X163094285Y-66657857D01*
X163094285Y-66657857D02*
X163046666Y-66610238D01*
X163046666Y-66610238D02*
X162951428Y-66562619D01*
X162951428Y-66562619D02*
X162760952Y-66562619D01*
X162760952Y-66562619D02*
X162665714Y-66610238D01*
X162665714Y-66610238D02*
X162618095Y-66657857D01*
X162618095Y-66657857D02*
X162570476Y-66753095D01*
X162570476Y-66753095D02*
X162570476Y-66800714D01*
X162570476Y-66800714D02*
X162618095Y-66895952D01*
X162618095Y-66895952D02*
X162665714Y-66943571D01*
X162665714Y-66943571D02*
X162760952Y-66991190D01*
X162760952Y-66991190D02*
X162951428Y-66991190D01*
X162951428Y-66991190D02*
X163046666Y-67038809D01*
X163046666Y-67038809D02*
X163094285Y-67086428D01*
X163094285Y-67086428D02*
X163141904Y-67181666D01*
X163141904Y-67181666D02*
X163141904Y-67372142D01*
X163141904Y-67372142D02*
X163094285Y-67467380D01*
X163094285Y-67467380D02*
X163046666Y-67515000D01*
X163046666Y-67515000D02*
X162951428Y-67562619D01*
X162951428Y-67562619D02*
X162760952Y-67562619D01*
X162760952Y-67562619D02*
X162665714Y-67515000D01*
X162665714Y-67515000D02*
X162618095Y-67467380D01*
X162618095Y-67467380D02*
X162570476Y-67372142D01*
X162570476Y-67372142D02*
X162570476Y-67181666D01*
X162570476Y-67181666D02*
X162618095Y-67086428D01*
X162618095Y-67086428D02*
X162665714Y-67038809D01*
X162665714Y-67038809D02*
X162760952Y-66991190D01*
%TO.C,R10*%
X201062857Y-39732619D02*
X201396190Y-39256428D01*
X201634285Y-39732619D02*
X201634285Y-38732619D01*
X201634285Y-38732619D02*
X201253333Y-38732619D01*
X201253333Y-38732619D02*
X201158095Y-38780238D01*
X201158095Y-38780238D02*
X201110476Y-38827857D01*
X201110476Y-38827857D02*
X201062857Y-38923095D01*
X201062857Y-38923095D02*
X201062857Y-39065952D01*
X201062857Y-39065952D02*
X201110476Y-39161190D01*
X201110476Y-39161190D02*
X201158095Y-39208809D01*
X201158095Y-39208809D02*
X201253333Y-39256428D01*
X201253333Y-39256428D02*
X201634285Y-39256428D01*
X200110476Y-39732619D02*
X200681904Y-39732619D01*
X200396190Y-39732619D02*
X200396190Y-38732619D01*
X200396190Y-38732619D02*
X200491428Y-38875476D01*
X200491428Y-38875476D02*
X200586666Y-38970714D01*
X200586666Y-38970714D02*
X200681904Y-39018333D01*
X199491428Y-38732619D02*
X199396190Y-38732619D01*
X199396190Y-38732619D02*
X199300952Y-38780238D01*
X199300952Y-38780238D02*
X199253333Y-38827857D01*
X199253333Y-38827857D02*
X199205714Y-38923095D01*
X199205714Y-38923095D02*
X199158095Y-39113571D01*
X199158095Y-39113571D02*
X199158095Y-39351666D01*
X199158095Y-39351666D02*
X199205714Y-39542142D01*
X199205714Y-39542142D02*
X199253333Y-39637380D01*
X199253333Y-39637380D02*
X199300952Y-39685000D01*
X199300952Y-39685000D02*
X199396190Y-39732619D01*
X199396190Y-39732619D02*
X199491428Y-39732619D01*
X199491428Y-39732619D02*
X199586666Y-39685000D01*
X199586666Y-39685000D02*
X199634285Y-39637380D01*
X199634285Y-39637380D02*
X199681904Y-39542142D01*
X199681904Y-39542142D02*
X199729523Y-39351666D01*
X199729523Y-39351666D02*
X199729523Y-39113571D01*
X199729523Y-39113571D02*
X199681904Y-38923095D01*
X199681904Y-38923095D02*
X199634285Y-38827857D01*
X199634285Y-38827857D02*
X199586666Y-38780238D01*
X199586666Y-38780238D02*
X199491428Y-38732619D01*
%TO.C,U1*%
X121942619Y-74948095D02*
X122752142Y-74948095D01*
X122752142Y-74948095D02*
X122847380Y-74995714D01*
X122847380Y-74995714D02*
X122895000Y-75043333D01*
X122895000Y-75043333D02*
X122942619Y-75138571D01*
X122942619Y-75138571D02*
X122942619Y-75329047D01*
X122942619Y-75329047D02*
X122895000Y-75424285D01*
X122895000Y-75424285D02*
X122847380Y-75471904D01*
X122847380Y-75471904D02*
X122752142Y-75519523D01*
X122752142Y-75519523D02*
X121942619Y-75519523D01*
X122942619Y-76519523D02*
X122942619Y-75948095D01*
X122942619Y-76233809D02*
X121942619Y-76233809D01*
X121942619Y-76233809D02*
X122085476Y-76138571D01*
X122085476Y-76138571D02*
X122180714Y-76043333D01*
X122180714Y-76043333D02*
X122228333Y-75948095D01*
X113717009Y-62228888D02*
X113743946Y-62148075D01*
X113743946Y-62148075D02*
X113824759Y-62067263D01*
X113824759Y-62067263D02*
X113932508Y-62013388D01*
X113932508Y-62013388D02*
X114040258Y-62013388D01*
X114040258Y-62013388D02*
X114121070Y-62040326D01*
X114121070Y-62040326D02*
X114255757Y-62121138D01*
X114255757Y-62121138D02*
X114336569Y-62201950D01*
X114336569Y-62201950D02*
X114417382Y-62336637D01*
X114417382Y-62336637D02*
X114444319Y-62417449D01*
X114444319Y-62417449D02*
X114444319Y-62525199D01*
X114444319Y-62525199D02*
X114390444Y-62632949D01*
X114390444Y-62632949D02*
X114336569Y-62686823D01*
X114336569Y-62686823D02*
X114228820Y-62740698D01*
X114228820Y-62740698D02*
X114174945Y-62740698D01*
X114174945Y-62740698D02*
X113986383Y-62552136D01*
X113986383Y-62552136D02*
X114094133Y-62444387D01*
X113986383Y-63037010D02*
X113420698Y-62471324D01*
X113420698Y-62471324D02*
X113205198Y-62686823D01*
X113205198Y-62686823D02*
X113178261Y-62767636D01*
X113178261Y-62767636D02*
X113178261Y-62821510D01*
X113178261Y-62821510D02*
X113205198Y-62902323D01*
X113205198Y-62902323D02*
X113286011Y-62983135D01*
X113286011Y-62983135D02*
X113366823Y-63010072D01*
X113366823Y-63010072D02*
X113420698Y-63010072D01*
X113420698Y-63010072D02*
X113501510Y-62983135D01*
X113501510Y-62983135D02*
X113717009Y-62767636D01*
X112585638Y-63306384D02*
X112855012Y-63037010D01*
X112855012Y-63037010D02*
X113151324Y-63279446D01*
X113151324Y-63279446D02*
X113097449Y-63279446D01*
X113097449Y-63279446D02*
X113016637Y-63306384D01*
X113016637Y-63306384D02*
X112881950Y-63441071D01*
X112881950Y-63441071D02*
X112855012Y-63521883D01*
X112855012Y-63521883D02*
X112855012Y-63575758D01*
X112855012Y-63575758D02*
X112881950Y-63656570D01*
X112881950Y-63656570D02*
X113016637Y-63791257D01*
X113016637Y-63791257D02*
X113097449Y-63818194D01*
X113097449Y-63818194D02*
X113151324Y-63818194D01*
X113151324Y-63818194D02*
X113232136Y-63791257D01*
X113232136Y-63791257D02*
X113366823Y-63656570D01*
X113366823Y-63656570D02*
X113393760Y-63575758D01*
X113393760Y-63575758D02*
X113393760Y-63521883D01*
X121307009Y-62328888D02*
X121333946Y-62248075D01*
X121333946Y-62248075D02*
X121414759Y-62167263D01*
X121414759Y-62167263D02*
X121522508Y-62113388D01*
X121522508Y-62113388D02*
X121630258Y-62113388D01*
X121630258Y-62113388D02*
X121711070Y-62140326D01*
X121711070Y-62140326D02*
X121845757Y-62221138D01*
X121845757Y-62221138D02*
X121926569Y-62301950D01*
X121926569Y-62301950D02*
X122007382Y-62436637D01*
X122007382Y-62436637D02*
X122034319Y-62517449D01*
X122034319Y-62517449D02*
X122034319Y-62625199D01*
X122034319Y-62625199D02*
X121980444Y-62732949D01*
X121980444Y-62732949D02*
X121926569Y-62786823D01*
X121926569Y-62786823D02*
X121818820Y-62840698D01*
X121818820Y-62840698D02*
X121764945Y-62840698D01*
X121764945Y-62840698D02*
X121576383Y-62652136D01*
X121576383Y-62652136D02*
X121684133Y-62544387D01*
X121576383Y-63137010D02*
X121010698Y-62571324D01*
X121010698Y-62571324D02*
X120795198Y-62786823D01*
X120795198Y-62786823D02*
X120768261Y-62867636D01*
X120768261Y-62867636D02*
X120768261Y-62921510D01*
X120768261Y-62921510D02*
X120795198Y-63002323D01*
X120795198Y-63002323D02*
X120876011Y-63083135D01*
X120876011Y-63083135D02*
X120956823Y-63110072D01*
X120956823Y-63110072D02*
X121010698Y-63110072D01*
X121010698Y-63110072D02*
X121091510Y-63083135D01*
X121091510Y-63083135D02*
X121307009Y-62867636D01*
X120498887Y-63083135D02*
X120121763Y-63460258D01*
X120121763Y-63460258D02*
X120929885Y-63783507D01*
X141683946Y-62201950D02*
X141710884Y-62121138D01*
X141710884Y-62121138D02*
X141791696Y-62040326D01*
X141791696Y-62040326D02*
X141899446Y-61986451D01*
X141899446Y-61986451D02*
X142007195Y-61986451D01*
X142007195Y-61986451D02*
X142088007Y-62013389D01*
X142088007Y-62013389D02*
X142222694Y-62094201D01*
X142222694Y-62094201D02*
X142303507Y-62175013D01*
X142303507Y-62175013D02*
X142384319Y-62309700D01*
X142384319Y-62309700D02*
X142411256Y-62390512D01*
X142411256Y-62390512D02*
X142411256Y-62498262D01*
X142411256Y-62498262D02*
X142357381Y-62606011D01*
X142357381Y-62606011D02*
X142303507Y-62659886D01*
X142303507Y-62659886D02*
X142195757Y-62713761D01*
X142195757Y-62713761D02*
X142141882Y-62713761D01*
X142141882Y-62713761D02*
X141953320Y-62525199D01*
X141953320Y-62525199D02*
X142061070Y-62417450D01*
X141953320Y-63010072D02*
X141387635Y-62444387D01*
X141387635Y-62444387D02*
X141630072Y-63333321D01*
X141630072Y-63333321D02*
X141064386Y-62767636D01*
X141360698Y-63602695D02*
X140795012Y-63037010D01*
X140795012Y-63037010D02*
X140660325Y-63171697D01*
X140660325Y-63171697D02*
X140606450Y-63279446D01*
X140606450Y-63279446D02*
X140606450Y-63387196D01*
X140606450Y-63387196D02*
X140633388Y-63468008D01*
X140633388Y-63468008D02*
X140714200Y-63602695D01*
X140714200Y-63602695D02*
X140795012Y-63683507D01*
X140795012Y-63683507D02*
X140929699Y-63764319D01*
X140929699Y-63764319D02*
X141010511Y-63791257D01*
X141010511Y-63791257D02*
X141118261Y-63791257D01*
X141118261Y-63791257D02*
X141226011Y-63737382D01*
X141226011Y-63737382D02*
X141360698Y-63602695D01*
X131776384Y-87813513D02*
X131803321Y-87732701D01*
X131803321Y-87732701D02*
X131884133Y-87651889D01*
X131884133Y-87651889D02*
X131991883Y-87598014D01*
X131991883Y-87598014D02*
X132099632Y-87598014D01*
X132099632Y-87598014D02*
X132180445Y-87624951D01*
X132180445Y-87624951D02*
X132315132Y-87705764D01*
X132315132Y-87705764D02*
X132395944Y-87786576D01*
X132395944Y-87786576D02*
X132476756Y-87921263D01*
X132476756Y-87921263D02*
X132503693Y-88002075D01*
X132503693Y-88002075D02*
X132503693Y-88109825D01*
X132503693Y-88109825D02*
X132449819Y-88217574D01*
X132449819Y-88217574D02*
X132395944Y-88271449D01*
X132395944Y-88271449D02*
X132288194Y-88325324D01*
X132288194Y-88325324D02*
X132234319Y-88325324D01*
X132234319Y-88325324D02*
X132045758Y-88136762D01*
X132045758Y-88136762D02*
X132153507Y-88029012D01*
X132045758Y-88621635D02*
X131480072Y-88055950D01*
X131480072Y-88055950D02*
X131264573Y-88271449D01*
X131264573Y-88271449D02*
X131237636Y-88352261D01*
X131237636Y-88352261D02*
X131237636Y-88406136D01*
X131237636Y-88406136D02*
X131264573Y-88486948D01*
X131264573Y-88486948D02*
X131345385Y-88567760D01*
X131345385Y-88567760D02*
X131426197Y-88594698D01*
X131426197Y-88594698D02*
X131480072Y-88594698D01*
X131480072Y-88594698D02*
X131560884Y-88567760D01*
X131560884Y-88567760D02*
X131776384Y-88352261D01*
X130995199Y-88648573D02*
X130941324Y-88648573D01*
X130941324Y-88648573D02*
X130860512Y-88675510D01*
X130860512Y-88675510D02*
X130725825Y-88810197D01*
X130725825Y-88810197D02*
X130698887Y-88891009D01*
X130698887Y-88891009D02*
X130698887Y-88944884D01*
X130698887Y-88944884D02*
X130725825Y-89025696D01*
X130725825Y-89025696D02*
X130779700Y-89079571D01*
X130779700Y-89079571D02*
X130887449Y-89133446D01*
X130887449Y-89133446D02*
X131533947Y-89133446D01*
X131533947Y-89133446D02*
X131183761Y-89483632D01*
X130645013Y-90022380D02*
X130968261Y-89699131D01*
X130806637Y-89860756D02*
X130240951Y-89295070D01*
X130240951Y-89295070D02*
X130375638Y-89322008D01*
X130375638Y-89322008D02*
X130483388Y-89322008D01*
X130483388Y-89322008D02*
X130564200Y-89295070D01*
X134306384Y-61559513D02*
X134333321Y-61478701D01*
X134333321Y-61478701D02*
X134414133Y-61397889D01*
X134414133Y-61397889D02*
X134521883Y-61344014D01*
X134521883Y-61344014D02*
X134629632Y-61344014D01*
X134629632Y-61344014D02*
X134710445Y-61370951D01*
X134710445Y-61370951D02*
X134845132Y-61451764D01*
X134845132Y-61451764D02*
X134925944Y-61532576D01*
X134925944Y-61532576D02*
X135006756Y-61667263D01*
X135006756Y-61667263D02*
X135033693Y-61748075D01*
X135033693Y-61748075D02*
X135033693Y-61855825D01*
X135033693Y-61855825D02*
X134979819Y-61963574D01*
X134979819Y-61963574D02*
X134925944Y-62017449D01*
X134925944Y-62017449D02*
X134818194Y-62071324D01*
X134818194Y-62071324D02*
X134764319Y-62071324D01*
X134764319Y-62071324D02*
X134575758Y-61882762D01*
X134575758Y-61882762D02*
X134683507Y-61775012D01*
X134575758Y-62367635D02*
X134010072Y-61801950D01*
X134010072Y-61801950D02*
X133794573Y-62017449D01*
X133794573Y-62017449D02*
X133767636Y-62098261D01*
X133767636Y-62098261D02*
X133767636Y-62152136D01*
X133767636Y-62152136D02*
X133794573Y-62232948D01*
X133794573Y-62232948D02*
X133875385Y-62313760D01*
X133875385Y-62313760D02*
X133956197Y-62340698D01*
X133956197Y-62340698D02*
X134010072Y-62340698D01*
X134010072Y-62340698D02*
X134090884Y-62313760D01*
X134090884Y-62313760D02*
X134306384Y-62098261D01*
X133713761Y-63229632D02*
X134037010Y-62906383D01*
X133875385Y-63068008D02*
X133309700Y-62502322D01*
X133309700Y-62502322D02*
X133444387Y-62529260D01*
X133444387Y-62529260D02*
X133552136Y-62529260D01*
X133552136Y-62529260D02*
X133632948Y-62502322D01*
X133175013Y-63768380D02*
X133498261Y-63445131D01*
X133336637Y-63606756D02*
X132770951Y-63041070D01*
X132770951Y-63041070D02*
X132905638Y-63068008D01*
X132905638Y-63068008D02*
X133013388Y-63068008D01*
X133013388Y-63068008D02*
X133094200Y-63041070D01*
X139386384Y-61705513D02*
X139413321Y-61624701D01*
X139413321Y-61624701D02*
X139494133Y-61543889D01*
X139494133Y-61543889D02*
X139601883Y-61490014D01*
X139601883Y-61490014D02*
X139709632Y-61490014D01*
X139709632Y-61490014D02*
X139790445Y-61516951D01*
X139790445Y-61516951D02*
X139925132Y-61597764D01*
X139925132Y-61597764D02*
X140005944Y-61678576D01*
X140005944Y-61678576D02*
X140086756Y-61813263D01*
X140086756Y-61813263D02*
X140113693Y-61894075D01*
X140113693Y-61894075D02*
X140113693Y-62001825D01*
X140113693Y-62001825D02*
X140059819Y-62109574D01*
X140059819Y-62109574D02*
X140005944Y-62163449D01*
X140005944Y-62163449D02*
X139898194Y-62217324D01*
X139898194Y-62217324D02*
X139844319Y-62217324D01*
X139844319Y-62217324D02*
X139655758Y-62028762D01*
X139655758Y-62028762D02*
X139763507Y-61921012D01*
X139655758Y-62513635D02*
X139090072Y-61947950D01*
X139090072Y-61947950D02*
X138874573Y-62163449D01*
X138874573Y-62163449D02*
X138847636Y-62244261D01*
X138847636Y-62244261D02*
X138847636Y-62298136D01*
X138847636Y-62298136D02*
X138874573Y-62378948D01*
X138874573Y-62378948D02*
X138955385Y-62459760D01*
X138955385Y-62459760D02*
X139036197Y-62486698D01*
X139036197Y-62486698D02*
X139090072Y-62486698D01*
X139090072Y-62486698D02*
X139170884Y-62459760D01*
X139170884Y-62459760D02*
X139386384Y-62244261D01*
X138793761Y-63375632D02*
X139117010Y-63052383D01*
X138955385Y-63214008D02*
X138389700Y-62648322D01*
X138389700Y-62648322D02*
X138524387Y-62675260D01*
X138524387Y-62675260D02*
X138632136Y-62675260D01*
X138632136Y-62675260D02*
X138712948Y-62648322D01*
X138039513Y-62998509D02*
X137689327Y-63348695D01*
X137689327Y-63348695D02*
X138093388Y-63375632D01*
X138093388Y-63375632D02*
X138012576Y-63456444D01*
X138012576Y-63456444D02*
X137985638Y-63537257D01*
X137985638Y-63537257D02*
X137985638Y-63591131D01*
X137985638Y-63591131D02*
X138012576Y-63671944D01*
X138012576Y-63671944D02*
X138147263Y-63806631D01*
X138147263Y-63806631D02*
X138228075Y-63833568D01*
X138228075Y-63833568D02*
X138281950Y-63833568D01*
X138281950Y-63833568D02*
X138362762Y-63806631D01*
X138362762Y-63806631D02*
X138524387Y-63645006D01*
X138524387Y-63645006D02*
X138551324Y-63564194D01*
X138551324Y-63564194D02*
X138551324Y-63510319D01*
X123877009Y-62228888D02*
X123903946Y-62148075D01*
X123903946Y-62148075D02*
X123984759Y-62067263D01*
X123984759Y-62067263D02*
X124092508Y-62013388D01*
X124092508Y-62013388D02*
X124200258Y-62013388D01*
X124200258Y-62013388D02*
X124281070Y-62040326D01*
X124281070Y-62040326D02*
X124415757Y-62121138D01*
X124415757Y-62121138D02*
X124496569Y-62201950D01*
X124496569Y-62201950D02*
X124577382Y-62336637D01*
X124577382Y-62336637D02*
X124604319Y-62417449D01*
X124604319Y-62417449D02*
X124604319Y-62525199D01*
X124604319Y-62525199D02*
X124550444Y-62632949D01*
X124550444Y-62632949D02*
X124496569Y-62686823D01*
X124496569Y-62686823D02*
X124388820Y-62740698D01*
X124388820Y-62740698D02*
X124334945Y-62740698D01*
X124334945Y-62740698D02*
X124146383Y-62552136D01*
X124146383Y-62552136D02*
X124254133Y-62444387D01*
X124146383Y-63037010D02*
X123580698Y-62471324D01*
X123580698Y-62471324D02*
X123365198Y-62686823D01*
X123365198Y-62686823D02*
X123338261Y-62767636D01*
X123338261Y-62767636D02*
X123338261Y-62821510D01*
X123338261Y-62821510D02*
X123365198Y-62902323D01*
X123365198Y-62902323D02*
X123446011Y-62983135D01*
X123446011Y-62983135D02*
X123526823Y-63010072D01*
X123526823Y-63010072D02*
X123580698Y-63010072D01*
X123580698Y-63010072D02*
X123661510Y-62983135D01*
X123661510Y-62983135D02*
X123877009Y-62767636D01*
X123176637Y-63360258D02*
X123203574Y-63279446D01*
X123203574Y-63279446D02*
X123203574Y-63225571D01*
X123203574Y-63225571D02*
X123176637Y-63144759D01*
X123176637Y-63144759D02*
X123149699Y-63117822D01*
X123149699Y-63117822D02*
X123068887Y-63090884D01*
X123068887Y-63090884D02*
X123015012Y-63090884D01*
X123015012Y-63090884D02*
X122934200Y-63117822D01*
X122934200Y-63117822D02*
X122826450Y-63225571D01*
X122826450Y-63225571D02*
X122799513Y-63306384D01*
X122799513Y-63306384D02*
X122799513Y-63360258D01*
X122799513Y-63360258D02*
X122826450Y-63441071D01*
X122826450Y-63441071D02*
X122853388Y-63468008D01*
X122853388Y-63468008D02*
X122934200Y-63494945D01*
X122934200Y-63494945D02*
X122988075Y-63494945D01*
X122988075Y-63494945D02*
X123068887Y-63468008D01*
X123068887Y-63468008D02*
X123176637Y-63360258D01*
X123176637Y-63360258D02*
X123257449Y-63333321D01*
X123257449Y-63333321D02*
X123311324Y-63333321D01*
X123311324Y-63333321D02*
X123392136Y-63360258D01*
X123392136Y-63360258D02*
X123499885Y-63468008D01*
X123499885Y-63468008D02*
X123526823Y-63548820D01*
X123526823Y-63548820D02*
X123526823Y-63602695D01*
X123526823Y-63602695D02*
X123499885Y-63683507D01*
X123499885Y-63683507D02*
X123392136Y-63791257D01*
X123392136Y-63791257D02*
X123311324Y-63818194D01*
X123311324Y-63818194D02*
X123257449Y-63818194D01*
X123257449Y-63818194D02*
X123176637Y-63791257D01*
X123176637Y-63791257D02*
X123068887Y-63683507D01*
X123068887Y-63683507D02*
X123041950Y-63602695D01*
X123041950Y-63602695D02*
X123041950Y-63548820D01*
X123041950Y-63548820D02*
X123068887Y-63468008D01*
X108976383Y-87605638D02*
X108626197Y-87955825D01*
X108626197Y-87955825D02*
X109030258Y-87982762D01*
X109030258Y-87982762D02*
X108949446Y-88063574D01*
X108949446Y-88063574D02*
X108922509Y-88144386D01*
X108922509Y-88144386D02*
X108922509Y-88198261D01*
X108922509Y-88198261D02*
X108949446Y-88279073D01*
X108949446Y-88279073D02*
X109084133Y-88413760D01*
X109084133Y-88413760D02*
X109164945Y-88440698D01*
X109164945Y-88440698D02*
X109218820Y-88440698D01*
X109218820Y-88440698D02*
X109299632Y-88413760D01*
X109299632Y-88413760D02*
X109461257Y-88252136D01*
X109461257Y-88252136D02*
X109488194Y-88171324D01*
X109488194Y-88171324D02*
X109488194Y-88117449D01*
X108464573Y-88117449D02*
X108841696Y-88871696D01*
X108841696Y-88871696D02*
X108087449Y-88494573D01*
X107952762Y-88629260D02*
X107602576Y-88979446D01*
X107602576Y-88979446D02*
X108006637Y-89006383D01*
X108006637Y-89006383D02*
X107925825Y-89087195D01*
X107925825Y-89087195D02*
X107898887Y-89168008D01*
X107898887Y-89168008D02*
X107898887Y-89221882D01*
X107898887Y-89221882D02*
X107925825Y-89302695D01*
X107925825Y-89302695D02*
X108060512Y-89437382D01*
X108060512Y-89437382D02*
X108141324Y-89464319D01*
X108141324Y-89464319D02*
X108195199Y-89464319D01*
X108195199Y-89464319D02*
X108276011Y-89437382D01*
X108276011Y-89437382D02*
X108437635Y-89275757D01*
X108437635Y-89275757D02*
X108464573Y-89194945D01*
X108464573Y-89194945D02*
X108464573Y-89141070D01*
X106444099Y-87637923D02*
X106093913Y-87988109D01*
X106093913Y-87988109D02*
X106497974Y-88015046D01*
X106497974Y-88015046D02*
X106417162Y-88095859D01*
X106417162Y-88095859D02*
X106390224Y-88176671D01*
X106390224Y-88176671D02*
X106390224Y-88230546D01*
X106390224Y-88230546D02*
X106417162Y-88311358D01*
X106417162Y-88311358D02*
X106551849Y-88446045D01*
X106551849Y-88446045D02*
X106632661Y-88472982D01*
X106632661Y-88472982D02*
X106686536Y-88472982D01*
X106686536Y-88472982D02*
X106767348Y-88446045D01*
X106767348Y-88446045D02*
X106928972Y-88284420D01*
X106928972Y-88284420D02*
X106955910Y-88203608D01*
X106955910Y-88203608D02*
X106955910Y-88149733D01*
X105932288Y-88149733D02*
X106309412Y-88903981D01*
X106309412Y-88903981D02*
X105555165Y-88526857D01*
X105420478Y-88661544D02*
X105070292Y-89011730D01*
X105070292Y-89011730D02*
X105474353Y-89038668D01*
X105474353Y-89038668D02*
X105393541Y-89119480D01*
X105393541Y-89119480D02*
X105366603Y-89200292D01*
X105366603Y-89200292D02*
X105366603Y-89254167D01*
X105366603Y-89254167D02*
X105393541Y-89334979D01*
X105393541Y-89334979D02*
X105528228Y-89469666D01*
X105528228Y-89469666D02*
X105609040Y-89496603D01*
X105609040Y-89496603D02*
X105662915Y-89496603D01*
X105662915Y-89496603D02*
X105743727Y-89469666D01*
X105743727Y-89469666D02*
X105905351Y-89308042D01*
X105905351Y-89308042D02*
X105932289Y-89227229D01*
X105932289Y-89227229D02*
X105932289Y-89173355D01*
X105582102Y-89739040D02*
X105151104Y-90170039D01*
X104666230Y-89954539D02*
X104477669Y-90143101D01*
X104693168Y-90520225D02*
X104962542Y-90250851D01*
X104962542Y-90250851D02*
X104396856Y-89685165D01*
X104396856Y-89685165D02*
X104127482Y-89954539D01*
X104450731Y-90762662D02*
X103885045Y-90196976D01*
X103885045Y-90196976D02*
X104127482Y-91085911D01*
X104127482Y-91085911D02*
X103561797Y-90520225D01*
X136846384Y-61559513D02*
X136873321Y-61478701D01*
X136873321Y-61478701D02*
X136954133Y-61397889D01*
X136954133Y-61397889D02*
X137061883Y-61344014D01*
X137061883Y-61344014D02*
X137169632Y-61344014D01*
X137169632Y-61344014D02*
X137250445Y-61370951D01*
X137250445Y-61370951D02*
X137385132Y-61451764D01*
X137385132Y-61451764D02*
X137465944Y-61532576D01*
X137465944Y-61532576D02*
X137546756Y-61667263D01*
X137546756Y-61667263D02*
X137573693Y-61748075D01*
X137573693Y-61748075D02*
X137573693Y-61855825D01*
X137573693Y-61855825D02*
X137519819Y-61963574D01*
X137519819Y-61963574D02*
X137465944Y-62017449D01*
X137465944Y-62017449D02*
X137358194Y-62071324D01*
X137358194Y-62071324D02*
X137304319Y-62071324D01*
X137304319Y-62071324D02*
X137115758Y-61882762D01*
X137115758Y-61882762D02*
X137223507Y-61775012D01*
X137115758Y-62367635D02*
X136550072Y-61801950D01*
X136550072Y-61801950D02*
X136334573Y-62017449D01*
X136334573Y-62017449D02*
X136307636Y-62098261D01*
X136307636Y-62098261D02*
X136307636Y-62152136D01*
X136307636Y-62152136D02*
X136334573Y-62232948D01*
X136334573Y-62232948D02*
X136415385Y-62313760D01*
X136415385Y-62313760D02*
X136496197Y-62340698D01*
X136496197Y-62340698D02*
X136550072Y-62340698D01*
X136550072Y-62340698D02*
X136630884Y-62313760D01*
X136630884Y-62313760D02*
X136846384Y-62098261D01*
X136253761Y-63229632D02*
X136577010Y-62906383D01*
X136415385Y-63068008D02*
X135849700Y-62502322D01*
X135849700Y-62502322D02*
X135984387Y-62529260D01*
X135984387Y-62529260D02*
X136092136Y-62529260D01*
X136092136Y-62529260D02*
X136172948Y-62502322D01*
X135526451Y-62933321D02*
X135472576Y-62933321D01*
X135472576Y-62933321D02*
X135391764Y-62960258D01*
X135391764Y-62960258D02*
X135257077Y-63094945D01*
X135257077Y-63094945D02*
X135230139Y-63175757D01*
X135230139Y-63175757D02*
X135230139Y-63229632D01*
X135230139Y-63229632D02*
X135257077Y-63310444D01*
X135257077Y-63310444D02*
X135310951Y-63364319D01*
X135310951Y-63364319D02*
X135418701Y-63418194D01*
X135418701Y-63418194D02*
X136065199Y-63418194D01*
X136065199Y-63418194D02*
X135715013Y-63768380D01*
X118797009Y-62228888D02*
X118823946Y-62148075D01*
X118823946Y-62148075D02*
X118904759Y-62067263D01*
X118904759Y-62067263D02*
X119012508Y-62013388D01*
X119012508Y-62013388D02*
X119120258Y-62013388D01*
X119120258Y-62013388D02*
X119201070Y-62040326D01*
X119201070Y-62040326D02*
X119335757Y-62121138D01*
X119335757Y-62121138D02*
X119416569Y-62201950D01*
X119416569Y-62201950D02*
X119497382Y-62336637D01*
X119497382Y-62336637D02*
X119524319Y-62417449D01*
X119524319Y-62417449D02*
X119524319Y-62525199D01*
X119524319Y-62525199D02*
X119470444Y-62632949D01*
X119470444Y-62632949D02*
X119416569Y-62686823D01*
X119416569Y-62686823D02*
X119308820Y-62740698D01*
X119308820Y-62740698D02*
X119254945Y-62740698D01*
X119254945Y-62740698D02*
X119066383Y-62552136D01*
X119066383Y-62552136D02*
X119174133Y-62444387D01*
X119066383Y-63037010D02*
X118500698Y-62471324D01*
X118500698Y-62471324D02*
X118285198Y-62686823D01*
X118285198Y-62686823D02*
X118258261Y-62767636D01*
X118258261Y-62767636D02*
X118258261Y-62821510D01*
X118258261Y-62821510D02*
X118285198Y-62902323D01*
X118285198Y-62902323D02*
X118366011Y-62983135D01*
X118366011Y-62983135D02*
X118446823Y-63010072D01*
X118446823Y-63010072D02*
X118500698Y-63010072D01*
X118500698Y-63010072D02*
X118581510Y-62983135D01*
X118581510Y-62983135D02*
X118797009Y-62767636D01*
X117692576Y-63279446D02*
X117800325Y-63171697D01*
X117800325Y-63171697D02*
X117881137Y-63144759D01*
X117881137Y-63144759D02*
X117935012Y-63144759D01*
X117935012Y-63144759D02*
X118069699Y-63171697D01*
X118069699Y-63171697D02*
X118204386Y-63252509D01*
X118204386Y-63252509D02*
X118419885Y-63468008D01*
X118419885Y-63468008D02*
X118446823Y-63548820D01*
X118446823Y-63548820D02*
X118446823Y-63602695D01*
X118446823Y-63602695D02*
X118419885Y-63683507D01*
X118419885Y-63683507D02*
X118312136Y-63791257D01*
X118312136Y-63791257D02*
X118231324Y-63818194D01*
X118231324Y-63818194D02*
X118177449Y-63818194D01*
X118177449Y-63818194D02*
X118096637Y-63791257D01*
X118096637Y-63791257D02*
X117961950Y-63656570D01*
X117961950Y-63656570D02*
X117935012Y-63575758D01*
X117935012Y-63575758D02*
X117935012Y-63521883D01*
X117935012Y-63521883D02*
X117961950Y-63441071D01*
X117961950Y-63441071D02*
X118069699Y-63333321D01*
X118069699Y-63333321D02*
X118150511Y-63306384D01*
X118150511Y-63306384D02*
X118204386Y-63306384D01*
X118204386Y-63306384D02*
X118285198Y-63333321D01*
X126686384Y-87813513D02*
X126713321Y-87732701D01*
X126713321Y-87732701D02*
X126794133Y-87651889D01*
X126794133Y-87651889D02*
X126901883Y-87598014D01*
X126901883Y-87598014D02*
X127009632Y-87598014D01*
X127009632Y-87598014D02*
X127090445Y-87624951D01*
X127090445Y-87624951D02*
X127225132Y-87705764D01*
X127225132Y-87705764D02*
X127305944Y-87786576D01*
X127305944Y-87786576D02*
X127386756Y-87921263D01*
X127386756Y-87921263D02*
X127413693Y-88002075D01*
X127413693Y-88002075D02*
X127413693Y-88109825D01*
X127413693Y-88109825D02*
X127359819Y-88217574D01*
X127359819Y-88217574D02*
X127305944Y-88271449D01*
X127305944Y-88271449D02*
X127198194Y-88325324D01*
X127198194Y-88325324D02*
X127144319Y-88325324D01*
X127144319Y-88325324D02*
X126955758Y-88136762D01*
X126955758Y-88136762D02*
X127063507Y-88029012D01*
X126955758Y-88621635D02*
X126390072Y-88055950D01*
X126390072Y-88055950D02*
X126174573Y-88271449D01*
X126174573Y-88271449D02*
X126147636Y-88352261D01*
X126147636Y-88352261D02*
X126147636Y-88406136D01*
X126147636Y-88406136D02*
X126174573Y-88486948D01*
X126174573Y-88486948D02*
X126255385Y-88567760D01*
X126255385Y-88567760D02*
X126336197Y-88594698D01*
X126336197Y-88594698D02*
X126390072Y-88594698D01*
X126390072Y-88594698D02*
X126470884Y-88567760D01*
X126470884Y-88567760D02*
X126686384Y-88352261D01*
X125905199Y-88648573D02*
X125851324Y-88648573D01*
X125851324Y-88648573D02*
X125770512Y-88675510D01*
X125770512Y-88675510D02*
X125635825Y-88810197D01*
X125635825Y-88810197D02*
X125608887Y-88891009D01*
X125608887Y-88891009D02*
X125608887Y-88944884D01*
X125608887Y-88944884D02*
X125635825Y-89025696D01*
X125635825Y-89025696D02*
X125689700Y-89079571D01*
X125689700Y-89079571D02*
X125797449Y-89133446D01*
X125797449Y-89133446D02*
X126443947Y-89133446D01*
X126443947Y-89133446D02*
X126093761Y-89483632D01*
X125366451Y-89187321D02*
X125312576Y-89187321D01*
X125312576Y-89187321D02*
X125231764Y-89214258D01*
X125231764Y-89214258D02*
X125097077Y-89348945D01*
X125097077Y-89348945D02*
X125070139Y-89429757D01*
X125070139Y-89429757D02*
X125070139Y-89483632D01*
X125070139Y-89483632D02*
X125097077Y-89564444D01*
X125097077Y-89564444D02*
X125150951Y-89618319D01*
X125150951Y-89618319D02*
X125258701Y-89672194D01*
X125258701Y-89672194D02*
X125905199Y-89672194D01*
X125905199Y-89672194D02*
X125555013Y-90022380D01*
X136846384Y-87813513D02*
X136873321Y-87732701D01*
X136873321Y-87732701D02*
X136954133Y-87651889D01*
X136954133Y-87651889D02*
X137061883Y-87598014D01*
X137061883Y-87598014D02*
X137169632Y-87598014D01*
X137169632Y-87598014D02*
X137250445Y-87624951D01*
X137250445Y-87624951D02*
X137385132Y-87705764D01*
X137385132Y-87705764D02*
X137465944Y-87786576D01*
X137465944Y-87786576D02*
X137546756Y-87921263D01*
X137546756Y-87921263D02*
X137573693Y-88002075D01*
X137573693Y-88002075D02*
X137573693Y-88109825D01*
X137573693Y-88109825D02*
X137519819Y-88217574D01*
X137519819Y-88217574D02*
X137465944Y-88271449D01*
X137465944Y-88271449D02*
X137358194Y-88325324D01*
X137358194Y-88325324D02*
X137304319Y-88325324D01*
X137304319Y-88325324D02*
X137115758Y-88136762D01*
X137115758Y-88136762D02*
X137223507Y-88029012D01*
X137115758Y-88621635D02*
X136550072Y-88055950D01*
X136550072Y-88055950D02*
X136334573Y-88271449D01*
X136334573Y-88271449D02*
X136307636Y-88352261D01*
X136307636Y-88352261D02*
X136307636Y-88406136D01*
X136307636Y-88406136D02*
X136334573Y-88486948D01*
X136334573Y-88486948D02*
X136415385Y-88567760D01*
X136415385Y-88567760D02*
X136496197Y-88594698D01*
X136496197Y-88594698D02*
X136550072Y-88594698D01*
X136550072Y-88594698D02*
X136630884Y-88567760D01*
X136630884Y-88567760D02*
X136846384Y-88352261D01*
X136253761Y-89483632D02*
X136577010Y-89160383D01*
X136415385Y-89322008D02*
X135849700Y-88756322D01*
X135849700Y-88756322D02*
X135984387Y-88783260D01*
X135984387Y-88783260D02*
X136092136Y-88783260D01*
X136092136Y-88783260D02*
X136172948Y-88756322D01*
X135984387Y-89753006D02*
X135876637Y-89860756D01*
X135876637Y-89860756D02*
X135795825Y-89887693D01*
X135795825Y-89887693D02*
X135741950Y-89887693D01*
X135741950Y-89887693D02*
X135607263Y-89860756D01*
X135607263Y-89860756D02*
X135472576Y-89779944D01*
X135472576Y-89779944D02*
X135257077Y-89564444D01*
X135257077Y-89564444D02*
X135230139Y-89483632D01*
X135230139Y-89483632D02*
X135230139Y-89429757D01*
X135230139Y-89429757D02*
X135257077Y-89348945D01*
X135257077Y-89348945D02*
X135364826Y-89241196D01*
X135364826Y-89241196D02*
X135445638Y-89214258D01*
X135445638Y-89214258D02*
X135499513Y-89214258D01*
X135499513Y-89214258D02*
X135580326Y-89241196D01*
X135580326Y-89241196D02*
X135715013Y-89375883D01*
X135715013Y-89375883D02*
X135741950Y-89456695D01*
X135741950Y-89456695D02*
X135741950Y-89510570D01*
X135741950Y-89510570D02*
X135715013Y-89591382D01*
X135715013Y-89591382D02*
X135607263Y-89699131D01*
X135607263Y-89699131D02*
X135526451Y-89726069D01*
X135526451Y-89726069D02*
X135472576Y-89726069D01*
X135472576Y-89726069D02*
X135391764Y-89699131D01*
X117226755Y-87867389D02*
X116957381Y-88136763D01*
X117442254Y-87975138D02*
X116688007Y-87598015D01*
X116688007Y-87598015D02*
X117065131Y-88352262D01*
X116041510Y-88298387D02*
X116068447Y-88217575D01*
X116068447Y-88217575D02*
X116149259Y-88136762D01*
X116149259Y-88136762D02*
X116257009Y-88082888D01*
X116257009Y-88082888D02*
X116364759Y-88082888D01*
X116364759Y-88082888D02*
X116445571Y-88109825D01*
X116445571Y-88109825D02*
X116580258Y-88190637D01*
X116580258Y-88190637D02*
X116661070Y-88271449D01*
X116661070Y-88271449D02*
X116741882Y-88406136D01*
X116741882Y-88406136D02*
X116768820Y-88486949D01*
X116768820Y-88486949D02*
X116768820Y-88594698D01*
X116768820Y-88594698D02*
X116714945Y-88702448D01*
X116714945Y-88702448D02*
X116661070Y-88756323D01*
X116661070Y-88756323D02*
X116553320Y-88810197D01*
X116553320Y-88810197D02*
X116499446Y-88810197D01*
X116499446Y-88810197D02*
X116310884Y-88621636D01*
X116310884Y-88621636D02*
X116418633Y-88513886D01*
X116310884Y-89106509D02*
X115745198Y-88540823D01*
X115745198Y-88540823D02*
X115987635Y-89429758D01*
X115987635Y-89429758D02*
X115421950Y-88864072D01*
X115718261Y-89699132D02*
X115152576Y-89133446D01*
X115152576Y-89133446D02*
X115017889Y-89268133D01*
X115017889Y-89268133D02*
X114964014Y-89375883D01*
X114964014Y-89375883D02*
X114964014Y-89483632D01*
X114964014Y-89483632D02*
X114990951Y-89564445D01*
X114990951Y-89564445D02*
X115071764Y-89699132D01*
X115071764Y-89699132D02*
X115152576Y-89779944D01*
X115152576Y-89779944D02*
X115287263Y-89860756D01*
X115287263Y-89860756D02*
X115368075Y-89887693D01*
X115368075Y-89887693D02*
X115475825Y-89887693D01*
X115475825Y-89887693D02*
X115583574Y-89833819D01*
X115583574Y-89833819D02*
X115718261Y-89699132D01*
X147006384Y-87813513D02*
X147033321Y-87732701D01*
X147033321Y-87732701D02*
X147114133Y-87651889D01*
X147114133Y-87651889D02*
X147221883Y-87598014D01*
X147221883Y-87598014D02*
X147329632Y-87598014D01*
X147329632Y-87598014D02*
X147410445Y-87624951D01*
X147410445Y-87624951D02*
X147545132Y-87705764D01*
X147545132Y-87705764D02*
X147625944Y-87786576D01*
X147625944Y-87786576D02*
X147706756Y-87921263D01*
X147706756Y-87921263D02*
X147733693Y-88002075D01*
X147733693Y-88002075D02*
X147733693Y-88109825D01*
X147733693Y-88109825D02*
X147679819Y-88217574D01*
X147679819Y-88217574D02*
X147625944Y-88271449D01*
X147625944Y-88271449D02*
X147518194Y-88325324D01*
X147518194Y-88325324D02*
X147464319Y-88325324D01*
X147464319Y-88325324D02*
X147275758Y-88136762D01*
X147275758Y-88136762D02*
X147383507Y-88029012D01*
X147275758Y-88621635D02*
X146710072Y-88055950D01*
X146710072Y-88055950D02*
X146494573Y-88271449D01*
X146494573Y-88271449D02*
X146467636Y-88352261D01*
X146467636Y-88352261D02*
X146467636Y-88406136D01*
X146467636Y-88406136D02*
X146494573Y-88486948D01*
X146494573Y-88486948D02*
X146575385Y-88567760D01*
X146575385Y-88567760D02*
X146656197Y-88594698D01*
X146656197Y-88594698D02*
X146710072Y-88594698D01*
X146710072Y-88594698D02*
X146790884Y-88567760D01*
X146790884Y-88567760D02*
X147006384Y-88352261D01*
X146413761Y-89483632D02*
X146737010Y-89160383D01*
X146575385Y-89322008D02*
X146009700Y-88756322D01*
X146009700Y-88756322D02*
X146144387Y-88783260D01*
X146144387Y-88783260D02*
X146252136Y-88783260D01*
X146252136Y-88783260D02*
X146332948Y-88756322D01*
X145363202Y-89402820D02*
X145470951Y-89295070D01*
X145470951Y-89295070D02*
X145551764Y-89268133D01*
X145551764Y-89268133D02*
X145605638Y-89268133D01*
X145605638Y-89268133D02*
X145740326Y-89295070D01*
X145740326Y-89295070D02*
X145875013Y-89375883D01*
X145875013Y-89375883D02*
X146090512Y-89591382D01*
X146090512Y-89591382D02*
X146117449Y-89672194D01*
X146117449Y-89672194D02*
X146117449Y-89726069D01*
X146117449Y-89726069D02*
X146090512Y-89806881D01*
X146090512Y-89806881D02*
X145982762Y-89914631D01*
X145982762Y-89914631D02*
X145901950Y-89941568D01*
X145901950Y-89941568D02*
X145848075Y-89941568D01*
X145848075Y-89941568D02*
X145767263Y-89914631D01*
X145767263Y-89914631D02*
X145632576Y-89779944D01*
X145632576Y-89779944D02*
X145605638Y-89699131D01*
X145605638Y-89699131D02*
X145605638Y-89645257D01*
X145605638Y-89645257D02*
X145632576Y-89564444D01*
X145632576Y-89564444D02*
X145740326Y-89456695D01*
X145740326Y-89456695D02*
X145821138Y-89429757D01*
X145821138Y-89429757D02*
X145875013Y-89429757D01*
X145875013Y-89429757D02*
X145955825Y-89456695D01*
X141683946Y-87801950D02*
X141710884Y-87721138D01*
X141710884Y-87721138D02*
X141791696Y-87640326D01*
X141791696Y-87640326D02*
X141899446Y-87586451D01*
X141899446Y-87586451D02*
X142007195Y-87586451D01*
X142007195Y-87586451D02*
X142088007Y-87613389D01*
X142088007Y-87613389D02*
X142222694Y-87694201D01*
X142222694Y-87694201D02*
X142303507Y-87775013D01*
X142303507Y-87775013D02*
X142384319Y-87909700D01*
X142384319Y-87909700D02*
X142411256Y-87990512D01*
X142411256Y-87990512D02*
X142411256Y-88098262D01*
X142411256Y-88098262D02*
X142357381Y-88206011D01*
X142357381Y-88206011D02*
X142303507Y-88259886D01*
X142303507Y-88259886D02*
X142195757Y-88313761D01*
X142195757Y-88313761D02*
X142141882Y-88313761D01*
X142141882Y-88313761D02*
X141953320Y-88125199D01*
X141953320Y-88125199D02*
X142061070Y-88017450D01*
X141953320Y-88610072D02*
X141387635Y-88044387D01*
X141387635Y-88044387D02*
X141630072Y-88933321D01*
X141630072Y-88933321D02*
X141064386Y-88367636D01*
X141360698Y-89202695D02*
X140795012Y-88637010D01*
X140795012Y-88637010D02*
X140660325Y-88771697D01*
X140660325Y-88771697D02*
X140606450Y-88879446D01*
X140606450Y-88879446D02*
X140606450Y-88987196D01*
X140606450Y-88987196D02*
X140633388Y-89068008D01*
X140633388Y-89068008D02*
X140714200Y-89202695D01*
X140714200Y-89202695D02*
X140795012Y-89283507D01*
X140795012Y-89283507D02*
X140929699Y-89364319D01*
X140929699Y-89364319D02*
X141010511Y-89391257D01*
X141010511Y-89391257D02*
X141118261Y-89391257D01*
X141118261Y-89391257D02*
X141226011Y-89337382D01*
X141226011Y-89337382D02*
X141360698Y-89202695D01*
X131766384Y-61705513D02*
X131793321Y-61624701D01*
X131793321Y-61624701D02*
X131874133Y-61543889D01*
X131874133Y-61543889D02*
X131981883Y-61490014D01*
X131981883Y-61490014D02*
X132089632Y-61490014D01*
X132089632Y-61490014D02*
X132170445Y-61516951D01*
X132170445Y-61516951D02*
X132305132Y-61597764D01*
X132305132Y-61597764D02*
X132385944Y-61678576D01*
X132385944Y-61678576D02*
X132466756Y-61813263D01*
X132466756Y-61813263D02*
X132493693Y-61894075D01*
X132493693Y-61894075D02*
X132493693Y-62001825D01*
X132493693Y-62001825D02*
X132439819Y-62109574D01*
X132439819Y-62109574D02*
X132385944Y-62163449D01*
X132385944Y-62163449D02*
X132278194Y-62217324D01*
X132278194Y-62217324D02*
X132224319Y-62217324D01*
X132224319Y-62217324D02*
X132035758Y-62028762D01*
X132035758Y-62028762D02*
X132143507Y-61921012D01*
X132035758Y-62513635D02*
X131470072Y-61947950D01*
X131470072Y-61947950D02*
X131254573Y-62163449D01*
X131254573Y-62163449D02*
X131227636Y-62244261D01*
X131227636Y-62244261D02*
X131227636Y-62298136D01*
X131227636Y-62298136D02*
X131254573Y-62378948D01*
X131254573Y-62378948D02*
X131335385Y-62459760D01*
X131335385Y-62459760D02*
X131416197Y-62486698D01*
X131416197Y-62486698D02*
X131470072Y-62486698D01*
X131470072Y-62486698D02*
X131550884Y-62459760D01*
X131550884Y-62459760D02*
X131766384Y-62244261D01*
X131173761Y-63375632D02*
X131497010Y-63052383D01*
X131335385Y-63214008D02*
X130769700Y-62648322D01*
X130769700Y-62648322D02*
X130904387Y-62675260D01*
X130904387Y-62675260D02*
X131012136Y-62675260D01*
X131012136Y-62675260D02*
X131092948Y-62648322D01*
X130257889Y-63160133D02*
X130204014Y-63214008D01*
X130204014Y-63214008D02*
X130177077Y-63294820D01*
X130177077Y-63294820D02*
X130177077Y-63348695D01*
X130177077Y-63348695D02*
X130204014Y-63429507D01*
X130204014Y-63429507D02*
X130284826Y-63564194D01*
X130284826Y-63564194D02*
X130419513Y-63698881D01*
X130419513Y-63698881D02*
X130554200Y-63779693D01*
X130554200Y-63779693D02*
X130635013Y-63806631D01*
X130635013Y-63806631D02*
X130688887Y-63806631D01*
X130688887Y-63806631D02*
X130769700Y-63779693D01*
X130769700Y-63779693D02*
X130823574Y-63725818D01*
X130823574Y-63725818D02*
X130850512Y-63645006D01*
X130850512Y-63645006D02*
X130850512Y-63591131D01*
X130850512Y-63591131D02*
X130823574Y-63510319D01*
X130823574Y-63510319D02*
X130742762Y-63375632D01*
X130742762Y-63375632D02*
X130608075Y-63240945D01*
X130608075Y-63240945D02*
X130473388Y-63160133D01*
X130473388Y-63160133D02*
X130392576Y-63133196D01*
X130392576Y-63133196D02*
X130338701Y-63133196D01*
X130338701Y-63133196D02*
X130257889Y-63160133D01*
X147006384Y-61705513D02*
X147033321Y-61624701D01*
X147033321Y-61624701D02*
X147114133Y-61543889D01*
X147114133Y-61543889D02*
X147221883Y-61490014D01*
X147221883Y-61490014D02*
X147329632Y-61490014D01*
X147329632Y-61490014D02*
X147410445Y-61516951D01*
X147410445Y-61516951D02*
X147545132Y-61597764D01*
X147545132Y-61597764D02*
X147625944Y-61678576D01*
X147625944Y-61678576D02*
X147706756Y-61813263D01*
X147706756Y-61813263D02*
X147733693Y-61894075D01*
X147733693Y-61894075D02*
X147733693Y-62001825D01*
X147733693Y-62001825D02*
X147679819Y-62109574D01*
X147679819Y-62109574D02*
X147625944Y-62163449D01*
X147625944Y-62163449D02*
X147518194Y-62217324D01*
X147518194Y-62217324D02*
X147464319Y-62217324D01*
X147464319Y-62217324D02*
X147275758Y-62028762D01*
X147275758Y-62028762D02*
X147383507Y-61921012D01*
X147275758Y-62513635D02*
X146710072Y-61947950D01*
X146710072Y-61947950D02*
X146494573Y-62163449D01*
X146494573Y-62163449D02*
X146467636Y-62244261D01*
X146467636Y-62244261D02*
X146467636Y-62298136D01*
X146467636Y-62298136D02*
X146494573Y-62378948D01*
X146494573Y-62378948D02*
X146575385Y-62459760D01*
X146575385Y-62459760D02*
X146656197Y-62486698D01*
X146656197Y-62486698D02*
X146710072Y-62486698D01*
X146710072Y-62486698D02*
X146790884Y-62459760D01*
X146790884Y-62459760D02*
X147006384Y-62244261D01*
X146413761Y-63375632D02*
X146737010Y-63052383D01*
X146575385Y-63214008D02*
X146009700Y-62648322D01*
X146009700Y-62648322D02*
X146144387Y-62675260D01*
X146144387Y-62675260D02*
X146252136Y-62675260D01*
X146252136Y-62675260D02*
X146332948Y-62648322D01*
X145336264Y-63321757D02*
X145605638Y-63052383D01*
X145605638Y-63052383D02*
X145901950Y-63294820D01*
X145901950Y-63294820D02*
X145848075Y-63294820D01*
X145848075Y-63294820D02*
X145767263Y-63321757D01*
X145767263Y-63321757D02*
X145632576Y-63456444D01*
X145632576Y-63456444D02*
X145605638Y-63537257D01*
X145605638Y-63537257D02*
X145605638Y-63591131D01*
X145605638Y-63591131D02*
X145632576Y-63671944D01*
X145632576Y-63671944D02*
X145767263Y-63806631D01*
X145767263Y-63806631D02*
X145848075Y-63833568D01*
X145848075Y-63833568D02*
X145901950Y-63833568D01*
X145901950Y-63833568D02*
X145982762Y-63806631D01*
X145982762Y-63806631D02*
X146117449Y-63671944D01*
X146117449Y-63671944D02*
X146144387Y-63591131D01*
X146144387Y-63591131D02*
X146144387Y-63537257D01*
X144466384Y-87813513D02*
X144493321Y-87732701D01*
X144493321Y-87732701D02*
X144574133Y-87651889D01*
X144574133Y-87651889D02*
X144681883Y-87598014D01*
X144681883Y-87598014D02*
X144789632Y-87598014D01*
X144789632Y-87598014D02*
X144870445Y-87624951D01*
X144870445Y-87624951D02*
X145005132Y-87705764D01*
X145005132Y-87705764D02*
X145085944Y-87786576D01*
X145085944Y-87786576D02*
X145166756Y-87921263D01*
X145166756Y-87921263D02*
X145193693Y-88002075D01*
X145193693Y-88002075D02*
X145193693Y-88109825D01*
X145193693Y-88109825D02*
X145139819Y-88217574D01*
X145139819Y-88217574D02*
X145085944Y-88271449D01*
X145085944Y-88271449D02*
X144978194Y-88325324D01*
X144978194Y-88325324D02*
X144924319Y-88325324D01*
X144924319Y-88325324D02*
X144735758Y-88136762D01*
X144735758Y-88136762D02*
X144843507Y-88029012D01*
X144735758Y-88621635D02*
X144170072Y-88055950D01*
X144170072Y-88055950D02*
X143954573Y-88271449D01*
X143954573Y-88271449D02*
X143927636Y-88352261D01*
X143927636Y-88352261D02*
X143927636Y-88406136D01*
X143927636Y-88406136D02*
X143954573Y-88486948D01*
X143954573Y-88486948D02*
X144035385Y-88567760D01*
X144035385Y-88567760D02*
X144116197Y-88594698D01*
X144116197Y-88594698D02*
X144170072Y-88594698D01*
X144170072Y-88594698D02*
X144250884Y-88567760D01*
X144250884Y-88567760D02*
X144466384Y-88352261D01*
X143873761Y-89483632D02*
X144197010Y-89160383D01*
X144035385Y-89322008D02*
X143469700Y-88756322D01*
X143469700Y-88756322D02*
X143604387Y-88783260D01*
X143604387Y-88783260D02*
X143712136Y-88783260D01*
X143712136Y-88783260D02*
X143792948Y-88756322D01*
X143119513Y-89106509D02*
X142742390Y-89483632D01*
X142742390Y-89483632D02*
X143550512Y-89806881D01*
X149012000Y-79614761D02*
X149050095Y-79729047D01*
X149050095Y-79729047D02*
X149050095Y-79919523D01*
X149050095Y-79919523D02*
X149012000Y-79995714D01*
X149012000Y-79995714D02*
X148973904Y-80033809D01*
X148973904Y-80033809D02*
X148897714Y-80071904D01*
X148897714Y-80071904D02*
X148821523Y-80071904D01*
X148821523Y-80071904D02*
X148745333Y-80033809D01*
X148745333Y-80033809D02*
X148707238Y-79995714D01*
X148707238Y-79995714D02*
X148669142Y-79919523D01*
X148669142Y-79919523D02*
X148631047Y-79767142D01*
X148631047Y-79767142D02*
X148592952Y-79690952D01*
X148592952Y-79690952D02*
X148554857Y-79652857D01*
X148554857Y-79652857D02*
X148478666Y-79614761D01*
X148478666Y-79614761D02*
X148402476Y-79614761D01*
X148402476Y-79614761D02*
X148326285Y-79652857D01*
X148326285Y-79652857D02*
X148288190Y-79690952D01*
X148288190Y-79690952D02*
X148250095Y-79767142D01*
X148250095Y-79767142D02*
X148250095Y-79957619D01*
X148250095Y-79957619D02*
X148288190Y-80071904D01*
X148250095Y-80338571D02*
X149050095Y-80529047D01*
X149050095Y-80529047D02*
X148478666Y-80681428D01*
X148478666Y-80681428D02*
X149050095Y-80833809D01*
X149050095Y-80833809D02*
X148250095Y-81024286D01*
X149050095Y-81329048D02*
X148250095Y-81329048D01*
X148250095Y-81329048D02*
X148250095Y-81519524D01*
X148250095Y-81519524D02*
X148288190Y-81633810D01*
X148288190Y-81633810D02*
X148364380Y-81710000D01*
X148364380Y-81710000D02*
X148440571Y-81748095D01*
X148440571Y-81748095D02*
X148592952Y-81786191D01*
X148592952Y-81786191D02*
X148707238Y-81786191D01*
X148707238Y-81786191D02*
X148859619Y-81748095D01*
X148859619Y-81748095D02*
X148935809Y-81710000D01*
X148935809Y-81710000D02*
X149012000Y-81633810D01*
X149012000Y-81633810D02*
X149050095Y-81519524D01*
X149050095Y-81519524D02*
X149050095Y-81329048D01*
X149050095Y-82129048D02*
X148250095Y-82129048D01*
X148250095Y-82662381D02*
X148250095Y-82814762D01*
X148250095Y-82814762D02*
X148288190Y-82890952D01*
X148288190Y-82890952D02*
X148364380Y-82967143D01*
X148364380Y-82967143D02*
X148516761Y-83005238D01*
X148516761Y-83005238D02*
X148783428Y-83005238D01*
X148783428Y-83005238D02*
X148935809Y-82967143D01*
X148935809Y-82967143D02*
X149012000Y-82890952D01*
X149012000Y-82890952D02*
X149050095Y-82814762D01*
X149050095Y-82814762D02*
X149050095Y-82662381D01*
X149050095Y-82662381D02*
X149012000Y-82586190D01*
X149012000Y-82586190D02*
X148935809Y-82510000D01*
X148935809Y-82510000D02*
X148783428Y-82471904D01*
X148783428Y-82471904D02*
X148516761Y-82471904D01*
X148516761Y-82471904D02*
X148364380Y-82510000D01*
X148364380Y-82510000D02*
X148288190Y-82586190D01*
X148288190Y-82586190D02*
X148250095Y-82662381D01*
X108637009Y-62228888D02*
X108663946Y-62148075D01*
X108663946Y-62148075D02*
X108744759Y-62067263D01*
X108744759Y-62067263D02*
X108852508Y-62013388D01*
X108852508Y-62013388D02*
X108960258Y-62013388D01*
X108960258Y-62013388D02*
X109041070Y-62040326D01*
X109041070Y-62040326D02*
X109175757Y-62121138D01*
X109175757Y-62121138D02*
X109256569Y-62201950D01*
X109256569Y-62201950D02*
X109337382Y-62336637D01*
X109337382Y-62336637D02*
X109364319Y-62417449D01*
X109364319Y-62417449D02*
X109364319Y-62525199D01*
X109364319Y-62525199D02*
X109310444Y-62632949D01*
X109310444Y-62632949D02*
X109256569Y-62686823D01*
X109256569Y-62686823D02*
X109148820Y-62740698D01*
X109148820Y-62740698D02*
X109094945Y-62740698D01*
X109094945Y-62740698D02*
X108906383Y-62552136D01*
X108906383Y-62552136D02*
X109014133Y-62444387D01*
X108906383Y-63037010D02*
X108340698Y-62471324D01*
X108340698Y-62471324D02*
X108125198Y-62686823D01*
X108125198Y-62686823D02*
X108098261Y-62767636D01*
X108098261Y-62767636D02*
X108098261Y-62821510D01*
X108098261Y-62821510D02*
X108125198Y-62902323D01*
X108125198Y-62902323D02*
X108206011Y-62983135D01*
X108206011Y-62983135D02*
X108286823Y-63010072D01*
X108286823Y-63010072D02*
X108340698Y-63010072D01*
X108340698Y-63010072D02*
X108421510Y-62983135D01*
X108421510Y-62983135D02*
X108637009Y-62767636D01*
X107828887Y-62983135D02*
X107478701Y-63333321D01*
X107478701Y-63333321D02*
X107882762Y-63360258D01*
X107882762Y-63360258D02*
X107801950Y-63441071D01*
X107801950Y-63441071D02*
X107775012Y-63521883D01*
X107775012Y-63521883D02*
X107775012Y-63575758D01*
X107775012Y-63575758D02*
X107801950Y-63656570D01*
X107801950Y-63656570D02*
X107936637Y-63791257D01*
X107936637Y-63791257D02*
X108017449Y-63818194D01*
X108017449Y-63818194D02*
X108071324Y-63818194D01*
X108071324Y-63818194D02*
X108152136Y-63791257D01*
X108152136Y-63791257D02*
X108313760Y-63629632D01*
X108313760Y-63629632D02*
X108340698Y-63548820D01*
X108340698Y-63548820D02*
X108340698Y-63494945D01*
X98477009Y-62228888D02*
X98503946Y-62148075D01*
X98503946Y-62148075D02*
X98584759Y-62067263D01*
X98584759Y-62067263D02*
X98692508Y-62013388D01*
X98692508Y-62013388D02*
X98800258Y-62013388D01*
X98800258Y-62013388D02*
X98881070Y-62040326D01*
X98881070Y-62040326D02*
X99015757Y-62121138D01*
X99015757Y-62121138D02*
X99096569Y-62201950D01*
X99096569Y-62201950D02*
X99177382Y-62336637D01*
X99177382Y-62336637D02*
X99204319Y-62417449D01*
X99204319Y-62417449D02*
X99204319Y-62525199D01*
X99204319Y-62525199D02*
X99150444Y-62632949D01*
X99150444Y-62632949D02*
X99096569Y-62686823D01*
X99096569Y-62686823D02*
X98988820Y-62740698D01*
X98988820Y-62740698D02*
X98934945Y-62740698D01*
X98934945Y-62740698D02*
X98746383Y-62552136D01*
X98746383Y-62552136D02*
X98854133Y-62444387D01*
X98746383Y-63037010D02*
X98180698Y-62471324D01*
X98180698Y-62471324D02*
X97965198Y-62686823D01*
X97965198Y-62686823D02*
X97938261Y-62767636D01*
X97938261Y-62767636D02*
X97938261Y-62821510D01*
X97938261Y-62821510D02*
X97965198Y-62902323D01*
X97965198Y-62902323D02*
X98046011Y-62983135D01*
X98046011Y-62983135D02*
X98126823Y-63010072D01*
X98126823Y-63010072D02*
X98180698Y-63010072D01*
X98180698Y-63010072D02*
X98261510Y-62983135D01*
X98261510Y-62983135D02*
X98477009Y-62767636D01*
X97507263Y-63144759D02*
X97453388Y-63198634D01*
X97453388Y-63198634D02*
X97426450Y-63279446D01*
X97426450Y-63279446D02*
X97426450Y-63333321D01*
X97426450Y-63333321D02*
X97453388Y-63414133D01*
X97453388Y-63414133D02*
X97534200Y-63548820D01*
X97534200Y-63548820D02*
X97668887Y-63683507D01*
X97668887Y-63683507D02*
X97803574Y-63764319D01*
X97803574Y-63764319D02*
X97884386Y-63791257D01*
X97884386Y-63791257D02*
X97938261Y-63791257D01*
X97938261Y-63791257D02*
X98019073Y-63764319D01*
X98019073Y-63764319D02*
X98072948Y-63710445D01*
X98072948Y-63710445D02*
X98099885Y-63629632D01*
X98099885Y-63629632D02*
X98099885Y-63575758D01*
X98099885Y-63575758D02*
X98072948Y-63494945D01*
X98072948Y-63494945D02*
X97992136Y-63360258D01*
X97992136Y-63360258D02*
X97857449Y-63225571D01*
X97857449Y-63225571D02*
X97722762Y-63144759D01*
X97722762Y-63144759D02*
X97641950Y-63117822D01*
X97641950Y-63117822D02*
X97588075Y-63117822D01*
X97588075Y-63117822D02*
X97507263Y-63144759D01*
X128983946Y-87801950D02*
X129010884Y-87721138D01*
X129010884Y-87721138D02*
X129091696Y-87640326D01*
X129091696Y-87640326D02*
X129199446Y-87586451D01*
X129199446Y-87586451D02*
X129307195Y-87586451D01*
X129307195Y-87586451D02*
X129388007Y-87613389D01*
X129388007Y-87613389D02*
X129522694Y-87694201D01*
X129522694Y-87694201D02*
X129603507Y-87775013D01*
X129603507Y-87775013D02*
X129684319Y-87909700D01*
X129684319Y-87909700D02*
X129711256Y-87990512D01*
X129711256Y-87990512D02*
X129711256Y-88098262D01*
X129711256Y-88098262D02*
X129657381Y-88206011D01*
X129657381Y-88206011D02*
X129603507Y-88259886D01*
X129603507Y-88259886D02*
X129495757Y-88313761D01*
X129495757Y-88313761D02*
X129441882Y-88313761D01*
X129441882Y-88313761D02*
X129253320Y-88125199D01*
X129253320Y-88125199D02*
X129361070Y-88017450D01*
X129253320Y-88610072D02*
X128687635Y-88044387D01*
X128687635Y-88044387D02*
X128930072Y-88933321D01*
X128930072Y-88933321D02*
X128364386Y-88367636D01*
X128660698Y-89202695D02*
X128095012Y-88637010D01*
X128095012Y-88637010D02*
X127960325Y-88771697D01*
X127960325Y-88771697D02*
X127906450Y-88879446D01*
X127906450Y-88879446D02*
X127906450Y-88987196D01*
X127906450Y-88987196D02*
X127933388Y-89068008D01*
X127933388Y-89068008D02*
X128014200Y-89202695D01*
X128014200Y-89202695D02*
X128095012Y-89283507D01*
X128095012Y-89283507D02*
X128229699Y-89364319D01*
X128229699Y-89364319D02*
X128310511Y-89391257D01*
X128310511Y-89391257D02*
X128418261Y-89391257D01*
X128418261Y-89391257D02*
X128526011Y-89337382D01*
X128526011Y-89337382D02*
X128660698Y-89202695D01*
X119076384Y-87813513D02*
X119103321Y-87732701D01*
X119103321Y-87732701D02*
X119184133Y-87651889D01*
X119184133Y-87651889D02*
X119291883Y-87598014D01*
X119291883Y-87598014D02*
X119399632Y-87598014D01*
X119399632Y-87598014D02*
X119480445Y-87624951D01*
X119480445Y-87624951D02*
X119615132Y-87705764D01*
X119615132Y-87705764D02*
X119695944Y-87786576D01*
X119695944Y-87786576D02*
X119776756Y-87921263D01*
X119776756Y-87921263D02*
X119803693Y-88002075D01*
X119803693Y-88002075D02*
X119803693Y-88109825D01*
X119803693Y-88109825D02*
X119749819Y-88217574D01*
X119749819Y-88217574D02*
X119695944Y-88271449D01*
X119695944Y-88271449D02*
X119588194Y-88325324D01*
X119588194Y-88325324D02*
X119534319Y-88325324D01*
X119534319Y-88325324D02*
X119345758Y-88136762D01*
X119345758Y-88136762D02*
X119453507Y-88029012D01*
X119345758Y-88621635D02*
X118780072Y-88055950D01*
X118780072Y-88055950D02*
X118564573Y-88271449D01*
X118564573Y-88271449D02*
X118537636Y-88352261D01*
X118537636Y-88352261D02*
X118537636Y-88406136D01*
X118537636Y-88406136D02*
X118564573Y-88486948D01*
X118564573Y-88486948D02*
X118645385Y-88567760D01*
X118645385Y-88567760D02*
X118726197Y-88594698D01*
X118726197Y-88594698D02*
X118780072Y-88594698D01*
X118780072Y-88594698D02*
X118860884Y-88567760D01*
X118860884Y-88567760D02*
X119076384Y-88352261D01*
X118295199Y-88648573D02*
X118241324Y-88648573D01*
X118241324Y-88648573D02*
X118160512Y-88675510D01*
X118160512Y-88675510D02*
X118025825Y-88810197D01*
X118025825Y-88810197D02*
X117998887Y-88891009D01*
X117998887Y-88891009D02*
X117998887Y-88944884D01*
X117998887Y-88944884D02*
X118025825Y-89025696D01*
X118025825Y-89025696D02*
X118079700Y-89079571D01*
X118079700Y-89079571D02*
X118187449Y-89133446D01*
X118187449Y-89133446D02*
X118833947Y-89133446D01*
X118833947Y-89133446D02*
X118483761Y-89483632D01*
X117729513Y-89106509D02*
X117352390Y-89483632D01*
X117352390Y-89483632D02*
X118160512Y-89806881D01*
X101007009Y-62128888D02*
X101033946Y-62048075D01*
X101033946Y-62048075D02*
X101114759Y-61967263D01*
X101114759Y-61967263D02*
X101222508Y-61913388D01*
X101222508Y-61913388D02*
X101330258Y-61913388D01*
X101330258Y-61913388D02*
X101411070Y-61940326D01*
X101411070Y-61940326D02*
X101545757Y-62021138D01*
X101545757Y-62021138D02*
X101626569Y-62101950D01*
X101626569Y-62101950D02*
X101707382Y-62236637D01*
X101707382Y-62236637D02*
X101734319Y-62317449D01*
X101734319Y-62317449D02*
X101734319Y-62425199D01*
X101734319Y-62425199D02*
X101680444Y-62532949D01*
X101680444Y-62532949D02*
X101626569Y-62586823D01*
X101626569Y-62586823D02*
X101518820Y-62640698D01*
X101518820Y-62640698D02*
X101464945Y-62640698D01*
X101464945Y-62640698D02*
X101276383Y-62452136D01*
X101276383Y-62452136D02*
X101384133Y-62344387D01*
X101276383Y-62937010D02*
X100710698Y-62371324D01*
X100710698Y-62371324D02*
X100495198Y-62586823D01*
X100495198Y-62586823D02*
X100468261Y-62667636D01*
X100468261Y-62667636D02*
X100468261Y-62721510D01*
X100468261Y-62721510D02*
X100495198Y-62802323D01*
X100495198Y-62802323D02*
X100576011Y-62883135D01*
X100576011Y-62883135D02*
X100656823Y-62910072D01*
X100656823Y-62910072D02*
X100710698Y-62910072D01*
X100710698Y-62910072D02*
X100791510Y-62883135D01*
X100791510Y-62883135D02*
X101007009Y-62667636D01*
X100414386Y-63799006D02*
X100737635Y-63475758D01*
X100576011Y-63637382D02*
X100010325Y-63071697D01*
X100010325Y-63071697D02*
X100145012Y-63098634D01*
X100145012Y-63098634D02*
X100252762Y-63098634D01*
X100252762Y-63098634D02*
X100333574Y-63071697D01*
X116283946Y-62201950D02*
X116310884Y-62121138D01*
X116310884Y-62121138D02*
X116391696Y-62040326D01*
X116391696Y-62040326D02*
X116499446Y-61986451D01*
X116499446Y-61986451D02*
X116607195Y-61986451D01*
X116607195Y-61986451D02*
X116688007Y-62013389D01*
X116688007Y-62013389D02*
X116822694Y-62094201D01*
X116822694Y-62094201D02*
X116903507Y-62175013D01*
X116903507Y-62175013D02*
X116984319Y-62309700D01*
X116984319Y-62309700D02*
X117011256Y-62390512D01*
X117011256Y-62390512D02*
X117011256Y-62498262D01*
X117011256Y-62498262D02*
X116957381Y-62606011D01*
X116957381Y-62606011D02*
X116903507Y-62659886D01*
X116903507Y-62659886D02*
X116795757Y-62713761D01*
X116795757Y-62713761D02*
X116741882Y-62713761D01*
X116741882Y-62713761D02*
X116553320Y-62525199D01*
X116553320Y-62525199D02*
X116661070Y-62417450D01*
X116553320Y-63010072D02*
X115987635Y-62444387D01*
X115987635Y-62444387D02*
X116230072Y-63333321D01*
X116230072Y-63333321D02*
X115664386Y-62767636D01*
X115960698Y-63602695D02*
X115395012Y-63037010D01*
X115395012Y-63037010D02*
X115260325Y-63171697D01*
X115260325Y-63171697D02*
X115206450Y-63279446D01*
X115206450Y-63279446D02*
X115206450Y-63387196D01*
X115206450Y-63387196D02*
X115233388Y-63468008D01*
X115233388Y-63468008D02*
X115314200Y-63602695D01*
X115314200Y-63602695D02*
X115395012Y-63683507D01*
X115395012Y-63683507D02*
X115529699Y-63764319D01*
X115529699Y-63764319D02*
X115610511Y-63791257D01*
X115610511Y-63791257D02*
X115718261Y-63791257D01*
X115718261Y-63791257D02*
X115826011Y-63737382D01*
X115826011Y-63737382D02*
X115960698Y-63602695D01*
X101555757Y-87636265D02*
X101932881Y-88390512D01*
X101932881Y-88390512D02*
X101178634Y-88013388D01*
X101555758Y-88713760D02*
X101501883Y-88821510D01*
X101501883Y-88821510D02*
X101367196Y-88956197D01*
X101367196Y-88956197D02*
X101286384Y-88983134D01*
X101286384Y-88983134D02*
X101232509Y-88983134D01*
X101232509Y-88983134D02*
X101151697Y-88956197D01*
X101151697Y-88956197D02*
X101097822Y-88902322D01*
X101097822Y-88902322D02*
X101070884Y-88821510D01*
X101070884Y-88821510D02*
X101070884Y-88767635D01*
X101070884Y-88767635D02*
X101097822Y-88686823D01*
X101097822Y-88686823D02*
X101178634Y-88552136D01*
X101178634Y-88552136D02*
X101205571Y-88471324D01*
X101205571Y-88471324D02*
X101205571Y-88417449D01*
X101205571Y-88417449D02*
X101178634Y-88336637D01*
X101178634Y-88336637D02*
X101124759Y-88282762D01*
X101124759Y-88282762D02*
X101043947Y-88255825D01*
X101043947Y-88255825D02*
X100990072Y-88255825D01*
X100990072Y-88255825D02*
X100909260Y-88282762D01*
X100909260Y-88282762D02*
X100774573Y-88417449D01*
X100774573Y-88417449D02*
X100720698Y-88525199D01*
X100639886Y-89144759D02*
X100909260Y-89414133D01*
X100532136Y-88659886D02*
X100639886Y-89144759D01*
X100639886Y-89144759D02*
X100155013Y-89037009D01*
X100532136Y-89737382D02*
X100478262Y-89845131D01*
X100478262Y-89845131D02*
X100343575Y-89979818D01*
X100343575Y-89979818D02*
X100262762Y-90006756D01*
X100262762Y-90006756D02*
X100208888Y-90006756D01*
X100208888Y-90006756D02*
X100128075Y-89979818D01*
X100128075Y-89979818D02*
X100074201Y-89925943D01*
X100074201Y-89925943D02*
X100047263Y-89845131D01*
X100047263Y-89845131D02*
X100047263Y-89791256D01*
X100047263Y-89791256D02*
X100074201Y-89710444D01*
X100074201Y-89710444D02*
X100155013Y-89575757D01*
X100155013Y-89575757D02*
X100181950Y-89494945D01*
X100181950Y-89494945D02*
X100181950Y-89441070D01*
X100181950Y-89441070D02*
X100155013Y-89360258D01*
X100155013Y-89360258D02*
X100101138Y-89306383D01*
X100101138Y-89306383D02*
X100020326Y-89279446D01*
X100020326Y-89279446D02*
X99966451Y-89279446D01*
X99966451Y-89279446D02*
X99885639Y-89306383D01*
X99885639Y-89306383D02*
X99750952Y-89441070D01*
X99750952Y-89441070D02*
X99697077Y-89548820D01*
X99013101Y-87668921D02*
X99390224Y-88423168D01*
X99390224Y-88423168D02*
X98635977Y-88046045D01*
X98528228Y-88692542D02*
X98474353Y-88800292D01*
X98474353Y-88800292D02*
X98474353Y-88854167D01*
X98474353Y-88854167D02*
X98501290Y-88934979D01*
X98501290Y-88934979D02*
X98582103Y-89015791D01*
X98582103Y-89015791D02*
X98662915Y-89042728D01*
X98662915Y-89042728D02*
X98716790Y-89042728D01*
X98716790Y-89042728D02*
X98797602Y-89015791D01*
X98797602Y-89015791D02*
X99013101Y-88800292D01*
X99013101Y-88800292D02*
X98447416Y-88234606D01*
X98447416Y-88234606D02*
X98258854Y-88423168D01*
X98258854Y-88423168D02*
X98231916Y-88503980D01*
X98231916Y-88503980D02*
X98231916Y-88557855D01*
X98231916Y-88557855D02*
X98258854Y-88638667D01*
X98258854Y-88638667D02*
X98312729Y-88692542D01*
X98312729Y-88692542D02*
X98393541Y-88719480D01*
X98393541Y-88719480D02*
X98447416Y-88719480D01*
X98447416Y-88719480D02*
X98528228Y-88692542D01*
X98528228Y-88692542D02*
X98716790Y-88503980D01*
X97881730Y-88800292D02*
X98339666Y-89258228D01*
X98339666Y-89258228D02*
X98366603Y-89339040D01*
X98366603Y-89339040D02*
X98366603Y-89392915D01*
X98366603Y-89392915D02*
X98339666Y-89473727D01*
X98339666Y-89473727D02*
X98231916Y-89581476D01*
X98231916Y-89581476D02*
X98151104Y-89608414D01*
X98151104Y-89608414D02*
X98097229Y-89608414D01*
X98097229Y-89608414D02*
X98016417Y-89581476D01*
X98016417Y-89581476D02*
X97558481Y-89123541D01*
X97854793Y-89904725D02*
X97800918Y-90012475D01*
X97800918Y-90012475D02*
X97666231Y-90147162D01*
X97666231Y-90147162D02*
X97585419Y-90174099D01*
X97585419Y-90174099D02*
X97531544Y-90174099D01*
X97531544Y-90174099D02*
X97450732Y-90147162D01*
X97450732Y-90147162D02*
X97396857Y-90093287D01*
X97396857Y-90093287D02*
X97369920Y-90012475D01*
X97369920Y-90012475D02*
X97369920Y-89958600D01*
X97369920Y-89958600D02*
X97396857Y-89877788D01*
X97396857Y-89877788D02*
X97477669Y-89743101D01*
X97477669Y-89743101D02*
X97504607Y-89662288D01*
X97504607Y-89662288D02*
X97504607Y-89608414D01*
X97504607Y-89608414D02*
X97477669Y-89527601D01*
X97477669Y-89527601D02*
X97423794Y-89473727D01*
X97423794Y-89473727D02*
X97342982Y-89446789D01*
X97342982Y-89446789D02*
X97289107Y-89446789D01*
X97289107Y-89446789D02*
X97208295Y-89473727D01*
X97208295Y-89473727D02*
X97073608Y-89608414D01*
X97073608Y-89608414D02*
X97019733Y-89716163D01*
X103583946Y-87801950D02*
X103610884Y-87721138D01*
X103610884Y-87721138D02*
X103691696Y-87640326D01*
X103691696Y-87640326D02*
X103799446Y-87586451D01*
X103799446Y-87586451D02*
X103907195Y-87586451D01*
X103907195Y-87586451D02*
X103988007Y-87613389D01*
X103988007Y-87613389D02*
X104122694Y-87694201D01*
X104122694Y-87694201D02*
X104203507Y-87775013D01*
X104203507Y-87775013D02*
X104284319Y-87909700D01*
X104284319Y-87909700D02*
X104311256Y-87990512D01*
X104311256Y-87990512D02*
X104311256Y-88098262D01*
X104311256Y-88098262D02*
X104257381Y-88206011D01*
X104257381Y-88206011D02*
X104203507Y-88259886D01*
X104203507Y-88259886D02*
X104095757Y-88313761D01*
X104095757Y-88313761D02*
X104041882Y-88313761D01*
X104041882Y-88313761D02*
X103853320Y-88125199D01*
X103853320Y-88125199D02*
X103961070Y-88017450D01*
X103853320Y-88610072D02*
X103287635Y-88044387D01*
X103287635Y-88044387D02*
X103530072Y-88933321D01*
X103530072Y-88933321D02*
X102964386Y-88367636D01*
X103260698Y-89202695D02*
X102695012Y-88637010D01*
X102695012Y-88637010D02*
X102560325Y-88771697D01*
X102560325Y-88771697D02*
X102506450Y-88879446D01*
X102506450Y-88879446D02*
X102506450Y-88987196D01*
X102506450Y-88987196D02*
X102533388Y-89068008D01*
X102533388Y-89068008D02*
X102614200Y-89202695D01*
X102614200Y-89202695D02*
X102695012Y-89283507D01*
X102695012Y-89283507D02*
X102829699Y-89364319D01*
X102829699Y-89364319D02*
X102910511Y-89391257D01*
X102910511Y-89391257D02*
X103018261Y-89391257D01*
X103018261Y-89391257D02*
X103126011Y-89337382D01*
X103126011Y-89337382D02*
X103260698Y-89202695D01*
X149012000Y-68200475D02*
X149050095Y-68314761D01*
X149050095Y-68314761D02*
X149050095Y-68505237D01*
X149050095Y-68505237D02*
X149012000Y-68581428D01*
X149012000Y-68581428D02*
X148973904Y-68619523D01*
X148973904Y-68619523D02*
X148897714Y-68657618D01*
X148897714Y-68657618D02*
X148821523Y-68657618D01*
X148821523Y-68657618D02*
X148745333Y-68619523D01*
X148745333Y-68619523D02*
X148707238Y-68581428D01*
X148707238Y-68581428D02*
X148669142Y-68505237D01*
X148669142Y-68505237D02*
X148631047Y-68352856D01*
X148631047Y-68352856D02*
X148592952Y-68276666D01*
X148592952Y-68276666D02*
X148554857Y-68238571D01*
X148554857Y-68238571D02*
X148478666Y-68200475D01*
X148478666Y-68200475D02*
X148402476Y-68200475D01*
X148402476Y-68200475D02*
X148326285Y-68238571D01*
X148326285Y-68238571D02*
X148288190Y-68276666D01*
X148288190Y-68276666D02*
X148250095Y-68352856D01*
X148250095Y-68352856D02*
X148250095Y-68543333D01*
X148250095Y-68543333D02*
X148288190Y-68657618D01*
X148250095Y-68924285D02*
X149050095Y-69114761D01*
X149050095Y-69114761D02*
X148478666Y-69267142D01*
X148478666Y-69267142D02*
X149050095Y-69419523D01*
X149050095Y-69419523D02*
X148250095Y-69610000D01*
X148973904Y-70371905D02*
X149012000Y-70333809D01*
X149012000Y-70333809D02*
X149050095Y-70219524D01*
X149050095Y-70219524D02*
X149050095Y-70143333D01*
X149050095Y-70143333D02*
X149012000Y-70029047D01*
X149012000Y-70029047D02*
X148935809Y-69952857D01*
X148935809Y-69952857D02*
X148859619Y-69914762D01*
X148859619Y-69914762D02*
X148707238Y-69876666D01*
X148707238Y-69876666D02*
X148592952Y-69876666D01*
X148592952Y-69876666D02*
X148440571Y-69914762D01*
X148440571Y-69914762D02*
X148364380Y-69952857D01*
X148364380Y-69952857D02*
X148288190Y-70029047D01*
X148288190Y-70029047D02*
X148250095Y-70143333D01*
X148250095Y-70143333D02*
X148250095Y-70219524D01*
X148250095Y-70219524D02*
X148288190Y-70333809D01*
X148288190Y-70333809D02*
X148326285Y-70371905D01*
X149050095Y-71095714D02*
X149050095Y-70714762D01*
X149050095Y-70714762D02*
X148250095Y-70714762D01*
X149050095Y-71362381D02*
X148250095Y-71362381D01*
X149050095Y-71819524D02*
X148592952Y-71476666D01*
X148250095Y-71819524D02*
X148707238Y-71362381D01*
X139386384Y-87813513D02*
X139413321Y-87732701D01*
X139413321Y-87732701D02*
X139494133Y-87651889D01*
X139494133Y-87651889D02*
X139601883Y-87598014D01*
X139601883Y-87598014D02*
X139709632Y-87598014D01*
X139709632Y-87598014D02*
X139790445Y-87624951D01*
X139790445Y-87624951D02*
X139925132Y-87705764D01*
X139925132Y-87705764D02*
X140005944Y-87786576D01*
X140005944Y-87786576D02*
X140086756Y-87921263D01*
X140086756Y-87921263D02*
X140113693Y-88002075D01*
X140113693Y-88002075D02*
X140113693Y-88109825D01*
X140113693Y-88109825D02*
X140059819Y-88217574D01*
X140059819Y-88217574D02*
X140005944Y-88271449D01*
X140005944Y-88271449D02*
X139898194Y-88325324D01*
X139898194Y-88325324D02*
X139844319Y-88325324D01*
X139844319Y-88325324D02*
X139655758Y-88136762D01*
X139655758Y-88136762D02*
X139763507Y-88029012D01*
X139655758Y-88621635D02*
X139090072Y-88055950D01*
X139090072Y-88055950D02*
X138874573Y-88271449D01*
X138874573Y-88271449D02*
X138847636Y-88352261D01*
X138847636Y-88352261D02*
X138847636Y-88406136D01*
X138847636Y-88406136D02*
X138874573Y-88486948D01*
X138874573Y-88486948D02*
X138955385Y-88567760D01*
X138955385Y-88567760D02*
X139036197Y-88594698D01*
X139036197Y-88594698D02*
X139090072Y-88594698D01*
X139090072Y-88594698D02*
X139170884Y-88567760D01*
X139170884Y-88567760D02*
X139386384Y-88352261D01*
X138793761Y-89483632D02*
X139117010Y-89160383D01*
X138955385Y-89322008D02*
X138389700Y-88756322D01*
X138389700Y-88756322D02*
X138524387Y-88783260D01*
X138524387Y-88783260D02*
X138632136Y-88783260D01*
X138632136Y-88783260D02*
X138712948Y-88756322D01*
X138147263Y-89483632D02*
X138174200Y-89402820D01*
X138174200Y-89402820D02*
X138174200Y-89348945D01*
X138174200Y-89348945D02*
X138147263Y-89268133D01*
X138147263Y-89268133D02*
X138120326Y-89241196D01*
X138120326Y-89241196D02*
X138039513Y-89214258D01*
X138039513Y-89214258D02*
X137985638Y-89214258D01*
X137985638Y-89214258D02*
X137904826Y-89241196D01*
X137904826Y-89241196D02*
X137797077Y-89348945D01*
X137797077Y-89348945D02*
X137770139Y-89429757D01*
X137770139Y-89429757D02*
X137770139Y-89483632D01*
X137770139Y-89483632D02*
X137797077Y-89564444D01*
X137797077Y-89564444D02*
X137824014Y-89591382D01*
X137824014Y-89591382D02*
X137904826Y-89618319D01*
X137904826Y-89618319D02*
X137958701Y-89618319D01*
X137958701Y-89618319D02*
X138039513Y-89591382D01*
X138039513Y-89591382D02*
X138147263Y-89483632D01*
X138147263Y-89483632D02*
X138228075Y-89456695D01*
X138228075Y-89456695D02*
X138281950Y-89456695D01*
X138281950Y-89456695D02*
X138362762Y-89483632D01*
X138362762Y-89483632D02*
X138470512Y-89591382D01*
X138470512Y-89591382D02*
X138497449Y-89672194D01*
X138497449Y-89672194D02*
X138497449Y-89726069D01*
X138497449Y-89726069D02*
X138470512Y-89806881D01*
X138470512Y-89806881D02*
X138362762Y-89914631D01*
X138362762Y-89914631D02*
X138281950Y-89941568D01*
X138281950Y-89941568D02*
X138228075Y-89941568D01*
X138228075Y-89941568D02*
X138147263Y-89914631D01*
X138147263Y-89914631D02*
X138039513Y-89806881D01*
X138039513Y-89806881D02*
X138012576Y-89726069D01*
X138012576Y-89726069D02*
X138012576Y-89672194D01*
X138012576Y-89672194D02*
X138039513Y-89591382D01*
X111177009Y-62228888D02*
X111203946Y-62148075D01*
X111203946Y-62148075D02*
X111284759Y-62067263D01*
X111284759Y-62067263D02*
X111392508Y-62013388D01*
X111392508Y-62013388D02*
X111500258Y-62013388D01*
X111500258Y-62013388D02*
X111581070Y-62040326D01*
X111581070Y-62040326D02*
X111715757Y-62121138D01*
X111715757Y-62121138D02*
X111796569Y-62201950D01*
X111796569Y-62201950D02*
X111877382Y-62336637D01*
X111877382Y-62336637D02*
X111904319Y-62417449D01*
X111904319Y-62417449D02*
X111904319Y-62525199D01*
X111904319Y-62525199D02*
X111850444Y-62632949D01*
X111850444Y-62632949D02*
X111796569Y-62686823D01*
X111796569Y-62686823D02*
X111688820Y-62740698D01*
X111688820Y-62740698D02*
X111634945Y-62740698D01*
X111634945Y-62740698D02*
X111446383Y-62552136D01*
X111446383Y-62552136D02*
X111554133Y-62444387D01*
X111446383Y-63037010D02*
X110880698Y-62471324D01*
X110880698Y-62471324D02*
X110665198Y-62686823D01*
X110665198Y-62686823D02*
X110638261Y-62767636D01*
X110638261Y-62767636D02*
X110638261Y-62821510D01*
X110638261Y-62821510D02*
X110665198Y-62902323D01*
X110665198Y-62902323D02*
X110746011Y-62983135D01*
X110746011Y-62983135D02*
X110826823Y-63010072D01*
X110826823Y-63010072D02*
X110880698Y-63010072D01*
X110880698Y-63010072D02*
X110961510Y-62983135D01*
X110961510Y-62983135D02*
X111177009Y-62767636D01*
X110261137Y-63468008D02*
X110638261Y-63845132D01*
X110180325Y-63117822D02*
X110719073Y-63387196D01*
X110719073Y-63387196D02*
X110368887Y-63737382D01*
X112019565Y-87870579D02*
X111750191Y-88139953D01*
X112235064Y-87978329D02*
X111480817Y-87601205D01*
X111480817Y-87601205D02*
X111857940Y-88355452D01*
X111669379Y-88544014D02*
X111103693Y-87978329D01*
X111103693Y-87978329D02*
X110969006Y-88113016D01*
X110969006Y-88113016D02*
X110915132Y-88220765D01*
X110915132Y-88220765D02*
X110915132Y-88328515D01*
X110915132Y-88328515D02*
X110942069Y-88409327D01*
X110942069Y-88409327D02*
X111022881Y-88544014D01*
X111022881Y-88544014D02*
X111103693Y-88624826D01*
X111103693Y-88624826D02*
X111238380Y-88705638D01*
X111238380Y-88705638D02*
X111319193Y-88732576D01*
X111319193Y-88732576D02*
X111426942Y-88732576D01*
X111426942Y-88732576D02*
X111534692Y-88678701D01*
X111534692Y-88678701D02*
X111669379Y-88544014D01*
X110726570Y-89379073D02*
X110780445Y-89379073D01*
X110780445Y-89379073D02*
X110888194Y-89325199D01*
X110888194Y-89325199D02*
X110942069Y-89271324D01*
X110942069Y-89271324D02*
X110995944Y-89163574D01*
X110995944Y-89163574D02*
X110995944Y-89055825D01*
X110995944Y-89055825D02*
X110969006Y-88975012D01*
X110969006Y-88975012D02*
X110888194Y-88840325D01*
X110888194Y-88840325D02*
X110807382Y-88759513D01*
X110807382Y-88759513D02*
X110672695Y-88678701D01*
X110672695Y-88678701D02*
X110591883Y-88651764D01*
X110591883Y-88651764D02*
X110484133Y-88651764D01*
X110484133Y-88651764D02*
X110376383Y-88705638D01*
X110376383Y-88705638D02*
X110322509Y-88759513D01*
X110322509Y-88759513D02*
X110268634Y-88867263D01*
X110268634Y-88867263D02*
X110268634Y-88921138D01*
X110726570Y-89594573D02*
X110295571Y-90025571D01*
X109622136Y-89459886D02*
X109999260Y-90214133D01*
X109999260Y-90214133D02*
X109245013Y-89837009D01*
X109298888Y-90914505D02*
X109218075Y-90456569D01*
X109622136Y-90591256D02*
X109056451Y-90025571D01*
X109056451Y-90025571D02*
X108840952Y-90241070D01*
X108840952Y-90241070D02*
X108814014Y-90321882D01*
X108814014Y-90321882D02*
X108814014Y-90375757D01*
X108814014Y-90375757D02*
X108840952Y-90456569D01*
X108840952Y-90456569D02*
X108921764Y-90537382D01*
X108921764Y-90537382D02*
X109002576Y-90564319D01*
X109002576Y-90564319D02*
X109056451Y-90564319D01*
X109056451Y-90564319D02*
X109137263Y-90537382D01*
X109137263Y-90537382D02*
X109352762Y-90321882D01*
X108760139Y-90860630D02*
X108571578Y-91049192D01*
X108787077Y-91426316D02*
X109056451Y-91156942D01*
X109056451Y-91156942D02*
X108490765Y-90591256D01*
X108490765Y-90591256D02*
X108221391Y-90860630D01*
X108059767Y-91561003D02*
X108248329Y-91372441D01*
X108544640Y-91668753D02*
X107978955Y-91103067D01*
X107978955Y-91103067D02*
X107709581Y-91372441D01*
X113732384Y-87813513D02*
X113759321Y-87732701D01*
X113759321Y-87732701D02*
X113840133Y-87651889D01*
X113840133Y-87651889D02*
X113947883Y-87598014D01*
X113947883Y-87598014D02*
X114055632Y-87598014D01*
X114055632Y-87598014D02*
X114136445Y-87624951D01*
X114136445Y-87624951D02*
X114271132Y-87705764D01*
X114271132Y-87705764D02*
X114351944Y-87786576D01*
X114351944Y-87786576D02*
X114432756Y-87921263D01*
X114432756Y-87921263D02*
X114459693Y-88002075D01*
X114459693Y-88002075D02*
X114459693Y-88109825D01*
X114459693Y-88109825D02*
X114405819Y-88217574D01*
X114405819Y-88217574D02*
X114351944Y-88271449D01*
X114351944Y-88271449D02*
X114244194Y-88325324D01*
X114244194Y-88325324D02*
X114190319Y-88325324D01*
X114190319Y-88325324D02*
X114001758Y-88136762D01*
X114001758Y-88136762D02*
X114109507Y-88029012D01*
X114001758Y-88621635D02*
X113436072Y-88055950D01*
X113436072Y-88055950D02*
X113220573Y-88271449D01*
X113220573Y-88271449D02*
X113193636Y-88352261D01*
X113193636Y-88352261D02*
X113193636Y-88406136D01*
X113193636Y-88406136D02*
X113220573Y-88486948D01*
X113220573Y-88486948D02*
X113301385Y-88567760D01*
X113301385Y-88567760D02*
X113382197Y-88594698D01*
X113382197Y-88594698D02*
X113436072Y-88594698D01*
X113436072Y-88594698D02*
X113516884Y-88567760D01*
X113516884Y-88567760D02*
X113732384Y-88352261D01*
X112951199Y-88648573D02*
X112897324Y-88648573D01*
X112897324Y-88648573D02*
X112816512Y-88675510D01*
X112816512Y-88675510D02*
X112681825Y-88810197D01*
X112681825Y-88810197D02*
X112654887Y-88891009D01*
X112654887Y-88891009D02*
X112654887Y-88944884D01*
X112654887Y-88944884D02*
X112681825Y-89025696D01*
X112681825Y-89025696D02*
X112735700Y-89079571D01*
X112735700Y-89079571D02*
X112843449Y-89133446D01*
X112843449Y-89133446D02*
X113489947Y-89133446D01*
X113489947Y-89133446D02*
X113139761Y-89483632D01*
X112493263Y-89483632D02*
X112520200Y-89402820D01*
X112520200Y-89402820D02*
X112520200Y-89348945D01*
X112520200Y-89348945D02*
X112493263Y-89268133D01*
X112493263Y-89268133D02*
X112466326Y-89241196D01*
X112466326Y-89241196D02*
X112385513Y-89214258D01*
X112385513Y-89214258D02*
X112331638Y-89214258D01*
X112331638Y-89214258D02*
X112250826Y-89241196D01*
X112250826Y-89241196D02*
X112143077Y-89348945D01*
X112143077Y-89348945D02*
X112116139Y-89429757D01*
X112116139Y-89429757D02*
X112116139Y-89483632D01*
X112116139Y-89483632D02*
X112143077Y-89564444D01*
X112143077Y-89564444D02*
X112170014Y-89591382D01*
X112170014Y-89591382D02*
X112250826Y-89618319D01*
X112250826Y-89618319D02*
X112304701Y-89618319D01*
X112304701Y-89618319D02*
X112385513Y-89591382D01*
X112385513Y-89591382D02*
X112493263Y-89483632D01*
X112493263Y-89483632D02*
X112574075Y-89456695D01*
X112574075Y-89456695D02*
X112627950Y-89456695D01*
X112627950Y-89456695D02*
X112708762Y-89483632D01*
X112708762Y-89483632D02*
X112816512Y-89591382D01*
X112816512Y-89591382D02*
X112843449Y-89672194D01*
X112843449Y-89672194D02*
X112843449Y-89726069D01*
X112843449Y-89726069D02*
X112816512Y-89806881D01*
X112816512Y-89806881D02*
X112708762Y-89914631D01*
X112708762Y-89914631D02*
X112627950Y-89941568D01*
X112627950Y-89941568D02*
X112574075Y-89941568D01*
X112574075Y-89941568D02*
X112493263Y-89914631D01*
X112493263Y-89914631D02*
X112385513Y-89806881D01*
X112385513Y-89806881D02*
X112358576Y-89726069D01*
X112358576Y-89726069D02*
X112358576Y-89672194D01*
X112358576Y-89672194D02*
X112385513Y-89591382D01*
X124429226Y-88554167D02*
X124348414Y-88096231D01*
X124752475Y-88230918D02*
X124186789Y-87665233D01*
X124186789Y-87665233D02*
X123971290Y-87880732D01*
X123971290Y-87880732D02*
X123944353Y-87961544D01*
X123944353Y-87961544D02*
X123944353Y-88015419D01*
X123944353Y-88015419D02*
X123971290Y-88096231D01*
X123971290Y-88096231D02*
X124052102Y-88177043D01*
X124052102Y-88177043D02*
X124132914Y-88203981D01*
X124132914Y-88203981D02*
X124186789Y-88203981D01*
X124186789Y-88203981D02*
X124267601Y-88177043D01*
X124267601Y-88177043D02*
X124483101Y-87961544D01*
X123621104Y-88230918D02*
X124079040Y-88688854D01*
X124079040Y-88688854D02*
X124105977Y-88769666D01*
X124105977Y-88769666D02*
X124105977Y-88823541D01*
X124105977Y-88823541D02*
X124079040Y-88904353D01*
X124079040Y-88904353D02*
X123971290Y-89012103D01*
X123971290Y-89012103D02*
X123890478Y-89039040D01*
X123890478Y-89039040D02*
X123836603Y-89039040D01*
X123836603Y-89039040D02*
X123755791Y-89012103D01*
X123755791Y-89012103D02*
X123297855Y-88554167D01*
X123594167Y-89389226D02*
X123028481Y-88823541D01*
X123028481Y-88823541D02*
X123270918Y-89712475D01*
X123270918Y-89712475D02*
X122705232Y-89146789D01*
X126417009Y-62228888D02*
X126443946Y-62148075D01*
X126443946Y-62148075D02*
X126524759Y-62067263D01*
X126524759Y-62067263D02*
X126632508Y-62013388D01*
X126632508Y-62013388D02*
X126740258Y-62013388D01*
X126740258Y-62013388D02*
X126821070Y-62040326D01*
X126821070Y-62040326D02*
X126955757Y-62121138D01*
X126955757Y-62121138D02*
X127036569Y-62201950D01*
X127036569Y-62201950D02*
X127117382Y-62336637D01*
X127117382Y-62336637D02*
X127144319Y-62417449D01*
X127144319Y-62417449D02*
X127144319Y-62525199D01*
X127144319Y-62525199D02*
X127090444Y-62632949D01*
X127090444Y-62632949D02*
X127036569Y-62686823D01*
X127036569Y-62686823D02*
X126928820Y-62740698D01*
X126928820Y-62740698D02*
X126874945Y-62740698D01*
X126874945Y-62740698D02*
X126686383Y-62552136D01*
X126686383Y-62552136D02*
X126794133Y-62444387D01*
X126686383Y-63037010D02*
X126120698Y-62471324D01*
X126120698Y-62471324D02*
X125905198Y-62686823D01*
X125905198Y-62686823D02*
X125878261Y-62767636D01*
X125878261Y-62767636D02*
X125878261Y-62821510D01*
X125878261Y-62821510D02*
X125905198Y-62902323D01*
X125905198Y-62902323D02*
X125986011Y-62983135D01*
X125986011Y-62983135D02*
X126066823Y-63010072D01*
X126066823Y-63010072D02*
X126120698Y-63010072D01*
X126120698Y-63010072D02*
X126201510Y-62983135D01*
X126201510Y-62983135D02*
X126417009Y-62767636D01*
X126093760Y-63629632D02*
X125986011Y-63737382D01*
X125986011Y-63737382D02*
X125905198Y-63764319D01*
X125905198Y-63764319D02*
X125851324Y-63764319D01*
X125851324Y-63764319D02*
X125716637Y-63737382D01*
X125716637Y-63737382D02*
X125581950Y-63656570D01*
X125581950Y-63656570D02*
X125366450Y-63441071D01*
X125366450Y-63441071D02*
X125339513Y-63360258D01*
X125339513Y-63360258D02*
X125339513Y-63306384D01*
X125339513Y-63306384D02*
X125366450Y-63225571D01*
X125366450Y-63225571D02*
X125474200Y-63117822D01*
X125474200Y-63117822D02*
X125555012Y-63090884D01*
X125555012Y-63090884D02*
X125608887Y-63090884D01*
X125608887Y-63090884D02*
X125689699Y-63117822D01*
X125689699Y-63117822D02*
X125824386Y-63252509D01*
X125824386Y-63252509D02*
X125851324Y-63333321D01*
X125851324Y-63333321D02*
X125851324Y-63387196D01*
X125851324Y-63387196D02*
X125824386Y-63468008D01*
X125824386Y-63468008D02*
X125716637Y-63575758D01*
X125716637Y-63575758D02*
X125635824Y-63602695D01*
X125635824Y-63602695D02*
X125581950Y-63602695D01*
X125581950Y-63602695D02*
X125501137Y-63575758D01*
X134306384Y-87813513D02*
X134333321Y-87732701D01*
X134333321Y-87732701D02*
X134414133Y-87651889D01*
X134414133Y-87651889D02*
X134521883Y-87598014D01*
X134521883Y-87598014D02*
X134629632Y-87598014D01*
X134629632Y-87598014D02*
X134710445Y-87624951D01*
X134710445Y-87624951D02*
X134845132Y-87705764D01*
X134845132Y-87705764D02*
X134925944Y-87786576D01*
X134925944Y-87786576D02*
X135006756Y-87921263D01*
X135006756Y-87921263D02*
X135033693Y-88002075D01*
X135033693Y-88002075D02*
X135033693Y-88109825D01*
X135033693Y-88109825D02*
X134979819Y-88217574D01*
X134979819Y-88217574D02*
X134925944Y-88271449D01*
X134925944Y-88271449D02*
X134818194Y-88325324D01*
X134818194Y-88325324D02*
X134764319Y-88325324D01*
X134764319Y-88325324D02*
X134575758Y-88136762D01*
X134575758Y-88136762D02*
X134683507Y-88029012D01*
X134575758Y-88621635D02*
X134010072Y-88055950D01*
X134010072Y-88055950D02*
X133794573Y-88271449D01*
X133794573Y-88271449D02*
X133767636Y-88352261D01*
X133767636Y-88352261D02*
X133767636Y-88406136D01*
X133767636Y-88406136D02*
X133794573Y-88486948D01*
X133794573Y-88486948D02*
X133875385Y-88567760D01*
X133875385Y-88567760D02*
X133956197Y-88594698D01*
X133956197Y-88594698D02*
X134010072Y-88594698D01*
X134010072Y-88594698D02*
X134090884Y-88567760D01*
X134090884Y-88567760D02*
X134306384Y-88352261D01*
X133525199Y-88648573D02*
X133471324Y-88648573D01*
X133471324Y-88648573D02*
X133390512Y-88675510D01*
X133390512Y-88675510D02*
X133255825Y-88810197D01*
X133255825Y-88810197D02*
X133228887Y-88891009D01*
X133228887Y-88891009D02*
X133228887Y-88944884D01*
X133228887Y-88944884D02*
X133255825Y-89025696D01*
X133255825Y-89025696D02*
X133309700Y-89079571D01*
X133309700Y-89079571D02*
X133417449Y-89133446D01*
X133417449Y-89133446D02*
X134063947Y-89133446D01*
X134063947Y-89133446D02*
X133713761Y-89483632D01*
X132797889Y-89268133D02*
X132744014Y-89322008D01*
X132744014Y-89322008D02*
X132717077Y-89402820D01*
X132717077Y-89402820D02*
X132717077Y-89456695D01*
X132717077Y-89456695D02*
X132744014Y-89537507D01*
X132744014Y-89537507D02*
X132824826Y-89672194D01*
X132824826Y-89672194D02*
X132959513Y-89806881D01*
X132959513Y-89806881D02*
X133094200Y-89887693D01*
X133094200Y-89887693D02*
X133175013Y-89914631D01*
X133175013Y-89914631D02*
X133228887Y-89914631D01*
X133228887Y-89914631D02*
X133309700Y-89887693D01*
X133309700Y-89887693D02*
X133363574Y-89833818D01*
X133363574Y-89833818D02*
X133390512Y-89753006D01*
X133390512Y-89753006D02*
X133390512Y-89699131D01*
X133390512Y-89699131D02*
X133363574Y-89618319D01*
X133363574Y-89618319D02*
X133282762Y-89483632D01*
X133282762Y-89483632D02*
X133148075Y-89348945D01*
X133148075Y-89348945D02*
X133013388Y-89268133D01*
X133013388Y-89268133D02*
X132932576Y-89241196D01*
X132932576Y-89241196D02*
X132878701Y-89241196D01*
X132878701Y-89241196D02*
X132797889Y-89268133D01*
X144466384Y-61659513D02*
X144493321Y-61578701D01*
X144493321Y-61578701D02*
X144574133Y-61497889D01*
X144574133Y-61497889D02*
X144681883Y-61444014D01*
X144681883Y-61444014D02*
X144789632Y-61444014D01*
X144789632Y-61444014D02*
X144870445Y-61470951D01*
X144870445Y-61470951D02*
X145005132Y-61551764D01*
X145005132Y-61551764D02*
X145085944Y-61632576D01*
X145085944Y-61632576D02*
X145166756Y-61767263D01*
X145166756Y-61767263D02*
X145193693Y-61848075D01*
X145193693Y-61848075D02*
X145193693Y-61955825D01*
X145193693Y-61955825D02*
X145139819Y-62063574D01*
X145139819Y-62063574D02*
X145085944Y-62117449D01*
X145085944Y-62117449D02*
X144978194Y-62171324D01*
X144978194Y-62171324D02*
X144924319Y-62171324D01*
X144924319Y-62171324D02*
X144735758Y-61982762D01*
X144735758Y-61982762D02*
X144843507Y-61875012D01*
X144735758Y-62467635D02*
X144170072Y-61901950D01*
X144170072Y-61901950D02*
X143954573Y-62117449D01*
X143954573Y-62117449D02*
X143927636Y-62198261D01*
X143927636Y-62198261D02*
X143927636Y-62252136D01*
X143927636Y-62252136D02*
X143954573Y-62332948D01*
X143954573Y-62332948D02*
X144035385Y-62413760D01*
X144035385Y-62413760D02*
X144116197Y-62440698D01*
X144116197Y-62440698D02*
X144170072Y-62440698D01*
X144170072Y-62440698D02*
X144250884Y-62413760D01*
X144250884Y-62413760D02*
X144466384Y-62198261D01*
X143873761Y-63329632D02*
X144197010Y-63006383D01*
X144035385Y-63168008D02*
X143469700Y-62602322D01*
X143469700Y-62602322D02*
X143604387Y-62629260D01*
X143604387Y-62629260D02*
X143712136Y-62629260D01*
X143712136Y-62629260D02*
X143792948Y-62602322D01*
X143011764Y-63437382D02*
X143388887Y-63814505D01*
X142930951Y-63087196D02*
X143469700Y-63356570D01*
X143469700Y-63356570D02*
X143119513Y-63706756D01*
X103583946Y-62201950D02*
X103610884Y-62121138D01*
X103610884Y-62121138D02*
X103691696Y-62040326D01*
X103691696Y-62040326D02*
X103799446Y-61986451D01*
X103799446Y-61986451D02*
X103907195Y-61986451D01*
X103907195Y-61986451D02*
X103988007Y-62013389D01*
X103988007Y-62013389D02*
X104122694Y-62094201D01*
X104122694Y-62094201D02*
X104203507Y-62175013D01*
X104203507Y-62175013D02*
X104284319Y-62309700D01*
X104284319Y-62309700D02*
X104311256Y-62390512D01*
X104311256Y-62390512D02*
X104311256Y-62498262D01*
X104311256Y-62498262D02*
X104257381Y-62606011D01*
X104257381Y-62606011D02*
X104203507Y-62659886D01*
X104203507Y-62659886D02*
X104095757Y-62713761D01*
X104095757Y-62713761D02*
X104041882Y-62713761D01*
X104041882Y-62713761D02*
X103853320Y-62525199D01*
X103853320Y-62525199D02*
X103961070Y-62417450D01*
X103853320Y-63010072D02*
X103287635Y-62444387D01*
X103287635Y-62444387D02*
X103530072Y-63333321D01*
X103530072Y-63333321D02*
X102964386Y-62767636D01*
X103260698Y-63602695D02*
X102695012Y-63037010D01*
X102695012Y-63037010D02*
X102560325Y-63171697D01*
X102560325Y-63171697D02*
X102506450Y-63279446D01*
X102506450Y-63279446D02*
X102506450Y-63387196D01*
X102506450Y-63387196D02*
X102533388Y-63468008D01*
X102533388Y-63468008D02*
X102614200Y-63602695D01*
X102614200Y-63602695D02*
X102695012Y-63683507D01*
X102695012Y-63683507D02*
X102829699Y-63764319D01*
X102829699Y-63764319D02*
X102910511Y-63791257D01*
X102910511Y-63791257D02*
X103018261Y-63791257D01*
X103018261Y-63791257D02*
X103126011Y-63737382D01*
X103126011Y-63737382D02*
X103260698Y-63602695D01*
X128983946Y-62201950D02*
X129010884Y-62121138D01*
X129010884Y-62121138D02*
X129091696Y-62040326D01*
X129091696Y-62040326D02*
X129199446Y-61986451D01*
X129199446Y-61986451D02*
X129307195Y-61986451D01*
X129307195Y-61986451D02*
X129388007Y-62013389D01*
X129388007Y-62013389D02*
X129522694Y-62094201D01*
X129522694Y-62094201D02*
X129603507Y-62175013D01*
X129603507Y-62175013D02*
X129684319Y-62309700D01*
X129684319Y-62309700D02*
X129711256Y-62390512D01*
X129711256Y-62390512D02*
X129711256Y-62498262D01*
X129711256Y-62498262D02*
X129657381Y-62606011D01*
X129657381Y-62606011D02*
X129603507Y-62659886D01*
X129603507Y-62659886D02*
X129495757Y-62713761D01*
X129495757Y-62713761D02*
X129441882Y-62713761D01*
X129441882Y-62713761D02*
X129253320Y-62525199D01*
X129253320Y-62525199D02*
X129361070Y-62417450D01*
X129253320Y-63010072D02*
X128687635Y-62444387D01*
X128687635Y-62444387D02*
X128930072Y-63333321D01*
X128930072Y-63333321D02*
X128364386Y-62767636D01*
X128660698Y-63602695D02*
X128095012Y-63037010D01*
X128095012Y-63037010D02*
X127960325Y-63171697D01*
X127960325Y-63171697D02*
X127906450Y-63279446D01*
X127906450Y-63279446D02*
X127906450Y-63387196D01*
X127906450Y-63387196D02*
X127933388Y-63468008D01*
X127933388Y-63468008D02*
X128014200Y-63602695D01*
X128014200Y-63602695D02*
X128095012Y-63683507D01*
X128095012Y-63683507D02*
X128229699Y-63764319D01*
X128229699Y-63764319D02*
X128310511Y-63791257D01*
X128310511Y-63791257D02*
X128418261Y-63791257D01*
X128418261Y-63791257D02*
X128526011Y-63737382D01*
X128526011Y-63737382D02*
X128660698Y-63602695D01*
X121606384Y-87813513D02*
X121633321Y-87732701D01*
X121633321Y-87732701D02*
X121714133Y-87651889D01*
X121714133Y-87651889D02*
X121821883Y-87598014D01*
X121821883Y-87598014D02*
X121929632Y-87598014D01*
X121929632Y-87598014D02*
X122010445Y-87624951D01*
X122010445Y-87624951D02*
X122145132Y-87705764D01*
X122145132Y-87705764D02*
X122225944Y-87786576D01*
X122225944Y-87786576D02*
X122306756Y-87921263D01*
X122306756Y-87921263D02*
X122333693Y-88002075D01*
X122333693Y-88002075D02*
X122333693Y-88109825D01*
X122333693Y-88109825D02*
X122279819Y-88217574D01*
X122279819Y-88217574D02*
X122225944Y-88271449D01*
X122225944Y-88271449D02*
X122118194Y-88325324D01*
X122118194Y-88325324D02*
X122064319Y-88325324D01*
X122064319Y-88325324D02*
X121875758Y-88136762D01*
X121875758Y-88136762D02*
X121983507Y-88029012D01*
X121875758Y-88621635D02*
X121310072Y-88055950D01*
X121310072Y-88055950D02*
X121094573Y-88271449D01*
X121094573Y-88271449D02*
X121067636Y-88352261D01*
X121067636Y-88352261D02*
X121067636Y-88406136D01*
X121067636Y-88406136D02*
X121094573Y-88486948D01*
X121094573Y-88486948D02*
X121175385Y-88567760D01*
X121175385Y-88567760D02*
X121256197Y-88594698D01*
X121256197Y-88594698D02*
X121310072Y-88594698D01*
X121310072Y-88594698D02*
X121390884Y-88567760D01*
X121390884Y-88567760D02*
X121606384Y-88352261D01*
X120825199Y-88648573D02*
X120771324Y-88648573D01*
X120771324Y-88648573D02*
X120690512Y-88675510D01*
X120690512Y-88675510D02*
X120555825Y-88810197D01*
X120555825Y-88810197D02*
X120528887Y-88891009D01*
X120528887Y-88891009D02*
X120528887Y-88944884D01*
X120528887Y-88944884D02*
X120555825Y-89025696D01*
X120555825Y-89025696D02*
X120609700Y-89079571D01*
X120609700Y-89079571D02*
X120717449Y-89133446D01*
X120717449Y-89133446D02*
X121363947Y-89133446D01*
X121363947Y-89133446D02*
X121013761Y-89483632D01*
X119963202Y-89402820D02*
X120070951Y-89295070D01*
X120070951Y-89295070D02*
X120151764Y-89268133D01*
X120151764Y-89268133D02*
X120205638Y-89268133D01*
X120205638Y-89268133D02*
X120340326Y-89295070D01*
X120340326Y-89295070D02*
X120475013Y-89375883D01*
X120475013Y-89375883D02*
X120690512Y-89591382D01*
X120690512Y-89591382D02*
X120717449Y-89672194D01*
X120717449Y-89672194D02*
X120717449Y-89726069D01*
X120717449Y-89726069D02*
X120690512Y-89806881D01*
X120690512Y-89806881D02*
X120582762Y-89914631D01*
X120582762Y-89914631D02*
X120501950Y-89941568D01*
X120501950Y-89941568D02*
X120448075Y-89941568D01*
X120448075Y-89941568D02*
X120367263Y-89914631D01*
X120367263Y-89914631D02*
X120232576Y-89779944D01*
X120232576Y-89779944D02*
X120205638Y-89699131D01*
X120205638Y-89699131D02*
X120205638Y-89645257D01*
X120205638Y-89645257D02*
X120232576Y-89564444D01*
X120232576Y-89564444D02*
X120340326Y-89456695D01*
X120340326Y-89456695D02*
X120421138Y-89429757D01*
X120421138Y-89429757D02*
X120475013Y-89429757D01*
X120475013Y-89429757D02*
X120555825Y-89456695D01*
X106097009Y-62128888D02*
X106123946Y-62048075D01*
X106123946Y-62048075D02*
X106204759Y-61967263D01*
X106204759Y-61967263D02*
X106312508Y-61913388D01*
X106312508Y-61913388D02*
X106420258Y-61913388D01*
X106420258Y-61913388D02*
X106501070Y-61940326D01*
X106501070Y-61940326D02*
X106635757Y-62021138D01*
X106635757Y-62021138D02*
X106716569Y-62101950D01*
X106716569Y-62101950D02*
X106797382Y-62236637D01*
X106797382Y-62236637D02*
X106824319Y-62317449D01*
X106824319Y-62317449D02*
X106824319Y-62425199D01*
X106824319Y-62425199D02*
X106770444Y-62532949D01*
X106770444Y-62532949D02*
X106716569Y-62586823D01*
X106716569Y-62586823D02*
X106608820Y-62640698D01*
X106608820Y-62640698D02*
X106554945Y-62640698D01*
X106554945Y-62640698D02*
X106366383Y-62452136D01*
X106366383Y-62452136D02*
X106474133Y-62344387D01*
X106366383Y-62937010D02*
X105800698Y-62371324D01*
X105800698Y-62371324D02*
X105585198Y-62586823D01*
X105585198Y-62586823D02*
X105558261Y-62667636D01*
X105558261Y-62667636D02*
X105558261Y-62721510D01*
X105558261Y-62721510D02*
X105585198Y-62802323D01*
X105585198Y-62802323D02*
X105666011Y-62883135D01*
X105666011Y-62883135D02*
X105746823Y-62910072D01*
X105746823Y-62910072D02*
X105800698Y-62910072D01*
X105800698Y-62910072D02*
X105881510Y-62883135D01*
X105881510Y-62883135D02*
X106097009Y-62667636D01*
X105315824Y-62963947D02*
X105261950Y-62963947D01*
X105261950Y-62963947D02*
X105181137Y-62990884D01*
X105181137Y-62990884D02*
X105046450Y-63125571D01*
X105046450Y-63125571D02*
X105019513Y-63206384D01*
X105019513Y-63206384D02*
X105019513Y-63260258D01*
X105019513Y-63260258D02*
X105046450Y-63341071D01*
X105046450Y-63341071D02*
X105100325Y-63394945D01*
X105100325Y-63394945D02*
X105208075Y-63448820D01*
X105208075Y-63448820D02*
X105854572Y-63448820D01*
X105854572Y-63448820D02*
X105504386Y-63799006D01*
%TO.C,U5*%
X149691904Y-47632619D02*
X149691904Y-48442142D01*
X149691904Y-48442142D02*
X149644285Y-48537380D01*
X149644285Y-48537380D02*
X149596666Y-48585000D01*
X149596666Y-48585000D02*
X149501428Y-48632619D01*
X149501428Y-48632619D02*
X149310952Y-48632619D01*
X149310952Y-48632619D02*
X149215714Y-48585000D01*
X149215714Y-48585000D02*
X149168095Y-48537380D01*
X149168095Y-48537380D02*
X149120476Y-48442142D01*
X149120476Y-48442142D02*
X149120476Y-47632619D01*
X148168095Y-47632619D02*
X148644285Y-47632619D01*
X148644285Y-47632619D02*
X148691904Y-48108809D01*
X148691904Y-48108809D02*
X148644285Y-48061190D01*
X148644285Y-48061190D02*
X148549047Y-48013571D01*
X148549047Y-48013571D02*
X148310952Y-48013571D01*
X148310952Y-48013571D02*
X148215714Y-48061190D01*
X148215714Y-48061190D02*
X148168095Y-48108809D01*
X148168095Y-48108809D02*
X148120476Y-48204047D01*
X148120476Y-48204047D02*
X148120476Y-48442142D01*
X148120476Y-48442142D02*
X148168095Y-48537380D01*
X148168095Y-48537380D02*
X148215714Y-48585000D01*
X148215714Y-48585000D02*
X148310952Y-48632619D01*
X148310952Y-48632619D02*
X148549047Y-48632619D01*
X148549047Y-48632619D02*
X148644285Y-48585000D01*
X148644285Y-48585000D02*
X148691904Y-48537380D01*
%TO.C,C2*%
X152396666Y-55517380D02*
X152444285Y-55565000D01*
X152444285Y-55565000D02*
X152587142Y-55612619D01*
X152587142Y-55612619D02*
X152682380Y-55612619D01*
X152682380Y-55612619D02*
X152825237Y-55565000D01*
X152825237Y-55565000D02*
X152920475Y-55469761D01*
X152920475Y-55469761D02*
X152968094Y-55374523D01*
X152968094Y-55374523D02*
X153015713Y-55184047D01*
X153015713Y-55184047D02*
X153015713Y-55041190D01*
X153015713Y-55041190D02*
X152968094Y-54850714D01*
X152968094Y-54850714D02*
X152920475Y-54755476D01*
X152920475Y-54755476D02*
X152825237Y-54660238D01*
X152825237Y-54660238D02*
X152682380Y-54612619D01*
X152682380Y-54612619D02*
X152587142Y-54612619D01*
X152587142Y-54612619D02*
X152444285Y-54660238D01*
X152444285Y-54660238D02*
X152396666Y-54707857D01*
X152015713Y-54707857D02*
X151968094Y-54660238D01*
X151968094Y-54660238D02*
X151872856Y-54612619D01*
X151872856Y-54612619D02*
X151634761Y-54612619D01*
X151634761Y-54612619D02*
X151539523Y-54660238D01*
X151539523Y-54660238D02*
X151491904Y-54707857D01*
X151491904Y-54707857D02*
X151444285Y-54803095D01*
X151444285Y-54803095D02*
X151444285Y-54898333D01*
X151444285Y-54898333D02*
X151491904Y-55041190D01*
X151491904Y-55041190D02*
X152063332Y-55612619D01*
X152063332Y-55612619D02*
X151444285Y-55612619D01*
%TO.C,R1*%
X180846666Y-95092619D02*
X181179999Y-94616428D01*
X181418094Y-95092619D02*
X181418094Y-94092619D01*
X181418094Y-94092619D02*
X181037142Y-94092619D01*
X181037142Y-94092619D02*
X180941904Y-94140238D01*
X180941904Y-94140238D02*
X180894285Y-94187857D01*
X180894285Y-94187857D02*
X180846666Y-94283095D01*
X180846666Y-94283095D02*
X180846666Y-94425952D01*
X180846666Y-94425952D02*
X180894285Y-94521190D01*
X180894285Y-94521190D02*
X180941904Y-94568809D01*
X180941904Y-94568809D02*
X181037142Y-94616428D01*
X181037142Y-94616428D02*
X181418094Y-94616428D01*
X179894285Y-95092619D02*
X180465713Y-95092619D01*
X180179999Y-95092619D02*
X180179999Y-94092619D01*
X180179999Y-94092619D02*
X180275237Y-94235476D01*
X180275237Y-94235476D02*
X180370475Y-94330714D01*
X180370475Y-94330714D02*
X180465713Y-94378333D01*
%TO.C,R7*%
X166136666Y-59402619D02*
X166469999Y-58926428D01*
X166708094Y-59402619D02*
X166708094Y-58402619D01*
X166708094Y-58402619D02*
X166327142Y-58402619D01*
X166327142Y-58402619D02*
X166231904Y-58450238D01*
X166231904Y-58450238D02*
X166184285Y-58497857D01*
X166184285Y-58497857D02*
X166136666Y-58593095D01*
X166136666Y-58593095D02*
X166136666Y-58735952D01*
X166136666Y-58735952D02*
X166184285Y-58831190D01*
X166184285Y-58831190D02*
X166231904Y-58878809D01*
X166231904Y-58878809D02*
X166327142Y-58926428D01*
X166327142Y-58926428D02*
X166708094Y-58926428D01*
X165803332Y-58402619D02*
X165136666Y-58402619D01*
X165136666Y-58402619D02*
X165565237Y-59402619D01*
%TO.C,Q1*%
X121645238Y-59427857D02*
X121740476Y-59380238D01*
X121740476Y-59380238D02*
X121835714Y-59285000D01*
X121835714Y-59285000D02*
X121978571Y-59142142D01*
X121978571Y-59142142D02*
X122073809Y-59094523D01*
X122073809Y-59094523D02*
X122169047Y-59094523D01*
X122121428Y-59332619D02*
X122216666Y-59285000D01*
X122216666Y-59285000D02*
X122311904Y-59189761D01*
X122311904Y-59189761D02*
X122359523Y-58999285D01*
X122359523Y-58999285D02*
X122359523Y-58665952D01*
X122359523Y-58665952D02*
X122311904Y-58475476D01*
X122311904Y-58475476D02*
X122216666Y-58380238D01*
X122216666Y-58380238D02*
X122121428Y-58332619D01*
X122121428Y-58332619D02*
X121930952Y-58332619D01*
X121930952Y-58332619D02*
X121835714Y-58380238D01*
X121835714Y-58380238D02*
X121740476Y-58475476D01*
X121740476Y-58475476D02*
X121692857Y-58665952D01*
X121692857Y-58665952D02*
X121692857Y-58999285D01*
X121692857Y-58999285D02*
X121740476Y-59189761D01*
X121740476Y-59189761D02*
X121835714Y-59285000D01*
X121835714Y-59285000D02*
X121930952Y-59332619D01*
X121930952Y-59332619D02*
X122121428Y-59332619D01*
X120740476Y-59332619D02*
X121311904Y-59332619D01*
X121026190Y-59332619D02*
X121026190Y-58332619D01*
X121026190Y-58332619D02*
X121121428Y-58475476D01*
X121121428Y-58475476D02*
X121216666Y-58570714D01*
X121216666Y-58570714D02*
X121311904Y-58618333D01*
%TO.C,R6*%
X154176666Y-64932619D02*
X154509999Y-64456428D01*
X154748094Y-64932619D02*
X154748094Y-63932619D01*
X154748094Y-63932619D02*
X154367142Y-63932619D01*
X154367142Y-63932619D02*
X154271904Y-63980238D01*
X154271904Y-63980238D02*
X154224285Y-64027857D01*
X154224285Y-64027857D02*
X154176666Y-64123095D01*
X154176666Y-64123095D02*
X154176666Y-64265952D01*
X154176666Y-64265952D02*
X154224285Y-64361190D01*
X154224285Y-64361190D02*
X154271904Y-64408809D01*
X154271904Y-64408809D02*
X154367142Y-64456428D01*
X154367142Y-64456428D02*
X154748094Y-64456428D01*
X153319523Y-63932619D02*
X153509999Y-63932619D01*
X153509999Y-63932619D02*
X153605237Y-63980238D01*
X153605237Y-63980238D02*
X153652856Y-64027857D01*
X153652856Y-64027857D02*
X153748094Y-64170714D01*
X153748094Y-64170714D02*
X153795713Y-64361190D01*
X153795713Y-64361190D02*
X153795713Y-64742142D01*
X153795713Y-64742142D02*
X153748094Y-64837380D01*
X153748094Y-64837380D02*
X153700475Y-64885000D01*
X153700475Y-64885000D02*
X153605237Y-64932619D01*
X153605237Y-64932619D02*
X153414761Y-64932619D01*
X153414761Y-64932619D02*
X153319523Y-64885000D01*
X153319523Y-64885000D02*
X153271904Y-64837380D01*
X153271904Y-64837380D02*
X153224285Y-64742142D01*
X153224285Y-64742142D02*
X153224285Y-64504047D01*
X153224285Y-64504047D02*
X153271904Y-64408809D01*
X153271904Y-64408809D02*
X153319523Y-64361190D01*
X153319523Y-64361190D02*
X153414761Y-64313571D01*
X153414761Y-64313571D02*
X153605237Y-64313571D01*
X153605237Y-64313571D02*
X153700475Y-64361190D01*
X153700475Y-64361190D02*
X153748094Y-64408809D01*
X153748094Y-64408809D02*
X153795713Y-64504047D01*
%TO.C,C3*%
X174876666Y-76117380D02*
X174924285Y-76165000D01*
X174924285Y-76165000D02*
X175067142Y-76212619D01*
X175067142Y-76212619D02*
X175162380Y-76212619D01*
X175162380Y-76212619D02*
X175305237Y-76165000D01*
X175305237Y-76165000D02*
X175400475Y-76069761D01*
X175400475Y-76069761D02*
X175448094Y-75974523D01*
X175448094Y-75974523D02*
X175495713Y-75784047D01*
X175495713Y-75784047D02*
X175495713Y-75641190D01*
X175495713Y-75641190D02*
X175448094Y-75450714D01*
X175448094Y-75450714D02*
X175400475Y-75355476D01*
X175400475Y-75355476D02*
X175305237Y-75260238D01*
X175305237Y-75260238D02*
X175162380Y-75212619D01*
X175162380Y-75212619D02*
X175067142Y-75212619D01*
X175067142Y-75212619D02*
X174924285Y-75260238D01*
X174924285Y-75260238D02*
X174876666Y-75307857D01*
X174543332Y-75212619D02*
X173924285Y-75212619D01*
X173924285Y-75212619D02*
X174257618Y-75593571D01*
X174257618Y-75593571D02*
X174114761Y-75593571D01*
X174114761Y-75593571D02*
X174019523Y-75641190D01*
X174019523Y-75641190D02*
X173971904Y-75688809D01*
X173971904Y-75688809D02*
X173924285Y-75784047D01*
X173924285Y-75784047D02*
X173924285Y-76022142D01*
X173924285Y-76022142D02*
X173971904Y-76117380D01*
X173971904Y-76117380D02*
X174019523Y-76165000D01*
X174019523Y-76165000D02*
X174114761Y-76212619D01*
X174114761Y-76212619D02*
X174400475Y-76212619D01*
X174400475Y-76212619D02*
X174495713Y-76165000D01*
X174495713Y-76165000D02*
X174543332Y-76117380D01*
%TO.C,R3*%
X174716666Y-72052619D02*
X175049999Y-71576428D01*
X175288094Y-72052619D02*
X175288094Y-71052619D01*
X175288094Y-71052619D02*
X174907142Y-71052619D01*
X174907142Y-71052619D02*
X174811904Y-71100238D01*
X174811904Y-71100238D02*
X174764285Y-71147857D01*
X174764285Y-71147857D02*
X174716666Y-71243095D01*
X174716666Y-71243095D02*
X174716666Y-71385952D01*
X174716666Y-71385952D02*
X174764285Y-71481190D01*
X174764285Y-71481190D02*
X174811904Y-71528809D01*
X174811904Y-71528809D02*
X174907142Y-71576428D01*
X174907142Y-71576428D02*
X175288094Y-71576428D01*
X174383332Y-71052619D02*
X173764285Y-71052619D01*
X173764285Y-71052619D02*
X174097618Y-71433571D01*
X174097618Y-71433571D02*
X173954761Y-71433571D01*
X173954761Y-71433571D02*
X173859523Y-71481190D01*
X173859523Y-71481190D02*
X173811904Y-71528809D01*
X173811904Y-71528809D02*
X173764285Y-71624047D01*
X173764285Y-71624047D02*
X173764285Y-71862142D01*
X173764285Y-71862142D02*
X173811904Y-71957380D01*
X173811904Y-71957380D02*
X173859523Y-72005000D01*
X173859523Y-72005000D02*
X173954761Y-72052619D01*
X173954761Y-72052619D02*
X174240475Y-72052619D01*
X174240475Y-72052619D02*
X174335713Y-72005000D01*
X174335713Y-72005000D02*
X174383332Y-71957380D01*
%TO.C,R5*%
X162896666Y-47002619D02*
X163229999Y-46526428D01*
X163468094Y-47002619D02*
X163468094Y-46002619D01*
X163468094Y-46002619D02*
X163087142Y-46002619D01*
X163087142Y-46002619D02*
X162991904Y-46050238D01*
X162991904Y-46050238D02*
X162944285Y-46097857D01*
X162944285Y-46097857D02*
X162896666Y-46193095D01*
X162896666Y-46193095D02*
X162896666Y-46335952D01*
X162896666Y-46335952D02*
X162944285Y-46431190D01*
X162944285Y-46431190D02*
X162991904Y-46478809D01*
X162991904Y-46478809D02*
X163087142Y-46526428D01*
X163087142Y-46526428D02*
X163468094Y-46526428D01*
X161991904Y-46002619D02*
X162468094Y-46002619D01*
X162468094Y-46002619D02*
X162515713Y-46478809D01*
X162515713Y-46478809D02*
X162468094Y-46431190D01*
X162468094Y-46431190D02*
X162372856Y-46383571D01*
X162372856Y-46383571D02*
X162134761Y-46383571D01*
X162134761Y-46383571D02*
X162039523Y-46431190D01*
X162039523Y-46431190D02*
X161991904Y-46478809D01*
X161991904Y-46478809D02*
X161944285Y-46574047D01*
X161944285Y-46574047D02*
X161944285Y-46812142D01*
X161944285Y-46812142D02*
X161991904Y-46907380D01*
X161991904Y-46907380D02*
X162039523Y-46955000D01*
X162039523Y-46955000D02*
X162134761Y-47002619D01*
X162134761Y-47002619D02*
X162372856Y-47002619D01*
X162372856Y-47002619D02*
X162468094Y-46955000D01*
X162468094Y-46955000D02*
X162515713Y-46907380D01*
%TO.C,R9*%
X172586666Y-67602619D02*
X172919999Y-67126428D01*
X173158094Y-67602619D02*
X173158094Y-66602619D01*
X173158094Y-66602619D02*
X172777142Y-66602619D01*
X172777142Y-66602619D02*
X172681904Y-66650238D01*
X172681904Y-66650238D02*
X172634285Y-66697857D01*
X172634285Y-66697857D02*
X172586666Y-66793095D01*
X172586666Y-66793095D02*
X172586666Y-66935952D01*
X172586666Y-66935952D02*
X172634285Y-67031190D01*
X172634285Y-67031190D02*
X172681904Y-67078809D01*
X172681904Y-67078809D02*
X172777142Y-67126428D01*
X172777142Y-67126428D02*
X173158094Y-67126428D01*
X172110475Y-67602619D02*
X171919999Y-67602619D01*
X171919999Y-67602619D02*
X171824761Y-67555000D01*
X171824761Y-67555000D02*
X171777142Y-67507380D01*
X171777142Y-67507380D02*
X171681904Y-67364523D01*
X171681904Y-67364523D02*
X171634285Y-67174047D01*
X171634285Y-67174047D02*
X171634285Y-66793095D01*
X171634285Y-66793095D02*
X171681904Y-66697857D01*
X171681904Y-66697857D02*
X171729523Y-66650238D01*
X171729523Y-66650238D02*
X171824761Y-66602619D01*
X171824761Y-66602619D02*
X172015237Y-66602619D01*
X172015237Y-66602619D02*
X172110475Y-66650238D01*
X172110475Y-66650238D02*
X172158094Y-66697857D01*
X172158094Y-66697857D02*
X172205713Y-66793095D01*
X172205713Y-66793095D02*
X172205713Y-67031190D01*
X172205713Y-67031190D02*
X172158094Y-67126428D01*
X172158094Y-67126428D02*
X172110475Y-67174047D01*
X172110475Y-67174047D02*
X172015237Y-67221666D01*
X172015237Y-67221666D02*
X171824761Y-67221666D01*
X171824761Y-67221666D02*
X171729523Y-67174047D01*
X171729523Y-67174047D02*
X171681904Y-67126428D01*
X171681904Y-67126428D02*
X171634285Y-67031190D01*
%TO.C,R8*%
X172536666Y-63532619D02*
X172869999Y-63056428D01*
X173108094Y-63532619D02*
X173108094Y-62532619D01*
X173108094Y-62532619D02*
X172727142Y-62532619D01*
X172727142Y-62532619D02*
X172631904Y-62580238D01*
X172631904Y-62580238D02*
X172584285Y-62627857D01*
X172584285Y-62627857D02*
X172536666Y-62723095D01*
X172536666Y-62723095D02*
X172536666Y-62865952D01*
X172536666Y-62865952D02*
X172584285Y-62961190D01*
X172584285Y-62961190D02*
X172631904Y-63008809D01*
X172631904Y-63008809D02*
X172727142Y-63056428D01*
X172727142Y-63056428D02*
X173108094Y-63056428D01*
X171965237Y-62961190D02*
X172060475Y-62913571D01*
X172060475Y-62913571D02*
X172108094Y-62865952D01*
X172108094Y-62865952D02*
X172155713Y-62770714D01*
X172155713Y-62770714D02*
X172155713Y-62723095D01*
X172155713Y-62723095D02*
X172108094Y-62627857D01*
X172108094Y-62627857D02*
X172060475Y-62580238D01*
X172060475Y-62580238D02*
X171965237Y-62532619D01*
X171965237Y-62532619D02*
X171774761Y-62532619D01*
X171774761Y-62532619D02*
X171679523Y-62580238D01*
X171679523Y-62580238D02*
X171631904Y-62627857D01*
X171631904Y-62627857D02*
X171584285Y-62723095D01*
X171584285Y-62723095D02*
X171584285Y-62770714D01*
X171584285Y-62770714D02*
X171631904Y-62865952D01*
X171631904Y-62865952D02*
X171679523Y-62913571D01*
X171679523Y-62913571D02*
X171774761Y-62961190D01*
X171774761Y-62961190D02*
X171965237Y-62961190D01*
X171965237Y-62961190D02*
X172060475Y-63008809D01*
X172060475Y-63008809D02*
X172108094Y-63056428D01*
X172108094Y-63056428D02*
X172155713Y-63151666D01*
X172155713Y-63151666D02*
X172155713Y-63342142D01*
X172155713Y-63342142D02*
X172108094Y-63437380D01*
X172108094Y-63437380D02*
X172060475Y-63485000D01*
X172060475Y-63485000D02*
X171965237Y-63532619D01*
X171965237Y-63532619D02*
X171774761Y-63532619D01*
X171774761Y-63532619D02*
X171679523Y-63485000D01*
X171679523Y-63485000D02*
X171631904Y-63437380D01*
X171631904Y-63437380D02*
X171584285Y-63342142D01*
X171584285Y-63342142D02*
X171584285Y-63151666D01*
X171584285Y-63151666D02*
X171631904Y-63056428D01*
X171631904Y-63056428D02*
X171679523Y-63008809D01*
X171679523Y-63008809D02*
X171774761Y-62961190D01*
%TO.C,R2*%
X179856666Y-39302619D02*
X180189999Y-38826428D01*
X180428094Y-39302619D02*
X180428094Y-38302619D01*
X180428094Y-38302619D02*
X180047142Y-38302619D01*
X180047142Y-38302619D02*
X179951904Y-38350238D01*
X179951904Y-38350238D02*
X179904285Y-38397857D01*
X179904285Y-38397857D02*
X179856666Y-38493095D01*
X179856666Y-38493095D02*
X179856666Y-38635952D01*
X179856666Y-38635952D02*
X179904285Y-38731190D01*
X179904285Y-38731190D02*
X179951904Y-38778809D01*
X179951904Y-38778809D02*
X180047142Y-38826428D01*
X180047142Y-38826428D02*
X180428094Y-38826428D01*
X179475713Y-38397857D02*
X179428094Y-38350238D01*
X179428094Y-38350238D02*
X179332856Y-38302619D01*
X179332856Y-38302619D02*
X179094761Y-38302619D01*
X179094761Y-38302619D02*
X178999523Y-38350238D01*
X178999523Y-38350238D02*
X178951904Y-38397857D01*
X178951904Y-38397857D02*
X178904285Y-38493095D01*
X178904285Y-38493095D02*
X178904285Y-38588333D01*
X178904285Y-38588333D02*
X178951904Y-38731190D01*
X178951904Y-38731190D02*
X179523332Y-39302619D01*
X179523332Y-39302619D02*
X178904285Y-39302619D01*
%TO.C,TP3*%
X186411904Y-86174619D02*
X185840476Y-86174619D01*
X186126190Y-87174619D02*
X186126190Y-86174619D01*
X185507142Y-87174619D02*
X185507142Y-86174619D01*
X185507142Y-86174619D02*
X185126190Y-86174619D01*
X185126190Y-86174619D02*
X185030952Y-86222238D01*
X185030952Y-86222238D02*
X184983333Y-86269857D01*
X184983333Y-86269857D02*
X184935714Y-86365095D01*
X184935714Y-86365095D02*
X184935714Y-86507952D01*
X184935714Y-86507952D02*
X184983333Y-86603190D01*
X184983333Y-86603190D02*
X185030952Y-86650809D01*
X185030952Y-86650809D02*
X185126190Y-86698428D01*
X185126190Y-86698428D02*
X185507142Y-86698428D01*
X184602380Y-86174619D02*
X183983333Y-86174619D01*
X183983333Y-86174619D02*
X184316666Y-86555571D01*
X184316666Y-86555571D02*
X184173809Y-86555571D01*
X184173809Y-86555571D02*
X184078571Y-86603190D01*
X184078571Y-86603190D02*
X184030952Y-86650809D01*
X184030952Y-86650809D02*
X183983333Y-86746047D01*
X183983333Y-86746047D02*
X183983333Y-86984142D01*
X183983333Y-86984142D02*
X184030952Y-87079380D01*
X184030952Y-87079380D02*
X184078571Y-87127000D01*
X184078571Y-87127000D02*
X184173809Y-87174619D01*
X184173809Y-87174619D02*
X184459523Y-87174619D01*
X184459523Y-87174619D02*
X184554761Y-87127000D01*
X184554761Y-87127000D02*
X184602380Y-87079380D01*
%TO.C,D9*%
X195568094Y-39082619D02*
X195568094Y-38082619D01*
X195568094Y-38082619D02*
X195329999Y-38082619D01*
X195329999Y-38082619D02*
X195187142Y-38130238D01*
X195187142Y-38130238D02*
X195091904Y-38225476D01*
X195091904Y-38225476D02*
X195044285Y-38320714D01*
X195044285Y-38320714D02*
X194996666Y-38511190D01*
X194996666Y-38511190D02*
X194996666Y-38654047D01*
X194996666Y-38654047D02*
X195044285Y-38844523D01*
X195044285Y-38844523D02*
X195091904Y-38939761D01*
X195091904Y-38939761D02*
X195187142Y-39035000D01*
X195187142Y-39035000D02*
X195329999Y-39082619D01*
X195329999Y-39082619D02*
X195568094Y-39082619D01*
X194520475Y-39082619D02*
X194329999Y-39082619D01*
X194329999Y-39082619D02*
X194234761Y-39035000D01*
X194234761Y-39035000D02*
X194187142Y-38987380D01*
X194187142Y-38987380D02*
X194091904Y-38844523D01*
X194091904Y-38844523D02*
X194044285Y-38654047D01*
X194044285Y-38654047D02*
X194044285Y-38273095D01*
X194044285Y-38273095D02*
X194091904Y-38177857D01*
X194091904Y-38177857D02*
X194139523Y-38130238D01*
X194139523Y-38130238D02*
X194234761Y-38082619D01*
X194234761Y-38082619D02*
X194425237Y-38082619D01*
X194425237Y-38082619D02*
X194520475Y-38130238D01*
X194520475Y-38130238D02*
X194568094Y-38177857D01*
X194568094Y-38177857D02*
X194615713Y-38273095D01*
X194615713Y-38273095D02*
X194615713Y-38511190D01*
X194615713Y-38511190D02*
X194568094Y-38606428D01*
X194568094Y-38606428D02*
X194520475Y-38654047D01*
X194520475Y-38654047D02*
X194425237Y-38701666D01*
X194425237Y-38701666D02*
X194234761Y-38701666D01*
X194234761Y-38701666D02*
X194139523Y-38654047D01*
X194139523Y-38654047D02*
X194091904Y-38606428D01*
X194091904Y-38606428D02*
X194044285Y-38511190D01*
%TO.C,R4*%
X174746666Y-74072619D02*
X175079999Y-73596428D01*
X175318094Y-74072619D02*
X175318094Y-73072619D01*
X175318094Y-73072619D02*
X174937142Y-73072619D01*
X174937142Y-73072619D02*
X174841904Y-73120238D01*
X174841904Y-73120238D02*
X174794285Y-73167857D01*
X174794285Y-73167857D02*
X174746666Y-73263095D01*
X174746666Y-73263095D02*
X174746666Y-73405952D01*
X174746666Y-73405952D02*
X174794285Y-73501190D01*
X174794285Y-73501190D02*
X174841904Y-73548809D01*
X174841904Y-73548809D02*
X174937142Y-73596428D01*
X174937142Y-73596428D02*
X175318094Y-73596428D01*
X173889523Y-73405952D02*
X173889523Y-74072619D01*
X174127618Y-73025000D02*
X174365713Y-73739285D01*
X174365713Y-73739285D02*
X173746666Y-73739285D01*
%TO.C,U2*%
X180801904Y-85262619D02*
X180801904Y-86072142D01*
X180801904Y-86072142D02*
X180754285Y-86167380D01*
X180754285Y-86167380D02*
X180706666Y-86215000D01*
X180706666Y-86215000D02*
X180611428Y-86262619D01*
X180611428Y-86262619D02*
X180420952Y-86262619D01*
X180420952Y-86262619D02*
X180325714Y-86215000D01*
X180325714Y-86215000D02*
X180278095Y-86167380D01*
X180278095Y-86167380D02*
X180230476Y-86072142D01*
X180230476Y-86072142D02*
X180230476Y-85262619D01*
X179801904Y-85357857D02*
X179754285Y-85310238D01*
X179754285Y-85310238D02*
X179659047Y-85262619D01*
X179659047Y-85262619D02*
X179420952Y-85262619D01*
X179420952Y-85262619D02*
X179325714Y-85310238D01*
X179325714Y-85310238D02*
X179278095Y-85357857D01*
X179278095Y-85357857D02*
X179230476Y-85453095D01*
X179230476Y-85453095D02*
X179230476Y-85548333D01*
X179230476Y-85548333D02*
X179278095Y-85691190D01*
X179278095Y-85691190D02*
X179849523Y-86262619D01*
X179849523Y-86262619D02*
X179230476Y-86262619D01*
%TO.C,D10*%
X185374285Y-39082619D02*
X185374285Y-38082619D01*
X185374285Y-38082619D02*
X185136190Y-38082619D01*
X185136190Y-38082619D02*
X184993333Y-38130238D01*
X184993333Y-38130238D02*
X184898095Y-38225476D01*
X184898095Y-38225476D02*
X184850476Y-38320714D01*
X184850476Y-38320714D02*
X184802857Y-38511190D01*
X184802857Y-38511190D02*
X184802857Y-38654047D01*
X184802857Y-38654047D02*
X184850476Y-38844523D01*
X184850476Y-38844523D02*
X184898095Y-38939761D01*
X184898095Y-38939761D02*
X184993333Y-39035000D01*
X184993333Y-39035000D02*
X185136190Y-39082619D01*
X185136190Y-39082619D02*
X185374285Y-39082619D01*
X183850476Y-39082619D02*
X184421904Y-39082619D01*
X184136190Y-39082619D02*
X184136190Y-38082619D01*
X184136190Y-38082619D02*
X184231428Y-38225476D01*
X184231428Y-38225476D02*
X184326666Y-38320714D01*
X184326666Y-38320714D02*
X184421904Y-38368333D01*
X183231428Y-38082619D02*
X183136190Y-38082619D01*
X183136190Y-38082619D02*
X183040952Y-38130238D01*
X183040952Y-38130238D02*
X182993333Y-38177857D01*
X182993333Y-38177857D02*
X182945714Y-38273095D01*
X182945714Y-38273095D02*
X182898095Y-38463571D01*
X182898095Y-38463571D02*
X182898095Y-38701666D01*
X182898095Y-38701666D02*
X182945714Y-38892142D01*
X182945714Y-38892142D02*
X182993333Y-38987380D01*
X182993333Y-38987380D02*
X183040952Y-39035000D01*
X183040952Y-39035000D02*
X183136190Y-39082619D01*
X183136190Y-39082619D02*
X183231428Y-39082619D01*
X183231428Y-39082619D02*
X183326666Y-39035000D01*
X183326666Y-39035000D02*
X183374285Y-38987380D01*
X183374285Y-38987380D02*
X183421904Y-38892142D01*
X183421904Y-38892142D02*
X183469523Y-38701666D01*
X183469523Y-38701666D02*
X183469523Y-38463571D01*
X183469523Y-38463571D02*
X183421904Y-38273095D01*
X183421904Y-38273095D02*
X183374285Y-38177857D01*
X183374285Y-38177857D02*
X183326666Y-38130238D01*
X183326666Y-38130238D02*
X183231428Y-38082619D01*
%TO.C,U3*%
X163961904Y-76712619D02*
X163961904Y-77522142D01*
X163961904Y-77522142D02*
X163914285Y-77617380D01*
X163914285Y-77617380D02*
X163866666Y-77665000D01*
X163866666Y-77665000D02*
X163771428Y-77712619D01*
X163771428Y-77712619D02*
X163580952Y-77712619D01*
X163580952Y-77712619D02*
X163485714Y-77665000D01*
X163485714Y-77665000D02*
X163438095Y-77617380D01*
X163438095Y-77617380D02*
X163390476Y-77522142D01*
X163390476Y-77522142D02*
X163390476Y-76712619D01*
X163009523Y-76712619D02*
X162390476Y-76712619D01*
X162390476Y-76712619D02*
X162723809Y-77093571D01*
X162723809Y-77093571D02*
X162580952Y-77093571D01*
X162580952Y-77093571D02*
X162485714Y-77141190D01*
X162485714Y-77141190D02*
X162438095Y-77188809D01*
X162438095Y-77188809D02*
X162390476Y-77284047D01*
X162390476Y-77284047D02*
X162390476Y-77522142D01*
X162390476Y-77522142D02*
X162438095Y-77617380D01*
X162438095Y-77617380D02*
X162485714Y-77665000D01*
X162485714Y-77665000D02*
X162580952Y-77712619D01*
X162580952Y-77712619D02*
X162866666Y-77712619D01*
X162866666Y-77712619D02*
X162961904Y-77665000D01*
X162961904Y-77665000D02*
X163009523Y-77617380D01*
%TO.C,J1*%
X114313333Y-40752667D02*
X114313333Y-41466952D01*
X114313333Y-41466952D02*
X114360952Y-41609809D01*
X114360952Y-41609809D02*
X114456190Y-41705048D01*
X114456190Y-41705048D02*
X114599047Y-41752667D01*
X114599047Y-41752667D02*
X114694285Y-41752667D01*
X113313333Y-41752667D02*
X113884761Y-41752667D01*
X113599047Y-41752667D02*
X113599047Y-40752667D01*
X113599047Y-40752667D02*
X113694285Y-40895524D01*
X113694285Y-40895524D02*
X113789523Y-40990762D01*
X113789523Y-40990762D02*
X113884761Y-41038381D01*
%TO.C,C1*%
X114506666Y-60977380D02*
X114554285Y-61025000D01*
X114554285Y-61025000D02*
X114697142Y-61072619D01*
X114697142Y-61072619D02*
X114792380Y-61072619D01*
X114792380Y-61072619D02*
X114935237Y-61025000D01*
X114935237Y-61025000D02*
X115030475Y-60929761D01*
X115030475Y-60929761D02*
X115078094Y-60834523D01*
X115078094Y-60834523D02*
X115125713Y-60644047D01*
X115125713Y-60644047D02*
X115125713Y-60501190D01*
X115125713Y-60501190D02*
X115078094Y-60310714D01*
X115078094Y-60310714D02*
X115030475Y-60215476D01*
X115030475Y-60215476D02*
X114935237Y-60120238D01*
X114935237Y-60120238D02*
X114792380Y-60072619D01*
X114792380Y-60072619D02*
X114697142Y-60072619D01*
X114697142Y-60072619D02*
X114554285Y-60120238D01*
X114554285Y-60120238D02*
X114506666Y-60167857D01*
X113554285Y-61072619D02*
X114125713Y-61072619D01*
X113839999Y-61072619D02*
X113839999Y-60072619D01*
X113839999Y-60072619D02*
X113935237Y-60215476D01*
X113935237Y-60215476D02*
X114030475Y-60310714D01*
X114030475Y-60310714D02*
X114125713Y-60358333D01*
%TO.C,R11*%
X118502857Y-54302619D02*
X118836190Y-53826428D01*
X119074285Y-54302619D02*
X119074285Y-53302619D01*
X119074285Y-53302619D02*
X118693333Y-53302619D01*
X118693333Y-53302619D02*
X118598095Y-53350238D01*
X118598095Y-53350238D02*
X118550476Y-53397857D01*
X118550476Y-53397857D02*
X118502857Y-53493095D01*
X118502857Y-53493095D02*
X118502857Y-53635952D01*
X118502857Y-53635952D02*
X118550476Y-53731190D01*
X118550476Y-53731190D02*
X118598095Y-53778809D01*
X118598095Y-53778809D02*
X118693333Y-53826428D01*
X118693333Y-53826428D02*
X119074285Y-53826428D01*
X117550476Y-54302619D02*
X118121904Y-54302619D01*
X117836190Y-54302619D02*
X117836190Y-53302619D01*
X117836190Y-53302619D02*
X117931428Y-53445476D01*
X117931428Y-53445476D02*
X118026666Y-53540714D01*
X118026666Y-53540714D02*
X118121904Y-53588333D01*
X116598095Y-54302619D02*
X117169523Y-54302619D01*
X116883809Y-54302619D02*
X116883809Y-53302619D01*
X116883809Y-53302619D02*
X116979047Y-53445476D01*
X116979047Y-53445476D02*
X117074285Y-53540714D01*
X117074285Y-53540714D02*
X117169523Y-53588333D01*
%TO.C,C4*%
X172566666Y-65507380D02*
X172614285Y-65555000D01*
X172614285Y-65555000D02*
X172757142Y-65602619D01*
X172757142Y-65602619D02*
X172852380Y-65602619D01*
X172852380Y-65602619D02*
X172995237Y-65555000D01*
X172995237Y-65555000D02*
X173090475Y-65459761D01*
X173090475Y-65459761D02*
X173138094Y-65364523D01*
X173138094Y-65364523D02*
X173185713Y-65174047D01*
X173185713Y-65174047D02*
X173185713Y-65031190D01*
X173185713Y-65031190D02*
X173138094Y-64840714D01*
X173138094Y-64840714D02*
X173090475Y-64745476D01*
X173090475Y-64745476D02*
X172995237Y-64650238D01*
X172995237Y-64650238D02*
X172852380Y-64602619D01*
X172852380Y-64602619D02*
X172757142Y-64602619D01*
X172757142Y-64602619D02*
X172614285Y-64650238D01*
X172614285Y-64650238D02*
X172566666Y-64697857D01*
X171709523Y-64935952D02*
X171709523Y-65602619D01*
X171947618Y-64555000D02*
X172185713Y-65269285D01*
X172185713Y-65269285D02*
X171566666Y-65269285D01*
D12*
%TO.C,U8*%
X163370000Y-61170000D02*
X161420000Y-61170000D01*
X163370000Y-66290000D02*
X161420000Y-66290000D01*
X163370000Y-61170000D02*
X166820000Y-61170000D01*
X163370000Y-66290000D02*
X165320000Y-66290000D01*
%TO.C,R10*%
X200597258Y-41252500D02*
X200122742Y-41252500D01*
X200597258Y-40207500D02*
X200122742Y-40207500D01*
%TO.C,U1*%
X96980000Y-65210000D02*
X97280000Y-65210000D01*
X96980000Y-65210000D02*
X96980000Y-86210000D01*
X99380000Y-65210000D02*
X99780000Y-65210000D01*
X99647000Y-65210000D02*
X99647000Y-68217000D01*
X101980000Y-65210000D02*
X102380000Y-65210000D01*
X104480000Y-65210000D02*
X104880000Y-65210000D01*
X107080000Y-65210000D02*
X107480000Y-65210000D01*
X109580000Y-65210000D02*
X109980000Y-65210000D01*
X112080000Y-65210000D02*
X112480000Y-65210000D01*
X114680000Y-65210000D02*
X115080000Y-65210000D01*
X117180000Y-65210000D02*
X117580000Y-65210000D01*
X119780000Y-65210000D02*
X120180000Y-65210000D01*
X122280000Y-65210000D02*
X122680000Y-65210000D01*
X124780000Y-65210000D02*
X125180000Y-65210000D01*
X127380000Y-65210000D02*
X127780000Y-65210000D01*
X129880000Y-65210000D02*
X130280000Y-65210000D01*
X132480000Y-65210000D02*
X132880000Y-65210000D01*
X134980000Y-65210000D02*
X135380000Y-65210000D01*
X137580000Y-65210000D02*
X137980000Y-65210000D01*
X140080000Y-65210000D02*
X140480000Y-65210000D01*
X142580000Y-65210000D02*
X142980000Y-65210000D01*
X145180000Y-65210000D02*
X145580000Y-65210000D01*
X99647000Y-68217000D02*
X96980000Y-68217000D01*
X147980000Y-72010000D02*
X147980000Y-65210000D01*
X147980000Y-74210000D02*
X147980000Y-74610000D01*
X147980000Y-76810000D02*
X147980000Y-77210000D01*
X96980000Y-86210000D02*
X97280000Y-86210000D01*
X99380000Y-86210000D02*
X99780000Y-86210000D01*
X101980000Y-86210000D02*
X102380000Y-86210000D01*
X104480000Y-86210000D02*
X104880000Y-86210000D01*
X107080000Y-86210000D02*
X107480000Y-86210000D01*
X109580000Y-86210000D02*
X109980000Y-86210000D01*
X112080000Y-86210000D02*
X112480000Y-86210000D01*
X114680000Y-86210000D02*
X115080000Y-86210000D01*
X117180000Y-86210000D02*
X117580000Y-86210000D01*
X119780000Y-86210000D02*
X120180000Y-86210000D01*
X122280000Y-86210000D02*
X122680000Y-86210000D01*
X124780000Y-86210000D02*
X125180000Y-86210000D01*
X127380000Y-86210000D02*
X127780000Y-86210000D01*
X129880000Y-86210000D02*
X130280000Y-86210000D01*
X132480000Y-86210000D02*
X132880000Y-86210000D01*
X134980000Y-86210000D02*
X135380000Y-86210000D01*
X137580000Y-86210000D02*
X137980000Y-86210000D01*
X140080000Y-86210000D02*
X140480000Y-86210000D01*
X142580000Y-86210000D02*
X142980000Y-86210000D01*
X145180000Y-86210000D02*
X145580000Y-86210000D01*
X147980000Y-86210000D02*
X147980000Y-79410000D01*
%TO.C,U5*%
X154430000Y-43070000D02*
X150742500Y-43070000D01*
X150230000Y-43569500D02*
X150230000Y-52070000D01*
X150230000Y-52070000D02*
X154430000Y-52070000D01*
X154430000Y-52070000D02*
X154430000Y-43070000D01*
D13*
X150493500Y-43270000D02*
G75*
G03*
X150493500Y-43270000I-63500J0D01*
G01*
D12*
%TO.C,C2*%
X152089420Y-54230000D02*
X152370580Y-54230000D01*
X152089420Y-53210000D02*
X152370580Y-53210000D01*
%TO.C,R1*%
X180442742Y-93722500D02*
X180917258Y-93722500D01*
X180442742Y-92677500D02*
X180917258Y-92677500D01*
%TO.C,R7*%
X163082742Y-59402500D02*
X163557258Y-59402500D01*
X163082742Y-58357500D02*
X163557258Y-58357500D01*
%TO.C,Q1*%
X117130000Y-58377500D02*
X117130000Y-56702500D01*
X117130000Y-58377500D02*
X117130000Y-59027500D01*
X120250000Y-58377500D02*
X120250000Y-57727500D01*
X120250000Y-58377500D02*
X120250000Y-59027500D01*
%TO.C,R6*%
X156442742Y-64902500D02*
X156917258Y-64902500D01*
X156442742Y-63857500D02*
X156917258Y-63857500D01*
%TO.C,TP2*%
X175260000Y-83450000D02*
X173360000Y-83450000D01*
X175260000Y-85350000D02*
X175260000Y-83450000D01*
X173360000Y-83450000D02*
X173360000Y-85350000D01*
X173360000Y-85350000D02*
X175260000Y-85350000D01*
%TO.C,C3*%
X171829420Y-73990000D02*
X172110580Y-73990000D01*
X171829420Y-72970000D02*
X172110580Y-72970000D01*
%TO.C,R3*%
X172197258Y-70917500D02*
X171722742Y-70917500D01*
X172197258Y-71962500D02*
X171722742Y-71962500D01*
%TO.C,R5*%
X162512742Y-44457500D02*
X162987258Y-44457500D01*
X162512742Y-45502500D02*
X162987258Y-45502500D01*
%TO.C,R9*%
X169482742Y-67622500D02*
X169957258Y-67622500D01*
X169482742Y-66577500D02*
X169957258Y-66577500D01*
%TO.C,TP1*%
X175230000Y-88400000D02*
X173330000Y-88400000D01*
X175230000Y-90300000D02*
X175230000Y-88400000D01*
X173330000Y-88400000D02*
X173330000Y-90300000D01*
X173330000Y-90300000D02*
X175230000Y-90300000D01*
%TO.C,R8*%
X169957258Y-62617500D02*
X169482742Y-62617500D01*
X169957258Y-63662500D02*
X169482742Y-63662500D01*
%TO.C,R2*%
X179522742Y-40902500D02*
X179997258Y-40902500D01*
X179522742Y-39857500D02*
X179997258Y-39857500D01*
%TO.C,TP3*%
X186100000Y-87410000D02*
X184200000Y-87410000D01*
X186100000Y-89310000D02*
X186100000Y-87410000D01*
X184200000Y-87410000D02*
X184200000Y-89310000D01*
X184200000Y-89310000D02*
X186100000Y-89310000D01*
%TO.C,D9*%
X192620000Y-41550000D02*
X192620000Y-39550000D01*
X192620000Y-41550000D02*
X196630000Y-41550000D01*
X192620000Y-39550000D02*
X196630000Y-39550000D01*
%TO.C,R4*%
X172227258Y-75137500D02*
X171752742Y-75137500D01*
X172227258Y-76182500D02*
X171752742Y-76182500D01*
%TO.C,U2*%
X181650000Y-90210000D02*
X181650000Y-89735000D01*
X181175000Y-86990000D02*
X181650000Y-86990000D01*
X181175000Y-90210000D02*
X181650000Y-90210000D01*
X178905000Y-86990000D02*
X178430000Y-86990000D01*
X178905000Y-90210000D02*
X178430000Y-90210000D01*
X178430000Y-86990000D02*
X178430000Y-87465000D01*
X178430000Y-90210000D02*
X178430000Y-89735000D01*
%TO.C,D10*%
X181932500Y-41490000D02*
X181932500Y-39490000D01*
X181932500Y-41490000D02*
X185942500Y-41490000D01*
X181932500Y-39490000D02*
X185942500Y-39490000D01*
%TO.C,U3*%
X159220000Y-75760000D02*
X159220000Y-70760000D01*
X159220000Y-70760000D02*
X167020000Y-70760000D01*
X167020000Y-76360000D02*
X159820000Y-76360000D01*
X167020000Y-70760000D02*
X167020000Y-76360000D01*
D14*
X159483500Y-76160000D02*
G75*
G03*
X159483500Y-76160000I-63500J0D01*
G01*
D12*
%TO.C,C1*%
X112070580Y-60010000D02*
X111789420Y-60010000D01*
X112070580Y-61030000D02*
X111789420Y-61030000D01*
%TO.C,R11*%
X118097258Y-54747500D02*
X117622742Y-54747500D01*
X118097258Y-55792500D02*
X117622742Y-55792500D01*
%TO.C,C4*%
X169579420Y-65590000D02*
X169860580Y-65590000D01*
X169579420Y-64570000D02*
X169860580Y-64570000D01*
%TD*%
%LPC*%
D15*
%TO.C,J4*%
X116350000Y-50180000D03*
X116350000Y-47640000D03*
X116350000Y-45100000D03*
X116350000Y-42560000D03*
%TD*%
D16*
%TO.C,U8*%
X165845000Y-61825000D03*
X165845000Y-63095000D03*
X165845000Y-64365000D03*
X165845000Y-65635000D03*
X160895000Y-65635000D03*
X160895000Y-64365000D03*
X160895000Y-63095000D03*
X160895000Y-61825000D03*
%TD*%
D17*
%TO.C,R10*%
X199535000Y-40730000D03*
X201185000Y-40730000D03*
%TD*%
D18*
%TO.C,J3*%
X178220000Y-60480000D03*
X184900000Y-60480000D03*
D19*
X177160000Y-57930000D03*
X186060000Y-57930000D03*
X179310000Y-56430000D03*
X183760000Y-56430000D03*
%TD*%
D20*
%TO.C,U1*%
X98480000Y-72985000D03*
D21*
X101510000Y-73285000D03*
X101510000Y-78135000D03*
D20*
X98480000Y-78435000D03*
D22*
X98350000Y-66820000D03*
D23*
X98350000Y-65920000D03*
D22*
X100890000Y-66820000D03*
D23*
X100890000Y-65920000D03*
D24*
X103430000Y-66820000D03*
D23*
X103430000Y-65920000D03*
D22*
X105970000Y-66820000D03*
D23*
X105970000Y-65920000D03*
D22*
X108510000Y-66820000D03*
D23*
X108510000Y-65920000D03*
D22*
X111050000Y-66820000D03*
D23*
X111050000Y-65920000D03*
D22*
X113590000Y-66820000D03*
D23*
X113590000Y-65920000D03*
D24*
X116130000Y-66820000D03*
D23*
X116130000Y-65920000D03*
D22*
X118670000Y-66820000D03*
D23*
X118670000Y-65920000D03*
D22*
X121210000Y-66820000D03*
D23*
X121210000Y-65920000D03*
D22*
X123750000Y-66820000D03*
D23*
X123750000Y-65920000D03*
D22*
X126290000Y-66820000D03*
D23*
X126290000Y-65920000D03*
D24*
X128830000Y-66820000D03*
D23*
X128830000Y-65920000D03*
D22*
X131370000Y-66820000D03*
D23*
X131370000Y-65920000D03*
D22*
X133910000Y-66820000D03*
D23*
X133910000Y-65920000D03*
D22*
X136450000Y-66820000D03*
D23*
X136450000Y-65920000D03*
D22*
X138990000Y-66820000D03*
D23*
X138990000Y-65920000D03*
D24*
X141530000Y-66820000D03*
D23*
X141530000Y-65920000D03*
D22*
X144070000Y-66820000D03*
D23*
X144070000Y-65920000D03*
D22*
X146610000Y-66820000D03*
D23*
X146610000Y-65920000D03*
D22*
X146610000Y-84600000D03*
D23*
X146610000Y-85500000D03*
D22*
X144070000Y-84600000D03*
D23*
X144070000Y-85500000D03*
D24*
X141530000Y-84600000D03*
D23*
X141530000Y-85500000D03*
D22*
X138990000Y-84600000D03*
D23*
X138990000Y-85500000D03*
D22*
X136450000Y-84600000D03*
D23*
X136450000Y-85500000D03*
D22*
X133910000Y-84600000D03*
D23*
X133910000Y-85500000D03*
D22*
X131370000Y-84600000D03*
D23*
X131370000Y-85500000D03*
D24*
X128830000Y-84600000D03*
D23*
X128830000Y-85500000D03*
D22*
X126290000Y-84600000D03*
D23*
X126290000Y-85500000D03*
D22*
X123750000Y-84600000D03*
D23*
X123750000Y-85500000D03*
D22*
X121210000Y-84600000D03*
D23*
X121210000Y-85500000D03*
D22*
X118670000Y-84600000D03*
D23*
X118670000Y-85500000D03*
D24*
X116130000Y-84600000D03*
D23*
X116130000Y-85500000D03*
D22*
X113590000Y-84600000D03*
D23*
X113590000Y-85500000D03*
D22*
X111050000Y-84600000D03*
D23*
X111050000Y-85500000D03*
D22*
X108510000Y-84600000D03*
D23*
X108510000Y-85500000D03*
D22*
X105970000Y-84600000D03*
D23*
X105970000Y-85500000D03*
D24*
X103430000Y-84600000D03*
D23*
X103430000Y-85500000D03*
D22*
X100890000Y-84600000D03*
D23*
X100890000Y-85500000D03*
D22*
X98350000Y-84600000D03*
D23*
X98350000Y-85500000D03*
D22*
X146380000Y-73170000D03*
D25*
X147280000Y-73170000D03*
D24*
X146380000Y-75710000D03*
D25*
X147280000Y-75710000D03*
D22*
X146380000Y-78250000D03*
D25*
X147280000Y-78250000D03*
%TD*%
D26*
%TO.C,U5*%
X151060000Y-44420000D03*
X153600000Y-44420000D03*
X153600000Y-50720000D03*
X152330000Y-50720000D03*
X151060000Y-50720000D03*
%TD*%
D27*
%TO.C,C2*%
X151455000Y-53720000D03*
X153005000Y-53720000D03*
%TD*%
D28*
%TO.C,R1*%
X179855000Y-93200000D03*
X181505000Y-93200000D03*
%TD*%
%TO.C,R7*%
X162495000Y-58880000D03*
X164145000Y-58880000D03*
%TD*%
D29*
%TO.C,Q1*%
X117740000Y-57440000D03*
X119640000Y-57440000D03*
X118690000Y-59315000D03*
%TD*%
D28*
%TO.C,R6*%
X155855000Y-64380000D03*
X157505000Y-64380000D03*
%TD*%
D30*
%TO.C,SW8*%
X175568000Y-138915000D03*
D31*
X175628000Y-143115000D03*
D32*
X180848000Y-138915000D03*
D30*
X186128000Y-138915000D03*
D33*
X183358000Y-134165000D03*
D34*
X185848000Y-135115000D03*
D35*
X177692995Y-135644996D03*
D19*
X178348000Y-134915000D03*
D34*
X180848000Y-133015000D03*
%TD*%
D36*
%TO.C,TP2*%
X174310000Y-84400000D03*
%TD*%
D37*
%TO.C,REF\u002A\u002A*%
X195130000Y-85956152D03*
X201130000Y-85956152D03*
X198130000Y-84760000D03*
X196130000Y-84224102D03*
X200130000Y-84224102D03*
X192933848Y-83760000D03*
X203326152Y-83760000D03*
X194665898Y-82760000D03*
X201594102Y-82760000D03*
X197130000Y-82492051D03*
X199130000Y-82492051D03*
X194130000Y-80760000D03*
X196130000Y-80760000D03*
X198130000Y-80760000D03*
X200130000Y-80760000D03*
X202130000Y-80760000D03*
X197130000Y-79027949D03*
X199130000Y-79027949D03*
X194665898Y-78760000D03*
X201594102Y-78760000D03*
X192933848Y-77760000D03*
X203326152Y-77760000D03*
X196130000Y-77295898D03*
X200130000Y-77295898D03*
X198130000Y-76760000D03*
X195130000Y-75563848D03*
X201130000Y-75563848D03*
%TD*%
D18*
%TO.C,J5*%
X194668210Y-60490000D03*
X201348210Y-60490000D03*
D19*
X193608210Y-57940000D03*
X202508210Y-57940000D03*
X195758210Y-56440000D03*
X200208210Y-56440000D03*
%TD*%
D30*
%TO.C,SW2*%
X137468000Y-119865000D03*
D31*
X137528000Y-124065000D03*
D32*
X142748000Y-119865000D03*
D30*
X148028000Y-119865000D03*
D33*
X145258000Y-115115000D03*
D34*
X147748000Y-116065000D03*
D35*
X139592995Y-116594996D03*
D19*
X140248000Y-115865000D03*
D34*
X142748000Y-113965000D03*
%TD*%
D30*
%TO.C,SW7*%
X156518000Y-138915000D03*
D31*
X156578000Y-143115000D03*
D32*
X161798000Y-138915000D03*
D30*
X167078000Y-138915000D03*
D33*
X164308000Y-134165000D03*
D34*
X166798000Y-135115000D03*
D35*
X158642995Y-135644996D03*
D19*
X159298000Y-134915000D03*
D34*
X161798000Y-133015000D03*
%TD*%
D27*
%TO.C,C3*%
X171195000Y-73480000D03*
X172745000Y-73480000D03*
%TD*%
D17*
%TO.C,R3*%
X172785000Y-71440000D03*
X171135000Y-71440000D03*
%TD*%
D28*
%TO.C,R5*%
X163575000Y-44980000D03*
X161925000Y-44980000D03*
%TD*%
%TO.C,R9*%
X168895000Y-67100000D03*
X170545000Y-67100000D03*
%TD*%
D36*
%TO.C,TP1*%
X174280000Y-89350000D03*
%TD*%
D17*
%TO.C,R8*%
X170545000Y-63140000D03*
X168895000Y-63140000D03*
%TD*%
D28*
%TO.C,R2*%
X178935000Y-40380000D03*
X180585000Y-40380000D03*
%TD*%
D36*
%TO.C,TP3*%
X185150000Y-88360000D03*
%TD*%
D18*
%TO.C,J2*%
X178230000Y-48250000D03*
X184910000Y-48250000D03*
D19*
X177170000Y-45700000D03*
X186070000Y-45700000D03*
X179320000Y-44200000D03*
X183770000Y-44200000D03*
%TD*%
D38*
%TO.C,D9*%
X193330000Y-40550000D03*
X196630000Y-40550000D03*
%TD*%
D30*
%TO.C,SW3*%
X156518000Y-119865000D03*
D31*
X156578000Y-124065000D03*
D32*
X161798000Y-119865000D03*
D30*
X167078000Y-119865000D03*
D33*
X164308000Y-115115000D03*
D34*
X166798000Y-116065000D03*
D35*
X158642995Y-116594996D03*
D19*
X159298000Y-115865000D03*
D34*
X161798000Y-113965000D03*
%TD*%
D17*
%TO.C,R4*%
X172815000Y-75660000D03*
X171165000Y-75660000D03*
%TD*%
D39*
%TO.C,U2*%
X181477500Y-87850000D03*
X181477500Y-88350000D03*
X181477500Y-88850000D03*
X181477500Y-89350000D03*
D40*
X180790000Y-90037500D03*
X180290000Y-90037500D03*
X179790000Y-90037500D03*
X179290000Y-90037500D03*
D39*
X178602500Y-89350000D03*
X178602500Y-88850000D03*
X178602500Y-88350000D03*
X178602500Y-87850000D03*
D40*
X179290000Y-87162500D03*
X179790000Y-87162500D03*
X180290000Y-87162500D03*
X180790000Y-87162500D03*
D41*
X180040000Y-88600000D03*
%TD*%
D38*
%TO.C,D10*%
X182642500Y-40490000D03*
X185942500Y-40490000D03*
%TD*%
D30*
%TO.C,SW5*%
X118418000Y-138915000D03*
D31*
X118478000Y-143115000D03*
D32*
X123698000Y-138915000D03*
D30*
X128978000Y-138915000D03*
D33*
X126208000Y-134165000D03*
D34*
X128698000Y-135115000D03*
D35*
X120542995Y-135644996D03*
D19*
X121198000Y-134915000D03*
D34*
X123698000Y-133015000D03*
%TD*%
D42*
%TO.C,U3*%
X160257500Y-75510000D03*
X160257500Y-74860000D03*
X160257500Y-74210000D03*
X160257500Y-73560000D03*
X160257500Y-72910000D03*
X160257500Y-72260000D03*
X160257500Y-71610000D03*
X165982500Y-71610000D03*
X165982500Y-72260000D03*
X165982500Y-72910000D03*
X165982500Y-73560000D03*
X165982500Y-74210000D03*
X165982500Y-74860000D03*
X165982500Y-75510000D03*
%TD*%
D31*
%TO.C,J1*%
X101020000Y-55060000D03*
X101020000Y-47080000D03*
D43*
X111520000Y-47930000D03*
X111520000Y-49030000D03*
X111520000Y-50130000D03*
X111520000Y-51230000D03*
X111520000Y-52330000D03*
X111520000Y-53430000D03*
X111520000Y-54530000D03*
X111520000Y-55630000D03*
X111520000Y-56730000D03*
D44*
X111020000Y-57880000D03*
D45*
X101420000Y-57880000D03*
D46*
X111020000Y-43280000D03*
D45*
X101420000Y-42380000D03*
%TD*%
D30*
%TO.C,SW4*%
X175568000Y-119865000D03*
D31*
X175628000Y-124065000D03*
D32*
X180848000Y-119865000D03*
D30*
X186128000Y-119865000D03*
D33*
X183358000Y-115115000D03*
D34*
X185848000Y-116065000D03*
D35*
X177692995Y-116594996D03*
D19*
X178348000Y-115865000D03*
D34*
X180848000Y-113965000D03*
%TD*%
D30*
%TO.C,SW6*%
X137468000Y-138915000D03*
D31*
X137528000Y-143115000D03*
D32*
X142748000Y-138915000D03*
D30*
X148028000Y-138915000D03*
D33*
X145258000Y-134165000D03*
D34*
X147748000Y-135115000D03*
D35*
X139592995Y-135644996D03*
D19*
X140248000Y-134915000D03*
D34*
X142748000Y-133015000D03*
%TD*%
D18*
%TO.C,J6*%
X194678210Y-48260000D03*
X201358210Y-48260000D03*
D19*
X193618210Y-45710000D03*
X202518210Y-45710000D03*
X195768210Y-44210000D03*
X200218210Y-44210000D03*
%TD*%
D30*
%TO.C,SW1*%
X118418000Y-119865000D03*
D31*
X118478000Y-124065000D03*
D32*
X123698000Y-119865000D03*
D30*
X128978000Y-119865000D03*
D33*
X126208000Y-115115000D03*
D34*
X128698000Y-116065000D03*
D35*
X120542995Y-116594996D03*
D19*
X121198000Y-115865000D03*
D34*
X123698000Y-113965000D03*
%TD*%
D47*
%TO.C,SW9*%
X157936000Y-48148000D03*
X169136000Y-48148000D03*
D48*
X161036000Y-55648000D03*
X166036000Y-55648000D03*
X163536000Y-55648000D03*
X161036000Y-41148000D03*
X166036000Y-41148000D03*
%TD*%
D49*
%TO.C,C1*%
X112705000Y-60520000D03*
X111155000Y-60520000D03*
%TD*%
D17*
%TO.C,R11*%
X118685000Y-55270000D03*
X117035000Y-55270000D03*
%TD*%
D27*
%TO.C,C4*%
X168945000Y-65080000D03*
X170495000Y-65080000D03*
%TD*%
%LPD*%
M02*
