%TF.GenerationSoftware,KiCad,Pcbnew,7.0.2*%
%TF.CreationDate,2023-06-20T02:09:05-06:00*%
%TF.ProjectId,dc31,64633331-2e6b-4696-9361-645f70636258,rev?*%
%TF.SameCoordinates,Original*%
%TF.FileFunction,Copper,L1,Top*%
%TF.FilePolarity,Positive*%
%FSLAX46Y46*%
G04 Gerber Fmt 4.6, Leading zero omitted, Abs format (unit mm)*
G04 Created by KiCad (PCBNEW 7.0.2) date 2023-06-20 02:09:05*
%MOMM*%
%LPD*%
G01*
G04 APERTURE LIST*
G04 Aperture macros list*
%AMHorizOval*
0 Thick line with rounded ends*
0 $1 width*
0 $2 $3 position (X,Y) of the first rounded end (center of the circle)*
0 $4 $5 position (X,Y) of the second rounded end (center of the circle)*
0 Add line between two ends*
20,1,$1,$2,$3,$4,$5,0*
0 Add two circle primitives to create the rounded ends*
1,1,$1,$2,$3*
1,1,$1,$4,$5*%
G04 Aperture macros list end*
%TA.AperFunction,ComponentPad*%
%ADD10O,2.000000X1.200000*%
%TD*%
%TA.AperFunction,ComponentPad*%
%ADD11C,2.250000*%
%TD*%
%TA.AperFunction,ComponentPad*%
%ADD12O,1.700000X1.700000*%
%TD*%
%TA.AperFunction,ComponentPad*%
%ADD13R,1.700000X1.700000*%
%TD*%
%TA.AperFunction,ComponentPad*%
%ADD14HorizOval,2.250000X0.025506X0.374132X-0.025506X-0.374132X0*%
%TD*%
%TA.AperFunction,ComponentPad*%
%ADD15C,2.000000*%
%TD*%
%TA.AperFunction,ComponentPad*%
%ADD16HorizOval,2.250000X0.654995X0.730004X-0.654995X-0.730004X0*%
%TD*%
%TA.AperFunction,SMDPad,CuDef*%
%ADD17R,1.500000X0.900000*%
%TD*%
%TA.AperFunction,WasherPad*%
%ADD18C,1.200000*%
%TD*%
%TA.AperFunction,ComponentPad*%
%ADD19O,3.200000X3.500000*%
%TD*%
%TA.AperFunction,ComponentPad*%
%ADD20C,1.800000*%
%TD*%
%TA.AperFunction,ViaPad*%
%ADD21C,0.800000*%
%TD*%
%TA.AperFunction,Conductor*%
%ADD22C,0.381000*%
%TD*%
%TA.AperFunction,Conductor*%
%ADD23C,0.254000*%
%TD*%
G04 APERTURE END LIST*
D10*
%TO.P,J4,1,Pin_1*%
%TO.N,GND*%
X116350000Y-50180000D03*
%TO.P,J4,2,Pin_2*%
%TO.N,+3V3*%
X116350000Y-47640000D03*
%TO.P,J4,3,Pin_3*%
%TO.N,SCL*%
X116350000Y-45100000D03*
%TO.P,J4,4,Pin_4*%
%TO.N,SDA*%
X116350000Y-42560000D03*
%TD*%
D11*
%TO.P,J3,1*%
%TO.N,GND*%
X177160000Y-57930000D03*
%TO.P,J3,2*%
%TO.N,Net-(J3-Pad2)*%
X186060000Y-57930000D03*
%TO.P,J3,3*%
%TO.N,Net-(J3-Pad3)*%
X179310000Y-56430000D03*
%TO.P,J3,4*%
%TO.N,unconnected-(J3-Pad4)*%
X183760000Y-56430000D03*
%TD*%
D12*
%TO.P,U1,1,GPIO0*%
%TO.N,I2S_BCLK*%
X98350000Y-66820000D03*
%TO.P,U1,2,GPIO1*%
%TO.N,I2S_LRCLK*%
X100890000Y-66820000D03*
D13*
%TO.P,U1,3,GND*%
%TO.N,GND*%
X103430000Y-66820000D03*
D12*
%TO.P,U1,4,GPIO2*%
%TO.N,I2S_DIN*%
X105970000Y-66820000D03*
%TO.P,U1,5,GPIO3*%
%TO.N,ENC1_SW*%
X108510000Y-66820000D03*
%TO.P,U1,6,GPIO4*%
%TO.N,ENC1_A*%
X111050000Y-66820000D03*
%TO.P,U1,7,GPIO5*%
%TO.N,ENC1_B*%
X113590000Y-66820000D03*
D13*
%TO.P,U1,8,GND*%
%TO.N,GND*%
X116130000Y-66820000D03*
D12*
%TO.P,U1,9,GPIO6*%
%TO.N,SYNC_IN*%
X118670000Y-66820000D03*
%TO.P,U1,10,GPIO7*%
%TO.N,MIDI_IN*%
X121210000Y-66820000D03*
%TO.P,U1,11,GPIO8*%
%TO.N,MIDI_OUT*%
X123750000Y-66820000D03*
%TO.P,U1,12,GPIO9*%
%TO.N,SYNC_OUT*%
X126290000Y-66820000D03*
D13*
%TO.P,U1,13,GND*%
%TO.N,GND*%
X128830000Y-66820000D03*
D12*
%TO.P,U1,14,GPIO10*%
%TO.N,SD_SCK*%
X131370000Y-66820000D03*
%TO.P,U1,15,GPIO11*%
%TO.N,SD_MOSI*%
X133910000Y-66820000D03*
%TO.P,U1,16,GPIO12*%
%TO.N,SD_MISO*%
X136450000Y-66820000D03*
%TO.P,U1,17,GPIO13*%
%TO.N,SD_CS*%
X138990000Y-66820000D03*
D13*
%TO.P,U1,18,GND*%
%TO.N,GND*%
X141530000Y-66820000D03*
D12*
%TO.P,U1,19,GPIO14*%
%TO.N,SCL*%
X144070000Y-66820000D03*
%TO.P,U1,20,GPIO15*%
%TO.N,SDA*%
X146610000Y-66820000D03*
%TO.P,U1,21,GPIO16*%
%TO.N,unconnected-(U1-GPIO16-Pad21)*%
X146610000Y-84600000D03*
%TO.P,U1,22,GPIO17*%
%TO.N,SW8*%
X144070000Y-84600000D03*
D13*
%TO.P,U1,23,GND*%
%TO.N,GND*%
X141530000Y-84600000D03*
D12*
%TO.P,U1,24,GPIO18*%
%TO.N,SW7*%
X138990000Y-84600000D03*
%TO.P,U1,25,GPIO19*%
%TO.N,SW6*%
X136450000Y-84600000D03*
%TO.P,U1,26,GPIO20*%
%TO.N,SW5*%
X133910000Y-84600000D03*
%TO.P,U1,27,GPIO21*%
%TO.N,SW4*%
X131370000Y-84600000D03*
D13*
%TO.P,U1,28,GND*%
%TO.N,GND*%
X128830000Y-84600000D03*
D12*
%TO.P,U1,29,GPIO22*%
%TO.N,SW3*%
X126290000Y-84600000D03*
%TO.P,U1,30,RUN*%
%TO.N,unconnected-(U1-RUN-Pad30)*%
X123750000Y-84600000D03*
%TO.P,U1,31,GPIO26_ADC0*%
%TO.N,SW2*%
X121210000Y-84600000D03*
%TO.P,U1,32,GPIO27_ADC1*%
%TO.N,SW1*%
X118670000Y-84600000D03*
D13*
%TO.P,U1,33,AGND*%
%TO.N,GND*%
X116130000Y-84600000D03*
D12*
%TO.P,U1,34,GPIO28_ADC2*%
%TO.N,RGB_IN*%
X113590000Y-84600000D03*
%TO.P,U1,35,ADC_VREF*%
%TO.N,unconnected-(U1-ADC_VREF-Pad35)*%
X111050000Y-84600000D03*
%TO.P,U1,36,3V3*%
%TO.N,+3V3*%
X108510000Y-84600000D03*
%TO.P,U1,37,3V3_EN*%
%TO.N,unconnected-(U1-3V3_EN-Pad37)*%
X105970000Y-84600000D03*
D13*
%TO.P,U1,38,GND*%
%TO.N,GND*%
X103430000Y-84600000D03*
D12*
%TO.P,U1,39,VSYS*%
%TO.N,unconnected-(U1-VSYS-Pad39)*%
X100890000Y-84600000D03*
%TO.P,U1,40,VBUS*%
%TO.N,VBUS*%
X98350000Y-84600000D03*
%TO.P,U1,41,SWCLK*%
%TO.N,unconnected-(U1-SWCLK-Pad41)*%
X146380000Y-73170000D03*
D13*
%TO.P,U1,42,GND*%
%TO.N,unconnected-(U1-GND-Pad42)*%
X146380000Y-75710000D03*
D12*
%TO.P,U1,43,SWDIO*%
%TO.N,unconnected-(U1-SWDIO-Pad43)*%
X146380000Y-78250000D03*
%TD*%
D14*
%TO.P,SW8,1,1*%
%TO.N,SW8*%
X183358000Y-134165000D03*
D15*
X185848000Y-135115000D03*
D16*
%TO.P,SW8,2,2*%
%TO.N,GND*%
X177692995Y-135644996D03*
D11*
X178348000Y-134915000D03*
D15*
X180848000Y-133015000D03*
%TD*%
D17*
%TO.P,D6,1,VDD*%
%TO.N,VBUS*%
X140298000Y-151120000D03*
%TO.P,D6,2,DOUT*%
%TO.N,Net-(D6-DOUT)*%
X140298000Y-154420000D03*
%TO.P,D6,3,VSS*%
%TO.N,GND*%
X145198000Y-154420000D03*
%TO.P,D6,4,DIN*%
%TO.N,Net-(D5-DOUT)*%
X145198000Y-151120000D03*
%TD*%
D11*
%TO.P,J5,1*%
%TO.N,GND*%
X193608210Y-57940000D03*
%TO.P,J5,2*%
%TO.N,Net-(J5-Pad2)*%
X202508210Y-57940000D03*
%TO.P,J5,3*%
%TO.N,unconnected-(J5-Pad3)*%
X195758210Y-56440000D03*
%TO.P,J5,4*%
%TO.N,unconnected-(J5-Pad4)*%
X200208210Y-56440000D03*
%TD*%
D14*
%TO.P,SW2,1,1*%
%TO.N,SW2*%
X145258000Y-115115000D03*
D15*
X147748000Y-116065000D03*
D16*
%TO.P,SW2,2,2*%
%TO.N,GND*%
X139592995Y-116594996D03*
D11*
X140248000Y-115865000D03*
D15*
X142748000Y-113965000D03*
%TD*%
D14*
%TO.P,SW7,1,1*%
%TO.N,SW7*%
X164308000Y-134165000D03*
D15*
X166798000Y-135115000D03*
D16*
%TO.P,SW7,2,2*%
%TO.N,GND*%
X158642995Y-135644996D03*
D11*
X159298000Y-134915000D03*
D15*
X161798000Y-133015000D03*
%TD*%
D17*
%TO.P,D1,1,VDD*%
%TO.N,VBUS*%
X121248000Y-103888000D03*
%TO.P,D1,2,DOUT*%
%TO.N,Net-(D1-DOUT)*%
X121248000Y-107188000D03*
%TO.P,D1,3,VSS*%
%TO.N,GND*%
X126148000Y-107188000D03*
%TO.P,D1,4,DIN*%
%TO.N,RGB_IN*%
X126148000Y-103888000D03*
%TD*%
%TO.P,D7,1,VDD*%
%TO.N,VBUS*%
X159348000Y-151120000D03*
%TO.P,D7,2,DOUT*%
%TO.N,Net-(D7-DOUT)*%
X159348000Y-154420000D03*
%TO.P,D7,3,VSS*%
%TO.N,GND*%
X164248000Y-154420000D03*
%TO.P,D7,4,DIN*%
%TO.N,Net-(D6-DOUT)*%
X164248000Y-151120000D03*
%TD*%
D11*
%TO.P,J2,1*%
%TO.N,unconnected-(J2-Pad1)*%
X177170000Y-45700000D03*
%TO.P,J2,2*%
%TO.N,Net-(D10-A)*%
X186070000Y-45700000D03*
%TO.P,J2,3*%
%TO.N,Net-(J2-Pad3)*%
X179320000Y-44200000D03*
%TO.P,J2,4*%
%TO.N,unconnected-(J2-Pad4)*%
X183770000Y-44200000D03*
%TD*%
D17*
%TO.P,D8,1,VDD*%
%TO.N,VBUS*%
X178398000Y-151120000D03*
%TO.P,D8,2,DOUT*%
%TO.N,unconnected-(D8-DOUT-Pad2)*%
X178398000Y-154420000D03*
%TO.P,D8,3,VSS*%
%TO.N,GND*%
X183298000Y-154420000D03*
%TO.P,D8,4,DIN*%
%TO.N,Net-(D7-DOUT)*%
X183298000Y-151120000D03*
%TD*%
D14*
%TO.P,SW3,1,1*%
%TO.N,SW3*%
X164308000Y-115115000D03*
D15*
X166798000Y-116065000D03*
D16*
%TO.P,SW3,2,2*%
%TO.N,GND*%
X158642995Y-116594996D03*
D11*
X159298000Y-115865000D03*
D15*
X161798000Y-113965000D03*
%TD*%
D14*
%TO.P,SW5,1,1*%
%TO.N,SW5*%
X126208000Y-134165000D03*
D15*
X128698000Y-135115000D03*
D16*
%TO.P,SW5,2,2*%
%TO.N,GND*%
X120542995Y-135644996D03*
D11*
X121198000Y-134915000D03*
D15*
X123698000Y-133015000D03*
%TD*%
D18*
%TO.P,J1,*%
%TO.N,*%
X101020000Y-55060000D03*
X101020000Y-47080000D03*
%TD*%
D14*
%TO.P,SW4,1,1*%
%TO.N,SW4*%
X183358000Y-115115000D03*
D15*
X185848000Y-116065000D03*
D16*
%TO.P,SW4,2,2*%
%TO.N,GND*%
X177692995Y-116594996D03*
D11*
X178348000Y-115865000D03*
D15*
X180848000Y-113965000D03*
%TD*%
D14*
%TO.P,SW6,1,1*%
%TO.N,SW6*%
X145258000Y-134165000D03*
D15*
X147748000Y-135115000D03*
D16*
%TO.P,SW6,2,2*%
%TO.N,GND*%
X139592995Y-135644996D03*
D11*
X140248000Y-134915000D03*
D15*
X142748000Y-133015000D03*
%TD*%
D17*
%TO.P,D3,1,VDD*%
%TO.N,VBUS*%
X159348000Y-103888000D03*
%TO.P,D3,2,DOUT*%
%TO.N,Net-(D3-DOUT)*%
X159348000Y-107188000D03*
%TO.P,D3,3,VSS*%
%TO.N,GND*%
X164248000Y-107188000D03*
%TO.P,D3,4,DIN*%
%TO.N,Net-(D2-DOUT)*%
X164248000Y-103888000D03*
%TD*%
D11*
%TO.P,J6,1*%
%TO.N,GND*%
X193618210Y-45710000D03*
%TO.P,J6,2*%
%TO.N,Net-(J6-Pad2)*%
X202518210Y-45710000D03*
%TO.P,J6,3*%
%TO.N,unconnected-(J6-Pad3)*%
X195768210Y-44210000D03*
%TO.P,J6,4*%
%TO.N,unconnected-(J6-Pad4)*%
X200218210Y-44210000D03*
%TD*%
D17*
%TO.P,D5,1,VDD*%
%TO.N,VBUS*%
X121248000Y-151120000D03*
%TO.P,D5,2,DOUT*%
%TO.N,Net-(D5-DOUT)*%
X121248000Y-154420000D03*
%TO.P,D5,3,VSS*%
%TO.N,GND*%
X126148000Y-154420000D03*
%TO.P,D5,4,DIN*%
%TO.N,Net-(D4-DOUT)*%
X126148000Y-151120000D03*
%TD*%
D14*
%TO.P,SW1,1,1*%
%TO.N,SW1*%
X126208000Y-115115000D03*
D15*
X128698000Y-116065000D03*
D16*
%TO.P,SW1,2,2*%
%TO.N,GND*%
X120542995Y-116594996D03*
D11*
X121198000Y-115865000D03*
D15*
X123698000Y-113965000D03*
%TD*%
D19*
%TO.P,SW9,1*%
%TO.N,N/C*%
X157936000Y-48148000D03*
X169136000Y-48148000D03*
D20*
%TO.P,SW9,A,A*%
%TO.N,ENC1_A*%
X161036000Y-55648000D03*
%TO.P,SW9,B,B*%
%TO.N,ENC1_B*%
X166036000Y-55648000D03*
%TO.P,SW9,C,C*%
%TO.N,GND*%
X163536000Y-55648000D03*
%TO.P,SW9,S1,S1*%
%TO.N,ENC1_SW*%
X161036000Y-41148000D03*
%TO.P,SW9,S2,S2*%
%TO.N,GND*%
X166036000Y-41148000D03*
%TD*%
D17*
%TO.P,D4,1,VDD*%
%TO.N,VBUS*%
X178398000Y-103888000D03*
%TO.P,D4,2,DOUT*%
%TO.N,Net-(D4-DOUT)*%
X178398000Y-107188000D03*
%TO.P,D4,3,VSS*%
%TO.N,GND*%
X183298000Y-107188000D03*
%TO.P,D4,4,DIN*%
%TO.N,Net-(D3-DOUT)*%
X183298000Y-103888000D03*
%TD*%
%TO.P,D2,1,VDD*%
%TO.N,VBUS*%
X140298000Y-103888000D03*
%TO.P,D2,2,DOUT*%
%TO.N,Net-(D2-DOUT)*%
X140298000Y-107188000D03*
%TO.P,D2,3,VSS*%
%TO.N,GND*%
X145198000Y-107188000D03*
%TO.P,D2,4,DIN*%
%TO.N,Net-(D1-DOUT)*%
X145198000Y-103888000D03*
%TD*%
D21*
%TO.N,+3V3*%
X122530000Y-47660000D03*
%TO.N,SD_MISO*%
X136450000Y-54610000D03*
%TO.N,MIDI_IN*%
X155670000Y-53140000D03*
X121500000Y-60820000D03*
%TO.N,Net-(D10-A)*%
X179340000Y-37210000D03*
%TO.N,Net-(D9-K)*%
X120990000Y-57360000D03*
X120980000Y-36160000D03*
%TO.N,+3V3*%
X159880000Y-44980000D03*
X151010000Y-48530000D03*
X109760000Y-60500000D03*
X109470000Y-51260000D03*
%TO.N,SD_MISO*%
X130440000Y-54590000D03*
%TO.N,I2S_BCLK*%
X178690000Y-81750000D03*
X180680000Y-81750000D03*
%TO.N,GND*%
X188850000Y-106610000D03*
%TO.N,Net-(J5-Pad2)*%
X164860000Y-67580000D03*
%TO.N,VBUS*%
X179860000Y-94750000D03*
X157860000Y-62630000D03*
X164180000Y-75520000D03*
%TO.N,Net-(D4-DOUT)*%
X133140000Y-147160000D03*
%TO.N,RGB_IN*%
X123890000Y-103920000D03*
%TO.N,Net-(D4-DOUT)*%
X133140000Y-151120000D03*
%TO.N,GND*%
X129260000Y-154410000D03*
X148040000Y-154410000D03*
X167460000Y-154410000D03*
X186020000Y-154400000D03*
X166760000Y-107180000D03*
X147540000Y-107180000D03*
X128540000Y-107190000D03*
%TD*%
D22*
%TO.N,+3V3*%
X123400000Y-48530000D02*
X122530000Y-47660000D01*
X151010000Y-48530000D02*
X123400000Y-48530000D01*
D23*
%TO.N,SD_MISO*%
X130460000Y-54610000D02*
X130440000Y-54590000D01*
X136450000Y-54610000D02*
X130460000Y-54610000D01*
%TO.N,MIDI_IN*%
X155670000Y-54080000D02*
X155670000Y-53140000D01*
X148930000Y-60820000D02*
X155670000Y-54080000D01*
X121500000Y-60820000D02*
X148930000Y-60820000D01*
%TO.N,ENC1_B*%
X114362000Y-62868000D02*
X113590000Y-63640000D01*
X113590000Y-63640000D02*
X113590000Y-66820000D01*
X154458052Y-62868000D02*
X114362000Y-62868000D01*
X159766052Y-57560000D02*
X154458052Y-62868000D01*
X166036000Y-55648000D02*
X166036000Y-57114000D01*
X166036000Y-57114000D02*
X165590000Y-57560000D01*
X165590000Y-57560000D02*
X159766052Y-57560000D01*
%TO.N,ENC1_A*%
X154270000Y-62414000D02*
X161036000Y-55648000D01*
X111050000Y-63274000D02*
X111910000Y-62414000D01*
X111050000Y-66820000D02*
X111050000Y-63274000D01*
X111910000Y-62414000D02*
X154270000Y-62414000D01*
%TO.N,ENC1_SW*%
X161330000Y-41442000D02*
X161036000Y-41148000D01*
X149940000Y-61960000D02*
X161330000Y-50570000D01*
X161330000Y-50570000D02*
X161330000Y-41442000D01*
X109590000Y-61960000D02*
X149940000Y-61960000D01*
X108510000Y-63040000D02*
X109590000Y-61960000D01*
X108510000Y-66820000D02*
X108510000Y-63040000D01*
%TO.N,Net-(D10-A)*%
X186070000Y-38160000D02*
X186070000Y-45700000D01*
X185120000Y-37210000D02*
X186070000Y-38160000D01*
X179340000Y-37210000D02*
X185120000Y-37210000D01*
%TO.N,Net-(D9-K)*%
X120980000Y-57350000D02*
X120990000Y-57360000D01*
X120980000Y-36160000D02*
X120980000Y-57350000D01*
D22*
%TO.N,+3V3*%
X107240000Y-61870000D02*
X108610000Y-60500000D01*
X107240000Y-68850000D02*
X107240000Y-61870000D01*
X108510000Y-70120000D02*
X107240000Y-68850000D01*
X108510000Y-84600000D02*
X108510000Y-70120000D01*
X108610000Y-60500000D02*
X109760000Y-60500000D01*
X156250000Y-44980000D02*
X159880000Y-44980000D01*
X155760000Y-45470000D02*
X156250000Y-44980000D01*
X152700000Y-48530000D02*
X155760000Y-45470000D01*
X151010000Y-48530000D02*
X152700000Y-48530000D01*
X110210000Y-46620000D02*
X109470000Y-47360000D01*
X115330000Y-46620000D02*
X110210000Y-46620000D01*
X116350000Y-47640000D02*
X115330000Y-46620000D01*
X109470000Y-47360000D02*
X109470000Y-51260000D01*
X109760000Y-60500000D02*
X109760000Y-59930000D01*
X108910000Y-59080000D02*
X108910000Y-51820000D01*
X109760000Y-59930000D02*
X108910000Y-59080000D01*
X108910000Y-51820000D02*
X109470000Y-51260000D01*
D23*
%TO.N,I2S_BCLK*%
X178690000Y-81750000D02*
X180680000Y-81750000D01*
D22*
%TO.N,GND*%
X188272000Y-107188000D02*
X188850000Y-106610000D01*
X183298000Y-107188000D02*
X188272000Y-107188000D01*
D23*
%TO.N,Net-(J5-Pad2)*%
X166000000Y-68720000D02*
X164860000Y-67580000D01*
X201260000Y-57940000D02*
X202508210Y-57940000D01*
X190480000Y-68720000D02*
X201260000Y-57940000D01*
X166000000Y-68720000D02*
X190480000Y-68720000D01*
D22*
%TO.N,VBUS*%
X164180000Y-99056000D02*
X164180000Y-75520000D01*
X161286000Y-101950000D02*
X164180000Y-99056000D01*
X179860000Y-98550000D02*
X179860000Y-94750000D01*
X176460000Y-101950000D02*
X179860000Y-98550000D01*
D23*
X159090000Y-75520000D02*
X164180000Y-75520000D01*
X157860000Y-74290000D02*
X159090000Y-75520000D01*
X157860000Y-62630000D02*
X157860000Y-74290000D01*
%TO.N,Net-(D4-DOUT)*%
X133140000Y-111130000D02*
X134850000Y-109420000D01*
X134850000Y-109420000D02*
X176166000Y-109420000D01*
X133140000Y-147160000D02*
X133140000Y-111130000D01*
%TO.N,RGB_IN*%
X126116000Y-103920000D02*
X126148000Y-103888000D01*
X123890000Y-103920000D02*
X126116000Y-103920000D01*
%TO.N,Net-(D4-DOUT)*%
X176166000Y-109420000D02*
X178398000Y-107188000D01*
X126148000Y-151120000D02*
X133140000Y-151120000D01*
%TO.N,Net-(D7-DOUT)*%
X181678000Y-152740000D02*
X183298000Y-151120000D01*
X163650000Y-152740000D02*
X181678000Y-152740000D01*
X161970000Y-154420000D02*
X163650000Y-152740000D01*
X159348000Y-154420000D02*
X161970000Y-154420000D01*
%TO.N,Net-(D6-DOUT)*%
X162608000Y-152760000D02*
X164248000Y-151120000D01*
X144730000Y-152760000D02*
X162608000Y-152760000D01*
X143070000Y-154420000D02*
X144730000Y-152760000D01*
X140298000Y-154420000D02*
X143070000Y-154420000D01*
%TO.N,Net-(D5-DOUT)*%
X143578000Y-152740000D02*
X145198000Y-151120000D01*
X122928000Y-152740000D02*
X143578000Y-152740000D01*
X121248000Y-154420000D02*
X122928000Y-152740000D01*
D22*
%TO.N,GND*%
X129250000Y-154420000D02*
X129260000Y-154410000D01*
X126148000Y-154420000D02*
X129250000Y-154420000D01*
X148030000Y-154420000D02*
X148040000Y-154410000D01*
X145198000Y-154420000D02*
X148030000Y-154420000D01*
X167450000Y-154420000D02*
X167460000Y-154410000D01*
X164248000Y-154420000D02*
X167450000Y-154420000D01*
X186000000Y-154420000D02*
X186020000Y-154400000D01*
X183298000Y-154420000D02*
X186000000Y-154420000D01*
X166752000Y-107188000D02*
X166760000Y-107180000D01*
X164248000Y-107188000D02*
X166752000Y-107188000D01*
X147532000Y-107188000D02*
X147540000Y-107180000D01*
X145198000Y-107188000D02*
X147532000Y-107188000D01*
X128538000Y-107188000D02*
X128540000Y-107190000D01*
X126148000Y-107188000D02*
X128538000Y-107188000D01*
D23*
%TO.N,Net-(D3-DOUT)*%
X181626000Y-105560000D02*
X183298000Y-103888000D01*
X163740000Y-105560000D02*
X181626000Y-105560000D01*
X162112000Y-107188000D02*
X163740000Y-105560000D01*
X159348000Y-107188000D02*
X162112000Y-107188000D01*
%TO.N,Net-(D2-DOUT)*%
X144760000Y-105550000D02*
X162586000Y-105550000D01*
X140298000Y-107188000D02*
X143122000Y-107188000D01*
X143122000Y-107188000D02*
X144760000Y-105550000D01*
X162586000Y-105550000D02*
X164248000Y-103888000D01*
%TO.N,Net-(D1-DOUT)*%
X143556000Y-105530000D02*
X145198000Y-103888000D01*
X122906000Y-105530000D02*
X143556000Y-105530000D01*
X121248000Y-107188000D02*
X122906000Y-105530000D01*
D22*
%TO.N,VBUS*%
X176608000Y-149330000D02*
X178398000Y-151120000D01*
X159348000Y-151120000D02*
X161138000Y-149330000D01*
X161138000Y-149330000D02*
X176608000Y-149330000D01*
X157528000Y-149300000D02*
X159348000Y-151120000D01*
X142118000Y-149300000D02*
X157528000Y-149300000D01*
X140298000Y-151120000D02*
X142118000Y-149300000D01*
X138448000Y-149270000D02*
X140298000Y-151120000D01*
X123098000Y-149270000D02*
X138448000Y-149270000D01*
X121248000Y-151120000D02*
X123098000Y-149270000D01*
X105095000Y-142065000D02*
X105095000Y-103845000D01*
X105095000Y-103845000D02*
X105138000Y-103888000D01*
X98350000Y-97100000D02*
X105095000Y-103845000D01*
X121248000Y-151120000D02*
X114150000Y-151120000D01*
X114150000Y-151120000D02*
X105095000Y-142065000D01*
X161286000Y-101950000D02*
X176460000Y-101950000D01*
X176460000Y-101950000D02*
X178398000Y-103888000D01*
X159348000Y-103888000D02*
X161286000Y-101950000D01*
X157350000Y-101890000D02*
X159348000Y-103888000D01*
X142296000Y-101890000D02*
X157350000Y-101890000D01*
X140298000Y-103888000D02*
X142296000Y-101890000D01*
X123276000Y-101860000D02*
X138270000Y-101860000D01*
X121248000Y-103888000D02*
X123276000Y-101860000D01*
X138270000Y-101860000D02*
X140298000Y-103888000D01*
X98350000Y-84600000D02*
X98350000Y-97100000D01*
X105138000Y-103888000D02*
X121248000Y-103888000D01*
%TD*%
M02*
