M48
; DRILL file {KiCad 7.0.2} date Tue Jun 20 02:09:12 2023
; FORMAT={-:-/ absolute / metric / decimal}
; #@! TF.CreationDate,2023-06-20T02:09:12-06:00
; #@! TF.GenerationSoftware,Kicad,Pcbnew,7.0.2
; #@! TF.FileFunction,MixedPlating,1,2
FMAT,2
METRIC
; #@! TA.AperFunction,Plated,PTH,ViaDrill
T1C0.400
; #@! TA.AperFunction,Plated,PTH,ComponentDrill
T2C0.800
; #@! TA.AperFunction,Plated,PTH,ComponentDrill
T3C1.000
; #@! TA.AperFunction,Plated,PTH,ComponentDrill
T4C1.020
; #@! TA.AperFunction,Plated,PTH,ComponentDrill
T5C1.200
; #@! TA.AperFunction,Plated,PTH,ComponentDrill
T6C1.470
; #@! TA.AperFunction,Plated,PTH,ComponentDrill
T7C1.500
; #@! TA.AperFunction,Plated,PTH,ComponentDrill
T8C2.000
; #@! TA.AperFunction,NonPlated,NPTH,ComponentDrill
T9C1.000
; #@! TA.AperFunction,NonPlated,NPTH,ComponentDrill
T10C1.200
; #@! TA.AperFunction,NonPlated,NPTH,ComponentDrill
T11C1.500
; #@! TA.AperFunction,NonPlated,NPTH,ComponentDrill
T12C1.600
; #@! TA.AperFunction,NonPlated,NPTH,ComponentDrill
T13C1.750
; #@! TA.AperFunction,NonPlated,NPTH,ComponentDrill
T14C1.800
; #@! TA.AperFunction,NonPlated,NPTH,ComponentDrill
T15C3.988
%
G90
G05
T1
X109.47Y-51.26
X109.76Y-60.5
X120.98Y-36.16
X120.99Y-57.36
X121.5Y-60.82
X122.53Y-47.66
X123.89Y-103.92
X128.54Y-107.19
X129.26Y-154.41
X130.44Y-54.59
X133.14Y-147.16
X133.14Y-151.12
X136.45Y-54.61
X147.54Y-107.18
X148.04Y-154.41
X151.01Y-48.53
X155.67Y-53.14
X157.86Y-62.63
X159.88Y-44.98
X164.18Y-75.52
X164.86Y-67.58
X166.76Y-107.18
X167.46Y-154.41
X178.69Y-81.75
X179.34Y-37.21
X179.86Y-94.75
X180.68Y-81.75
X186.02Y-154.4
X188.85Y-106.61
T2
X116.35Y-42.56
X116.35Y-45.1
X116.35Y-47.64
X116.35Y-50.18
T3
X161.036Y-41.148
X161.036Y-55.648
X163.536Y-55.648
X166.036Y-41.148
X166.036Y-55.648
T4
X98.35Y-66.82
X98.35Y-84.6
X100.89Y-66.82
X100.89Y-84.6
X103.43Y-66.82
X103.43Y-84.6
X105.97Y-66.82
X105.97Y-84.6
X108.51Y-66.82
X108.51Y-84.6
X111.05Y-66.82
X111.05Y-84.6
X113.59Y-66.82
X113.59Y-84.6
X116.13Y-66.82
X116.13Y-84.6
X118.67Y-66.82
X118.67Y-84.6
X121.21Y-66.82
X121.21Y-84.6
X123.75Y-66.82
X123.75Y-84.6
X126.29Y-66.82
X126.29Y-84.6
X128.83Y-66.82
X128.83Y-84.6
X131.37Y-66.82
X131.37Y-84.6
X133.91Y-66.82
X133.91Y-84.6
X136.45Y-66.82
X136.45Y-84.6
X138.99Y-66.82
X138.99Y-84.6
X141.53Y-66.82
X141.53Y-84.6
X144.07Y-66.82
X144.07Y-84.6
X146.38Y-73.17
X146.38Y-75.71
X146.38Y-78.25
X146.61Y-66.82
X146.61Y-84.6
T5
X123.698Y-113.965
X123.698Y-133.015
X128.698Y-116.065
X128.698Y-135.115
X142.748Y-113.965
X142.748Y-133.015
X147.748Y-116.065
X147.748Y-135.115
X161.798Y-113.965
X161.798Y-133.015
X166.798Y-116.065
X166.798Y-135.115
X180.848Y-113.965
X180.848Y-133.015
X185.848Y-116.065
X185.848Y-135.115
T6
X119.888Y-117.325
X119.888Y-136.375
X121.198Y-115.865
X121.198Y-134.915
X138.938Y-117.325
X138.938Y-136.375
X140.248Y-115.865
X140.248Y-134.915
X157.988Y-117.325
X157.988Y-136.375
X159.298Y-115.865
X159.298Y-134.915
X177.038Y-117.325
X177.038Y-136.375
X178.348Y-115.865
X178.348Y-134.915
T7
X177.16Y-57.93
X177.17Y-45.7
X179.31Y-56.43
X179.32Y-44.2
X183.76Y-56.43
X183.77Y-44.2
X186.06Y-57.93
X186.07Y-45.7
X193.608Y-57.94
X193.618Y-45.71
X195.758Y-56.44
X195.768Y-44.21
X200.208Y-56.44
X200.218Y-44.21
X202.508Y-57.94
X202.518Y-45.71
T9
X101.02Y-47.08
X101.02Y-55.06
T10
X118.478Y-124.065
X118.478Y-143.115
X137.528Y-124.065
X137.528Y-143.115
X156.578Y-124.065
X156.578Y-143.115
X175.628Y-124.065
X175.628Y-143.115
T11
X101.51Y-73.285
X101.51Y-78.135
X192.934Y-77.76
X192.934Y-83.76
X194.13Y-80.76
X194.666Y-78.76
X194.666Y-82.76
X195.13Y-75.564
X195.13Y-85.956
X196.13Y-77.296
X196.13Y-80.76
X196.13Y-84.224
X197.13Y-79.028
X197.13Y-82.492
X198.13Y-76.76
X198.13Y-80.76
X198.13Y-84.76
X199.13Y-79.028
X199.13Y-82.492
X200.13Y-77.296
X200.13Y-80.76
X200.13Y-84.224
X201.13Y-75.564
X201.13Y-85.956
X201.594Y-78.76
X201.594Y-82.76
X202.13Y-80.76
X203.326Y-77.76
X203.326Y-83.76
T12
X178.22Y-60.48
X178.23Y-48.25
X184.9Y-60.48
X184.91Y-48.25
X194.668Y-60.49
X194.678Y-48.26
X201.348Y-60.49
X201.358Y-48.26
T14
X98.48Y-72.985
X98.48Y-78.435
T15
X123.698Y-119.865
X123.698Y-138.915
X142.748Y-119.865
X142.748Y-138.915
X161.798Y-119.865
X161.798Y-138.915
X180.848Y-119.865
X180.848Y-138.915
T6
G00X126.18Y-115.529
M15
G01X126.236Y-114.701
M16
G05
G00X126.18Y-134.579
M15
G01X126.236Y-133.751
M16
G05
G00X145.23Y-115.529
M15
G01X145.286Y-114.701
M16
G05
G00X145.23Y-134.579
M15
G01X145.286Y-133.751
M16
G05
G00X164.28Y-115.529
M15
G01X164.336Y-114.701
M16
G05
G00X164.28Y-134.579
M15
G01X164.336Y-133.751
M16
G05
G00X183.33Y-115.529
M15
G01X183.386Y-114.701
M16
G05
G00X183.33Y-134.579
M15
G01X183.386Y-133.751
M16
G05
T8
G00X157.936Y-47.898
M15
G01X157.936Y-48.398
M16
G05
G00X169.136Y-47.898
M15
G01X169.136Y-48.398
M16
G05
T13
G00X118.218Y-119.865
M15
G01X118.618Y-119.865
M16
G05
G00X118.218Y-138.915
M15
G01X118.618Y-138.915
M16
G05
G00X128.778Y-119.865
M15
G01X129.178Y-119.865
M16
G05
G00X128.778Y-138.915
M15
G01X129.178Y-138.915
M16
G05
G00X137.268Y-119.865
M15
G01X137.668Y-119.865
M16
G05
G00X137.268Y-138.915
M15
G01X137.668Y-138.915
M16
G05
G00X147.828Y-119.865
M15
G01X148.228Y-119.865
M16
G05
G00X147.828Y-138.915
M15
G01X148.228Y-138.915
M16
G05
G00X156.318Y-119.865
M15
G01X156.718Y-119.865
M16
G05
G00X156.318Y-138.915
M15
G01X156.718Y-138.915
M16
G05
G00X166.878Y-119.865
M15
G01X167.278Y-119.865
M16
G05
G00X166.878Y-138.915
M15
G01X167.278Y-138.915
M16
G05
G00X175.368Y-119.865
M15
G01X175.768Y-119.865
M16
G05
G00X175.368Y-138.915
M15
G01X175.768Y-138.915
M16
G05
G00X185.928Y-119.865
M15
G01X186.328Y-119.865
M16
G05
G00X185.928Y-138.915
M15
G01X186.328Y-138.915
M16
G05
T0
M30
