<?xml version="1.0" standalone="no"?>
 <!DOCTYPE svg PUBLIC "-//W3C//DTD SVG 1.1//EN" 
 "http://www.w3.org/Graphics/SVG/1.1/DTD/svg11.dtd"> 
<svg
  xmlns:svg="http://www.w3.org/2000/svg"
  xmlns="http://www.w3.org/2000/svg"
  xmlns:xlink="http://www.w3.org/1999/xlink"
  version="1.1"
  width="297.0022mm" height="210.0072mm" viewBox="0.0000 0.0000 297.0022 210.0072">
<title>SVG Image created as dc31-front-Edge_Cuts.svg date 2023/07/25 13:22:28 </title>
  <desc>Image generated by PCBNEW </desc>
<g style="fill:#000000; fill-opacity:1.0000;stroke:#000000; stroke-opacity:1.0000;
stroke-linecap:round; stroke-linejoin:round;"
 transform="translate(0 0) scale(1 1)">
</g>
<g style="fill:#000000; fill-opacity:0.0; 
stroke:#000000; stroke-width:0.0000; stroke-opacity:1; 
stroke-linecap:round; stroke-linejoin:round;">
</g>
<g style="fill:#000000; fill-opacity:0.0; 
stroke:#000000; stroke-width:0.2000; stroke-opacity:1; 
stroke-linecap:round; stroke-linejoin:round;">
<circle cx="200.3714" cy="156.8690" r="1.6000" /> 
<path d="M207.3714 159.8664
L96.9736 159.8664
" />
<path d="M96.4700 159.3714
L96.4700 31.8700
" />
<path d="M207.3714 159.8664 A0.5000 0.5000 0.0 0 0 207.8714 159.3664" />
<circle cx="165.5900" cy="51.2000" r="3.1000" /> 
</g>
<g style="fill:#000000; fill-opacity:0.0; 
stroke:#000000; stroke-width:0.0500; stroke-opacity:1; 
stroke-linecap:round; stroke-linejoin:round;">
<circle cx="101.3200" cy="147.3400" r="1.5000" /> 
</g>
<g style="fill:#000000; fill-opacity:0.0; 
stroke:#000000; stroke-width:0.2000; stroke-opacity:1; 
stroke-linecap:round; stroke-linejoin:round;">
<circle cx="142.7600" cy="70.5600" r="7.8000" /> 
<circle cx="199.0800" cy="51.2000" r="3.1000" /> 
<circle cx="200.3714" cy="34.3690" r="1.6000" /> 
</g>
<g style="fill:#000000; fill-opacity:0.0; 
stroke:#000000; stroke-width:0.0500; stroke-opacity:1; 
stroke-linecap:round; stroke-linejoin:round;">
<circle cx="202.9800" cy="147.3400" r="1.5000" /> 
</g>
<g style="fill:#000000; fill-opacity:0.0; 
stroke:#000000; stroke-width:0.2000; stroke-opacity:1; 
stroke-linecap:round; stroke-linejoin:round;">
<path style="fill:#000000; fill-opacity:0.0; 
stroke:#000000; stroke-width:0.2000; stroke-opacity:1; 
stroke-linecap:round; stroke-linejoin:round;fill:none"
d="M 118.9500,41.3900
148.9900,41.3900
148.9900,53.3900
118.9500,53.3900
Z" /> 
<path d="M207.3714 31.3700
L96.9700 31.3700
" />
<path d="M96.9700 31.3700 A0.5000 0.5000 0.0 0 0 96.4700 31.8700" />
</g>
<g style="fill:#000000; fill-opacity:0.0; 
stroke:#000000; stroke-width:0.0500; stroke-opacity:1; 
stroke-linecap:round; stroke-linejoin:round;">
<circle cx="101.3200" cy="43.8600" r="1.5000" /> 
</g>
<g style="fill:#000000; fill-opacity:0.0; 
stroke:#000000; stroke-width:0.2000; stroke-opacity:1; 
stroke-linecap:round; stroke-linejoin:round;">
<circle cx="182.3100" cy="51.2100" r="3.1000" /> 
<path d="M207.8714 31.8700
L207.8714 159.3664
" />
<path style="fill:#000000; fill-opacity:0.0; 
stroke:#000000; stroke-width:0.2000; stroke-opacity:1; 
stroke-linecap:round; stroke-linejoin:round;fill:none"
d="M 114.2000,83.7100
152.2600,83.7100
152.2600,102.7500
114.2000,102.7500
Z" /> 
<path d="M96.4786 159.3714 A0.4950 0.4950 0.0 0 0 96.9736 159.8664" />
<circle cx="182.3200" cy="62.2200" r="3.1000" /> 
<path d="M207.8714 31.8700 A0.5000 0.5000 0.0 0 0 207.3714 31.3700" />
</g>
<g style="fill:#000000; fill-opacity:0.0; 
stroke:#000000; stroke-width:0.0500; stroke-opacity:1; 
stroke-linecap:round; stroke-linejoin:round;">
<circle cx="202.9800" cy="43.8600" r="1.5000" /> 
</g>
<g style="fill:#000000; fill-opacity:0.0; 
stroke:#000000; stroke-width:0.2000; stroke-opacity:1; 
stroke-linecap:round; stroke-linejoin:round;">
<path style="fill:#000000; fill-opacity:0.0; 
stroke:#000000; stroke-width:0.2000; stroke-opacity:1; 
stroke-linecap:round; stroke-linejoin:round;fill:none"
d="M 114.2000,109.5400
190.3700,109.5400
190.3700,147.6500
114.2000,147.6500
Z" /> 
<circle cx="103.9714" cy="156.8690" r="1.6000" /> 
<circle cx="103.9714" cy="34.3690" r="1.6000" /> 
<circle cx="199.0700" cy="62.2300" r="3.1000" /> 
<circle cx="123.7100" cy="70.5600" r="7.8000" /> 
<g >
</g>
<g >
</g>
<g >
</g>
<g >
</g>
<g >
</g>
<g >
</g>
<g >
</g>
<g >
</g>
<g >
</g>
<g >
</g>
<g >
</g>
<g >
</g>
<g >
</g>
<g >
</g>
<g >
</g>
<g >
</g>
<g >
</g>
<g >
</g>
<g >
</g>
<g >
</g>
<g >
</g>
</g> 
</svg>
