M48
; DRILL file {KiCad 7.0.2} date Sun Jul 16 23:29:43 2023
; FORMAT={-:-/ absolute / metric / decimal}
; #@! TF.CreationDate,2023-07-16T23:29:43-06:00
; #@! TF.GenerationSoftware,Kicad,Pcbnew,7.0.2
; #@! TF.FileFunction,MixedPlating,1,2
FMAT,2
METRIC
; #@! TA.AperFunction,Plated,PTH,ComponentDrill
T1C0.300
; #@! TA.AperFunction,Plated,PTH,ViaDrill
T2C0.400
; #@! TA.AperFunction,Plated,PTH,ComponentDrill
T3C0.800
; #@! TA.AperFunction,Plated,PTH,ComponentDrill
T4C1.000
; #@! TA.AperFunction,Plated,PTH,ComponentDrill
T5C1.200
; #@! TA.AperFunction,Plated,PTH,ComponentDrill
T6C1.470
; #@! TA.AperFunction,Plated,PTH,ComponentDrill
T7C1.500
; #@! TA.AperFunction,Plated,PTH,ComponentDrill
T8C2.000
; #@! TA.AperFunction,NonPlated,NPTH,ComponentDrill
T9C0.900
; #@! TA.AperFunction,NonPlated,NPTH,ComponentDrill
T10C1.000
; #@! TA.AperFunction,NonPlated,NPTH,ComponentDrill
T11C1.200
; #@! TA.AperFunction,NonPlated,NPTH,ComponentDrill
T12C1.500
; #@! TA.AperFunction,NonPlated,NPTH,ComponentDrill
T13C1.600
; #@! TA.AperFunction,NonPlated,NPTH,ComponentDrill
T14C1.750
; #@! TA.AperFunction,NonPlated,NPTH,ComponentDrill
T15C1.800
; #@! TA.AperFunction,NonPlated,NPTH,ComponentDrill
T16C3.988
%
G90
G05
T1
X103.22Y-93.847
X103.22Y-95.027
X104.4Y-93.847
X104.4Y-95.027
T2
X100.48Y-98.56
X101.53Y-98.55
X102.62Y-98.55
X103.33Y-97.27
X104.56Y-91.18
X107.7Y-98.07
X127.43Y-45.81
X128.55Y-55.43
X131.56Y-82.46
X131.56Y-108.43
X131.56Y-148.86
X132.66Y-53.19
X132.94Y-59.49
X133.22Y-65.9
X133.23Y-94.3
X133.75Y-58.07
X134.84Y-50.46
X137.04Y-54.33
X137.49Y-59.45
X138.06Y-81.63
X138.09Y-80.56
X138.17Y-57.55
X140.07Y-46.51
X142.98Y-55.44
X149.89Y-43.71
X149.99Y-48.15
X150.1Y-105.46
X151.07Y-82.6
X151.07Y-108.34
X151.07Y-148.9
X153.25Y-53.17
X154.28Y-57.54
X154.63Y-58.98
X155.05Y-60.55
X155.96Y-58.57
X156.71Y-99.36
X156.82Y-45.29
X158.58Y-42.4
X159.22Y-99.39
X160.94Y-58.57
X160.95Y-63.37
X160.96Y-64.45
X161.79Y-99.81
X161.81Y-85.92
X162.09Y-74.58
X164.69Y-67.73
X165.34Y-66.6
X165.87Y-75.9
X166.97Y-62.58
X167.02Y-68.83
X169.88Y-108.34
X169.88Y-148.86
X171.31Y-60.92
X172.16Y-128.53
X173.43Y-107.22
X174.51Y-85.89
X174.54Y-99.74
X176.89Y-71.43
X182.0Y-69.73
X182.55Y-78.13
X184.67Y-107.49
X185.94Y-75.5
X187.21Y-99.71
X187.22Y-85.86
X187.62Y-72.91
X188.69Y-108.48
X188.69Y-148.9
X189.32Y-77.14
X189.74Y-88.31
X190.42Y-89.08
X190.906Y-97.688
X190.906Y-144.755
X191.821Y-142.215
X192.126Y-97.663
X193.68Y-77.33
X194.11Y-86.99
X194.13Y-44.98
X195.21Y-110.59
X195.8Y-98.8
X197.35Y-78.28
X199.92Y-85.81
X199.92Y-99.74
X200.69Y-72.65
X201.143Y-126.67
X202.47Y-99.79
X202.5Y-78.22
X205.02Y-78.25
T3
X115.48Y-43.57
X115.48Y-46.11
X115.48Y-48.65
X115.48Y-51.19
T4
X103.048Y-117.704
X103.048Y-120.244
X103.048Y-122.784
X103.048Y-125.324
X103.048Y-127.864
X105.588Y-117.704
X105.588Y-120.244
X105.588Y-122.784
X105.588Y-125.324
X105.588Y-127.864
X121.21Y-63.56
X121.21Y-78.06
X123.71Y-78.06
X126.21Y-63.56
X126.21Y-78.06
X140.26Y-63.56
X140.26Y-78.06
X142.76Y-78.06
X145.26Y-63.56
X145.26Y-78.06
X197.07Y-137.14
X197.07Y-139.68
X197.07Y-142.22
X197.07Y-144.76
X197.07Y-147.3
T5
X123.71Y-87.34
X123.71Y-113.18
X123.71Y-132.23
X128.71Y-89.44
X128.71Y-115.28
X128.71Y-134.33
X142.76Y-87.34
X142.76Y-113.18
X142.76Y-132.23
X147.76Y-89.44
X147.76Y-115.28
X147.76Y-134.33
X161.81Y-113.18
X161.81Y-132.23
X166.81Y-115.28
X166.81Y-134.33
X180.86Y-113.18
X180.86Y-132.23
X185.86Y-115.28
X185.86Y-134.33
T6
X119.9Y-90.7
X119.9Y-116.54
X119.9Y-135.59
X121.21Y-89.24
X121.21Y-115.08
X121.21Y-134.13
X138.95Y-90.7
X138.95Y-116.54
X138.95Y-135.59
X140.26Y-89.24
X140.26Y-115.08
X140.26Y-134.13
X158.0Y-116.54
X158.0Y-135.59
X159.31Y-115.08
X159.31Y-134.13
X177.05Y-116.54
X177.05Y-135.59
X178.36Y-115.08
X178.36Y-134.13
T7
X160.422Y-52.07
X162.572Y-50.57
X167.022Y-50.57
X169.322Y-52.07
X177.166Y-52.07
X177.176Y-63.08
X179.316Y-50.57
X179.326Y-61.58
X183.766Y-50.57
X183.776Y-61.58
X186.066Y-52.07
X186.076Y-63.08
X193.91Y-52.07
X193.91Y-63.09
X196.06Y-50.57
X196.06Y-61.59
X200.51Y-50.57
X200.51Y-61.59
X202.81Y-52.07
X202.81Y-63.09
T9
X202.735Y-113.37
X202.735Y-120.17
T10
X130.69Y-45.42
X138.67Y-45.42
T11
X118.49Y-97.44
X118.49Y-123.28
X118.49Y-142.33
X137.54Y-97.44
X137.54Y-123.28
X137.54Y-142.33
X156.59Y-123.28
X156.59Y-142.33
X175.64Y-123.28
X175.64Y-142.33
T12
X201.84Y-90.385
X201.84Y-95.235
T13
X161.482Y-54.62
X168.162Y-54.62
X178.226Y-54.62
X178.236Y-65.63
X184.906Y-54.62
X184.916Y-65.63
X194.97Y-54.62
X194.97Y-65.64
X201.65Y-54.62
X201.65Y-65.64
T15
X204.87Y-90.085
X204.87Y-95.535
T16
X123.71Y-93.24
X123.71Y-119.08
X123.71Y-138.13
X142.76Y-93.24
X142.76Y-119.08
X142.76Y-138.13
X161.81Y-119.08
X161.81Y-138.13
X180.86Y-119.08
X180.86Y-138.13
T6
G00X126.192Y-88.904
M15
G01X126.248Y-88.076
M16
G05
G00X126.192Y-114.744
M15
G01X126.248Y-113.916
M16
G05
G00X126.192Y-133.794
M15
G01X126.248Y-132.966
M16
G05
G00X145.242Y-88.904
M15
G01X145.298Y-88.076
M16
G05
G00X145.242Y-114.744
M15
G01X145.298Y-113.916
M16
G05
G00X145.242Y-133.794
M15
G01X145.298Y-132.966
M16
G05
G00X164.292Y-114.744
M15
G01X164.348Y-113.916
M16
G05
G00X164.292Y-133.794
M15
G01X164.348Y-132.966
M16
G05
G00X183.342Y-114.744
M15
G01X183.398Y-113.916
M16
G05
G00X183.342Y-133.794
M15
G01X183.398Y-132.966
M16
G05
T8
G00X118.11Y-70.31
M15
G01X118.11Y-70.81
M16
G05
G00X129.31Y-70.31
M15
G01X129.31Y-70.81
M16
G05
G00X137.16Y-70.31
M15
G01X137.16Y-70.81
M16
G05
G00X148.36Y-70.31
M15
G01X148.36Y-70.81
M16
G05
T14
G00X118.23Y-93.24
M15
G01X118.63Y-93.24
M16
G05
G00X118.23Y-119.08
M15
G01X118.63Y-119.08
M16
G05
G00X118.23Y-138.13
M15
G01X118.63Y-138.13
M16
G05
G00X128.79Y-93.24
M15
G01X129.19Y-93.24
M16
G05
G00X128.79Y-119.08
M15
G01X129.19Y-119.08
M16
G05
G00X128.79Y-138.13
M15
G01X129.19Y-138.13
M16
G05
G00X137.28Y-93.24
M15
G01X137.68Y-93.24
M16
G05
G00X137.28Y-119.08
M15
G01X137.68Y-119.08
M16
G05
G00X137.28Y-138.13
M15
G01X137.68Y-138.13
M16
G05
G00X147.84Y-93.24
M15
G01X148.24Y-93.24
M16
G05
G00X147.84Y-119.08
M15
G01X148.24Y-119.08
M16
G05
G00X147.84Y-138.13
M15
G01X148.24Y-138.13
M16
G05
G00X156.33Y-119.08
M15
G01X156.73Y-119.08
M16
G05
G00X156.33Y-138.13
M15
G01X156.73Y-138.13
M16
G05
G00X166.89Y-119.08
M15
G01X167.29Y-119.08
M16
G05
G00X166.89Y-138.13
M15
G01X167.29Y-138.13
M16
G05
G00X175.38Y-119.08
M15
G01X175.78Y-119.08
M16
G05
G00X175.38Y-138.13
M15
G01X175.78Y-138.13
M16
G05
G00X185.94Y-119.08
M15
G01X186.34Y-119.08
M16
G05
G00X185.94Y-138.13
M15
G01X186.34Y-138.13
M16
G05
T0
M30
