%TF.GenerationSoftware,KiCad,Pcbnew,7.0.2*%
%TF.CreationDate,2023-07-16T23:26:32-06:00*%
%TF.ProjectId,dc31,64633331-2e6b-4696-9361-645f70636258,rev?*%
%TF.SameCoordinates,Original*%
%TF.FileFunction,Soldermask,Top*%
%TF.FilePolarity,Negative*%
%FSLAX46Y46*%
G04 Gerber Fmt 4.6, Leading zero omitted, Abs format (unit mm)*
G04 Created by KiCad (PCBNEW 7.0.2) date 2023-07-16 23:26:32*
%MOMM*%
%LPD*%
G01*
G04 APERTURE LIST*
G04 Aperture macros list*
%AMRoundRect*
0 Rectangle with rounded corners*
0 $1 Rounding radius*
0 $2 $3 $4 $5 $6 $7 $8 $9 X,Y pos of 4 corners*
0 Add a 4 corners polygon primitive as box body*
4,1,4,$2,$3,$4,$5,$6,$7,$8,$9,$2,$3,0*
0 Add four circle primitives for the rounded corners*
1,1,$1+$1,$2,$3*
1,1,$1+$1,$4,$5*
1,1,$1+$1,$6,$7*
1,1,$1+$1,$8,$9*
0 Add four rect primitives between the rounded corners*
20,1,$1+$1,$2,$3,$4,$5,0*
20,1,$1+$1,$4,$5,$6,$7,0*
20,1,$1+$1,$6,$7,$8,$9,0*
20,1,$1+$1,$8,$9,$2,$3,0*%
%AMHorizOval*
0 Thick line with rounded ends*
0 $1 width*
0 $2 $3 position (X,Y) of the first rounded end (center of the circle)*
0 $4 $5 position (X,Y) of the second rounded end (center of the circle)*
0 Add line between two ends*
20,1,$1,$2,$3,$4,$5,0*
0 Add two circle primitives to create the rounded ends*
1,1,$1,$2,$3*
1,1,$1,$4,$5*%
G04 Aperture macros list end*
%ADD10O,1.700000X1.700000*%
%ADD11R,1.700000X1.700000*%
%ADD12C,1.800000*%
%ADD13O,3.200000X3.500000*%
%ADD14O,2.150000X1.750000*%
%ADD15C,1.200000*%
%ADD16C,3.987800*%
%ADD17HorizOval,2.250000X0.025506X0.374132X-0.025506X-0.374132X0*%
%ADD18C,2.000000*%
%ADD19HorizOval,2.250000X0.654995X0.730004X-0.654995X-0.730004X0*%
%ADD20C,2.250000*%
%ADD21C,1.600000*%
%ADD22C,0.900000*%
%ADD23R,2.500000X1.250000*%
%ADD24R,0.700000X1.600000*%
%ADD25R,1.200000X1.400000*%
%ADD26R,1.200000X2.200000*%
%ADD27R,1.600000X1.400000*%
%ADD28O,2.000000X1.200000*%
%ADD29RoundRect,0.112500X0.187500X0.112500X-0.187500X0.112500X-0.187500X-0.112500X0.187500X-0.112500X0*%
%ADD30RoundRect,0.200000X-0.200000X-0.275000X0.200000X-0.275000X0.200000X0.275000X-0.200000X0.275000X0*%
%ADD31RoundRect,0.250000X-0.250000X-0.475000X0.250000X-0.475000X0.250000X0.475000X-0.250000X0.475000X0*%
%ADD32R,3.500000X1.700000*%
%ADD33R,1.700000X3.500000*%
%ADD34O,1.800000X1.800000*%
%ADD35O,1.500000X1.500000*%
%ADD36RoundRect,0.160000X0.840000X0.160000X-0.840000X0.160000X-0.840000X-0.160000X0.840000X-0.160000X0*%
%ADD37RoundRect,0.225000X0.250000X-0.225000X0.250000X0.225000X-0.250000X0.225000X-0.250000X-0.225000X0*%
%ADD38RoundRect,0.200000X0.200000X0.275000X-0.200000X0.275000X-0.200000X-0.275000X0.200000X-0.275000X0*%
%ADD39RoundRect,0.150000X-0.150000X0.587500X-0.150000X-0.587500X0.150000X-0.587500X0.150000X0.587500X0*%
%ADD40RoundRect,0.150000X-0.825000X-0.150000X0.825000X-0.150000X0.825000X0.150000X-0.825000X0.150000X0*%
%ADD41R,3.400000X1.300000*%
%ADD42R,1.500000X1.500000*%
%ADD43RoundRect,0.112500X-0.112500X0.187500X-0.112500X-0.187500X0.112500X-0.187500X0.112500X0.187500X0*%
%ADD44RoundRect,0.225000X0.225000X0.250000X-0.225000X0.250000X-0.225000X-0.250000X0.225000X-0.250000X0*%
%ADD45RoundRect,0.062500X0.350000X0.062500X-0.350000X0.062500X-0.350000X-0.062500X0.350000X-0.062500X0*%
%ADD46RoundRect,0.062500X0.062500X0.350000X-0.062500X0.350000X-0.062500X-0.350000X0.062500X-0.350000X0*%
%ADD47R,1.680000X1.680000*%
%ADD48RoundRect,0.200000X-0.275000X0.200000X-0.275000X-0.200000X0.275000X-0.200000X0.275000X0.200000X0*%
%ADD49R,1.230000X1.230000*%
%ADD50RoundRect,0.100000X0.637500X0.100000X-0.637500X0.100000X-0.637500X-0.100000X0.637500X-0.100000X0*%
%ADD51RoundRect,0.250000X-0.475000X0.250000X-0.475000X-0.250000X0.475000X-0.250000X0.475000X0.250000X0*%
%ADD52RoundRect,0.250000X0.250000X0.475000X-0.250000X0.475000X-0.250000X-0.475000X0.250000X-0.475000X0*%
%ADD53RoundRect,0.225000X-0.225000X-0.250000X0.225000X-0.250000X0.225000X0.250000X-0.225000X0.250000X0*%
%ADD54RoundRect,0.250000X0.600000X0.600000X-0.600000X0.600000X-0.600000X-0.600000X0.600000X-0.600000X0*%
%ADD55C,1.700000*%
%ADD56RoundRect,0.112500X-0.187500X-0.112500X0.187500X-0.112500X0.187500X0.112500X-0.187500X0.112500X0*%
G04 APERTURE END LIST*
D10*
%TO.C,J3*%
X197070000Y-147299600D03*
X197070000Y-144759600D03*
X197070000Y-142219600D03*
X197070000Y-139679600D03*
D11*
X197070000Y-137139600D03*
%TD*%
D12*
%TO.C,SW12*%
X145260000Y-63560000D03*
X140260000Y-63560000D03*
X142760000Y-78060000D03*
X145260000Y-78060000D03*
X140260000Y-78060000D03*
D13*
X148360000Y-70560000D03*
X137160000Y-70560000D03*
%TD*%
%TO.C,SW11*%
X118110000Y-70560000D03*
X129310000Y-70560000D03*
D12*
X121210000Y-78060000D03*
X126210000Y-78060000D03*
X123710000Y-78060000D03*
X121210000Y-63560000D03*
X126210000Y-63560000D03*
%TD*%
D14*
%TO.C,SW1*%
X118430000Y-119080000D03*
D15*
X118490000Y-123280000D03*
D16*
X123710000Y-119080000D03*
D14*
X128990000Y-119080000D03*
D17*
X126220000Y-114330000D03*
D18*
X128710000Y-115280000D03*
D19*
X120554995Y-115809996D03*
D20*
X121210000Y-115080000D03*
D18*
X123710000Y-113180000D03*
%TD*%
D14*
%TO.C,SW8*%
X175580000Y-138130000D03*
D15*
X175640000Y-142330000D03*
D16*
X180860000Y-138130000D03*
D14*
X186140000Y-138130000D03*
D17*
X183370000Y-133380000D03*
D18*
X185860000Y-134330000D03*
D19*
X177704995Y-134859996D03*
D20*
X178360000Y-134130000D03*
D18*
X180860000Y-132230000D03*
%TD*%
D14*
%TO.C,SW7*%
X156530000Y-138130000D03*
D15*
X156590000Y-142330000D03*
D16*
X161810000Y-138130000D03*
D14*
X167090000Y-138130000D03*
D17*
X164320000Y-133380000D03*
D18*
X166810000Y-134330000D03*
D19*
X158654995Y-134859996D03*
D20*
X159310000Y-134130000D03*
D18*
X161810000Y-132230000D03*
%TD*%
D14*
%TO.C,SW3*%
X156530000Y-119080000D03*
D15*
X156590000Y-123280000D03*
D16*
X161810000Y-119080000D03*
D14*
X167090000Y-119080000D03*
D17*
X164320000Y-114330000D03*
D18*
X166810000Y-115280000D03*
D19*
X158654995Y-115809996D03*
D20*
X159310000Y-115080000D03*
D18*
X161810000Y-113180000D03*
%TD*%
D14*
%TO.C,SW2*%
X137480000Y-119080000D03*
D15*
X137540000Y-123280000D03*
D16*
X142760000Y-119080000D03*
D14*
X148040000Y-119080000D03*
D17*
X145270000Y-114330000D03*
D18*
X147760000Y-115280000D03*
D19*
X139604995Y-115809996D03*
D20*
X140260000Y-115080000D03*
D18*
X142760000Y-113180000D03*
%TD*%
D14*
%TO.C,SW5*%
X118430000Y-138130000D03*
D15*
X118490000Y-142330000D03*
D16*
X123710000Y-138130000D03*
D14*
X128990000Y-138130000D03*
D17*
X126220000Y-133380000D03*
D18*
X128710000Y-134330000D03*
D19*
X120554995Y-134859996D03*
D20*
X121210000Y-134130000D03*
D18*
X123710000Y-132230000D03*
%TD*%
D14*
%TO.C,SW9*%
X118430000Y-93240000D03*
D15*
X118490000Y-97440000D03*
D16*
X123710000Y-93240000D03*
D14*
X128990000Y-93240000D03*
D17*
X126220000Y-88490000D03*
D18*
X128710000Y-89440000D03*
D19*
X120554995Y-89969996D03*
D20*
X121210000Y-89240000D03*
D18*
X123710000Y-87340000D03*
%TD*%
D14*
%TO.C,SW4*%
X175580000Y-119080000D03*
D15*
X175640000Y-123280000D03*
D16*
X180860000Y-119080000D03*
D14*
X186140000Y-119080000D03*
D17*
X183370000Y-114330000D03*
D18*
X185860000Y-115280000D03*
D19*
X177704995Y-115809996D03*
D20*
X178360000Y-115080000D03*
D18*
X180860000Y-113180000D03*
%TD*%
D14*
%TO.C,SW6*%
X137480000Y-138130000D03*
D15*
X137540000Y-142330000D03*
D16*
X142760000Y-138130000D03*
D14*
X148040000Y-138130000D03*
D17*
X145270000Y-133380000D03*
D18*
X147760000Y-134330000D03*
D19*
X139604995Y-134859996D03*
D20*
X140260000Y-134130000D03*
D18*
X142760000Y-132230000D03*
%TD*%
D14*
%TO.C,SW10*%
X137480000Y-93240000D03*
D15*
X137540000Y-97440000D03*
D16*
X142760000Y-93240000D03*
D14*
X148040000Y-93240000D03*
D17*
X145270000Y-88490000D03*
D18*
X147760000Y-89440000D03*
D19*
X139604995Y-89969996D03*
D20*
X140260000Y-89240000D03*
D18*
X142760000Y-87340000D03*
%TD*%
D21*
%TO.C,J6*%
X178235895Y-65630000D03*
X184915895Y-65630000D03*
D20*
X177175895Y-63080000D03*
X186075895Y-63080000D03*
X179325895Y-61580000D03*
X183775895Y-61580000D03*
%TD*%
D21*
%TO.C,J2*%
X194970000Y-65640000D03*
X201650000Y-65640000D03*
D20*
X193910000Y-63090000D03*
X202810000Y-63090000D03*
X196060000Y-61590000D03*
X200510000Y-61590000D03*
%TD*%
D21*
%TO.C,J8*%
X161481790Y-54620000D03*
X168161790Y-54620000D03*
D20*
X160421790Y-52070000D03*
X169321790Y-52070000D03*
X162571790Y-50570000D03*
X167021790Y-50570000D03*
%TD*%
D21*
%TO.C,J5*%
X178225895Y-54620000D03*
X184905895Y-54620000D03*
D20*
X177165895Y-52070000D03*
X186065895Y-52070000D03*
X179315895Y-50570000D03*
X183765895Y-50570000D03*
%TD*%
D21*
%TO.C,J4*%
X194970000Y-54620000D03*
X201650000Y-54620000D03*
D20*
X193910000Y-52070000D03*
X202810000Y-52070000D03*
X196060000Y-50570000D03*
X200510000Y-50570000D03*
%TD*%
D22*
%TO.C,SW14*%
X202735000Y-120170000D03*
X202735000Y-113370000D03*
D23*
X199985000Y-119270000D03*
X199985000Y-116770000D03*
X199985000Y-114270000D03*
%TD*%
D15*
%TO.C,J9*%
X138670000Y-45420000D03*
X130690000Y-45420000D03*
D24*
X131540000Y-55920000D03*
X132640000Y-55920000D03*
X133740000Y-55920000D03*
X134840000Y-55920000D03*
X135940000Y-55920000D03*
X137040000Y-55920000D03*
X138140000Y-55920000D03*
X139240000Y-55920000D03*
X140340000Y-55920000D03*
D25*
X141490000Y-55420000D03*
D26*
X141490000Y-45820000D03*
D27*
X126890000Y-55420000D03*
D26*
X125990000Y-45820000D03*
%TD*%
D28*
%TO.C,J1*%
X115480000Y-51190000D03*
X115480000Y-48650000D03*
X115480000Y-46110000D03*
X115480000Y-43570000D03*
%TD*%
D29*
%TO.C,D11*%
X124837500Y-60540000D03*
X122737500Y-60540000D03*
%TD*%
D30*
%TO.C,R11*%
X110275000Y-92990000D03*
X108625000Y-92990000D03*
%TD*%
D31*
%TO.C,C3*%
X100640000Y-90750000D03*
X102540000Y-90750000D03*
%TD*%
D29*
%TO.C,D2*%
X143787500Y-108380000D03*
X141687500Y-108380000D03*
%TD*%
D32*
%TO.C,U1*%
X156070000Y-95350000D03*
X156070000Y-92810000D03*
X156070000Y-90270000D03*
D33*
X205000000Y-102600000D03*
X202460000Y-102600000D03*
X199920000Y-102600000D03*
X197380000Y-102600000D03*
X194840000Y-102600000D03*
X192300000Y-102600000D03*
X189760000Y-102600000D03*
X187220000Y-102600000D03*
X184680000Y-102600000D03*
X182140000Y-102600000D03*
X179600000Y-102600000D03*
X177060000Y-102600000D03*
X174520000Y-102600000D03*
X171980000Y-102600000D03*
X169440000Y-102600000D03*
X166900000Y-102600000D03*
X164360000Y-102600000D03*
X161820000Y-102600000D03*
X159280000Y-102600000D03*
X156740000Y-102600000D03*
X156740000Y-83020000D03*
X159280000Y-83020000D03*
X161820000Y-83020000D03*
X164360000Y-83020000D03*
X166900000Y-83020000D03*
X169440000Y-83020000D03*
X171980000Y-83020000D03*
X174520000Y-83020000D03*
X177060000Y-83020000D03*
X179600000Y-83020000D03*
X182140000Y-83020000D03*
X184680000Y-83020000D03*
X187220000Y-83020000D03*
X189760000Y-83020000D03*
X192300000Y-83020000D03*
X194840000Y-83020000D03*
X197380000Y-83020000D03*
X199920000Y-83020000D03*
X202460000Y-83020000D03*
X205000000Y-83020000D03*
D34*
X204870000Y-95535000D03*
D35*
X201840000Y-95235000D03*
X201840000Y-90385000D03*
D34*
X204870000Y-90085000D03*
%TD*%
D29*
%TO.C,D14*%
X112070000Y-100410000D03*
X109970000Y-100410000D03*
%TD*%
%TO.C,D4*%
X181887500Y-108380000D03*
X179787500Y-108380000D03*
%TD*%
D36*
%TO.C,U5*%
X167870000Y-45590000D03*
X167870000Y-43050000D03*
X161570000Y-43050000D03*
X161570000Y-44320000D03*
X161570000Y-45590000D03*
%TD*%
D37*
%TO.C,C5*%
X158570000Y-45195000D03*
X158570000Y-43645000D03*
%TD*%
D30*
%TO.C,R7*%
X163835000Y-58570000D03*
X165485000Y-58570000D03*
%TD*%
D38*
%TO.C,R2*%
X196975000Y-69980000D03*
X195325000Y-69980000D03*
%TD*%
D39*
%TO.C,Q1*%
X183870000Y-71352500D03*
X181970000Y-71352500D03*
X182920000Y-73227500D03*
%TD*%
D38*
%TO.C,R1*%
X203650000Y-74605000D03*
X202000000Y-74605000D03*
%TD*%
D40*
%TO.C,U2*%
X193660000Y-72050000D03*
X193660000Y-73320000D03*
X193660000Y-74590000D03*
X193660000Y-75860000D03*
X198610000Y-75860000D03*
X198610000Y-74590000D03*
X198610000Y-73320000D03*
X198610000Y-72050000D03*
%TD*%
D29*
%TO.C,D5*%
X124737500Y-148880000D03*
X122637500Y-148880000D03*
%TD*%
D41*
%TO.C,L1*%
X109970000Y-95930000D03*
X109970000Y-98030000D03*
%TD*%
D42*
%TO.C,TP4*%
X158290000Y-67370000D03*
%TD*%
D29*
%TO.C,D10*%
X143810000Y-82540000D03*
X141710000Y-82540000D03*
%TD*%
D43*
%TO.C,D15*%
X195240000Y-112140000D03*
X195240000Y-114240000D03*
%TD*%
D44*
%TO.C,C6*%
X167180000Y-74590000D03*
X165630000Y-74590000D03*
%TD*%
D45*
%TO.C,U6*%
X105272500Y-95187500D03*
X105272500Y-94687500D03*
X105272500Y-94187500D03*
X105272500Y-93687500D03*
D46*
X104560000Y-92975000D03*
X104060000Y-92975000D03*
X103560000Y-92975000D03*
X103060000Y-92975000D03*
D45*
X102347500Y-93687500D03*
X102347500Y-94187500D03*
X102347500Y-94687500D03*
X102347500Y-95187500D03*
D46*
X103060000Y-95900000D03*
X103560000Y-95900000D03*
X104060000Y-95900000D03*
X104560000Y-95900000D03*
D47*
X103810000Y-94437500D03*
%TD*%
D30*
%TO.C,R9*%
X165580000Y-72550000D03*
X167230000Y-72550000D03*
%TD*%
D38*
%TO.C,R4*%
X190985000Y-75585000D03*
X189335000Y-75585000D03*
%TD*%
D42*
%TO.C,TP5*%
X158260000Y-62420000D03*
%TD*%
D30*
%TO.C,R3*%
X189345000Y-71995000D03*
X190995000Y-71995000D03*
%TD*%
D29*
%TO.C,D8*%
X181887500Y-148880000D03*
X179787500Y-148880000D03*
%TD*%
D42*
%TO.C,TP1*%
X169130000Y-63410000D03*
%TD*%
D29*
%TO.C,D7*%
X162837500Y-148880000D03*
X160737500Y-148880000D03*
%TD*%
D48*
%TO.C,R8*%
X177770000Y-73195000D03*
X177770000Y-74845000D03*
%TD*%
D45*
%TO.C,U3*%
X165457500Y-63920000D03*
X165457500Y-63420000D03*
X165457500Y-62920000D03*
X165457500Y-62420000D03*
D46*
X164770000Y-61732500D03*
X164270000Y-61732500D03*
X163770000Y-61732500D03*
X163270000Y-61732500D03*
D45*
X162582500Y-62420000D03*
X162582500Y-62920000D03*
X162582500Y-63420000D03*
X162582500Y-63920000D03*
D46*
X163270000Y-64607500D03*
X163770000Y-64607500D03*
X164270000Y-64607500D03*
X164770000Y-64607500D03*
D49*
X164020000Y-63170000D03*
%TD*%
D29*
%TO.C,D1*%
X124737500Y-108380000D03*
X122637500Y-108380000D03*
%TD*%
D50*
%TO.C,U4*%
X175225000Y-75320000D03*
X175225000Y-74670000D03*
X175225000Y-74020000D03*
X175225000Y-73370000D03*
X175225000Y-72720000D03*
X175225000Y-72070000D03*
X175225000Y-71420000D03*
X169500000Y-71420000D03*
X169500000Y-72070000D03*
X169500000Y-72720000D03*
X169500000Y-73370000D03*
X169500000Y-74020000D03*
X169500000Y-74670000D03*
X169500000Y-75320000D03*
%TD*%
D29*
%TO.C,D9*%
X124740000Y-82530000D03*
X122640000Y-82530000D03*
%TD*%
D51*
%TO.C,C2*%
X100000000Y-95160000D03*
X100000000Y-97060000D03*
%TD*%
D29*
%TO.C,D6*%
X143787500Y-148880000D03*
X141687500Y-148880000D03*
%TD*%
%TO.C,D12*%
X143770000Y-60580000D03*
X141670000Y-60580000D03*
%TD*%
%TO.C,D3*%
X162837500Y-108380000D03*
X160737500Y-108380000D03*
%TD*%
D52*
%TO.C,C7*%
X106740000Y-98120000D03*
X104840000Y-98120000D03*
%TD*%
D53*
%TO.C,C4*%
X132930000Y-60910000D03*
X134480000Y-60910000D03*
%TD*%
D30*
%TO.C,R6*%
X182945000Y-75530000D03*
X184595000Y-75530000D03*
%TD*%
D44*
%TO.C,C1*%
X190935000Y-73765000D03*
X189385000Y-73765000D03*
%TD*%
D38*
%TO.C,R5*%
X197015000Y-44980000D03*
X195365000Y-44980000D03*
%TD*%
D54*
%TO.C,J7*%
X105587800Y-117703600D03*
D55*
X103047800Y-117703600D03*
X105587800Y-120243600D03*
X103047800Y-120243600D03*
X105587800Y-122783600D03*
X103047800Y-122783600D03*
X105587800Y-125323600D03*
X103047800Y-125323600D03*
X105587800Y-127863600D03*
X103047800Y-127863600D03*
%TD*%
D30*
%TO.C,R10*%
X178985000Y-44980000D03*
X180635000Y-44980000D03*
%TD*%
D56*
%TO.C,D13*%
X190790000Y-44980000D03*
X192890000Y-44980000D03*
%TD*%
%TO.C,D16*%
X183130000Y-44980000D03*
X185230000Y-44980000D03*
%TD*%
M02*
