%TF.GenerationSoftware,KiCad,Pcbnew,7.0.2*%
%TF.CreationDate,2023-07-16T23:24:56-06:00*%
%TF.ProjectId,dc31-front,64633331-2d66-4726-9f6e-742e6b696361,rev?*%
%TF.SameCoordinates,Original*%
%TF.FileFunction,Legend,Bot*%
%TF.FilePolarity,Positive*%
%FSLAX46Y46*%
G04 Gerber Fmt 4.6, Leading zero omitted, Abs format (unit mm)*
G04 Created by KiCad (PCBNEW 7.0.2) date 2023-07-16 23:24:56*
%MOMM*%
%LPD*%
G01*
G04 APERTURE LIST*
%ADD10C,0.200000*%
%ADD11C,0.150000*%
%ADD12C,0.120000*%
G04 APERTURE END LIST*
D10*
X203150000Y-94394714D02*
X203150000Y-95851857D01*
X203150000Y-95851857D02*
X203235714Y-96023285D01*
X203235714Y-96023285D02*
X203321428Y-96109000D01*
X203321428Y-96109000D02*
X203492857Y-96194714D01*
X203492857Y-96194714D02*
X203750000Y-96194714D01*
X203750000Y-96194714D02*
X203921428Y-96109000D01*
X203150000Y-95509000D02*
X203321428Y-95594714D01*
X203321428Y-95594714D02*
X203664285Y-95594714D01*
X203664285Y-95594714D02*
X203835714Y-95509000D01*
X203835714Y-95509000D02*
X203921428Y-95423285D01*
X203921428Y-95423285D02*
X204007142Y-95251857D01*
X204007142Y-95251857D02*
X204007142Y-94737571D01*
X204007142Y-94737571D02*
X203921428Y-94566142D01*
X203921428Y-94566142D02*
X203835714Y-94480428D01*
X203835714Y-94480428D02*
X203664285Y-94394714D01*
X203664285Y-94394714D02*
X203321428Y-94394714D01*
X203321428Y-94394714D02*
X203150000Y-94480428D01*
X202292857Y-95594714D02*
X202292857Y-94394714D01*
X202292857Y-93794714D02*
X202378571Y-93880428D01*
X202378571Y-93880428D02*
X202292857Y-93966142D01*
X202292857Y-93966142D02*
X202207143Y-93880428D01*
X202207143Y-93880428D02*
X202292857Y-93794714D01*
X202292857Y-93794714D02*
X202292857Y-93966142D01*
X201692857Y-94394714D02*
X201007143Y-94394714D01*
X201435714Y-93794714D02*
X201435714Y-95337571D01*
X201435714Y-95337571D02*
X201350000Y-95509000D01*
X201350000Y-95509000D02*
X201178571Y-95594714D01*
X201178571Y-95594714D02*
X201007143Y-95594714D01*
X200407143Y-95594714D02*
X200407143Y-93794714D01*
X199635715Y-95594714D02*
X199635715Y-94651857D01*
X199635715Y-94651857D02*
X199721429Y-94480428D01*
X199721429Y-94480428D02*
X199892857Y-94394714D01*
X199892857Y-94394714D02*
X200150000Y-94394714D01*
X200150000Y-94394714D02*
X200321429Y-94480428D01*
X200321429Y-94480428D02*
X200407143Y-94566142D01*
X198007144Y-94394714D02*
X198007144Y-95594714D01*
X198778572Y-94394714D02*
X198778572Y-95337571D01*
X198778572Y-95337571D02*
X198692858Y-95509000D01*
X198692858Y-95509000D02*
X198521429Y-95594714D01*
X198521429Y-95594714D02*
X198264286Y-95594714D01*
X198264286Y-95594714D02*
X198092858Y-95509000D01*
X198092858Y-95509000D02*
X198007144Y-95423285D01*
X197150001Y-95594714D02*
X197150001Y-93794714D01*
X197150001Y-94480428D02*
X196978573Y-94394714D01*
X196978573Y-94394714D02*
X196635715Y-94394714D01*
X196635715Y-94394714D02*
X196464287Y-94480428D01*
X196464287Y-94480428D02*
X196378573Y-94566142D01*
X196378573Y-94566142D02*
X196292858Y-94737571D01*
X196292858Y-94737571D02*
X196292858Y-95251857D01*
X196292858Y-95251857D02*
X196378573Y-95423285D01*
X196378573Y-95423285D02*
X196464287Y-95509000D01*
X196464287Y-95509000D02*
X196635715Y-95594714D01*
X196635715Y-95594714D02*
X196978573Y-95594714D01*
X196978573Y-95594714D02*
X197150001Y-95509000D01*
X195521430Y-95423285D02*
X195435716Y-95509000D01*
X195435716Y-95509000D02*
X195521430Y-95594714D01*
X195521430Y-95594714D02*
X195607144Y-95509000D01*
X195607144Y-95509000D02*
X195521430Y-95423285D01*
X195521430Y-95423285D02*
X195521430Y-95594714D01*
X193892859Y-95509000D02*
X194064287Y-95594714D01*
X194064287Y-95594714D02*
X194407144Y-95594714D01*
X194407144Y-95594714D02*
X194578573Y-95509000D01*
X194578573Y-95509000D02*
X194664287Y-95423285D01*
X194664287Y-95423285D02*
X194750001Y-95251857D01*
X194750001Y-95251857D02*
X194750001Y-94737571D01*
X194750001Y-94737571D02*
X194664287Y-94566142D01*
X194664287Y-94566142D02*
X194578573Y-94480428D01*
X194578573Y-94480428D02*
X194407144Y-94394714D01*
X194407144Y-94394714D02*
X194064287Y-94394714D01*
X194064287Y-94394714D02*
X193892859Y-94480428D01*
X192864287Y-95594714D02*
X193035716Y-95509000D01*
X193035716Y-95509000D02*
X193121430Y-95423285D01*
X193121430Y-95423285D02*
X193207144Y-95251857D01*
X193207144Y-95251857D02*
X193207144Y-94737571D01*
X193207144Y-94737571D02*
X193121430Y-94566142D01*
X193121430Y-94566142D02*
X193035716Y-94480428D01*
X193035716Y-94480428D02*
X192864287Y-94394714D01*
X192864287Y-94394714D02*
X192607144Y-94394714D01*
X192607144Y-94394714D02*
X192435716Y-94480428D01*
X192435716Y-94480428D02*
X192350002Y-94566142D01*
X192350002Y-94566142D02*
X192264287Y-94737571D01*
X192264287Y-94737571D02*
X192264287Y-95251857D01*
X192264287Y-95251857D02*
X192350002Y-95423285D01*
X192350002Y-95423285D02*
X192435716Y-95509000D01*
X192435716Y-95509000D02*
X192607144Y-95594714D01*
X192607144Y-95594714D02*
X192864287Y-95594714D01*
X191492859Y-95594714D02*
X191492859Y-94394714D01*
X191492859Y-94566142D02*
X191407145Y-94480428D01*
X191407145Y-94480428D02*
X191235716Y-94394714D01*
X191235716Y-94394714D02*
X190978573Y-94394714D01*
X190978573Y-94394714D02*
X190807145Y-94480428D01*
X190807145Y-94480428D02*
X190721431Y-94651857D01*
X190721431Y-94651857D02*
X190721431Y-95594714D01*
X190721431Y-94651857D02*
X190635716Y-94480428D01*
X190635716Y-94480428D02*
X190464288Y-94394714D01*
X190464288Y-94394714D02*
X190207145Y-94394714D01*
X190207145Y-94394714D02*
X190035716Y-94480428D01*
X190035716Y-94480428D02*
X189950002Y-94651857D01*
X189950002Y-94651857D02*
X189950002Y-95594714D01*
X187807145Y-93709000D02*
X189350002Y-96023285D01*
X186435717Y-95594714D02*
X186435717Y-93794714D01*
X186435717Y-95509000D02*
X186607145Y-95594714D01*
X186607145Y-95594714D02*
X186950002Y-95594714D01*
X186950002Y-95594714D02*
X187121431Y-95509000D01*
X187121431Y-95509000D02*
X187207145Y-95423285D01*
X187207145Y-95423285D02*
X187292859Y-95251857D01*
X187292859Y-95251857D02*
X187292859Y-94737571D01*
X187292859Y-94737571D02*
X187207145Y-94566142D01*
X187207145Y-94566142D02*
X187121431Y-94480428D01*
X187121431Y-94480428D02*
X186950002Y-94394714D01*
X186950002Y-94394714D02*
X186607145Y-94394714D01*
X186607145Y-94394714D02*
X186435717Y-94480428D01*
X184807146Y-95509000D02*
X184978574Y-95594714D01*
X184978574Y-95594714D02*
X185321431Y-95594714D01*
X185321431Y-95594714D02*
X185492860Y-95509000D01*
X185492860Y-95509000D02*
X185578574Y-95423285D01*
X185578574Y-95423285D02*
X185664288Y-95251857D01*
X185664288Y-95251857D02*
X185664288Y-94737571D01*
X185664288Y-94737571D02*
X185578574Y-94566142D01*
X185578574Y-94566142D02*
X185492860Y-94480428D01*
X185492860Y-94480428D02*
X185321431Y-94394714D01*
X185321431Y-94394714D02*
X184978574Y-94394714D01*
X184978574Y-94394714D02*
X184807146Y-94480428D01*
X184207146Y-94394714D02*
X183264289Y-94394714D01*
X183264289Y-94394714D02*
X184207146Y-95594714D01*
X184207146Y-95594714D02*
X183264289Y-95594714D01*
X182578574Y-95594714D02*
X182578574Y-94394714D01*
X182578574Y-93794714D02*
X182664288Y-93880428D01*
X182664288Y-93880428D02*
X182578574Y-93966142D01*
X182578574Y-93966142D02*
X182492860Y-93880428D01*
X182492860Y-93880428D02*
X182578574Y-93794714D01*
X182578574Y-93794714D02*
X182578574Y-93966142D01*
X180950003Y-95594714D02*
X180950003Y-94651857D01*
X180950003Y-94651857D02*
X181035717Y-94480428D01*
X181035717Y-94480428D02*
X181207145Y-94394714D01*
X181207145Y-94394714D02*
X181550003Y-94394714D01*
X181550003Y-94394714D02*
X181721431Y-94480428D01*
X180950003Y-95509000D02*
X181121431Y-95594714D01*
X181121431Y-95594714D02*
X181550003Y-95594714D01*
X181550003Y-95594714D02*
X181721431Y-95509000D01*
X181721431Y-95509000D02*
X181807145Y-95337571D01*
X181807145Y-95337571D02*
X181807145Y-95166142D01*
X181807145Y-95166142D02*
X181721431Y-94994714D01*
X181721431Y-94994714D02*
X181550003Y-94909000D01*
X181550003Y-94909000D02*
X181121431Y-94909000D01*
X181121431Y-94909000D02*
X180950003Y-94823285D01*
X178807146Y-93709000D02*
X180350003Y-96023285D01*
X178207146Y-95594714D02*
X178207146Y-93794714D01*
X178207146Y-93794714D02*
X177778575Y-93794714D01*
X177778575Y-93794714D02*
X177521432Y-93880428D01*
X177521432Y-93880428D02*
X177350003Y-94051857D01*
X177350003Y-94051857D02*
X177264289Y-94223285D01*
X177264289Y-94223285D02*
X177178575Y-94566142D01*
X177178575Y-94566142D02*
X177178575Y-94823285D01*
X177178575Y-94823285D02*
X177264289Y-95166142D01*
X177264289Y-95166142D02*
X177350003Y-95337571D01*
X177350003Y-95337571D02*
X177521432Y-95509000D01*
X177521432Y-95509000D02*
X177778575Y-95594714D01*
X177778575Y-95594714D02*
X178207146Y-95594714D01*
X175721432Y-95509000D02*
X175892860Y-95594714D01*
X175892860Y-95594714D02*
X176235718Y-95594714D01*
X176235718Y-95594714D02*
X176407146Y-95509000D01*
X176407146Y-95509000D02*
X176492860Y-95337571D01*
X176492860Y-95337571D02*
X176492860Y-94651857D01*
X176492860Y-94651857D02*
X176407146Y-94480428D01*
X176407146Y-94480428D02*
X176235718Y-94394714D01*
X176235718Y-94394714D02*
X175892860Y-94394714D01*
X175892860Y-94394714D02*
X175721432Y-94480428D01*
X175721432Y-94480428D02*
X175635718Y-94651857D01*
X175635718Y-94651857D02*
X175635718Y-94823285D01*
X175635718Y-94823285D02*
X176492860Y-94994714D01*
X175121432Y-94394714D02*
X174435718Y-94394714D01*
X174864289Y-95594714D02*
X174864289Y-94051857D01*
X174864289Y-94051857D02*
X174778575Y-93880428D01*
X174778575Y-93880428D02*
X174607146Y-93794714D01*
X174607146Y-93794714D02*
X174435718Y-93794714D01*
X173064290Y-95509000D02*
X173235718Y-95594714D01*
X173235718Y-95594714D02*
X173578575Y-95594714D01*
X173578575Y-95594714D02*
X173750004Y-95509000D01*
X173750004Y-95509000D02*
X173835718Y-95423285D01*
X173835718Y-95423285D02*
X173921432Y-95251857D01*
X173921432Y-95251857D02*
X173921432Y-94737571D01*
X173921432Y-94737571D02*
X173835718Y-94566142D01*
X173835718Y-94566142D02*
X173750004Y-94480428D01*
X173750004Y-94480428D02*
X173578575Y-94394714D01*
X173578575Y-94394714D02*
X173235718Y-94394714D01*
X173235718Y-94394714D02*
X173064290Y-94480428D01*
X172035718Y-95594714D02*
X172207147Y-95509000D01*
X172207147Y-95509000D02*
X172292861Y-95423285D01*
X172292861Y-95423285D02*
X172378575Y-95251857D01*
X172378575Y-95251857D02*
X172378575Y-94737571D01*
X172378575Y-94737571D02*
X172292861Y-94566142D01*
X172292861Y-94566142D02*
X172207147Y-94480428D01*
X172207147Y-94480428D02*
X172035718Y-94394714D01*
X172035718Y-94394714D02*
X171778575Y-94394714D01*
X171778575Y-94394714D02*
X171607147Y-94480428D01*
X171607147Y-94480428D02*
X171521433Y-94566142D01*
X171521433Y-94566142D02*
X171435718Y-94737571D01*
X171435718Y-94737571D02*
X171435718Y-95251857D01*
X171435718Y-95251857D02*
X171521433Y-95423285D01*
X171521433Y-95423285D02*
X171607147Y-95509000D01*
X171607147Y-95509000D02*
X171778575Y-95594714D01*
X171778575Y-95594714D02*
X172035718Y-95594714D01*
X170664290Y-94394714D02*
X170664290Y-95594714D01*
X170664290Y-94566142D02*
X170578576Y-94480428D01*
X170578576Y-94480428D02*
X170407147Y-94394714D01*
X170407147Y-94394714D02*
X170150004Y-94394714D01*
X170150004Y-94394714D02*
X169978576Y-94480428D01*
X169978576Y-94480428D02*
X169892862Y-94651857D01*
X169892862Y-94651857D02*
X169892862Y-95594714D01*
X169207148Y-93794714D02*
X168092862Y-93794714D01*
X168092862Y-93794714D02*
X168692862Y-94480428D01*
X168692862Y-94480428D02*
X168435719Y-94480428D01*
X168435719Y-94480428D02*
X168264291Y-94566142D01*
X168264291Y-94566142D02*
X168178576Y-94651857D01*
X168178576Y-94651857D02*
X168092862Y-94823285D01*
X168092862Y-94823285D02*
X168092862Y-95251857D01*
X168092862Y-95251857D02*
X168178576Y-95423285D01*
X168178576Y-95423285D02*
X168264291Y-95509000D01*
X168264291Y-95509000D02*
X168435719Y-95594714D01*
X168435719Y-95594714D02*
X168950005Y-95594714D01*
X168950005Y-95594714D02*
X169121433Y-95509000D01*
X169121433Y-95509000D02*
X169207148Y-95423285D01*
X166378576Y-95594714D02*
X167407147Y-95594714D01*
X166892862Y-95594714D02*
X166892862Y-93794714D01*
X166892862Y-93794714D02*
X167064290Y-94051857D01*
X167064290Y-94051857D02*
X167235719Y-94223285D01*
X167235719Y-94223285D02*
X167407147Y-94309000D01*
X165607147Y-94909000D02*
X164235719Y-94909000D01*
X162778576Y-94651857D02*
X162521433Y-94737571D01*
X162521433Y-94737571D02*
X162435719Y-94823285D01*
X162435719Y-94823285D02*
X162350005Y-94994714D01*
X162350005Y-94994714D02*
X162350005Y-95251857D01*
X162350005Y-95251857D02*
X162435719Y-95423285D01*
X162435719Y-95423285D02*
X162521433Y-95509000D01*
X162521433Y-95509000D02*
X162692862Y-95594714D01*
X162692862Y-95594714D02*
X163378576Y-95594714D01*
X163378576Y-95594714D02*
X163378576Y-93794714D01*
X163378576Y-93794714D02*
X162778576Y-93794714D01*
X162778576Y-93794714D02*
X162607148Y-93880428D01*
X162607148Y-93880428D02*
X162521433Y-93966142D01*
X162521433Y-93966142D02*
X162435719Y-94137571D01*
X162435719Y-94137571D02*
X162435719Y-94309000D01*
X162435719Y-94309000D02*
X162521433Y-94480428D01*
X162521433Y-94480428D02*
X162607148Y-94566142D01*
X162607148Y-94566142D02*
X162778576Y-94651857D01*
X162778576Y-94651857D02*
X163378576Y-94651857D01*
X160807148Y-95594714D02*
X160807148Y-94651857D01*
X160807148Y-94651857D02*
X160892862Y-94480428D01*
X160892862Y-94480428D02*
X161064290Y-94394714D01*
X161064290Y-94394714D02*
X161407148Y-94394714D01*
X161407148Y-94394714D02*
X161578576Y-94480428D01*
X160807148Y-95509000D02*
X160978576Y-95594714D01*
X160978576Y-95594714D02*
X161407148Y-95594714D01*
X161407148Y-95594714D02*
X161578576Y-95509000D01*
X161578576Y-95509000D02*
X161664290Y-95337571D01*
X161664290Y-95337571D02*
X161664290Y-95166142D01*
X161664290Y-95166142D02*
X161578576Y-94994714D01*
X161578576Y-94994714D02*
X161407148Y-94909000D01*
X161407148Y-94909000D02*
X160978576Y-94909000D01*
X160978576Y-94909000D02*
X160807148Y-94823285D01*
X159178577Y-95594714D02*
X159178577Y-93794714D01*
X159178577Y-95509000D02*
X159350005Y-95594714D01*
X159350005Y-95594714D02*
X159692862Y-95594714D01*
X159692862Y-95594714D02*
X159864291Y-95509000D01*
X159864291Y-95509000D02*
X159950005Y-95423285D01*
X159950005Y-95423285D02*
X160035719Y-95251857D01*
X160035719Y-95251857D02*
X160035719Y-94737571D01*
X160035719Y-94737571D02*
X159950005Y-94566142D01*
X159950005Y-94566142D02*
X159864291Y-94480428D01*
X159864291Y-94480428D02*
X159692862Y-94394714D01*
X159692862Y-94394714D02*
X159350005Y-94394714D01*
X159350005Y-94394714D02*
X159178577Y-94480428D01*
X157550006Y-94394714D02*
X157550006Y-95851857D01*
X157550006Y-95851857D02*
X157635720Y-96023285D01*
X157635720Y-96023285D02*
X157721434Y-96109000D01*
X157721434Y-96109000D02*
X157892863Y-96194714D01*
X157892863Y-96194714D02*
X158150006Y-96194714D01*
X158150006Y-96194714D02*
X158321434Y-96109000D01*
X157550006Y-95509000D02*
X157721434Y-95594714D01*
X157721434Y-95594714D02*
X158064291Y-95594714D01*
X158064291Y-95594714D02*
X158235720Y-95509000D01*
X158235720Y-95509000D02*
X158321434Y-95423285D01*
X158321434Y-95423285D02*
X158407148Y-95251857D01*
X158407148Y-95251857D02*
X158407148Y-94737571D01*
X158407148Y-94737571D02*
X158321434Y-94566142D01*
X158321434Y-94566142D02*
X158235720Y-94480428D01*
X158235720Y-94480428D02*
X158064291Y-94394714D01*
X158064291Y-94394714D02*
X157721434Y-94394714D01*
X157721434Y-94394714D02*
X157550006Y-94480428D01*
X156007149Y-95509000D02*
X156178577Y-95594714D01*
X156178577Y-95594714D02*
X156521435Y-95594714D01*
X156521435Y-95594714D02*
X156692863Y-95509000D01*
X156692863Y-95509000D02*
X156778577Y-95337571D01*
X156778577Y-95337571D02*
X156778577Y-94651857D01*
X156778577Y-94651857D02*
X156692863Y-94480428D01*
X156692863Y-94480428D02*
X156521435Y-94394714D01*
X156521435Y-94394714D02*
X156178577Y-94394714D01*
X156178577Y-94394714D02*
X156007149Y-94480428D01*
X156007149Y-94480428D02*
X155921435Y-94651857D01*
X155921435Y-94651857D02*
X155921435Y-94823285D01*
X155921435Y-94823285D02*
X156778577Y-94994714D01*
X203918809Y-92600238D02*
X203918809Y-90600238D01*
X203918809Y-90600238D02*
X203442619Y-90600238D01*
X203442619Y-90600238D02*
X203156904Y-90695476D01*
X203156904Y-90695476D02*
X202966428Y-90885952D01*
X202966428Y-90885952D02*
X202871190Y-91076428D01*
X202871190Y-91076428D02*
X202775952Y-91457380D01*
X202775952Y-91457380D02*
X202775952Y-91743095D01*
X202775952Y-91743095D02*
X202871190Y-92124047D01*
X202871190Y-92124047D02*
X202966428Y-92314523D01*
X202966428Y-92314523D02*
X203156904Y-92505000D01*
X203156904Y-92505000D02*
X203442619Y-92600238D01*
X203442619Y-92600238D02*
X203918809Y-92600238D01*
X201156904Y-92505000D02*
X201347380Y-92600238D01*
X201347380Y-92600238D02*
X201728333Y-92600238D01*
X201728333Y-92600238D02*
X201918809Y-92505000D01*
X201918809Y-92505000D02*
X202014047Y-92314523D01*
X202014047Y-92314523D02*
X202014047Y-91552619D01*
X202014047Y-91552619D02*
X201918809Y-91362142D01*
X201918809Y-91362142D02*
X201728333Y-91266904D01*
X201728333Y-91266904D02*
X201347380Y-91266904D01*
X201347380Y-91266904D02*
X201156904Y-91362142D01*
X201156904Y-91362142D02*
X201061666Y-91552619D01*
X201061666Y-91552619D02*
X201061666Y-91743095D01*
X201061666Y-91743095D02*
X202014047Y-91933571D01*
X200299761Y-92505000D02*
X200109285Y-92600238D01*
X200109285Y-92600238D02*
X199728333Y-92600238D01*
X199728333Y-92600238D02*
X199537856Y-92505000D01*
X199537856Y-92505000D02*
X199442618Y-92314523D01*
X199442618Y-92314523D02*
X199442618Y-92219285D01*
X199442618Y-92219285D02*
X199537856Y-92028809D01*
X199537856Y-92028809D02*
X199728333Y-91933571D01*
X199728333Y-91933571D02*
X200014047Y-91933571D01*
X200014047Y-91933571D02*
X200204523Y-91838333D01*
X200204523Y-91838333D02*
X200299761Y-91647857D01*
X200299761Y-91647857D02*
X200299761Y-91552619D01*
X200299761Y-91552619D02*
X200204523Y-91362142D01*
X200204523Y-91362142D02*
X200014047Y-91266904D01*
X200014047Y-91266904D02*
X199728333Y-91266904D01*
X199728333Y-91266904D02*
X199537856Y-91362142D01*
X198585475Y-92600238D02*
X198585475Y-91266904D01*
X198585475Y-90600238D02*
X198680713Y-90695476D01*
X198680713Y-90695476D02*
X198585475Y-90790714D01*
X198585475Y-90790714D02*
X198490237Y-90695476D01*
X198490237Y-90695476D02*
X198585475Y-90600238D01*
X198585475Y-90600238D02*
X198585475Y-90790714D01*
X196775951Y-91266904D02*
X196775951Y-92885952D01*
X196775951Y-92885952D02*
X196871189Y-93076428D01*
X196871189Y-93076428D02*
X196966427Y-93171666D01*
X196966427Y-93171666D02*
X197156904Y-93266904D01*
X197156904Y-93266904D02*
X197442618Y-93266904D01*
X197442618Y-93266904D02*
X197633094Y-93171666D01*
X196775951Y-92505000D02*
X196966427Y-92600238D01*
X196966427Y-92600238D02*
X197347380Y-92600238D01*
X197347380Y-92600238D02*
X197537856Y-92505000D01*
X197537856Y-92505000D02*
X197633094Y-92409761D01*
X197633094Y-92409761D02*
X197728332Y-92219285D01*
X197728332Y-92219285D02*
X197728332Y-91647857D01*
X197728332Y-91647857D02*
X197633094Y-91457380D01*
X197633094Y-91457380D02*
X197537856Y-91362142D01*
X197537856Y-91362142D02*
X197347380Y-91266904D01*
X197347380Y-91266904D02*
X196966427Y-91266904D01*
X196966427Y-91266904D02*
X196775951Y-91362142D01*
X195823570Y-91266904D02*
X195823570Y-92600238D01*
X195823570Y-91457380D02*
X195728332Y-91362142D01*
X195728332Y-91362142D02*
X195537856Y-91266904D01*
X195537856Y-91266904D02*
X195252141Y-91266904D01*
X195252141Y-91266904D02*
X195061665Y-91362142D01*
X195061665Y-91362142D02*
X194966427Y-91552619D01*
X194966427Y-91552619D02*
X194966427Y-92600238D01*
X192490236Y-92600238D02*
X192490236Y-90600238D01*
X192490236Y-91362142D02*
X192299760Y-91266904D01*
X192299760Y-91266904D02*
X191918807Y-91266904D01*
X191918807Y-91266904D02*
X191728331Y-91362142D01*
X191728331Y-91362142D02*
X191633093Y-91457380D01*
X191633093Y-91457380D02*
X191537855Y-91647857D01*
X191537855Y-91647857D02*
X191537855Y-92219285D01*
X191537855Y-92219285D02*
X191633093Y-92409761D01*
X191633093Y-92409761D02*
X191728331Y-92505000D01*
X191728331Y-92505000D02*
X191918807Y-92600238D01*
X191918807Y-92600238D02*
X192299760Y-92600238D01*
X192299760Y-92600238D02*
X192490236Y-92505000D01*
X190871188Y-91266904D02*
X190394998Y-92600238D01*
X189918807Y-91266904D02*
X190394998Y-92600238D01*
X190394998Y-92600238D02*
X190585474Y-93076428D01*
X190585474Y-93076428D02*
X190680712Y-93171666D01*
X190680712Y-93171666D02*
X190871188Y-93266904D01*
X187633092Y-92600238D02*
X187633092Y-90600238D01*
X187633092Y-90600238D02*
X187156902Y-90600238D01*
X187156902Y-90600238D02*
X186871187Y-90695476D01*
X186871187Y-90695476D02*
X186680711Y-90885952D01*
X186680711Y-90885952D02*
X186585473Y-91076428D01*
X186585473Y-91076428D02*
X186490235Y-91457380D01*
X186490235Y-91457380D02*
X186490235Y-91743095D01*
X186490235Y-91743095D02*
X186585473Y-92124047D01*
X186585473Y-92124047D02*
X186680711Y-92314523D01*
X186680711Y-92314523D02*
X186871187Y-92505000D01*
X186871187Y-92505000D02*
X187156902Y-92600238D01*
X187156902Y-92600238D02*
X187633092Y-92600238D01*
X184490235Y-92409761D02*
X184585473Y-92505000D01*
X184585473Y-92505000D02*
X184871187Y-92600238D01*
X184871187Y-92600238D02*
X185061663Y-92600238D01*
X185061663Y-92600238D02*
X185347378Y-92505000D01*
X185347378Y-92505000D02*
X185537854Y-92314523D01*
X185537854Y-92314523D02*
X185633092Y-92124047D01*
X185633092Y-92124047D02*
X185728330Y-91743095D01*
X185728330Y-91743095D02*
X185728330Y-91457380D01*
X185728330Y-91457380D02*
X185633092Y-91076428D01*
X185633092Y-91076428D02*
X185537854Y-90885952D01*
X185537854Y-90885952D02*
X185347378Y-90695476D01*
X185347378Y-90695476D02*
X185061663Y-90600238D01*
X185061663Y-90600238D02*
X184871187Y-90600238D01*
X184871187Y-90600238D02*
X184585473Y-90695476D01*
X184585473Y-90695476D02*
X184490235Y-90790714D01*
X183823568Y-90600238D02*
X182490235Y-90600238D01*
X182490235Y-90600238D02*
X183823568Y-92600238D01*
X183823568Y-92600238D02*
X182490235Y-92600238D01*
X181728330Y-92600238D02*
X181728330Y-91266904D01*
X181728330Y-90600238D02*
X181823568Y-90695476D01*
X181823568Y-90695476D02*
X181728330Y-90790714D01*
X181728330Y-90790714D02*
X181633092Y-90695476D01*
X181633092Y-90695476D02*
X181728330Y-90600238D01*
X181728330Y-90600238D02*
X181728330Y-90790714D01*
X179918806Y-92600238D02*
X179918806Y-91552619D01*
X179918806Y-91552619D02*
X180014044Y-91362142D01*
X180014044Y-91362142D02*
X180204520Y-91266904D01*
X180204520Y-91266904D02*
X180585473Y-91266904D01*
X180585473Y-91266904D02*
X180775949Y-91362142D01*
X179918806Y-92505000D02*
X180109282Y-92600238D01*
X180109282Y-92600238D02*
X180585473Y-92600238D01*
X180585473Y-92600238D02*
X180775949Y-92505000D01*
X180775949Y-92505000D02*
X180871187Y-92314523D01*
X180871187Y-92314523D02*
X180871187Y-92124047D01*
X180871187Y-92124047D02*
X180775949Y-91933571D01*
X180775949Y-91933571D02*
X180585473Y-91838333D01*
X180585473Y-91838333D02*
X180109282Y-91838333D01*
X180109282Y-91838333D02*
X179918806Y-91743095D01*
X177728329Y-90600238D02*
X176585472Y-90600238D01*
X177156901Y-92600238D02*
X177156901Y-90600238D01*
X175156900Y-92505000D02*
X175347376Y-92600238D01*
X175347376Y-92600238D02*
X175728329Y-92600238D01*
X175728329Y-92600238D02*
X175918805Y-92505000D01*
X175918805Y-92505000D02*
X176014043Y-92314523D01*
X176014043Y-92314523D02*
X176014043Y-91552619D01*
X176014043Y-91552619D02*
X175918805Y-91362142D01*
X175918805Y-91362142D02*
X175728329Y-91266904D01*
X175728329Y-91266904D02*
X175347376Y-91266904D01*
X175347376Y-91266904D02*
X175156900Y-91362142D01*
X175156900Y-91362142D02*
X175061662Y-91552619D01*
X175061662Y-91552619D02*
X175061662Y-91743095D01*
X175061662Y-91743095D02*
X176014043Y-91933571D01*
X173347376Y-92600238D02*
X173347376Y-91552619D01*
X173347376Y-91552619D02*
X173442614Y-91362142D01*
X173442614Y-91362142D02*
X173633090Y-91266904D01*
X173633090Y-91266904D02*
X174014043Y-91266904D01*
X174014043Y-91266904D02*
X174204519Y-91362142D01*
X173347376Y-92505000D02*
X173537852Y-92600238D01*
X173537852Y-92600238D02*
X174014043Y-92600238D01*
X174014043Y-92600238D02*
X174204519Y-92505000D01*
X174204519Y-92505000D02*
X174299757Y-92314523D01*
X174299757Y-92314523D02*
X174299757Y-92124047D01*
X174299757Y-92124047D02*
X174204519Y-91933571D01*
X174204519Y-91933571D02*
X174014043Y-91838333D01*
X174014043Y-91838333D02*
X173537852Y-91838333D01*
X173537852Y-91838333D02*
X173347376Y-91743095D01*
X172394995Y-92600238D02*
X172394995Y-91266904D01*
X172394995Y-91457380D02*
X172299757Y-91362142D01*
X172299757Y-91362142D02*
X172109281Y-91266904D01*
X172109281Y-91266904D02*
X171823566Y-91266904D01*
X171823566Y-91266904D02*
X171633090Y-91362142D01*
X171633090Y-91362142D02*
X171537852Y-91552619D01*
X171537852Y-91552619D02*
X171537852Y-92600238D01*
X171537852Y-91552619D02*
X171442614Y-91362142D01*
X171442614Y-91362142D02*
X171252138Y-91266904D01*
X171252138Y-91266904D02*
X170966424Y-91266904D01*
X170966424Y-91266904D02*
X170775947Y-91362142D01*
X170775947Y-91362142D02*
X170680709Y-91552619D01*
X170680709Y-91552619D02*
X170680709Y-92600238D01*
X168299756Y-90790714D02*
X168204518Y-90695476D01*
X168204518Y-90695476D02*
X168014042Y-90600238D01*
X168014042Y-90600238D02*
X167537851Y-90600238D01*
X167537851Y-90600238D02*
X167347375Y-90695476D01*
X167347375Y-90695476D02*
X167252137Y-90790714D01*
X167252137Y-90790714D02*
X167156899Y-90981190D01*
X167156899Y-90981190D02*
X167156899Y-91171666D01*
X167156899Y-91171666D02*
X167252137Y-91457380D01*
X167252137Y-91457380D02*
X168394994Y-92600238D01*
X168394994Y-92600238D02*
X167156899Y-92600238D01*
X165918804Y-90600238D02*
X165728327Y-90600238D01*
X165728327Y-90600238D02*
X165537851Y-90695476D01*
X165537851Y-90695476D02*
X165442613Y-90790714D01*
X165442613Y-90790714D02*
X165347375Y-90981190D01*
X165347375Y-90981190D02*
X165252137Y-91362142D01*
X165252137Y-91362142D02*
X165252137Y-91838333D01*
X165252137Y-91838333D02*
X165347375Y-92219285D01*
X165347375Y-92219285D02*
X165442613Y-92409761D01*
X165442613Y-92409761D02*
X165537851Y-92505000D01*
X165537851Y-92505000D02*
X165728327Y-92600238D01*
X165728327Y-92600238D02*
X165918804Y-92600238D01*
X165918804Y-92600238D02*
X166109280Y-92505000D01*
X166109280Y-92505000D02*
X166204518Y-92409761D01*
X166204518Y-92409761D02*
X166299756Y-92219285D01*
X166299756Y-92219285D02*
X166394994Y-91838333D01*
X166394994Y-91838333D02*
X166394994Y-91362142D01*
X166394994Y-91362142D02*
X166299756Y-90981190D01*
X166299756Y-90981190D02*
X166204518Y-90790714D01*
X166204518Y-90790714D02*
X166109280Y-90695476D01*
X166109280Y-90695476D02*
X165918804Y-90600238D01*
X164490232Y-90790714D02*
X164394994Y-90695476D01*
X164394994Y-90695476D02*
X164204518Y-90600238D01*
X164204518Y-90600238D02*
X163728327Y-90600238D01*
X163728327Y-90600238D02*
X163537851Y-90695476D01*
X163537851Y-90695476D02*
X163442613Y-90790714D01*
X163442613Y-90790714D02*
X163347375Y-90981190D01*
X163347375Y-90981190D02*
X163347375Y-91171666D01*
X163347375Y-91171666D02*
X163442613Y-91457380D01*
X163442613Y-91457380D02*
X164585470Y-92600238D01*
X164585470Y-92600238D02*
X163347375Y-92600238D01*
X162680708Y-90600238D02*
X161442613Y-90600238D01*
X161442613Y-90600238D02*
X162109280Y-91362142D01*
X162109280Y-91362142D02*
X161823565Y-91362142D01*
X161823565Y-91362142D02*
X161633089Y-91457380D01*
X161633089Y-91457380D02*
X161537851Y-91552619D01*
X161537851Y-91552619D02*
X161442613Y-91743095D01*
X161442613Y-91743095D02*
X161442613Y-92219285D01*
X161442613Y-92219285D02*
X161537851Y-92409761D01*
X161537851Y-92409761D02*
X161633089Y-92505000D01*
X161633089Y-92505000D02*
X161823565Y-92600238D01*
X161823565Y-92600238D02*
X162394994Y-92600238D01*
X162394994Y-92600238D02*
X162585470Y-92505000D01*
X162585470Y-92505000D02*
X162680708Y-92409761D01*
X203938809Y-89845238D02*
X203938809Y-87845238D01*
X203938809Y-87845238D02*
X203462619Y-87845238D01*
X203462619Y-87845238D02*
X203176904Y-87940476D01*
X203176904Y-87940476D02*
X202986428Y-88130952D01*
X202986428Y-88130952D02*
X202891190Y-88321428D01*
X202891190Y-88321428D02*
X202795952Y-88702380D01*
X202795952Y-88702380D02*
X202795952Y-88988095D01*
X202795952Y-88988095D02*
X202891190Y-89369047D01*
X202891190Y-89369047D02*
X202986428Y-89559523D01*
X202986428Y-89559523D02*
X203176904Y-89750000D01*
X203176904Y-89750000D02*
X203462619Y-89845238D01*
X203462619Y-89845238D02*
X203938809Y-89845238D01*
X200795952Y-89654761D02*
X200891190Y-89750000D01*
X200891190Y-89750000D02*
X201176904Y-89845238D01*
X201176904Y-89845238D02*
X201367380Y-89845238D01*
X201367380Y-89845238D02*
X201653095Y-89750000D01*
X201653095Y-89750000D02*
X201843571Y-89559523D01*
X201843571Y-89559523D02*
X201938809Y-89369047D01*
X201938809Y-89369047D02*
X202034047Y-88988095D01*
X202034047Y-88988095D02*
X202034047Y-88702380D01*
X202034047Y-88702380D02*
X201938809Y-88321428D01*
X201938809Y-88321428D02*
X201843571Y-88130952D01*
X201843571Y-88130952D02*
X201653095Y-87940476D01*
X201653095Y-87940476D02*
X201367380Y-87845238D01*
X201367380Y-87845238D02*
X201176904Y-87845238D01*
X201176904Y-87845238D02*
X200891190Y-87940476D01*
X200891190Y-87940476D02*
X200795952Y-88035714D01*
X200129285Y-87845238D02*
X198795952Y-87845238D01*
X198795952Y-87845238D02*
X200129285Y-89845238D01*
X200129285Y-89845238D02*
X198795952Y-89845238D01*
X198034047Y-89845238D02*
X198034047Y-88511904D01*
X198034047Y-87845238D02*
X198129285Y-87940476D01*
X198129285Y-87940476D02*
X198034047Y-88035714D01*
X198034047Y-88035714D02*
X197938809Y-87940476D01*
X197938809Y-87940476D02*
X198034047Y-87845238D01*
X198034047Y-87845238D02*
X198034047Y-88035714D01*
X196224523Y-89845238D02*
X196224523Y-88797619D01*
X196224523Y-88797619D02*
X196319761Y-88607142D01*
X196319761Y-88607142D02*
X196510237Y-88511904D01*
X196510237Y-88511904D02*
X196891190Y-88511904D01*
X196891190Y-88511904D02*
X197081666Y-88607142D01*
X196224523Y-89750000D02*
X196414999Y-89845238D01*
X196414999Y-89845238D02*
X196891190Y-89845238D01*
X196891190Y-89845238D02*
X197081666Y-89750000D01*
X197081666Y-89750000D02*
X197176904Y-89559523D01*
X197176904Y-89559523D02*
X197176904Y-89369047D01*
X197176904Y-89369047D02*
X197081666Y-89178571D01*
X197081666Y-89178571D02*
X196891190Y-89083333D01*
X196891190Y-89083333D02*
X196414999Y-89083333D01*
X196414999Y-89083333D02*
X196224523Y-88988095D01*
X193748332Y-88797619D02*
X193081665Y-88797619D01*
X192795951Y-89845238D02*
X193748332Y-89845238D01*
X193748332Y-89845238D02*
X193748332Y-87845238D01*
X193748332Y-87845238D02*
X192795951Y-87845238D01*
X191653094Y-89845238D02*
X191843570Y-89750000D01*
X191843570Y-89750000D02*
X191938808Y-89559523D01*
X191938808Y-89559523D02*
X191938808Y-87845238D01*
X190129284Y-89750000D02*
X190319760Y-89845238D01*
X190319760Y-89845238D02*
X190700713Y-89845238D01*
X190700713Y-89845238D02*
X190891189Y-89750000D01*
X190891189Y-89750000D02*
X190986427Y-89559523D01*
X190986427Y-89559523D02*
X190986427Y-88797619D01*
X190986427Y-88797619D02*
X190891189Y-88607142D01*
X190891189Y-88607142D02*
X190700713Y-88511904D01*
X190700713Y-88511904D02*
X190319760Y-88511904D01*
X190319760Y-88511904D02*
X190129284Y-88607142D01*
X190129284Y-88607142D02*
X190034046Y-88797619D01*
X190034046Y-88797619D02*
X190034046Y-88988095D01*
X190034046Y-88988095D02*
X190986427Y-89178571D01*
X188319760Y-89750000D02*
X188510236Y-89845238D01*
X188510236Y-89845238D02*
X188891189Y-89845238D01*
X188891189Y-89845238D02*
X189081665Y-89750000D01*
X189081665Y-89750000D02*
X189176903Y-89654761D01*
X189176903Y-89654761D02*
X189272141Y-89464285D01*
X189272141Y-89464285D02*
X189272141Y-88892857D01*
X189272141Y-88892857D02*
X189176903Y-88702380D01*
X189176903Y-88702380D02*
X189081665Y-88607142D01*
X189081665Y-88607142D02*
X188891189Y-88511904D01*
X188891189Y-88511904D02*
X188510236Y-88511904D01*
X188510236Y-88511904D02*
X188319760Y-88607142D01*
X187748331Y-88511904D02*
X186986427Y-88511904D01*
X187462617Y-87845238D02*
X187462617Y-89559523D01*
X187462617Y-89559523D02*
X187367379Y-89750000D01*
X187367379Y-89750000D02*
X187176903Y-89845238D01*
X187176903Y-89845238D02*
X186986427Y-89845238D01*
X186319760Y-89845238D02*
X186319760Y-88511904D01*
X186319760Y-88892857D02*
X186224522Y-88702380D01*
X186224522Y-88702380D02*
X186129284Y-88607142D01*
X186129284Y-88607142D02*
X185938808Y-88511904D01*
X185938808Y-88511904D02*
X185748331Y-88511904D01*
X185081665Y-89845238D02*
X185081665Y-88511904D01*
X185081665Y-87845238D02*
X185176903Y-87940476D01*
X185176903Y-87940476D02*
X185081665Y-88035714D01*
X185081665Y-88035714D02*
X184986427Y-87940476D01*
X184986427Y-87940476D02*
X185081665Y-87845238D01*
X185081665Y-87845238D02*
X185081665Y-88035714D01*
X183272141Y-89750000D02*
X183462617Y-89845238D01*
X183462617Y-89845238D02*
X183843570Y-89845238D01*
X183843570Y-89845238D02*
X184034046Y-89750000D01*
X184034046Y-89750000D02*
X184129284Y-89654761D01*
X184129284Y-89654761D02*
X184224522Y-89464285D01*
X184224522Y-89464285D02*
X184224522Y-88892857D01*
X184224522Y-88892857D02*
X184129284Y-88702380D01*
X184129284Y-88702380D02*
X184034046Y-88607142D01*
X184034046Y-88607142D02*
X183843570Y-88511904D01*
X183843570Y-88511904D02*
X183462617Y-88511904D01*
X183462617Y-88511904D02*
X183272141Y-88607142D01*
X180986426Y-89750000D02*
X180700712Y-89845238D01*
X180700712Y-89845238D02*
X180224521Y-89845238D01*
X180224521Y-89845238D02*
X180034045Y-89750000D01*
X180034045Y-89750000D02*
X179938807Y-89654761D01*
X179938807Y-89654761D02*
X179843569Y-89464285D01*
X179843569Y-89464285D02*
X179843569Y-89273809D01*
X179843569Y-89273809D02*
X179938807Y-89083333D01*
X179938807Y-89083333D02*
X180034045Y-88988095D01*
X180034045Y-88988095D02*
X180224521Y-88892857D01*
X180224521Y-88892857D02*
X180605474Y-88797619D01*
X180605474Y-88797619D02*
X180795950Y-88702380D01*
X180795950Y-88702380D02*
X180891188Y-88607142D01*
X180891188Y-88607142D02*
X180986426Y-88416666D01*
X180986426Y-88416666D02*
X180986426Y-88226190D01*
X180986426Y-88226190D02*
X180891188Y-88035714D01*
X180891188Y-88035714D02*
X180795950Y-87940476D01*
X180795950Y-87940476D02*
X180605474Y-87845238D01*
X180605474Y-87845238D02*
X180129283Y-87845238D01*
X180129283Y-87845238D02*
X179843569Y-87940476D01*
X178129283Y-89845238D02*
X178129283Y-88797619D01*
X178129283Y-88797619D02*
X178224521Y-88607142D01*
X178224521Y-88607142D02*
X178414997Y-88511904D01*
X178414997Y-88511904D02*
X178795950Y-88511904D01*
X178795950Y-88511904D02*
X178986426Y-88607142D01*
X178129283Y-89750000D02*
X178319759Y-89845238D01*
X178319759Y-89845238D02*
X178795950Y-89845238D01*
X178795950Y-89845238D02*
X178986426Y-89750000D01*
X178986426Y-89750000D02*
X179081664Y-89559523D01*
X179081664Y-89559523D02*
X179081664Y-89369047D01*
X179081664Y-89369047D02*
X178986426Y-89178571D01*
X178986426Y-89178571D02*
X178795950Y-89083333D01*
X178795950Y-89083333D02*
X178319759Y-89083333D01*
X178319759Y-89083333D02*
X178129283Y-88988095D01*
X177176902Y-89845238D02*
X177176902Y-88511904D01*
X177176902Y-88702380D02*
X177081664Y-88607142D01*
X177081664Y-88607142D02*
X176891188Y-88511904D01*
X176891188Y-88511904D02*
X176605473Y-88511904D01*
X176605473Y-88511904D02*
X176414997Y-88607142D01*
X176414997Y-88607142D02*
X176319759Y-88797619D01*
X176319759Y-88797619D02*
X176319759Y-89845238D01*
X176319759Y-88797619D02*
X176224521Y-88607142D01*
X176224521Y-88607142D02*
X176034045Y-88511904D01*
X176034045Y-88511904D02*
X175748331Y-88511904D01*
X175748331Y-88511904D02*
X175557854Y-88607142D01*
X175557854Y-88607142D02*
X175462616Y-88797619D01*
X175462616Y-88797619D02*
X175462616Y-89845238D01*
X174510235Y-88511904D02*
X174510235Y-90511904D01*
X174510235Y-88607142D02*
X174319759Y-88511904D01*
X174319759Y-88511904D02*
X173938806Y-88511904D01*
X173938806Y-88511904D02*
X173748330Y-88607142D01*
X173748330Y-88607142D02*
X173653092Y-88702380D01*
X173653092Y-88702380D02*
X173557854Y-88892857D01*
X173557854Y-88892857D02*
X173557854Y-89464285D01*
X173557854Y-89464285D02*
X173653092Y-89654761D01*
X173653092Y-89654761D02*
X173748330Y-89750000D01*
X173748330Y-89750000D02*
X173938806Y-89845238D01*
X173938806Y-89845238D02*
X174319759Y-89845238D01*
X174319759Y-89845238D02*
X174510235Y-89750000D01*
X172414997Y-89845238D02*
X172605473Y-89750000D01*
X172605473Y-89750000D02*
X172700711Y-89559523D01*
X172700711Y-89559523D02*
X172700711Y-87845238D01*
X170891187Y-89750000D02*
X171081663Y-89845238D01*
X171081663Y-89845238D02*
X171462616Y-89845238D01*
X171462616Y-89845238D02*
X171653092Y-89750000D01*
X171653092Y-89750000D02*
X171748330Y-89559523D01*
X171748330Y-89559523D02*
X171748330Y-88797619D01*
X171748330Y-88797619D02*
X171653092Y-88607142D01*
X171653092Y-88607142D02*
X171462616Y-88511904D01*
X171462616Y-88511904D02*
X171081663Y-88511904D01*
X171081663Y-88511904D02*
X170891187Y-88607142D01*
X170891187Y-88607142D02*
X170795949Y-88797619D01*
X170795949Y-88797619D02*
X170795949Y-88988095D01*
X170795949Y-88988095D02*
X171748330Y-89178571D01*
X169938806Y-89845238D02*
X169938806Y-88511904D01*
X169938806Y-88892857D02*
X169843568Y-88702380D01*
X169843568Y-88702380D02*
X169748330Y-88607142D01*
X169748330Y-88607142D02*
X169557854Y-88511904D01*
X169557854Y-88511904D02*
X169367377Y-88511904D01*
D11*
%TO.C,J101*%
X198315714Y-136292619D02*
X198315714Y-137006904D01*
X198315714Y-137006904D02*
X198363333Y-137149761D01*
X198363333Y-137149761D02*
X198458571Y-137245000D01*
X198458571Y-137245000D02*
X198601428Y-137292619D01*
X198601428Y-137292619D02*
X198696666Y-137292619D01*
X197315714Y-137292619D02*
X197887142Y-137292619D01*
X197601428Y-137292619D02*
X197601428Y-136292619D01*
X197601428Y-136292619D02*
X197696666Y-136435476D01*
X197696666Y-136435476D02*
X197791904Y-136530714D01*
X197791904Y-136530714D02*
X197887142Y-136578333D01*
X196696666Y-136292619D02*
X196601428Y-136292619D01*
X196601428Y-136292619D02*
X196506190Y-136340238D01*
X196506190Y-136340238D02*
X196458571Y-136387857D01*
X196458571Y-136387857D02*
X196410952Y-136483095D01*
X196410952Y-136483095D02*
X196363333Y-136673571D01*
X196363333Y-136673571D02*
X196363333Y-136911666D01*
X196363333Y-136911666D02*
X196410952Y-137102142D01*
X196410952Y-137102142D02*
X196458571Y-137197380D01*
X196458571Y-137197380D02*
X196506190Y-137245000D01*
X196506190Y-137245000D02*
X196601428Y-137292619D01*
X196601428Y-137292619D02*
X196696666Y-137292619D01*
X196696666Y-137292619D02*
X196791904Y-137245000D01*
X196791904Y-137245000D02*
X196839523Y-137197380D01*
X196839523Y-137197380D02*
X196887142Y-137102142D01*
X196887142Y-137102142D02*
X196934761Y-136911666D01*
X196934761Y-136911666D02*
X196934761Y-136673571D01*
X196934761Y-136673571D02*
X196887142Y-136483095D01*
X196887142Y-136483095D02*
X196839523Y-136387857D01*
X196839523Y-136387857D02*
X196791904Y-136340238D01*
X196791904Y-136340238D02*
X196696666Y-136292619D01*
X195410952Y-137292619D02*
X195982380Y-137292619D01*
X195696666Y-137292619D02*
X195696666Y-136292619D01*
X195696666Y-136292619D02*
X195791904Y-136435476D01*
X195791904Y-136435476D02*
X195887142Y-136530714D01*
X195887142Y-136530714D02*
X195982380Y-136578333D01*
%TO.C,C103*%
X134329047Y-77177380D02*
X134376666Y-77225000D01*
X134376666Y-77225000D02*
X134519523Y-77272619D01*
X134519523Y-77272619D02*
X134614761Y-77272619D01*
X134614761Y-77272619D02*
X134757618Y-77225000D01*
X134757618Y-77225000D02*
X134852856Y-77129761D01*
X134852856Y-77129761D02*
X134900475Y-77034523D01*
X134900475Y-77034523D02*
X134948094Y-76844047D01*
X134948094Y-76844047D02*
X134948094Y-76701190D01*
X134948094Y-76701190D02*
X134900475Y-76510714D01*
X134900475Y-76510714D02*
X134852856Y-76415476D01*
X134852856Y-76415476D02*
X134757618Y-76320238D01*
X134757618Y-76320238D02*
X134614761Y-76272619D01*
X134614761Y-76272619D02*
X134519523Y-76272619D01*
X134519523Y-76272619D02*
X134376666Y-76320238D01*
X134376666Y-76320238D02*
X134329047Y-76367857D01*
X133376666Y-77272619D02*
X133948094Y-77272619D01*
X133662380Y-77272619D02*
X133662380Y-76272619D01*
X133662380Y-76272619D02*
X133757618Y-76415476D01*
X133757618Y-76415476D02*
X133852856Y-76510714D01*
X133852856Y-76510714D02*
X133948094Y-76558333D01*
X132757618Y-76272619D02*
X132662380Y-76272619D01*
X132662380Y-76272619D02*
X132567142Y-76320238D01*
X132567142Y-76320238D02*
X132519523Y-76367857D01*
X132519523Y-76367857D02*
X132471904Y-76463095D01*
X132471904Y-76463095D02*
X132424285Y-76653571D01*
X132424285Y-76653571D02*
X132424285Y-76891666D01*
X132424285Y-76891666D02*
X132471904Y-77082142D01*
X132471904Y-77082142D02*
X132519523Y-77177380D01*
X132519523Y-77177380D02*
X132567142Y-77225000D01*
X132567142Y-77225000D02*
X132662380Y-77272619D01*
X132662380Y-77272619D02*
X132757618Y-77272619D01*
X132757618Y-77272619D02*
X132852856Y-77225000D01*
X132852856Y-77225000D02*
X132900475Y-77177380D01*
X132900475Y-77177380D02*
X132948094Y-77082142D01*
X132948094Y-77082142D02*
X132995713Y-76891666D01*
X132995713Y-76891666D02*
X132995713Y-76653571D01*
X132995713Y-76653571D02*
X132948094Y-76463095D01*
X132948094Y-76463095D02*
X132900475Y-76367857D01*
X132900475Y-76367857D02*
X132852856Y-76320238D01*
X132852856Y-76320238D02*
X132757618Y-76272619D01*
X132090951Y-76272619D02*
X131471904Y-76272619D01*
X131471904Y-76272619D02*
X131805237Y-76653571D01*
X131805237Y-76653571D02*
X131662380Y-76653571D01*
X131662380Y-76653571D02*
X131567142Y-76701190D01*
X131567142Y-76701190D02*
X131519523Y-76748809D01*
X131519523Y-76748809D02*
X131471904Y-76844047D01*
X131471904Y-76844047D02*
X131471904Y-77082142D01*
X131471904Y-77082142D02*
X131519523Y-77177380D01*
X131519523Y-77177380D02*
X131567142Y-77225000D01*
X131567142Y-77225000D02*
X131662380Y-77272619D01*
X131662380Y-77272619D02*
X131948094Y-77272619D01*
X131948094Y-77272619D02*
X132043332Y-77225000D01*
X132043332Y-77225000D02*
X132090951Y-77177380D01*
%TO.C,C102*%
X153989047Y-105667380D02*
X154036666Y-105715000D01*
X154036666Y-105715000D02*
X154179523Y-105762619D01*
X154179523Y-105762619D02*
X154274761Y-105762619D01*
X154274761Y-105762619D02*
X154417618Y-105715000D01*
X154417618Y-105715000D02*
X154512856Y-105619761D01*
X154512856Y-105619761D02*
X154560475Y-105524523D01*
X154560475Y-105524523D02*
X154608094Y-105334047D01*
X154608094Y-105334047D02*
X154608094Y-105191190D01*
X154608094Y-105191190D02*
X154560475Y-105000714D01*
X154560475Y-105000714D02*
X154512856Y-104905476D01*
X154512856Y-104905476D02*
X154417618Y-104810238D01*
X154417618Y-104810238D02*
X154274761Y-104762619D01*
X154274761Y-104762619D02*
X154179523Y-104762619D01*
X154179523Y-104762619D02*
X154036666Y-104810238D01*
X154036666Y-104810238D02*
X153989047Y-104857857D01*
X153036666Y-105762619D02*
X153608094Y-105762619D01*
X153322380Y-105762619D02*
X153322380Y-104762619D01*
X153322380Y-104762619D02*
X153417618Y-104905476D01*
X153417618Y-104905476D02*
X153512856Y-105000714D01*
X153512856Y-105000714D02*
X153608094Y-105048333D01*
X152417618Y-104762619D02*
X152322380Y-104762619D01*
X152322380Y-104762619D02*
X152227142Y-104810238D01*
X152227142Y-104810238D02*
X152179523Y-104857857D01*
X152179523Y-104857857D02*
X152131904Y-104953095D01*
X152131904Y-104953095D02*
X152084285Y-105143571D01*
X152084285Y-105143571D02*
X152084285Y-105381666D01*
X152084285Y-105381666D02*
X152131904Y-105572142D01*
X152131904Y-105572142D02*
X152179523Y-105667380D01*
X152179523Y-105667380D02*
X152227142Y-105715000D01*
X152227142Y-105715000D02*
X152322380Y-105762619D01*
X152322380Y-105762619D02*
X152417618Y-105762619D01*
X152417618Y-105762619D02*
X152512856Y-105715000D01*
X152512856Y-105715000D02*
X152560475Y-105667380D01*
X152560475Y-105667380D02*
X152608094Y-105572142D01*
X152608094Y-105572142D02*
X152655713Y-105381666D01*
X152655713Y-105381666D02*
X152655713Y-105143571D01*
X152655713Y-105143571D02*
X152608094Y-104953095D01*
X152608094Y-104953095D02*
X152560475Y-104857857D01*
X152560475Y-104857857D02*
X152512856Y-104810238D01*
X152512856Y-104810238D02*
X152417618Y-104762619D01*
X151703332Y-104857857D02*
X151655713Y-104810238D01*
X151655713Y-104810238D02*
X151560475Y-104762619D01*
X151560475Y-104762619D02*
X151322380Y-104762619D01*
X151322380Y-104762619D02*
X151227142Y-104810238D01*
X151227142Y-104810238D02*
X151179523Y-104857857D01*
X151179523Y-104857857D02*
X151131904Y-104953095D01*
X151131904Y-104953095D02*
X151131904Y-105048333D01*
X151131904Y-105048333D02*
X151179523Y-105191190D01*
X151179523Y-105191190D02*
X151750951Y-105762619D01*
X151750951Y-105762619D02*
X151131904Y-105762619D01*
%TO.C,C101*%
X193409047Y-155022380D02*
X193456666Y-155070000D01*
X193456666Y-155070000D02*
X193599523Y-155117619D01*
X193599523Y-155117619D02*
X193694761Y-155117619D01*
X193694761Y-155117619D02*
X193837618Y-155070000D01*
X193837618Y-155070000D02*
X193932856Y-154974761D01*
X193932856Y-154974761D02*
X193980475Y-154879523D01*
X193980475Y-154879523D02*
X194028094Y-154689047D01*
X194028094Y-154689047D02*
X194028094Y-154546190D01*
X194028094Y-154546190D02*
X193980475Y-154355714D01*
X193980475Y-154355714D02*
X193932856Y-154260476D01*
X193932856Y-154260476D02*
X193837618Y-154165238D01*
X193837618Y-154165238D02*
X193694761Y-154117619D01*
X193694761Y-154117619D02*
X193599523Y-154117619D01*
X193599523Y-154117619D02*
X193456666Y-154165238D01*
X193456666Y-154165238D02*
X193409047Y-154212857D01*
X192456666Y-155117619D02*
X193028094Y-155117619D01*
X192742380Y-155117619D02*
X192742380Y-154117619D01*
X192742380Y-154117619D02*
X192837618Y-154260476D01*
X192837618Y-154260476D02*
X192932856Y-154355714D01*
X192932856Y-154355714D02*
X193028094Y-154403333D01*
X191837618Y-154117619D02*
X191742380Y-154117619D01*
X191742380Y-154117619D02*
X191647142Y-154165238D01*
X191647142Y-154165238D02*
X191599523Y-154212857D01*
X191599523Y-154212857D02*
X191551904Y-154308095D01*
X191551904Y-154308095D02*
X191504285Y-154498571D01*
X191504285Y-154498571D02*
X191504285Y-154736666D01*
X191504285Y-154736666D02*
X191551904Y-154927142D01*
X191551904Y-154927142D02*
X191599523Y-155022380D01*
X191599523Y-155022380D02*
X191647142Y-155070000D01*
X191647142Y-155070000D02*
X191742380Y-155117619D01*
X191742380Y-155117619D02*
X191837618Y-155117619D01*
X191837618Y-155117619D02*
X191932856Y-155070000D01*
X191932856Y-155070000D02*
X191980475Y-155022380D01*
X191980475Y-155022380D02*
X192028094Y-154927142D01*
X192028094Y-154927142D02*
X192075713Y-154736666D01*
X192075713Y-154736666D02*
X192075713Y-154498571D01*
X192075713Y-154498571D02*
X192028094Y-154308095D01*
X192028094Y-154308095D02*
X191980475Y-154212857D01*
X191980475Y-154212857D02*
X191932856Y-154165238D01*
X191932856Y-154165238D02*
X191837618Y-154117619D01*
X190551904Y-155117619D02*
X191123332Y-155117619D01*
X190837618Y-155117619D02*
X190837618Y-154117619D01*
X190837618Y-154117619D02*
X190932856Y-154260476D01*
X190932856Y-154260476D02*
X191028094Y-154355714D01*
X191028094Y-154355714D02*
X191123332Y-154403333D01*
%TO.C,D110*%
X144770475Y-79922619D02*
X144770475Y-78922619D01*
X144770475Y-78922619D02*
X144532380Y-78922619D01*
X144532380Y-78922619D02*
X144389523Y-78970238D01*
X144389523Y-78970238D02*
X144294285Y-79065476D01*
X144294285Y-79065476D02*
X144246666Y-79160714D01*
X144246666Y-79160714D02*
X144199047Y-79351190D01*
X144199047Y-79351190D02*
X144199047Y-79494047D01*
X144199047Y-79494047D02*
X144246666Y-79684523D01*
X144246666Y-79684523D02*
X144294285Y-79779761D01*
X144294285Y-79779761D02*
X144389523Y-79875000D01*
X144389523Y-79875000D02*
X144532380Y-79922619D01*
X144532380Y-79922619D02*
X144770475Y-79922619D01*
X143246666Y-79922619D02*
X143818094Y-79922619D01*
X143532380Y-79922619D02*
X143532380Y-78922619D01*
X143532380Y-78922619D02*
X143627618Y-79065476D01*
X143627618Y-79065476D02*
X143722856Y-79160714D01*
X143722856Y-79160714D02*
X143818094Y-79208333D01*
X142294285Y-79922619D02*
X142865713Y-79922619D01*
X142579999Y-79922619D02*
X142579999Y-78922619D01*
X142579999Y-78922619D02*
X142675237Y-79065476D01*
X142675237Y-79065476D02*
X142770475Y-79160714D01*
X142770475Y-79160714D02*
X142865713Y-79208333D01*
X141675237Y-78922619D02*
X141579999Y-78922619D01*
X141579999Y-78922619D02*
X141484761Y-78970238D01*
X141484761Y-78970238D02*
X141437142Y-79017857D01*
X141437142Y-79017857D02*
X141389523Y-79113095D01*
X141389523Y-79113095D02*
X141341904Y-79303571D01*
X141341904Y-79303571D02*
X141341904Y-79541666D01*
X141341904Y-79541666D02*
X141389523Y-79732142D01*
X141389523Y-79732142D02*
X141437142Y-79827380D01*
X141437142Y-79827380D02*
X141484761Y-79875000D01*
X141484761Y-79875000D02*
X141579999Y-79922619D01*
X141579999Y-79922619D02*
X141675237Y-79922619D01*
X141675237Y-79922619D02*
X141770475Y-79875000D01*
X141770475Y-79875000D02*
X141818094Y-79827380D01*
X141818094Y-79827380D02*
X141865713Y-79732142D01*
X141865713Y-79732142D02*
X141913332Y-79541666D01*
X141913332Y-79541666D02*
X141913332Y-79303571D01*
X141913332Y-79303571D02*
X141865713Y-79113095D01*
X141865713Y-79113095D02*
X141818094Y-79017857D01*
X141818094Y-79017857D02*
X141770475Y-78970238D01*
X141770475Y-78970238D02*
X141675237Y-78922619D01*
%TO.C,D109*%
X125630475Y-79792619D02*
X125630475Y-78792619D01*
X125630475Y-78792619D02*
X125392380Y-78792619D01*
X125392380Y-78792619D02*
X125249523Y-78840238D01*
X125249523Y-78840238D02*
X125154285Y-78935476D01*
X125154285Y-78935476D02*
X125106666Y-79030714D01*
X125106666Y-79030714D02*
X125059047Y-79221190D01*
X125059047Y-79221190D02*
X125059047Y-79364047D01*
X125059047Y-79364047D02*
X125106666Y-79554523D01*
X125106666Y-79554523D02*
X125154285Y-79649761D01*
X125154285Y-79649761D02*
X125249523Y-79745000D01*
X125249523Y-79745000D02*
X125392380Y-79792619D01*
X125392380Y-79792619D02*
X125630475Y-79792619D01*
X124106666Y-79792619D02*
X124678094Y-79792619D01*
X124392380Y-79792619D02*
X124392380Y-78792619D01*
X124392380Y-78792619D02*
X124487618Y-78935476D01*
X124487618Y-78935476D02*
X124582856Y-79030714D01*
X124582856Y-79030714D02*
X124678094Y-79078333D01*
X123487618Y-78792619D02*
X123392380Y-78792619D01*
X123392380Y-78792619D02*
X123297142Y-78840238D01*
X123297142Y-78840238D02*
X123249523Y-78887857D01*
X123249523Y-78887857D02*
X123201904Y-78983095D01*
X123201904Y-78983095D02*
X123154285Y-79173571D01*
X123154285Y-79173571D02*
X123154285Y-79411666D01*
X123154285Y-79411666D02*
X123201904Y-79602142D01*
X123201904Y-79602142D02*
X123249523Y-79697380D01*
X123249523Y-79697380D02*
X123297142Y-79745000D01*
X123297142Y-79745000D02*
X123392380Y-79792619D01*
X123392380Y-79792619D02*
X123487618Y-79792619D01*
X123487618Y-79792619D02*
X123582856Y-79745000D01*
X123582856Y-79745000D02*
X123630475Y-79697380D01*
X123630475Y-79697380D02*
X123678094Y-79602142D01*
X123678094Y-79602142D02*
X123725713Y-79411666D01*
X123725713Y-79411666D02*
X123725713Y-79173571D01*
X123725713Y-79173571D02*
X123678094Y-78983095D01*
X123678094Y-78983095D02*
X123630475Y-78887857D01*
X123630475Y-78887857D02*
X123582856Y-78840238D01*
X123582856Y-78840238D02*
X123487618Y-78792619D01*
X122678094Y-79792619D02*
X122487618Y-79792619D01*
X122487618Y-79792619D02*
X122392380Y-79745000D01*
X122392380Y-79745000D02*
X122344761Y-79697380D01*
X122344761Y-79697380D02*
X122249523Y-79554523D01*
X122249523Y-79554523D02*
X122201904Y-79364047D01*
X122201904Y-79364047D02*
X122201904Y-78983095D01*
X122201904Y-78983095D02*
X122249523Y-78887857D01*
X122249523Y-78887857D02*
X122297142Y-78840238D01*
X122297142Y-78840238D02*
X122392380Y-78792619D01*
X122392380Y-78792619D02*
X122582856Y-78792619D01*
X122582856Y-78792619D02*
X122678094Y-78840238D01*
X122678094Y-78840238D02*
X122725713Y-78887857D01*
X122725713Y-78887857D02*
X122773332Y-78983095D01*
X122773332Y-78983095D02*
X122773332Y-79221190D01*
X122773332Y-79221190D02*
X122725713Y-79316428D01*
X122725713Y-79316428D02*
X122678094Y-79364047D01*
X122678094Y-79364047D02*
X122582856Y-79411666D01*
X122582856Y-79411666D02*
X122392380Y-79411666D01*
X122392380Y-79411666D02*
X122297142Y-79364047D01*
X122297142Y-79364047D02*
X122249523Y-79316428D01*
X122249523Y-79316428D02*
X122201904Y-79221190D01*
%TO.C,D108*%
X182720475Y-105842619D02*
X182720475Y-104842619D01*
X182720475Y-104842619D02*
X182482380Y-104842619D01*
X182482380Y-104842619D02*
X182339523Y-104890238D01*
X182339523Y-104890238D02*
X182244285Y-104985476D01*
X182244285Y-104985476D02*
X182196666Y-105080714D01*
X182196666Y-105080714D02*
X182149047Y-105271190D01*
X182149047Y-105271190D02*
X182149047Y-105414047D01*
X182149047Y-105414047D02*
X182196666Y-105604523D01*
X182196666Y-105604523D02*
X182244285Y-105699761D01*
X182244285Y-105699761D02*
X182339523Y-105795000D01*
X182339523Y-105795000D02*
X182482380Y-105842619D01*
X182482380Y-105842619D02*
X182720475Y-105842619D01*
X181196666Y-105842619D02*
X181768094Y-105842619D01*
X181482380Y-105842619D02*
X181482380Y-104842619D01*
X181482380Y-104842619D02*
X181577618Y-104985476D01*
X181577618Y-104985476D02*
X181672856Y-105080714D01*
X181672856Y-105080714D02*
X181768094Y-105128333D01*
X180577618Y-104842619D02*
X180482380Y-104842619D01*
X180482380Y-104842619D02*
X180387142Y-104890238D01*
X180387142Y-104890238D02*
X180339523Y-104937857D01*
X180339523Y-104937857D02*
X180291904Y-105033095D01*
X180291904Y-105033095D02*
X180244285Y-105223571D01*
X180244285Y-105223571D02*
X180244285Y-105461666D01*
X180244285Y-105461666D02*
X180291904Y-105652142D01*
X180291904Y-105652142D02*
X180339523Y-105747380D01*
X180339523Y-105747380D02*
X180387142Y-105795000D01*
X180387142Y-105795000D02*
X180482380Y-105842619D01*
X180482380Y-105842619D02*
X180577618Y-105842619D01*
X180577618Y-105842619D02*
X180672856Y-105795000D01*
X180672856Y-105795000D02*
X180720475Y-105747380D01*
X180720475Y-105747380D02*
X180768094Y-105652142D01*
X180768094Y-105652142D02*
X180815713Y-105461666D01*
X180815713Y-105461666D02*
X180815713Y-105223571D01*
X180815713Y-105223571D02*
X180768094Y-105033095D01*
X180768094Y-105033095D02*
X180720475Y-104937857D01*
X180720475Y-104937857D02*
X180672856Y-104890238D01*
X180672856Y-104890238D02*
X180577618Y-104842619D01*
X179672856Y-105271190D02*
X179768094Y-105223571D01*
X179768094Y-105223571D02*
X179815713Y-105175952D01*
X179815713Y-105175952D02*
X179863332Y-105080714D01*
X179863332Y-105080714D02*
X179863332Y-105033095D01*
X179863332Y-105033095D02*
X179815713Y-104937857D01*
X179815713Y-104937857D02*
X179768094Y-104890238D01*
X179768094Y-104890238D02*
X179672856Y-104842619D01*
X179672856Y-104842619D02*
X179482380Y-104842619D01*
X179482380Y-104842619D02*
X179387142Y-104890238D01*
X179387142Y-104890238D02*
X179339523Y-104937857D01*
X179339523Y-104937857D02*
X179291904Y-105033095D01*
X179291904Y-105033095D02*
X179291904Y-105080714D01*
X179291904Y-105080714D02*
X179339523Y-105175952D01*
X179339523Y-105175952D02*
X179387142Y-105223571D01*
X179387142Y-105223571D02*
X179482380Y-105271190D01*
X179482380Y-105271190D02*
X179672856Y-105271190D01*
X179672856Y-105271190D02*
X179768094Y-105318809D01*
X179768094Y-105318809D02*
X179815713Y-105366428D01*
X179815713Y-105366428D02*
X179863332Y-105461666D01*
X179863332Y-105461666D02*
X179863332Y-105652142D01*
X179863332Y-105652142D02*
X179815713Y-105747380D01*
X179815713Y-105747380D02*
X179768094Y-105795000D01*
X179768094Y-105795000D02*
X179672856Y-105842619D01*
X179672856Y-105842619D02*
X179482380Y-105842619D01*
X179482380Y-105842619D02*
X179387142Y-105795000D01*
X179387142Y-105795000D02*
X179339523Y-105747380D01*
X179339523Y-105747380D02*
X179291904Y-105652142D01*
X179291904Y-105652142D02*
X179291904Y-105461666D01*
X179291904Y-105461666D02*
X179339523Y-105366428D01*
X179339523Y-105366428D02*
X179387142Y-105318809D01*
X179387142Y-105318809D02*
X179482380Y-105271190D01*
%TO.C,D107*%
X163720475Y-105842619D02*
X163720475Y-104842619D01*
X163720475Y-104842619D02*
X163482380Y-104842619D01*
X163482380Y-104842619D02*
X163339523Y-104890238D01*
X163339523Y-104890238D02*
X163244285Y-104985476D01*
X163244285Y-104985476D02*
X163196666Y-105080714D01*
X163196666Y-105080714D02*
X163149047Y-105271190D01*
X163149047Y-105271190D02*
X163149047Y-105414047D01*
X163149047Y-105414047D02*
X163196666Y-105604523D01*
X163196666Y-105604523D02*
X163244285Y-105699761D01*
X163244285Y-105699761D02*
X163339523Y-105795000D01*
X163339523Y-105795000D02*
X163482380Y-105842619D01*
X163482380Y-105842619D02*
X163720475Y-105842619D01*
X162196666Y-105842619D02*
X162768094Y-105842619D01*
X162482380Y-105842619D02*
X162482380Y-104842619D01*
X162482380Y-104842619D02*
X162577618Y-104985476D01*
X162577618Y-104985476D02*
X162672856Y-105080714D01*
X162672856Y-105080714D02*
X162768094Y-105128333D01*
X161577618Y-104842619D02*
X161482380Y-104842619D01*
X161482380Y-104842619D02*
X161387142Y-104890238D01*
X161387142Y-104890238D02*
X161339523Y-104937857D01*
X161339523Y-104937857D02*
X161291904Y-105033095D01*
X161291904Y-105033095D02*
X161244285Y-105223571D01*
X161244285Y-105223571D02*
X161244285Y-105461666D01*
X161244285Y-105461666D02*
X161291904Y-105652142D01*
X161291904Y-105652142D02*
X161339523Y-105747380D01*
X161339523Y-105747380D02*
X161387142Y-105795000D01*
X161387142Y-105795000D02*
X161482380Y-105842619D01*
X161482380Y-105842619D02*
X161577618Y-105842619D01*
X161577618Y-105842619D02*
X161672856Y-105795000D01*
X161672856Y-105795000D02*
X161720475Y-105747380D01*
X161720475Y-105747380D02*
X161768094Y-105652142D01*
X161768094Y-105652142D02*
X161815713Y-105461666D01*
X161815713Y-105461666D02*
X161815713Y-105223571D01*
X161815713Y-105223571D02*
X161768094Y-105033095D01*
X161768094Y-105033095D02*
X161720475Y-104937857D01*
X161720475Y-104937857D02*
X161672856Y-104890238D01*
X161672856Y-104890238D02*
X161577618Y-104842619D01*
X160910951Y-104842619D02*
X160244285Y-104842619D01*
X160244285Y-104842619D02*
X160672856Y-105842619D01*
%TO.C,D106*%
X144720475Y-105842619D02*
X144720475Y-104842619D01*
X144720475Y-104842619D02*
X144482380Y-104842619D01*
X144482380Y-104842619D02*
X144339523Y-104890238D01*
X144339523Y-104890238D02*
X144244285Y-104985476D01*
X144244285Y-104985476D02*
X144196666Y-105080714D01*
X144196666Y-105080714D02*
X144149047Y-105271190D01*
X144149047Y-105271190D02*
X144149047Y-105414047D01*
X144149047Y-105414047D02*
X144196666Y-105604523D01*
X144196666Y-105604523D02*
X144244285Y-105699761D01*
X144244285Y-105699761D02*
X144339523Y-105795000D01*
X144339523Y-105795000D02*
X144482380Y-105842619D01*
X144482380Y-105842619D02*
X144720475Y-105842619D01*
X143196666Y-105842619D02*
X143768094Y-105842619D01*
X143482380Y-105842619D02*
X143482380Y-104842619D01*
X143482380Y-104842619D02*
X143577618Y-104985476D01*
X143577618Y-104985476D02*
X143672856Y-105080714D01*
X143672856Y-105080714D02*
X143768094Y-105128333D01*
X142577618Y-104842619D02*
X142482380Y-104842619D01*
X142482380Y-104842619D02*
X142387142Y-104890238D01*
X142387142Y-104890238D02*
X142339523Y-104937857D01*
X142339523Y-104937857D02*
X142291904Y-105033095D01*
X142291904Y-105033095D02*
X142244285Y-105223571D01*
X142244285Y-105223571D02*
X142244285Y-105461666D01*
X142244285Y-105461666D02*
X142291904Y-105652142D01*
X142291904Y-105652142D02*
X142339523Y-105747380D01*
X142339523Y-105747380D02*
X142387142Y-105795000D01*
X142387142Y-105795000D02*
X142482380Y-105842619D01*
X142482380Y-105842619D02*
X142577618Y-105842619D01*
X142577618Y-105842619D02*
X142672856Y-105795000D01*
X142672856Y-105795000D02*
X142720475Y-105747380D01*
X142720475Y-105747380D02*
X142768094Y-105652142D01*
X142768094Y-105652142D02*
X142815713Y-105461666D01*
X142815713Y-105461666D02*
X142815713Y-105223571D01*
X142815713Y-105223571D02*
X142768094Y-105033095D01*
X142768094Y-105033095D02*
X142720475Y-104937857D01*
X142720475Y-104937857D02*
X142672856Y-104890238D01*
X142672856Y-104890238D02*
X142577618Y-104842619D01*
X141387142Y-104842619D02*
X141577618Y-104842619D01*
X141577618Y-104842619D02*
X141672856Y-104890238D01*
X141672856Y-104890238D02*
X141720475Y-104937857D01*
X141720475Y-104937857D02*
X141815713Y-105080714D01*
X141815713Y-105080714D02*
X141863332Y-105271190D01*
X141863332Y-105271190D02*
X141863332Y-105652142D01*
X141863332Y-105652142D02*
X141815713Y-105747380D01*
X141815713Y-105747380D02*
X141768094Y-105795000D01*
X141768094Y-105795000D02*
X141672856Y-105842619D01*
X141672856Y-105842619D02*
X141482380Y-105842619D01*
X141482380Y-105842619D02*
X141387142Y-105795000D01*
X141387142Y-105795000D02*
X141339523Y-105747380D01*
X141339523Y-105747380D02*
X141291904Y-105652142D01*
X141291904Y-105652142D02*
X141291904Y-105414047D01*
X141291904Y-105414047D02*
X141339523Y-105318809D01*
X141339523Y-105318809D02*
X141387142Y-105271190D01*
X141387142Y-105271190D02*
X141482380Y-105223571D01*
X141482380Y-105223571D02*
X141672856Y-105223571D01*
X141672856Y-105223571D02*
X141768094Y-105271190D01*
X141768094Y-105271190D02*
X141815713Y-105318809D01*
X141815713Y-105318809D02*
X141863332Y-105414047D01*
%TO.C,D105*%
X125720475Y-105842619D02*
X125720475Y-104842619D01*
X125720475Y-104842619D02*
X125482380Y-104842619D01*
X125482380Y-104842619D02*
X125339523Y-104890238D01*
X125339523Y-104890238D02*
X125244285Y-104985476D01*
X125244285Y-104985476D02*
X125196666Y-105080714D01*
X125196666Y-105080714D02*
X125149047Y-105271190D01*
X125149047Y-105271190D02*
X125149047Y-105414047D01*
X125149047Y-105414047D02*
X125196666Y-105604523D01*
X125196666Y-105604523D02*
X125244285Y-105699761D01*
X125244285Y-105699761D02*
X125339523Y-105795000D01*
X125339523Y-105795000D02*
X125482380Y-105842619D01*
X125482380Y-105842619D02*
X125720475Y-105842619D01*
X124196666Y-105842619D02*
X124768094Y-105842619D01*
X124482380Y-105842619D02*
X124482380Y-104842619D01*
X124482380Y-104842619D02*
X124577618Y-104985476D01*
X124577618Y-104985476D02*
X124672856Y-105080714D01*
X124672856Y-105080714D02*
X124768094Y-105128333D01*
X123577618Y-104842619D02*
X123482380Y-104842619D01*
X123482380Y-104842619D02*
X123387142Y-104890238D01*
X123387142Y-104890238D02*
X123339523Y-104937857D01*
X123339523Y-104937857D02*
X123291904Y-105033095D01*
X123291904Y-105033095D02*
X123244285Y-105223571D01*
X123244285Y-105223571D02*
X123244285Y-105461666D01*
X123244285Y-105461666D02*
X123291904Y-105652142D01*
X123291904Y-105652142D02*
X123339523Y-105747380D01*
X123339523Y-105747380D02*
X123387142Y-105795000D01*
X123387142Y-105795000D02*
X123482380Y-105842619D01*
X123482380Y-105842619D02*
X123577618Y-105842619D01*
X123577618Y-105842619D02*
X123672856Y-105795000D01*
X123672856Y-105795000D02*
X123720475Y-105747380D01*
X123720475Y-105747380D02*
X123768094Y-105652142D01*
X123768094Y-105652142D02*
X123815713Y-105461666D01*
X123815713Y-105461666D02*
X123815713Y-105223571D01*
X123815713Y-105223571D02*
X123768094Y-105033095D01*
X123768094Y-105033095D02*
X123720475Y-104937857D01*
X123720475Y-104937857D02*
X123672856Y-104890238D01*
X123672856Y-104890238D02*
X123577618Y-104842619D01*
X122339523Y-104842619D02*
X122815713Y-104842619D01*
X122815713Y-104842619D02*
X122863332Y-105318809D01*
X122863332Y-105318809D02*
X122815713Y-105271190D01*
X122815713Y-105271190D02*
X122720475Y-105223571D01*
X122720475Y-105223571D02*
X122482380Y-105223571D01*
X122482380Y-105223571D02*
X122387142Y-105271190D01*
X122387142Y-105271190D02*
X122339523Y-105318809D01*
X122339523Y-105318809D02*
X122291904Y-105414047D01*
X122291904Y-105414047D02*
X122291904Y-105652142D01*
X122291904Y-105652142D02*
X122339523Y-105747380D01*
X122339523Y-105747380D02*
X122387142Y-105795000D01*
X122387142Y-105795000D02*
X122482380Y-105842619D01*
X122482380Y-105842619D02*
X122720475Y-105842619D01*
X122720475Y-105842619D02*
X122815713Y-105795000D01*
X122815713Y-105795000D02*
X122863332Y-105747380D01*
%TO.C,D104*%
X125570475Y-152442619D02*
X125570475Y-151442619D01*
X125570475Y-151442619D02*
X125332380Y-151442619D01*
X125332380Y-151442619D02*
X125189523Y-151490238D01*
X125189523Y-151490238D02*
X125094285Y-151585476D01*
X125094285Y-151585476D02*
X125046666Y-151680714D01*
X125046666Y-151680714D02*
X124999047Y-151871190D01*
X124999047Y-151871190D02*
X124999047Y-152014047D01*
X124999047Y-152014047D02*
X125046666Y-152204523D01*
X125046666Y-152204523D02*
X125094285Y-152299761D01*
X125094285Y-152299761D02*
X125189523Y-152395000D01*
X125189523Y-152395000D02*
X125332380Y-152442619D01*
X125332380Y-152442619D02*
X125570475Y-152442619D01*
X124046666Y-152442619D02*
X124618094Y-152442619D01*
X124332380Y-152442619D02*
X124332380Y-151442619D01*
X124332380Y-151442619D02*
X124427618Y-151585476D01*
X124427618Y-151585476D02*
X124522856Y-151680714D01*
X124522856Y-151680714D02*
X124618094Y-151728333D01*
X123427618Y-151442619D02*
X123332380Y-151442619D01*
X123332380Y-151442619D02*
X123237142Y-151490238D01*
X123237142Y-151490238D02*
X123189523Y-151537857D01*
X123189523Y-151537857D02*
X123141904Y-151633095D01*
X123141904Y-151633095D02*
X123094285Y-151823571D01*
X123094285Y-151823571D02*
X123094285Y-152061666D01*
X123094285Y-152061666D02*
X123141904Y-152252142D01*
X123141904Y-152252142D02*
X123189523Y-152347380D01*
X123189523Y-152347380D02*
X123237142Y-152395000D01*
X123237142Y-152395000D02*
X123332380Y-152442619D01*
X123332380Y-152442619D02*
X123427618Y-152442619D01*
X123427618Y-152442619D02*
X123522856Y-152395000D01*
X123522856Y-152395000D02*
X123570475Y-152347380D01*
X123570475Y-152347380D02*
X123618094Y-152252142D01*
X123618094Y-152252142D02*
X123665713Y-152061666D01*
X123665713Y-152061666D02*
X123665713Y-151823571D01*
X123665713Y-151823571D02*
X123618094Y-151633095D01*
X123618094Y-151633095D02*
X123570475Y-151537857D01*
X123570475Y-151537857D02*
X123522856Y-151490238D01*
X123522856Y-151490238D02*
X123427618Y-151442619D01*
X122237142Y-151775952D02*
X122237142Y-152442619D01*
X122475237Y-151395000D02*
X122713332Y-152109285D01*
X122713332Y-152109285D02*
X122094285Y-152109285D01*
%TO.C,D103*%
X144570475Y-152442619D02*
X144570475Y-151442619D01*
X144570475Y-151442619D02*
X144332380Y-151442619D01*
X144332380Y-151442619D02*
X144189523Y-151490238D01*
X144189523Y-151490238D02*
X144094285Y-151585476D01*
X144094285Y-151585476D02*
X144046666Y-151680714D01*
X144046666Y-151680714D02*
X143999047Y-151871190D01*
X143999047Y-151871190D02*
X143999047Y-152014047D01*
X143999047Y-152014047D02*
X144046666Y-152204523D01*
X144046666Y-152204523D02*
X144094285Y-152299761D01*
X144094285Y-152299761D02*
X144189523Y-152395000D01*
X144189523Y-152395000D02*
X144332380Y-152442619D01*
X144332380Y-152442619D02*
X144570475Y-152442619D01*
X143046666Y-152442619D02*
X143618094Y-152442619D01*
X143332380Y-152442619D02*
X143332380Y-151442619D01*
X143332380Y-151442619D02*
X143427618Y-151585476D01*
X143427618Y-151585476D02*
X143522856Y-151680714D01*
X143522856Y-151680714D02*
X143618094Y-151728333D01*
X142427618Y-151442619D02*
X142332380Y-151442619D01*
X142332380Y-151442619D02*
X142237142Y-151490238D01*
X142237142Y-151490238D02*
X142189523Y-151537857D01*
X142189523Y-151537857D02*
X142141904Y-151633095D01*
X142141904Y-151633095D02*
X142094285Y-151823571D01*
X142094285Y-151823571D02*
X142094285Y-152061666D01*
X142094285Y-152061666D02*
X142141904Y-152252142D01*
X142141904Y-152252142D02*
X142189523Y-152347380D01*
X142189523Y-152347380D02*
X142237142Y-152395000D01*
X142237142Y-152395000D02*
X142332380Y-152442619D01*
X142332380Y-152442619D02*
X142427618Y-152442619D01*
X142427618Y-152442619D02*
X142522856Y-152395000D01*
X142522856Y-152395000D02*
X142570475Y-152347380D01*
X142570475Y-152347380D02*
X142618094Y-152252142D01*
X142618094Y-152252142D02*
X142665713Y-152061666D01*
X142665713Y-152061666D02*
X142665713Y-151823571D01*
X142665713Y-151823571D02*
X142618094Y-151633095D01*
X142618094Y-151633095D02*
X142570475Y-151537857D01*
X142570475Y-151537857D02*
X142522856Y-151490238D01*
X142522856Y-151490238D02*
X142427618Y-151442619D01*
X141760951Y-151442619D02*
X141141904Y-151442619D01*
X141141904Y-151442619D02*
X141475237Y-151823571D01*
X141475237Y-151823571D02*
X141332380Y-151823571D01*
X141332380Y-151823571D02*
X141237142Y-151871190D01*
X141237142Y-151871190D02*
X141189523Y-151918809D01*
X141189523Y-151918809D02*
X141141904Y-152014047D01*
X141141904Y-152014047D02*
X141141904Y-152252142D01*
X141141904Y-152252142D02*
X141189523Y-152347380D01*
X141189523Y-152347380D02*
X141237142Y-152395000D01*
X141237142Y-152395000D02*
X141332380Y-152442619D01*
X141332380Y-152442619D02*
X141618094Y-152442619D01*
X141618094Y-152442619D02*
X141713332Y-152395000D01*
X141713332Y-152395000D02*
X141760951Y-152347380D01*
%TO.C,D102*%
X163570475Y-152442619D02*
X163570475Y-151442619D01*
X163570475Y-151442619D02*
X163332380Y-151442619D01*
X163332380Y-151442619D02*
X163189523Y-151490238D01*
X163189523Y-151490238D02*
X163094285Y-151585476D01*
X163094285Y-151585476D02*
X163046666Y-151680714D01*
X163046666Y-151680714D02*
X162999047Y-151871190D01*
X162999047Y-151871190D02*
X162999047Y-152014047D01*
X162999047Y-152014047D02*
X163046666Y-152204523D01*
X163046666Y-152204523D02*
X163094285Y-152299761D01*
X163094285Y-152299761D02*
X163189523Y-152395000D01*
X163189523Y-152395000D02*
X163332380Y-152442619D01*
X163332380Y-152442619D02*
X163570475Y-152442619D01*
X162046666Y-152442619D02*
X162618094Y-152442619D01*
X162332380Y-152442619D02*
X162332380Y-151442619D01*
X162332380Y-151442619D02*
X162427618Y-151585476D01*
X162427618Y-151585476D02*
X162522856Y-151680714D01*
X162522856Y-151680714D02*
X162618094Y-151728333D01*
X161427618Y-151442619D02*
X161332380Y-151442619D01*
X161332380Y-151442619D02*
X161237142Y-151490238D01*
X161237142Y-151490238D02*
X161189523Y-151537857D01*
X161189523Y-151537857D02*
X161141904Y-151633095D01*
X161141904Y-151633095D02*
X161094285Y-151823571D01*
X161094285Y-151823571D02*
X161094285Y-152061666D01*
X161094285Y-152061666D02*
X161141904Y-152252142D01*
X161141904Y-152252142D02*
X161189523Y-152347380D01*
X161189523Y-152347380D02*
X161237142Y-152395000D01*
X161237142Y-152395000D02*
X161332380Y-152442619D01*
X161332380Y-152442619D02*
X161427618Y-152442619D01*
X161427618Y-152442619D02*
X161522856Y-152395000D01*
X161522856Y-152395000D02*
X161570475Y-152347380D01*
X161570475Y-152347380D02*
X161618094Y-152252142D01*
X161618094Y-152252142D02*
X161665713Y-152061666D01*
X161665713Y-152061666D02*
X161665713Y-151823571D01*
X161665713Y-151823571D02*
X161618094Y-151633095D01*
X161618094Y-151633095D02*
X161570475Y-151537857D01*
X161570475Y-151537857D02*
X161522856Y-151490238D01*
X161522856Y-151490238D02*
X161427618Y-151442619D01*
X160713332Y-151537857D02*
X160665713Y-151490238D01*
X160665713Y-151490238D02*
X160570475Y-151442619D01*
X160570475Y-151442619D02*
X160332380Y-151442619D01*
X160332380Y-151442619D02*
X160237142Y-151490238D01*
X160237142Y-151490238D02*
X160189523Y-151537857D01*
X160189523Y-151537857D02*
X160141904Y-151633095D01*
X160141904Y-151633095D02*
X160141904Y-151728333D01*
X160141904Y-151728333D02*
X160189523Y-151871190D01*
X160189523Y-151871190D02*
X160760951Y-152442619D01*
X160760951Y-152442619D02*
X160141904Y-152442619D01*
%TO.C,D101*%
X182570475Y-152442619D02*
X182570475Y-151442619D01*
X182570475Y-151442619D02*
X182332380Y-151442619D01*
X182332380Y-151442619D02*
X182189523Y-151490238D01*
X182189523Y-151490238D02*
X182094285Y-151585476D01*
X182094285Y-151585476D02*
X182046666Y-151680714D01*
X182046666Y-151680714D02*
X181999047Y-151871190D01*
X181999047Y-151871190D02*
X181999047Y-152014047D01*
X181999047Y-152014047D02*
X182046666Y-152204523D01*
X182046666Y-152204523D02*
X182094285Y-152299761D01*
X182094285Y-152299761D02*
X182189523Y-152395000D01*
X182189523Y-152395000D02*
X182332380Y-152442619D01*
X182332380Y-152442619D02*
X182570475Y-152442619D01*
X181046666Y-152442619D02*
X181618094Y-152442619D01*
X181332380Y-152442619D02*
X181332380Y-151442619D01*
X181332380Y-151442619D02*
X181427618Y-151585476D01*
X181427618Y-151585476D02*
X181522856Y-151680714D01*
X181522856Y-151680714D02*
X181618094Y-151728333D01*
X180427618Y-151442619D02*
X180332380Y-151442619D01*
X180332380Y-151442619D02*
X180237142Y-151490238D01*
X180237142Y-151490238D02*
X180189523Y-151537857D01*
X180189523Y-151537857D02*
X180141904Y-151633095D01*
X180141904Y-151633095D02*
X180094285Y-151823571D01*
X180094285Y-151823571D02*
X180094285Y-152061666D01*
X180094285Y-152061666D02*
X180141904Y-152252142D01*
X180141904Y-152252142D02*
X180189523Y-152347380D01*
X180189523Y-152347380D02*
X180237142Y-152395000D01*
X180237142Y-152395000D02*
X180332380Y-152442619D01*
X180332380Y-152442619D02*
X180427618Y-152442619D01*
X180427618Y-152442619D02*
X180522856Y-152395000D01*
X180522856Y-152395000D02*
X180570475Y-152347380D01*
X180570475Y-152347380D02*
X180618094Y-152252142D01*
X180618094Y-152252142D02*
X180665713Y-152061666D01*
X180665713Y-152061666D02*
X180665713Y-151823571D01*
X180665713Y-151823571D02*
X180618094Y-151633095D01*
X180618094Y-151633095D02*
X180570475Y-151537857D01*
X180570475Y-151537857D02*
X180522856Y-151490238D01*
X180522856Y-151490238D02*
X180427618Y-151442619D01*
X179141904Y-152442619D02*
X179713332Y-152442619D01*
X179427618Y-152442619D02*
X179427618Y-151442619D01*
X179427618Y-151442619D02*
X179522856Y-151585476D01*
X179522856Y-151585476D02*
X179618094Y-151680714D01*
X179618094Y-151680714D02*
X179713332Y-151728333D01*
%TO.C,R101*%
X190379047Y-152842619D02*
X190712380Y-152366428D01*
X190950475Y-152842619D02*
X190950475Y-151842619D01*
X190950475Y-151842619D02*
X190569523Y-151842619D01*
X190569523Y-151842619D02*
X190474285Y-151890238D01*
X190474285Y-151890238D02*
X190426666Y-151937857D01*
X190426666Y-151937857D02*
X190379047Y-152033095D01*
X190379047Y-152033095D02*
X190379047Y-152175952D01*
X190379047Y-152175952D02*
X190426666Y-152271190D01*
X190426666Y-152271190D02*
X190474285Y-152318809D01*
X190474285Y-152318809D02*
X190569523Y-152366428D01*
X190569523Y-152366428D02*
X190950475Y-152366428D01*
X189426666Y-152842619D02*
X189998094Y-152842619D01*
X189712380Y-152842619D02*
X189712380Y-151842619D01*
X189712380Y-151842619D02*
X189807618Y-151985476D01*
X189807618Y-151985476D02*
X189902856Y-152080714D01*
X189902856Y-152080714D02*
X189998094Y-152128333D01*
X188807618Y-151842619D02*
X188712380Y-151842619D01*
X188712380Y-151842619D02*
X188617142Y-151890238D01*
X188617142Y-151890238D02*
X188569523Y-151937857D01*
X188569523Y-151937857D02*
X188521904Y-152033095D01*
X188521904Y-152033095D02*
X188474285Y-152223571D01*
X188474285Y-152223571D02*
X188474285Y-152461666D01*
X188474285Y-152461666D02*
X188521904Y-152652142D01*
X188521904Y-152652142D02*
X188569523Y-152747380D01*
X188569523Y-152747380D02*
X188617142Y-152795000D01*
X188617142Y-152795000D02*
X188712380Y-152842619D01*
X188712380Y-152842619D02*
X188807618Y-152842619D01*
X188807618Y-152842619D02*
X188902856Y-152795000D01*
X188902856Y-152795000D02*
X188950475Y-152747380D01*
X188950475Y-152747380D02*
X188998094Y-152652142D01*
X188998094Y-152652142D02*
X189045713Y-152461666D01*
X189045713Y-152461666D02*
X189045713Y-152223571D01*
X189045713Y-152223571D02*
X188998094Y-152033095D01*
X188998094Y-152033095D02*
X188950475Y-151937857D01*
X188950475Y-151937857D02*
X188902856Y-151890238D01*
X188902856Y-151890238D02*
X188807618Y-151842619D01*
X187521904Y-152842619D02*
X188093332Y-152842619D01*
X187807618Y-152842619D02*
X187807618Y-151842619D01*
X187807618Y-151842619D02*
X187902856Y-151985476D01*
X187902856Y-151985476D02*
X187998094Y-152080714D01*
X187998094Y-152080714D02*
X188093332Y-152128333D01*
%TO.C,G\u002A\u002A\u002A*%
G36*
X102858718Y-131681840D02*
G01*
X102858731Y-131704608D01*
X102859839Y-131881034D01*
X102862677Y-132023902D01*
X102867157Y-132131014D01*
X102873191Y-132200173D01*
X102880690Y-132229182D01*
X102891816Y-132254403D01*
X102880583Y-132309224D01*
X102876950Y-132318439D01*
X102864988Y-132340187D01*
X102846922Y-132352776D01*
X102817104Y-132355398D01*
X102769888Y-132347244D01*
X102699626Y-132327505D01*
X102600674Y-132295372D01*
X102467383Y-132250037D01*
X102386667Y-132222109D01*
X102306980Y-132192892D01*
X102256623Y-132170705D01*
X102229277Y-132152023D01*
X102218625Y-132133321D01*
X102218349Y-132111072D01*
X102223875Y-132076260D01*
X102232116Y-132051406D01*
X102248601Y-132053320D01*
X102297937Y-132066534D01*
X102371631Y-132089238D01*
X102461250Y-132118946D01*
X102536911Y-132144308D01*
X102618112Y-132170289D01*
X102677901Y-132187972D01*
X102706992Y-132194500D01*
X102709708Y-132193949D01*
X102722052Y-132169308D01*
X102729266Y-132106616D01*
X102731612Y-132003841D01*
X102731612Y-131813182D01*
X102477400Y-131813182D01*
X102223189Y-131813182D01*
X102223189Y-131749630D01*
X102223189Y-131686077D01*
X102477400Y-131686077D01*
X102731612Y-131686077D01*
X102731612Y-131569563D01*
X102731612Y-131453049D01*
X102477400Y-131453049D01*
X102223189Y-131453049D01*
X102223189Y-131389496D01*
X102223189Y-131325943D01*
X102477400Y-131325943D01*
X102731612Y-131325943D01*
X102731612Y-131241206D01*
X102731713Y-131223010D01*
X102736299Y-131177948D01*
X102754415Y-131159815D01*
X102795165Y-131156469D01*
X102858718Y-131156469D01*
X102858718Y-131681840D01*
G37*
G36*
X101311549Y-131373608D02*
G01*
X101311509Y-131383442D01*
X101305675Y-131613922D01*
X101290897Y-131818448D01*
X101267714Y-131993829D01*
X101236664Y-132136876D01*
X101198285Y-132244398D01*
X101153114Y-132313206D01*
X101145354Y-132320881D01*
X101102333Y-132355214D01*
X101062832Y-132360338D01*
X101007108Y-132339855D01*
X101003072Y-132337910D01*
X100948405Y-132287716D01*
X100901793Y-132197890D01*
X100864022Y-132070413D01*
X100835875Y-131907268D01*
X100830591Y-131861186D01*
X100830970Y-131817294D01*
X100845217Y-131792986D01*
X100877551Y-131774866D01*
X100896968Y-131766104D01*
X100935065Y-131752359D01*
X100949726Y-131760388D01*
X100952129Y-131792891D01*
X100952309Y-131800208D01*
X100958669Y-131856397D01*
X100972109Y-131932487D01*
X100989852Y-132016133D01*
X101009126Y-132094992D01*
X101027153Y-132156720D01*
X101041161Y-132188971D01*
X101053784Y-132200323D01*
X101079991Y-132204626D01*
X101087099Y-132197742D01*
X101107516Y-132151578D01*
X101127089Y-132070972D01*
X101144956Y-131961813D01*
X101160258Y-131829989D01*
X101172134Y-131681388D01*
X101179725Y-131521898D01*
X101191299Y-131156469D01*
X101251781Y-131156469D01*
X101312263Y-131156469D01*
X101311549Y-131373608D01*
G37*
G36*
X102032530Y-131671248D02*
G01*
X102032530Y-131675206D01*
X102033500Y-131855303D01*
X102036282Y-132000519D01*
X102040798Y-132108988D01*
X102046973Y-132178845D01*
X102054728Y-132208225D01*
X102065552Y-132234333D01*
X102051328Y-132286607D01*
X102023264Y-132325246D01*
X101987790Y-132342790D01*
X101981580Y-132342190D01*
X101938016Y-132332159D01*
X101866929Y-132312141D01*
X101777936Y-132285217D01*
X101680657Y-132254467D01*
X101584712Y-132222974D01*
X101499719Y-132193818D01*
X101435298Y-132170082D01*
X101401068Y-132154845D01*
X101386021Y-132134979D01*
X101386973Y-132083279D01*
X101400586Y-132029037D01*
X101614799Y-132101176D01*
X101714958Y-132134897D01*
X101798809Y-132160586D01*
X101853608Y-132169605D01*
X101885513Y-132159666D01*
X101900679Y-132128486D01*
X101905264Y-132073775D01*
X101905424Y-131993249D01*
X101905424Y-131813182D01*
X101660397Y-131813182D01*
X101415370Y-131813182D01*
X101422073Y-131754926D01*
X101428777Y-131696669D01*
X101667100Y-131690679D01*
X101905424Y-131684689D01*
X101905424Y-131568869D01*
X101905424Y-131453049D01*
X101660397Y-131453049D01*
X101415370Y-131453049D01*
X101422073Y-131394792D01*
X101428777Y-131336535D01*
X101667100Y-131330545D01*
X101905424Y-131324556D01*
X101905424Y-131240512D01*
X101905512Y-131223543D01*
X101910025Y-131178155D01*
X101928108Y-131159859D01*
X101968977Y-131156469D01*
X102032530Y-131156469D01*
X102032530Y-131671248D01*
G37*
G36*
X104002672Y-129948962D02*
G01*
X104002672Y-131198837D01*
X106248209Y-131198837D01*
X108493747Y-131198837D01*
X108493747Y-130192582D01*
X108493747Y-129186327D01*
X108737367Y-129186327D01*
X108980987Y-129186327D01*
X108980987Y-130192582D01*
X108980987Y-131198837D01*
X108737367Y-131198837D01*
X108493747Y-131198837D01*
X108493747Y-131442457D01*
X108493747Y-131686077D01*
X106248209Y-131686077D01*
X104002672Y-131686077D01*
X104002672Y-131443129D01*
X104002672Y-131200182D01*
X103753756Y-131194213D01*
X103504840Y-131188245D01*
X103499375Y-129943666D01*
X103493909Y-128699087D01*
X103748290Y-128699087D01*
X104002672Y-128699087D01*
X104002672Y-129948962D01*
G37*
G36*
X108493747Y-128942707D02*
G01*
X108493747Y-129186327D01*
X108239536Y-129186327D01*
X107985324Y-129186327D01*
X107985324Y-128942707D01*
X107985324Y-128699087D01*
X108239536Y-128699087D01*
X108493747Y-128699087D01*
X108493747Y-128942707D01*
G37*
G36*
X108980987Y-127703424D02*
G01*
X108980987Y-128699087D01*
X108737367Y-128699087D01*
X108493747Y-128699087D01*
X108493747Y-127703424D01*
X108493747Y-126707761D01*
X108737367Y-126707761D01*
X108980987Y-126707761D01*
X108980987Y-127703424D01*
G37*
G36*
X108980987Y-124949072D02*
G01*
X108980987Y-125203675D01*
X108483155Y-125203675D01*
X107985324Y-125203675D01*
X107985324Y-125457886D01*
X107985324Y-125712098D01*
X107741704Y-125712098D01*
X107498084Y-125712098D01*
X107498084Y-125955718D01*
X107498084Y-126199338D01*
X106746041Y-126199338D01*
X105993998Y-126199338D01*
X105993998Y-125956390D01*
X105993998Y-125713443D01*
X105745082Y-125707474D01*
X105496166Y-125701506D01*
X105490198Y-125452590D01*
X105484229Y-125203675D01*
X104743450Y-125203675D01*
X104002672Y-125203675D01*
X104002672Y-124949463D01*
X104002672Y-124695251D01*
X104744123Y-124695251D01*
X105485574Y-124695251D01*
X105485574Y-124949463D01*
X105485574Y-125203675D01*
X105739786Y-125203675D01*
X105993998Y-125203675D01*
X105993998Y-125457886D01*
X105993998Y-125712098D01*
X106746041Y-125712098D01*
X107498084Y-125712098D01*
X107498084Y-125457886D01*
X107498084Y-125203675D01*
X107741032Y-125203675D01*
X107983979Y-125203675D01*
X107989948Y-124954759D01*
X107995916Y-124705843D01*
X108488451Y-124700157D01*
X108980987Y-124694470D01*
X108980987Y-124949072D01*
G37*
G36*
X109235199Y-125203675D02*
G01*
X109489410Y-125203675D01*
X109489410Y-125955718D01*
X109489410Y-126707761D01*
X109235199Y-126707761D01*
X108980987Y-126707761D01*
X108980987Y-125955718D01*
X108980987Y-125203675D01*
X109235199Y-125203675D01*
G37*
G36*
X104002672Y-125955718D02*
G01*
X104002672Y-126707761D01*
X104246291Y-126707761D01*
X104489911Y-126707761D01*
X104489911Y-127703424D01*
X104489911Y-128699087D01*
X104246291Y-128699087D01*
X104002672Y-128699087D01*
X104002672Y-127704097D01*
X104002672Y-126709106D01*
X103753756Y-126703138D01*
X103504840Y-126697169D01*
X103499273Y-125950422D01*
X103493706Y-125203675D01*
X103748189Y-125203675D01*
X104002672Y-125203675D01*
X104002672Y-125955718D01*
G37*
G36*
X102092133Y-130140507D02*
G01*
X102127909Y-130149904D01*
X102190656Y-130167383D01*
X102270533Y-130190221D01*
X102315311Y-130202441D01*
X102429026Y-130229794D01*
X102555035Y-130256453D01*
X102673355Y-130278062D01*
X102901087Y-130315301D01*
X102901087Y-130693516D01*
X102901087Y-131071731D01*
X101979569Y-131071731D01*
X101058051Y-131071731D01*
X101058051Y-130658637D01*
X101058051Y-130245543D01*
X101481737Y-130245543D01*
X101905424Y-130245543D01*
X101905424Y-130297991D01*
X101905424Y-130350440D01*
X101550586Y-130356248D01*
X101195749Y-130362057D01*
X101189346Y-130473274D01*
X101182943Y-130584492D01*
X101533591Y-130584492D01*
X101884240Y-130584492D01*
X101884240Y-130636928D01*
X101884240Y-130689364D01*
X101539994Y-130695185D01*
X101195749Y-130701006D01*
X101189396Y-130822816D01*
X101183043Y-130944625D01*
X101978512Y-130944625D01*
X102773981Y-130944625D01*
X102773981Y-130828650D01*
X102773981Y-130712674D01*
X102440328Y-130706840D01*
X102106675Y-130701006D01*
X102099972Y-130642749D01*
X102093269Y-130584492D01*
X102433625Y-130584492D01*
X102773981Y-130584492D01*
X102773981Y-130504118D01*
X102773981Y-130423744D01*
X102529853Y-130376166D01*
X102448760Y-130359612D01*
X102332938Y-130333821D01*
X102227694Y-130308137D01*
X102148593Y-130286232D01*
X102011461Y-130243876D01*
X102045616Y-130191749D01*
X102071783Y-130155253D01*
X102087607Y-130139621D01*
X102092133Y-130140507D01*
G37*
G36*
X102646875Y-129280659D02*
G01*
X102646865Y-129320161D01*
X102646336Y-129499988D01*
X102644465Y-129642867D01*
X102640519Y-129753337D01*
X102633762Y-129835936D01*
X102623461Y-129895204D01*
X102608880Y-129935678D01*
X102589285Y-129961899D01*
X102563941Y-129978404D01*
X102532115Y-129989733D01*
X102529894Y-129990301D01*
X102487767Y-129995275D01*
X102410079Y-129999869D01*
X102302957Y-130003891D01*
X102172529Y-130007149D01*
X102024919Y-130009451D01*
X101866257Y-130010605D01*
X101693091Y-130010977D01*
X101534374Y-130010250D01*
X101409210Y-130007344D01*
X101312934Y-130001258D01*
X101240884Y-129990989D01*
X101188392Y-129975535D01*
X101150796Y-129953893D01*
X101123430Y-129925062D01*
X101101630Y-129888038D01*
X101080730Y-129841821D01*
X101055252Y-129780410D01*
X101028580Y-129702198D01*
X101022033Y-129649635D01*
X101035241Y-129615620D01*
X101067836Y-129593051D01*
X101104592Y-129576629D01*
X101130442Y-129572892D01*
X101143007Y-129595452D01*
X101153297Y-129651888D01*
X101154495Y-129658397D01*
X101178605Y-129735575D01*
X101214249Y-129805475D01*
X101260967Y-129874817D01*
X101861314Y-129880448D01*
X102031939Y-129881586D01*
X102194937Y-129881343D01*
X102319959Y-129879328D01*
X102409360Y-129875473D01*
X102465494Y-129869709D01*
X102490715Y-129861966D01*
X102495405Y-129856429D01*
X102503896Y-129832943D01*
X102510280Y-129789998D01*
X102514808Y-129723014D01*
X102517732Y-129627410D01*
X102519302Y-129498607D01*
X102519769Y-129332023D01*
X102519769Y-128826193D01*
X101986977Y-128826193D01*
X101454184Y-128826193D01*
X101468344Y-129032740D01*
X101479315Y-129162113D01*
X101496544Y-129289619D01*
X101517422Y-129377421D01*
X101541709Y-129424247D01*
X101555820Y-129430036D01*
X101606384Y-129437820D01*
X101682664Y-129443161D01*
X101774479Y-129445144D01*
X101986352Y-129445144D01*
X101964955Y-129506522D01*
X101947293Y-129541996D01*
X101914231Y-129569755D01*
X101860988Y-129584396D01*
X101780407Y-129587713D01*
X101665328Y-129581495D01*
X101566230Y-129570953D01*
X101492049Y-129551972D01*
X101441248Y-129518071D01*
X101407474Y-129462398D01*
X101384373Y-129378106D01*
X101365591Y-129258343D01*
X101361069Y-129223769D01*
X101346430Y-129102069D01*
X101333069Y-128978060D01*
X101323414Y-128873858D01*
X101309351Y-128699087D01*
X101978113Y-128699087D01*
X102646875Y-128699087D01*
X102646875Y-129280659D01*
G37*
G36*
X101951489Y-127833409D02*
G01*
X101988635Y-127876683D01*
X102152390Y-128069590D01*
X102376859Y-128285559D01*
X102627666Y-128476299D01*
X102911679Y-128647546D01*
X102930360Y-128657643D01*
X102997985Y-128694549D01*
X103047539Y-128722148D01*
X103069385Y-128735089D01*
X103069789Y-128735513D01*
X103061639Y-128755084D01*
X103031895Y-128789537D01*
X102984991Y-128836442D01*
X102874190Y-128775521D01*
X102734588Y-128694082D01*
X102518664Y-128550690D01*
X102316079Y-128395703D01*
X102140871Y-128239386D01*
X101937349Y-128040118D01*
X101875305Y-128120687D01*
X101723845Y-128291744D01*
X101538384Y-128458366D01*
X101327360Y-128613671D01*
X101099146Y-128750862D01*
X100920353Y-128847026D01*
X100883280Y-128802486D01*
X100858398Y-128768873D01*
X100846208Y-128743656D01*
X100846772Y-128742109D01*
X100870053Y-128724060D01*
X100920664Y-128694535D01*
X100989202Y-128659092D01*
X101082838Y-128610402D01*
X101347827Y-128441405D01*
X101590193Y-128238438D01*
X101652668Y-128177490D01*
X101753086Y-128070898D01*
X101818712Y-127986769D01*
X101849345Y-127925379D01*
X101844787Y-127887005D01*
X101838613Y-127878319D01*
X101840145Y-127855550D01*
X101877583Y-127832592D01*
X101888596Y-127827724D01*
X101923180Y-127819089D01*
X101951489Y-127833409D01*
G37*
G36*
X102864493Y-126310555D02*
G01*
X102864775Y-126332602D01*
X102867919Y-126547551D01*
X102871692Y-126725987D01*
X102876703Y-126873268D01*
X102883560Y-126994749D01*
X102892872Y-127095790D01*
X102905247Y-127181746D01*
X102921294Y-127257976D01*
X102941621Y-127329836D01*
X102966838Y-127402683D01*
X102997551Y-127481875D01*
X103054810Y-127624999D01*
X103005021Y-127662555D01*
X102965920Y-127686122D01*
X102940140Y-127690783D01*
X102936658Y-127686795D01*
X102918504Y-127652370D01*
X102891644Y-127591530D01*
X102860522Y-127514134D01*
X102833946Y-127442038D01*
X102804797Y-127350468D01*
X102781586Y-127257074D01*
X102763681Y-127156068D01*
X102750450Y-127041660D01*
X102741260Y-126908064D01*
X102735479Y-126749491D01*
X102732473Y-126560153D01*
X102731612Y-126334261D01*
X102731612Y-125690914D01*
X101788910Y-125690914D01*
X100846208Y-125690914D01*
X100846208Y-125627361D01*
X100846208Y-125563808D01*
X101850610Y-125563808D01*
X102855012Y-125563808D01*
X102864493Y-126310555D01*
G37*
G36*
X101900694Y-126119896D02*
G01*
X101906556Y-126432365D01*
X102244939Y-126432365D01*
X102583322Y-126432365D01*
X102583322Y-126495918D01*
X102583322Y-126559471D01*
X102244373Y-126559471D01*
X101905424Y-126559471D01*
X101905424Y-127046710D01*
X101905424Y-127533950D01*
X102318518Y-127533950D01*
X102731612Y-127533950D01*
X102731612Y-127597503D01*
X102731612Y-127661056D01*
X101788910Y-127661056D01*
X100846208Y-127661056D01*
X100846208Y-127597503D01*
X100846208Y-127533950D01*
X101301671Y-127533950D01*
X101757134Y-127533950D01*
X101757134Y-127046710D01*
X101757134Y-126559471D01*
X101386408Y-126559471D01*
X101015682Y-126559471D01*
X101015682Y-126495918D01*
X101015682Y-126432365D01*
X101385842Y-126432365D01*
X101756001Y-126432365D01*
X101761863Y-126119896D01*
X101767726Y-125807428D01*
X101831279Y-125807428D01*
X101894832Y-125807428D01*
X101900694Y-126119896D01*
G37*
G36*
X101433889Y-126798638D02*
G01*
X101470962Y-126821521D01*
X101483312Y-126831417D01*
X101493382Y-126848785D01*
X101486860Y-126874084D01*
X101460604Y-126915816D01*
X101411472Y-126982484D01*
X101355078Y-127060210D01*
X101289422Y-127155661D01*
X101234865Y-127239865D01*
X101222831Y-127259275D01*
X101185379Y-127316298D01*
X101159795Y-127344180D01*
X101138572Y-127348940D01*
X101114202Y-127336597D01*
X101085636Y-127314008D01*
X101063939Y-127286811D01*
X101066252Y-127270266D01*
X101088440Y-127223168D01*
X101128118Y-127156575D01*
X101179623Y-127078431D01*
X101237292Y-126996680D01*
X101295460Y-126919267D01*
X101348465Y-126854136D01*
X101390643Y-126809232D01*
X101416330Y-126792499D01*
X101433889Y-126798638D01*
G37*
G36*
X102901087Y-124875318D02*
G01*
X102901087Y-125394333D01*
X102826942Y-125394333D01*
X102752797Y-125394333D01*
X102752797Y-124938871D01*
X102752797Y-124483408D01*
X101937200Y-124483408D01*
X101121604Y-124483408D01*
X101121604Y-124849896D01*
X101121838Y-124923295D01*
X101124113Y-125057726D01*
X101128951Y-125153803D01*
X101136529Y-125214253D01*
X101147025Y-125241806D01*
X101169469Y-125252549D01*
X101225496Y-125263140D01*
X101297786Y-125267228D01*
X101300232Y-125267228D01*
X101368613Y-125268334D01*
X101403809Y-125274127D01*
X101414745Y-125288386D01*
X101410352Y-125314892D01*
X101402568Y-125347450D01*
X101397289Y-125380761D01*
X101396353Y-125382645D01*
X101369262Y-125389553D01*
X101312330Y-125392493D01*
X101235819Y-125390825D01*
X101230645Y-125390565D01*
X101159159Y-125386438D01*
X101103781Y-125378838D01*
X101062455Y-125362904D01*
X101033126Y-125333773D01*
X101013739Y-125286584D01*
X101002238Y-125216475D01*
X100996568Y-125118584D01*
X100994673Y-124988050D01*
X100994498Y-124820010D01*
X100994498Y-124356302D01*
X101947792Y-124356302D01*
X102901087Y-124356302D01*
X102901087Y-124875318D01*
G37*
G36*
X102456216Y-124896502D02*
G01*
X102456216Y-125140122D01*
X101937200Y-125140122D01*
X101418184Y-125140122D01*
X101418184Y-125013016D01*
X101566475Y-125013016D01*
X101947792Y-125013016D01*
X102329110Y-125013016D01*
X102329110Y-124885910D01*
X102329110Y-124758804D01*
X101947792Y-124758804D01*
X101566475Y-124758804D01*
X101566475Y-124885910D01*
X101566475Y-125013016D01*
X101418184Y-125013016D01*
X101418184Y-124896502D01*
X101418184Y-124652882D01*
X101937200Y-124652882D01*
X102456216Y-124652882D01*
X102456216Y-124758804D01*
X102456216Y-124896502D01*
G37*
G36*
X102646875Y-123943493D02*
G01*
X102646875Y-124187398D01*
X101942496Y-124181817D01*
X101238118Y-124176235D01*
X101235190Y-124059721D01*
X101375816Y-124059721D01*
X101947792Y-124059721D01*
X102519769Y-124059721D01*
X102519769Y-123943208D01*
X102519769Y-123826694D01*
X101947792Y-123826694D01*
X101375816Y-123826694D01*
X101375816Y-123943208D01*
X101375816Y-124059721D01*
X101235190Y-124059721D01*
X101232128Y-123937911D01*
X101226138Y-123699588D01*
X101936507Y-123699588D01*
X102646875Y-123699588D01*
X102646875Y-123826694D01*
X102646875Y-123943493D01*
G37*
G36*
X102018834Y-123189984D02*
G01*
X102036696Y-123196960D01*
X102061663Y-123212818D01*
X102062735Y-123238555D01*
X102043556Y-123288722D01*
X102037698Y-123303053D01*
X102018917Y-123354342D01*
X102011345Y-123384410D01*
X102019576Y-123387777D01*
X102063564Y-123392677D01*
X102140369Y-123396869D01*
X102244140Y-123400133D01*
X102369026Y-123402252D01*
X102509177Y-123403007D01*
X103007008Y-123403007D01*
X103007008Y-123466560D01*
X103007008Y-123530113D01*
X101947792Y-123530113D01*
X100888576Y-123530113D01*
X100888576Y-123466560D01*
X100888576Y-123403007D01*
X101382014Y-123403007D01*
X101875452Y-123403007D01*
X101900524Y-123312974D01*
X101904419Y-123299130D01*
X101927744Y-123227579D01*
X101950319Y-123189975D01*
X101978548Y-123179662D01*
X102018834Y-123189984D01*
G37*
G36*
X107238576Y-128195288D02*
G01*
X107487492Y-128201256D01*
X107493461Y-128450172D01*
X107499429Y-128699087D01*
X107244545Y-128699087D01*
X106989661Y-128699087D01*
X106989661Y-128444203D01*
X106989661Y-128189319D01*
X107238576Y-128195288D01*
G37*
G36*
X107985324Y-127449213D02*
G01*
X107985324Y-127703424D01*
X107741704Y-127703424D01*
X107498084Y-127703424D01*
X107498084Y-127449213D01*
X107498084Y-127195001D01*
X107741704Y-127195001D01*
X107985324Y-127195001D01*
X107985324Y-127449213D01*
G37*
G36*
X105993998Y-127449213D02*
G01*
X105993998Y-127703424D01*
X105739786Y-127703424D01*
X105485574Y-127703424D01*
X105485574Y-127449213D01*
X105485574Y-127195001D01*
X105739786Y-127195001D01*
X105993998Y-127195001D01*
X105993998Y-127449213D01*
G37*
D12*
%TO.C,J101*%
X195700000Y-148080000D02*
X195700000Y-151290000D01*
X195700000Y-138270000D02*
X195700000Y-141480000D01*
X198360000Y-145540000D02*
X198360000Y-149100000D01*
X198360000Y-151290000D02*
X195700000Y-151290000D01*
X198360000Y-138270000D02*
X198360000Y-138940000D01*
X199570000Y-138940000D02*
X198360000Y-138940000D01*
X198360000Y-140460000D02*
X198360000Y-144020000D01*
X195700000Y-143000000D02*
X195700000Y-146560000D01*
X198360000Y-150620000D02*
X198360000Y-151290000D01*
X198360000Y-138270000D02*
X195700000Y-138270000D01*
%TO.C,C103*%
X133350580Y-78750000D02*
X133069420Y-78750000D01*
X133350580Y-77730000D02*
X133069420Y-77730000D01*
%TO.C,C102*%
X153010580Y-107240000D02*
X152729420Y-107240000D01*
X153010580Y-106220000D02*
X152729420Y-106220000D01*
%TO.C,C101*%
X192149420Y-153735000D02*
X192430580Y-153735000D01*
X192149420Y-152715000D02*
X192430580Y-152715000D01*
D11*
%TO.C,REF\u002A\u002A*%
X113115000Y-75145000D02*
X113115000Y-66135000D01*
X113115000Y-66135000D02*
G75*
G03*
X98115000Y-66135000I-7500000J0D01*
G01*
X98115000Y-75145000D02*
G75*
G03*
X113115000Y-75145000I7500000J0D01*
G01*
X98115000Y-66135000D02*
X98115000Y-75145000D01*
D12*
%TO.C,D110*%
X145000000Y-81000000D02*
X145000000Y-82580000D01*
X144560000Y-83000000D02*
X145000000Y-82580000D01*
X144560000Y-83000000D02*
X140990000Y-83000000D01*
X140990000Y-83000000D02*
X140990000Y-80990000D01*
%TO.C,D109*%
X122000000Y-83030000D02*
X122000000Y-81020000D01*
X125570000Y-83030000D02*
X122000000Y-83030000D01*
X125570000Y-83030000D02*
X126010000Y-82610000D01*
X126010000Y-81030000D02*
X126010000Y-82610000D01*
%TO.C,D108*%
X179010000Y-109010000D02*
X179010000Y-107000000D01*
X182580000Y-109010000D02*
X179010000Y-109010000D01*
X182580000Y-109010000D02*
X183020000Y-108590000D01*
X183020000Y-107010000D02*
X183020000Y-108590000D01*
%TO.C,D107*%
X160010000Y-109010000D02*
X160010000Y-107000000D01*
X163580000Y-109010000D02*
X160010000Y-109010000D01*
X163580000Y-109010000D02*
X164020000Y-108590000D01*
X164020000Y-107010000D02*
X164020000Y-108590000D01*
%TO.C,D106*%
X141010000Y-109010000D02*
X141010000Y-107000000D01*
X144580000Y-109010000D02*
X141010000Y-109010000D01*
X144580000Y-109010000D02*
X145020000Y-108590000D01*
X145020000Y-107010000D02*
X145020000Y-108590000D01*
%TO.C,D105*%
X126020000Y-107010000D02*
X126020000Y-108590000D01*
X125580000Y-109010000D02*
X126020000Y-108590000D01*
X125580000Y-109010000D02*
X122010000Y-109010000D01*
X122010000Y-109010000D02*
X122010000Y-107000000D01*
%TO.C,D104*%
X122010000Y-150180000D02*
X122010000Y-148600000D01*
X122450000Y-148180000D02*
X122010000Y-148600000D01*
X122450000Y-148180000D02*
X126020000Y-148180000D01*
X126020000Y-148180000D02*
X126020000Y-150190000D01*
%TO.C,D103*%
X145020000Y-148180000D02*
X145020000Y-150190000D01*
X141450000Y-148180000D02*
X145020000Y-148180000D01*
X141450000Y-148180000D02*
X141010000Y-148600000D01*
X141010000Y-150180000D02*
X141010000Y-148600000D01*
%TO.C,D102*%
X164020000Y-148180000D02*
X164020000Y-150190000D01*
X160450000Y-148180000D02*
X164020000Y-148180000D01*
X160450000Y-148180000D02*
X160010000Y-148600000D01*
X160010000Y-150180000D02*
X160010000Y-148600000D01*
%TO.C,D101*%
X183020000Y-148180000D02*
X183020000Y-150190000D01*
X179450000Y-148180000D02*
X183020000Y-148180000D01*
X179450000Y-148180000D02*
X179010000Y-148600000D01*
X179010000Y-150180000D02*
X179010000Y-148600000D01*
%TO.C,R101*%
X189022742Y-151472500D02*
X189497258Y-151472500D01*
X189022742Y-150427500D02*
X189497258Y-150427500D01*
%TD*%
M02*
