%TF.GenerationSoftware,KiCad,Pcbnew,7.0.2*%
%TF.CreationDate,2023-07-16T23:26:32-06:00*%
%TF.ProjectId,dc31,64633331-2e6b-4696-9361-645f70636258,rev?*%
%TF.SameCoordinates,Original*%
%TF.FileFunction,Paste,Top*%
%TF.FilePolarity,Positive*%
%FSLAX46Y46*%
G04 Gerber Fmt 4.6, Leading zero omitted, Abs format (unit mm)*
G04 Created by KiCad (PCBNEW 7.0.2) date 2023-07-16 23:26:32*
%MOMM*%
%LPD*%
G01*
G04 APERTURE LIST*
G04 Aperture macros list*
%AMRoundRect*
0 Rectangle with rounded corners*
0 $1 Rounding radius*
0 $2 $3 $4 $5 $6 $7 $8 $9 X,Y pos of 4 corners*
0 Add a 4 corners polygon primitive as box body*
4,1,4,$2,$3,$4,$5,$6,$7,$8,$9,$2,$3,0*
0 Add four circle primitives for the rounded corners*
1,1,$1+$1,$2,$3*
1,1,$1+$1,$4,$5*
1,1,$1+$1,$6,$7*
1,1,$1+$1,$8,$9*
0 Add four rect primitives between the rounded corners*
20,1,$1+$1,$2,$3,$4,$5,0*
20,1,$1+$1,$4,$5,$6,$7,0*
20,1,$1+$1,$6,$7,$8,$9,0*
20,1,$1+$1,$8,$9,$2,$3,0*%
G04 Aperture macros list end*
%ADD10R,2.500000X1.250000*%
%ADD11R,0.700000X1.600000*%
%ADD12R,1.200000X1.400000*%
%ADD13R,1.200000X2.200000*%
%ADD14R,1.600000X1.400000*%
%ADD15RoundRect,0.112500X0.187500X0.112500X-0.187500X0.112500X-0.187500X-0.112500X0.187500X-0.112500X0*%
%ADD16RoundRect,0.200000X-0.200000X-0.275000X0.200000X-0.275000X0.200000X0.275000X-0.200000X0.275000X0*%
%ADD17RoundRect,0.250000X-0.250000X-0.475000X0.250000X-0.475000X0.250000X0.475000X-0.250000X0.475000X0*%
%ADD18RoundRect,0.160000X0.840000X0.160000X-0.840000X0.160000X-0.840000X-0.160000X0.840000X-0.160000X0*%
%ADD19RoundRect,0.225000X0.250000X-0.225000X0.250000X0.225000X-0.250000X0.225000X-0.250000X-0.225000X0*%
%ADD20RoundRect,0.200000X0.200000X0.275000X-0.200000X0.275000X-0.200000X-0.275000X0.200000X-0.275000X0*%
%ADD21RoundRect,0.150000X-0.150000X0.587500X-0.150000X-0.587500X0.150000X-0.587500X0.150000X0.587500X0*%
%ADD22RoundRect,0.150000X-0.825000X-0.150000X0.825000X-0.150000X0.825000X0.150000X-0.825000X0.150000X0*%
%ADD23R,3.400000X1.300000*%
%ADD24RoundRect,0.112500X-0.112500X0.187500X-0.112500X-0.187500X0.112500X-0.187500X0.112500X0.187500X0*%
%ADD25RoundRect,0.225000X0.225000X0.250000X-0.225000X0.250000X-0.225000X-0.250000X0.225000X-0.250000X0*%
%ADD26RoundRect,0.182500X0.182500X0.182500X-0.182500X0.182500X-0.182500X-0.182500X0.182500X-0.182500X0*%
%ADD27RoundRect,0.062500X0.350000X0.062500X-0.350000X0.062500X-0.350000X-0.062500X0.350000X-0.062500X0*%
%ADD28RoundRect,0.062500X0.062500X0.350000X-0.062500X0.350000X-0.062500X-0.350000X0.062500X-0.350000X0*%
%ADD29RoundRect,0.200000X-0.275000X0.200000X-0.275000X-0.200000X0.275000X-0.200000X0.275000X0.200000X0*%
%ADD30RoundRect,0.125000X0.125000X0.125000X-0.125000X0.125000X-0.125000X-0.125000X0.125000X-0.125000X0*%
%ADD31RoundRect,0.100000X0.637500X0.100000X-0.637500X0.100000X-0.637500X-0.100000X0.637500X-0.100000X0*%
%ADD32RoundRect,0.250000X-0.475000X0.250000X-0.475000X-0.250000X0.475000X-0.250000X0.475000X0.250000X0*%
%ADD33RoundRect,0.250000X0.250000X0.475000X-0.250000X0.475000X-0.250000X-0.475000X0.250000X-0.475000X0*%
%ADD34RoundRect,0.225000X-0.225000X-0.250000X0.225000X-0.250000X0.225000X0.250000X-0.225000X0.250000X0*%
%ADD35RoundRect,0.112500X-0.187500X-0.112500X0.187500X-0.112500X0.187500X0.112500X-0.187500X0.112500X0*%
G04 APERTURE END LIST*
D10*
%TO.C,SW14*%
X199985000Y-119270000D03*
X199985000Y-116770000D03*
X199985000Y-114270000D03*
%TD*%
D11*
%TO.C,J9*%
X131540000Y-55920000D03*
X132640000Y-55920000D03*
X133740000Y-55920000D03*
X134840000Y-55920000D03*
X135940000Y-55920000D03*
X137040000Y-55920000D03*
X138140000Y-55920000D03*
X139240000Y-55920000D03*
X140340000Y-55920000D03*
D12*
X141490000Y-55420000D03*
D13*
X141490000Y-45820000D03*
D14*
X126890000Y-55420000D03*
D13*
X125990000Y-45820000D03*
%TD*%
D15*
%TO.C,D11*%
X124837500Y-60540000D03*
X122737500Y-60540000D03*
%TD*%
D16*
%TO.C,R11*%
X110275000Y-92990000D03*
X108625000Y-92990000D03*
%TD*%
D17*
%TO.C,C3*%
X100640000Y-90750000D03*
X102540000Y-90750000D03*
%TD*%
D15*
%TO.C,D2*%
X143787500Y-108380000D03*
X141687500Y-108380000D03*
%TD*%
%TO.C,D14*%
X112070000Y-100410000D03*
X109970000Y-100410000D03*
%TD*%
%TO.C,D4*%
X181887500Y-108380000D03*
X179787500Y-108380000D03*
%TD*%
D18*
%TO.C,U5*%
X167870000Y-45590000D03*
X167870000Y-43050000D03*
X161570000Y-43050000D03*
X161570000Y-44320000D03*
X161570000Y-45590000D03*
%TD*%
D19*
%TO.C,C5*%
X158570000Y-45195000D03*
X158570000Y-43645000D03*
%TD*%
D16*
%TO.C,R7*%
X163835000Y-58570000D03*
X165485000Y-58570000D03*
%TD*%
D20*
%TO.C,R2*%
X196975000Y-69980000D03*
X195325000Y-69980000D03*
%TD*%
D21*
%TO.C,Q1*%
X183870000Y-71352500D03*
X181970000Y-71352500D03*
X182920000Y-73227500D03*
%TD*%
D20*
%TO.C,R1*%
X203650000Y-74605000D03*
X202000000Y-74605000D03*
%TD*%
D22*
%TO.C,U2*%
X193660000Y-72050000D03*
X193660000Y-73320000D03*
X193660000Y-74590000D03*
X193660000Y-75860000D03*
X198610000Y-75860000D03*
X198610000Y-74590000D03*
X198610000Y-73320000D03*
X198610000Y-72050000D03*
%TD*%
D15*
%TO.C,D5*%
X124737500Y-148880000D03*
X122637500Y-148880000D03*
%TD*%
D23*
%TO.C,L1*%
X109970000Y-95930000D03*
X109970000Y-98030000D03*
%TD*%
D15*
%TO.C,D10*%
X143810000Y-82540000D03*
X141710000Y-82540000D03*
%TD*%
D24*
%TO.C,D15*%
X195240000Y-112140000D03*
X195240000Y-114240000D03*
%TD*%
D25*
%TO.C,C6*%
X167180000Y-74590000D03*
X165630000Y-74590000D03*
%TD*%
D26*
%TO.C,U6*%
X104230000Y-94857500D03*
X104230000Y-94017500D03*
X103390000Y-94857500D03*
X103390000Y-94017500D03*
D27*
X105272500Y-95187500D03*
X105272500Y-94687500D03*
X105272500Y-94187500D03*
X105272500Y-93687500D03*
D28*
X104560000Y-92975000D03*
X104060000Y-92975000D03*
X103560000Y-92975000D03*
X103060000Y-92975000D03*
D27*
X102347500Y-93687500D03*
X102347500Y-94187500D03*
X102347500Y-94687500D03*
X102347500Y-95187500D03*
D28*
X103060000Y-95900000D03*
X103560000Y-95900000D03*
X104060000Y-95900000D03*
X104560000Y-95900000D03*
%TD*%
D16*
%TO.C,R9*%
X165580000Y-72550000D03*
X167230000Y-72550000D03*
%TD*%
D20*
%TO.C,R4*%
X190985000Y-75585000D03*
X189335000Y-75585000D03*
%TD*%
D16*
%TO.C,R3*%
X189345000Y-71995000D03*
X190995000Y-71995000D03*
%TD*%
D15*
%TO.C,D8*%
X181887500Y-148880000D03*
X179787500Y-148880000D03*
%TD*%
%TO.C,D7*%
X162837500Y-148880000D03*
X160737500Y-148880000D03*
%TD*%
D29*
%TO.C,R8*%
X177770000Y-73195000D03*
X177770000Y-74845000D03*
%TD*%
D30*
%TO.C,U3*%
X164330000Y-63480000D03*
X164330000Y-62860000D03*
X163710000Y-63480000D03*
X163710000Y-62860000D03*
D27*
X165457500Y-63920000D03*
X165457500Y-63420000D03*
X165457500Y-62920000D03*
X165457500Y-62420000D03*
D28*
X164770000Y-61732500D03*
X164270000Y-61732500D03*
X163770000Y-61732500D03*
X163270000Y-61732500D03*
D27*
X162582500Y-62420000D03*
X162582500Y-62920000D03*
X162582500Y-63420000D03*
X162582500Y-63920000D03*
D28*
X163270000Y-64607500D03*
X163770000Y-64607500D03*
X164270000Y-64607500D03*
X164770000Y-64607500D03*
%TD*%
D15*
%TO.C,D1*%
X124737500Y-108380000D03*
X122637500Y-108380000D03*
%TD*%
D31*
%TO.C,U4*%
X175225000Y-75320000D03*
X175225000Y-74670000D03*
X175225000Y-74020000D03*
X175225000Y-73370000D03*
X175225000Y-72720000D03*
X175225000Y-72070000D03*
X175225000Y-71420000D03*
X169500000Y-71420000D03*
X169500000Y-72070000D03*
X169500000Y-72720000D03*
X169500000Y-73370000D03*
X169500000Y-74020000D03*
X169500000Y-74670000D03*
X169500000Y-75320000D03*
%TD*%
D15*
%TO.C,D9*%
X124740000Y-82530000D03*
X122640000Y-82530000D03*
%TD*%
D32*
%TO.C,C2*%
X100000000Y-95160000D03*
X100000000Y-97060000D03*
%TD*%
D15*
%TO.C,D6*%
X143787500Y-148880000D03*
X141687500Y-148880000D03*
%TD*%
%TO.C,D12*%
X143770000Y-60580000D03*
X141670000Y-60580000D03*
%TD*%
%TO.C,D3*%
X162837500Y-108380000D03*
X160737500Y-108380000D03*
%TD*%
D33*
%TO.C,C7*%
X106740000Y-98120000D03*
X104840000Y-98120000D03*
%TD*%
D34*
%TO.C,C4*%
X132930000Y-60910000D03*
X134480000Y-60910000D03*
%TD*%
D16*
%TO.C,R6*%
X182945000Y-75530000D03*
X184595000Y-75530000D03*
%TD*%
D25*
%TO.C,C1*%
X190935000Y-73765000D03*
X189385000Y-73765000D03*
%TD*%
D20*
%TO.C,R5*%
X197015000Y-44980000D03*
X195365000Y-44980000D03*
%TD*%
D16*
%TO.C,R10*%
X178985000Y-44980000D03*
X180635000Y-44980000D03*
%TD*%
D35*
%TO.C,D13*%
X190790000Y-44980000D03*
X192890000Y-44980000D03*
%TD*%
%TO.C,D16*%
X183130000Y-44980000D03*
X185230000Y-44980000D03*
%TD*%
M02*
