%TF.GenerationSoftware,KiCad,Pcbnew,7.0.2*%
%TF.CreationDate,2023-07-16T23:26:32-06:00*%
%TF.ProjectId,dc31,64633331-2e6b-4696-9361-645f70636258,rev?*%
%TF.SameCoordinates,Original*%
%TF.FileFunction,AssemblyDrawing,Bot*%
%FSLAX46Y46*%
G04 Gerber Fmt 4.6, Leading zero omitted, Abs format (unit mm)*
G04 Created by KiCad (PCBNEW 7.0.2) date 2023-07-16 23:26:32*
%MOMM*%
%LPD*%
G01*
G04 APERTURE LIST*
%ADD10C,0.150000*%
%ADD11C,0.100000*%
G04 APERTURE END LIST*
D10*
%TO.C,J7*%
X107341609Y-133902409D02*
X107008276Y-133902409D01*
X106865419Y-134426219D02*
X107341609Y-134426219D01*
X107341609Y-134426219D02*
X107341609Y-133426219D01*
X107341609Y-133426219D02*
X106865419Y-133426219D01*
X106008276Y-133759552D02*
X106008276Y-134426219D01*
X106436847Y-133759552D02*
X106436847Y-134283361D01*
X106436847Y-134283361D02*
X106389228Y-134378600D01*
X106389228Y-134378600D02*
X106293990Y-134426219D01*
X106293990Y-134426219D02*
X106151133Y-134426219D01*
X106151133Y-134426219D02*
X106055895Y-134378600D01*
X106055895Y-134378600D02*
X106008276Y-134330980D01*
X105532085Y-134426219D02*
X105532085Y-133759552D01*
X105532085Y-133950028D02*
X105484466Y-133854790D01*
X105484466Y-133854790D02*
X105436847Y-133807171D01*
X105436847Y-133807171D02*
X105341609Y-133759552D01*
X105341609Y-133759552D02*
X105246371Y-133759552D01*
X104770180Y-134426219D02*
X104865418Y-134378600D01*
X104865418Y-134378600D02*
X104913037Y-134330980D01*
X104913037Y-134330980D02*
X104960656Y-134235742D01*
X104960656Y-134235742D02*
X104960656Y-133950028D01*
X104960656Y-133950028D02*
X104913037Y-133854790D01*
X104913037Y-133854790D02*
X104865418Y-133807171D01*
X104865418Y-133807171D02*
X104770180Y-133759552D01*
X104770180Y-133759552D02*
X104627323Y-133759552D01*
X104627323Y-133759552D02*
X104532085Y-133807171D01*
X104532085Y-133807171D02*
X104484466Y-133854790D01*
X104484466Y-133854790D02*
X104436847Y-133950028D01*
X104436847Y-133950028D02*
X104436847Y-134235742D01*
X104436847Y-134235742D02*
X104484466Y-134330980D01*
X104484466Y-134330980D02*
X104532085Y-134378600D01*
X104532085Y-134378600D02*
X104627323Y-134426219D01*
X104627323Y-134426219D02*
X104770180Y-134426219D01*
X104008275Y-134426219D02*
X104008275Y-133759552D01*
X104008275Y-133950028D02*
X103960656Y-133854790D01*
X103960656Y-133854790D02*
X103913037Y-133807171D01*
X103913037Y-133807171D02*
X103817799Y-133759552D01*
X103817799Y-133759552D02*
X103722561Y-133759552D01*
X102960656Y-134426219D02*
X102960656Y-133902409D01*
X102960656Y-133902409D02*
X103008275Y-133807171D01*
X103008275Y-133807171D02*
X103103513Y-133759552D01*
X103103513Y-133759552D02*
X103293989Y-133759552D01*
X103293989Y-133759552D02*
X103389227Y-133807171D01*
X102960656Y-134378600D02*
X103055894Y-134426219D01*
X103055894Y-134426219D02*
X103293989Y-134426219D01*
X103293989Y-134426219D02*
X103389227Y-134378600D01*
X103389227Y-134378600D02*
X103436846Y-134283361D01*
X103436846Y-134283361D02*
X103436846Y-134188123D01*
X103436846Y-134188123D02*
X103389227Y-134092885D01*
X103389227Y-134092885D02*
X103293989Y-134045266D01*
X103293989Y-134045266D02*
X103055894Y-134045266D01*
X103055894Y-134045266D02*
X102960656Y-133997647D01*
X102055894Y-134378600D02*
X102151132Y-134426219D01*
X102151132Y-134426219D02*
X102341608Y-134426219D01*
X102341608Y-134426219D02*
X102436846Y-134378600D01*
X102436846Y-134378600D02*
X102484465Y-134330980D01*
X102484465Y-134330980D02*
X102532084Y-134235742D01*
X102532084Y-134235742D02*
X102532084Y-133950028D01*
X102532084Y-133950028D02*
X102484465Y-133854790D01*
X102484465Y-133854790D02*
X102436846Y-133807171D01*
X102436846Y-133807171D02*
X102341608Y-133759552D01*
X102341608Y-133759552D02*
X102151132Y-133759552D01*
X102151132Y-133759552D02*
X102055894Y-133807171D01*
X101627322Y-134426219D02*
X101627322Y-133426219D01*
X101532084Y-134045266D02*
X101246370Y-134426219D01*
X101246370Y-133759552D02*
X101627322Y-134140504D01*
X103780419Y-122450266D02*
X104494704Y-122450266D01*
X104494704Y-122450266D02*
X104637561Y-122402647D01*
X104637561Y-122402647D02*
X104732800Y-122307409D01*
X104732800Y-122307409D02*
X104780419Y-122164552D01*
X104780419Y-122164552D02*
X104780419Y-122069314D01*
X103780419Y-122831219D02*
X103780419Y-123497885D01*
X103780419Y-123497885D02*
X104780419Y-123069314D01*
%TO.C,TP2*%
X204211904Y-124492619D02*
X203640476Y-124492619D01*
X203926190Y-125492619D02*
X203926190Y-124492619D01*
X203307142Y-125492619D02*
X203307142Y-124492619D01*
X203307142Y-124492619D02*
X202926190Y-124492619D01*
X202926190Y-124492619D02*
X202830952Y-124540238D01*
X202830952Y-124540238D02*
X202783333Y-124587857D01*
X202783333Y-124587857D02*
X202735714Y-124683095D01*
X202735714Y-124683095D02*
X202735714Y-124825952D01*
X202735714Y-124825952D02*
X202783333Y-124921190D01*
X202783333Y-124921190D02*
X202830952Y-124968809D01*
X202830952Y-124968809D02*
X202926190Y-125016428D01*
X202926190Y-125016428D02*
X203307142Y-125016428D01*
X202354761Y-124587857D02*
X202307142Y-124540238D01*
X202307142Y-124540238D02*
X202211904Y-124492619D01*
X202211904Y-124492619D02*
X201973809Y-124492619D01*
X201973809Y-124492619D02*
X201878571Y-124540238D01*
X201878571Y-124540238D02*
X201830952Y-124587857D01*
X201830952Y-124587857D02*
X201783333Y-124683095D01*
X201783333Y-124683095D02*
X201783333Y-124778333D01*
X201783333Y-124778333D02*
X201830952Y-124921190D01*
X201830952Y-124921190D02*
X202402380Y-125492619D01*
X202402380Y-125492619D02*
X201783333Y-125492619D01*
%TO.C,TP3*%
X204151904Y-128782619D02*
X203580476Y-128782619D01*
X203866190Y-129782619D02*
X203866190Y-128782619D01*
X203247142Y-129782619D02*
X203247142Y-128782619D01*
X203247142Y-128782619D02*
X202866190Y-128782619D01*
X202866190Y-128782619D02*
X202770952Y-128830238D01*
X202770952Y-128830238D02*
X202723333Y-128877857D01*
X202723333Y-128877857D02*
X202675714Y-128973095D01*
X202675714Y-128973095D02*
X202675714Y-129115952D01*
X202675714Y-129115952D02*
X202723333Y-129211190D01*
X202723333Y-129211190D02*
X202770952Y-129258809D01*
X202770952Y-129258809D02*
X202866190Y-129306428D01*
X202866190Y-129306428D02*
X203247142Y-129306428D01*
X202342380Y-128782619D02*
X201723333Y-128782619D01*
X201723333Y-128782619D02*
X202056666Y-129163571D01*
X202056666Y-129163571D02*
X201913809Y-129163571D01*
X201913809Y-129163571D02*
X201818571Y-129211190D01*
X201818571Y-129211190D02*
X201770952Y-129258809D01*
X201770952Y-129258809D02*
X201723333Y-129354047D01*
X201723333Y-129354047D02*
X201723333Y-129592142D01*
X201723333Y-129592142D02*
X201770952Y-129687380D01*
X201770952Y-129687380D02*
X201818571Y-129735000D01*
X201818571Y-129735000D02*
X201913809Y-129782619D01*
X201913809Y-129782619D02*
X202199523Y-129782619D01*
X202199523Y-129782619D02*
X202294761Y-129735000D01*
X202294761Y-129735000D02*
X202342380Y-129687380D01*
D11*
%TO.C,J7*%
X108767800Y-132963600D02*
X108767800Y-113603600D01*
X108767800Y-120733600D02*
X107567800Y-120733600D01*
X108767800Y-113603600D02*
X107767800Y-112603600D01*
X107767800Y-112603600D02*
X99867800Y-112603600D01*
X107567800Y-131773600D02*
X107567800Y-124833600D01*
X107567800Y-124833600D02*
X108767800Y-124833600D01*
X107567800Y-124833600D02*
X107567800Y-124833600D01*
X107567800Y-120733600D02*
X107567800Y-113793600D01*
X107567800Y-113793600D02*
X101067800Y-113793600D01*
X101067800Y-131773600D02*
X107567800Y-131773600D01*
X101067800Y-113793600D02*
X101067800Y-131773600D01*
X99867800Y-132963600D02*
X108767800Y-132963600D01*
X99867800Y-112603600D02*
X99867800Y-132963600D01*
%TD*%
M02*
