%TF.GenerationSoftware,KiCad,Pcbnew,7.0.2*%
%TF.CreationDate,2023-07-16T23:24:56-06:00*%
%TF.ProjectId,dc31-front,64633331-2d66-4726-9f6e-742e6b696361,rev?*%
%TF.SameCoordinates,Original*%
%TF.FileFunction,Copper,L2,Bot*%
%TF.FilePolarity,Positive*%
%FSLAX46Y46*%
G04 Gerber Fmt 4.6, Leading zero omitted, Abs format (unit mm)*
G04 Created by KiCad (PCBNEW 7.0.2) date 2023-07-16 23:24:56*
%MOMM*%
%LPD*%
G01*
G04 APERTURE LIST*
G04 Aperture macros list*
%AMRoundRect*
0 Rectangle with rounded corners*
0 $1 Rounding radius*
0 $2 $3 $4 $5 $6 $7 $8 $9 X,Y pos of 4 corners*
0 Add a 4 corners polygon primitive as box body*
4,1,4,$2,$3,$4,$5,$6,$7,$8,$9,$2,$3,0*
0 Add four circle primitives for the rounded corners*
1,1,$1+$1,$2,$3*
1,1,$1+$1,$4,$5*
1,1,$1+$1,$6,$7*
1,1,$1+$1,$8,$9*
0 Add four rect primitives between the rounded corners*
20,1,$1+$1,$2,$3,$4,$5,0*
20,1,$1+$1,$4,$5,$6,$7,0*
20,1,$1+$1,$6,$7,$8,$9,0*
20,1,$1+$1,$8,$9,$2,$3,0*%
G04 Aperture macros list end*
%ADD10C,0.150000*%
%TA.AperFunction,NonConductor*%
%ADD11C,0.150000*%
%TD*%
%TA.AperFunction,ComponentPad*%
%ADD12O,1.700000X1.700000*%
%TD*%
%TA.AperFunction,ComponentPad*%
%ADD13C,1.700000*%
%TD*%
%TA.AperFunction,SMDPad,CuDef*%
%ADD14R,1.900000X1.000000*%
%TD*%
%TA.AperFunction,SMDPad,CuDef*%
%ADD15RoundRect,0.225000X0.225000X0.250000X-0.225000X0.250000X-0.225000X-0.250000X0.225000X-0.250000X0*%
%TD*%
%TA.AperFunction,SMDPad,CuDef*%
%ADD16RoundRect,0.225000X-0.225000X-0.250000X0.225000X-0.250000X0.225000X0.250000X-0.225000X0.250000X0*%
%TD*%
%TA.AperFunction,SMDPad,CuDef*%
%ADD17R,0.500000X1.000000*%
%TD*%
%TA.AperFunction,SMDPad,CuDef*%
%ADD18R,0.350000X1.000000*%
%TD*%
%TA.AperFunction,SMDPad,CuDef*%
%ADD19R,0.600000X1.000000*%
%TD*%
%TA.AperFunction,SMDPad,CuDef*%
%ADD20R,0.450000X1.000000*%
%TD*%
%TA.AperFunction,SMDPad,CuDef*%
%ADD21RoundRect,0.200000X-0.200000X-0.275000X0.200000X-0.275000X0.200000X0.275000X-0.200000X0.275000X0*%
%TD*%
%TA.AperFunction,Conductor*%
%ADD22C,0.203200*%
%TD*%
%TA.AperFunction,Conductor*%
%ADD23C,0.381000*%
%TD*%
G04 APERTURE END LIST*
D10*
D11*
X99266428Y-119042142D02*
X99218809Y-118994523D01*
X99218809Y-118994523D02*
X99171190Y-118899285D01*
X99171190Y-118899285D02*
X99171190Y-118804047D01*
X99171190Y-118804047D02*
X99218809Y-118708809D01*
X99218809Y-118708809D02*
X99266428Y-118661190D01*
X99266428Y-118661190D02*
X99361666Y-118613571D01*
X99361666Y-118613571D02*
X99456904Y-118613571D01*
X99456904Y-118613571D02*
X99552142Y-118661190D01*
X99552142Y-118661190D02*
X99599761Y-118708809D01*
X99599761Y-118708809D02*
X99647380Y-118804047D01*
X99647380Y-118804047D02*
X99647380Y-118899285D01*
X99647380Y-118899285D02*
X99599761Y-118994523D01*
X99599761Y-118994523D02*
X99552142Y-119042142D01*
X99171190Y-119042142D02*
X99552142Y-119042142D01*
X99552142Y-119042142D02*
X99599761Y-119089761D01*
X99599761Y-119089761D02*
X99599761Y-119137380D01*
X99599761Y-119137380D02*
X99552142Y-119232619D01*
X99552142Y-119232619D02*
X99456904Y-119280238D01*
X99456904Y-119280238D02*
X99218809Y-119280238D01*
X99218809Y-119280238D02*
X99075952Y-119185000D01*
X99075952Y-119185000D02*
X98980714Y-119042142D01*
X98980714Y-119042142D02*
X98933095Y-118851666D01*
X98933095Y-118851666D02*
X98980714Y-118661190D01*
X98980714Y-118661190D02*
X99075952Y-118518333D01*
X99075952Y-118518333D02*
X99218809Y-118423095D01*
X99218809Y-118423095D02*
X99409285Y-118375476D01*
X99409285Y-118375476D02*
X99599761Y-118423095D01*
X99599761Y-118423095D02*
X99742619Y-118518333D01*
X99742619Y-118518333D02*
X99837857Y-118661190D01*
X99837857Y-118661190D02*
X99885476Y-118851666D01*
X99885476Y-118851666D02*
X99837857Y-119042142D01*
X99837857Y-119042142D02*
X99742619Y-119185000D01*
X99742619Y-119708809D02*
X98742619Y-119708809D01*
X99742619Y-120137380D02*
X99218809Y-120137380D01*
X99218809Y-120137380D02*
X99123571Y-120089761D01*
X99123571Y-120089761D02*
X99075952Y-119994523D01*
X99075952Y-119994523D02*
X99075952Y-119851666D01*
X99075952Y-119851666D02*
X99123571Y-119756428D01*
X99123571Y-119756428D02*
X99171190Y-119708809D01*
X99742619Y-121042142D02*
X99218809Y-121042142D01*
X99218809Y-121042142D02*
X99123571Y-120994523D01*
X99123571Y-120994523D02*
X99075952Y-120899285D01*
X99075952Y-120899285D02*
X99075952Y-120708809D01*
X99075952Y-120708809D02*
X99123571Y-120613571D01*
X99695000Y-121042142D02*
X99742619Y-120946904D01*
X99742619Y-120946904D02*
X99742619Y-120708809D01*
X99742619Y-120708809D02*
X99695000Y-120613571D01*
X99695000Y-120613571D02*
X99599761Y-120565952D01*
X99599761Y-120565952D02*
X99504523Y-120565952D01*
X99504523Y-120565952D02*
X99409285Y-120613571D01*
X99409285Y-120613571D02*
X99361666Y-120708809D01*
X99361666Y-120708809D02*
X99361666Y-120946904D01*
X99361666Y-120946904D02*
X99314047Y-121042142D01*
X99742619Y-121518333D02*
X99075952Y-121518333D01*
X99171190Y-121518333D02*
X99123571Y-121565952D01*
X99123571Y-121565952D02*
X99075952Y-121661190D01*
X99075952Y-121661190D02*
X99075952Y-121804047D01*
X99075952Y-121804047D02*
X99123571Y-121899285D01*
X99123571Y-121899285D02*
X99218809Y-121946904D01*
X99218809Y-121946904D02*
X99742619Y-121946904D01*
X99218809Y-121946904D02*
X99123571Y-121994523D01*
X99123571Y-121994523D02*
X99075952Y-122089761D01*
X99075952Y-122089761D02*
X99075952Y-122232618D01*
X99075952Y-122232618D02*
X99123571Y-122327857D01*
X99123571Y-122327857D02*
X99218809Y-122375476D01*
X99218809Y-122375476D02*
X99742619Y-122375476D01*
X99695000Y-122804047D02*
X99742619Y-122899285D01*
X99742619Y-122899285D02*
X99742619Y-123089761D01*
X99742619Y-123089761D02*
X99695000Y-123184999D01*
X99695000Y-123184999D02*
X99599761Y-123232618D01*
X99599761Y-123232618D02*
X99552142Y-123232618D01*
X99552142Y-123232618D02*
X99456904Y-123184999D01*
X99456904Y-123184999D02*
X99409285Y-123089761D01*
X99409285Y-123089761D02*
X99409285Y-122946904D01*
X99409285Y-122946904D02*
X99361666Y-122851666D01*
X99361666Y-122851666D02*
X99266428Y-122804047D01*
X99266428Y-122804047D02*
X99218809Y-122804047D01*
X99218809Y-122804047D02*
X99123571Y-122851666D01*
X99123571Y-122851666D02*
X99075952Y-122946904D01*
X99075952Y-122946904D02*
X99075952Y-123089761D01*
X99075952Y-123089761D02*
X99123571Y-123184999D01*
X99075952Y-123518333D02*
X99075952Y-123899285D01*
X98742619Y-123661190D02*
X99599761Y-123661190D01*
X99599761Y-123661190D02*
X99695000Y-123708809D01*
X99695000Y-123708809D02*
X99742619Y-123804047D01*
X99742619Y-123804047D02*
X99742619Y-123899285D01*
X99695000Y-124613571D02*
X99742619Y-124518333D01*
X99742619Y-124518333D02*
X99742619Y-124327857D01*
X99742619Y-124327857D02*
X99695000Y-124232619D01*
X99695000Y-124232619D02*
X99599761Y-124185000D01*
X99599761Y-124185000D02*
X99218809Y-124185000D01*
X99218809Y-124185000D02*
X99123571Y-124232619D01*
X99123571Y-124232619D02*
X99075952Y-124327857D01*
X99075952Y-124327857D02*
X99075952Y-124518333D01*
X99075952Y-124518333D02*
X99123571Y-124613571D01*
X99123571Y-124613571D02*
X99218809Y-124661190D01*
X99218809Y-124661190D02*
X99314047Y-124661190D01*
X99314047Y-124661190D02*
X99409285Y-124185000D01*
X99742619Y-125089762D02*
X99075952Y-125089762D01*
X99266428Y-125089762D02*
X99171190Y-125137381D01*
X99171190Y-125137381D02*
X99123571Y-125185000D01*
X99123571Y-125185000D02*
X99075952Y-125280238D01*
X99075952Y-125280238D02*
X99075952Y-125375476D01*
X99266428Y-126327857D02*
X99218809Y-126280238D01*
X99218809Y-126280238D02*
X99171190Y-126185000D01*
X99171190Y-126185000D02*
X99171190Y-126089762D01*
X99171190Y-126089762D02*
X99218809Y-125994524D01*
X99218809Y-125994524D02*
X99266428Y-125946905D01*
X99266428Y-125946905D02*
X99361666Y-125899286D01*
X99361666Y-125899286D02*
X99456904Y-125899286D01*
X99456904Y-125899286D02*
X99552142Y-125946905D01*
X99552142Y-125946905D02*
X99599761Y-125994524D01*
X99599761Y-125994524D02*
X99647380Y-126089762D01*
X99647380Y-126089762D02*
X99647380Y-126185000D01*
X99647380Y-126185000D02*
X99599761Y-126280238D01*
X99599761Y-126280238D02*
X99552142Y-126327857D01*
X99171190Y-126327857D02*
X99552142Y-126327857D01*
X99552142Y-126327857D02*
X99599761Y-126375476D01*
X99599761Y-126375476D02*
X99599761Y-126423095D01*
X99599761Y-126423095D02*
X99552142Y-126518334D01*
X99552142Y-126518334D02*
X99456904Y-126565953D01*
X99456904Y-126565953D02*
X99218809Y-126565953D01*
X99218809Y-126565953D02*
X99075952Y-126470715D01*
X99075952Y-126470715D02*
X98980714Y-126327857D01*
X98980714Y-126327857D02*
X98933095Y-126137381D01*
X98933095Y-126137381D02*
X98980714Y-125946905D01*
X98980714Y-125946905D02*
X99075952Y-125804048D01*
X99075952Y-125804048D02*
X99218809Y-125708810D01*
X99218809Y-125708810D02*
X99409285Y-125661191D01*
X99409285Y-125661191D02*
X99599761Y-125708810D01*
X99599761Y-125708810D02*
X99742619Y-125804048D01*
X99742619Y-125804048D02*
X99837857Y-125946905D01*
X99837857Y-125946905D02*
X99885476Y-126137381D01*
X99885476Y-126137381D02*
X99837857Y-126327857D01*
X99837857Y-126327857D02*
X99742619Y-126470715D01*
X99075952Y-126851667D02*
X99075952Y-127232619D01*
X99742619Y-126994524D02*
X98885476Y-126994524D01*
X98885476Y-126994524D02*
X98790238Y-127042143D01*
X98790238Y-127042143D02*
X98742619Y-127137381D01*
X98742619Y-127137381D02*
X98742619Y-127232619D01*
X99742619Y-127708810D02*
X99695000Y-127613572D01*
X99695000Y-127613572D02*
X99647380Y-127565953D01*
X99647380Y-127565953D02*
X99552142Y-127518334D01*
X99552142Y-127518334D02*
X99266428Y-127518334D01*
X99266428Y-127518334D02*
X99171190Y-127565953D01*
X99171190Y-127565953D02*
X99123571Y-127613572D01*
X99123571Y-127613572D02*
X99075952Y-127708810D01*
X99075952Y-127708810D02*
X99075952Y-127851667D01*
X99075952Y-127851667D02*
X99123571Y-127946905D01*
X99123571Y-127946905D02*
X99171190Y-127994524D01*
X99171190Y-127994524D02*
X99266428Y-128042143D01*
X99266428Y-128042143D02*
X99552142Y-128042143D01*
X99552142Y-128042143D02*
X99647380Y-127994524D01*
X99647380Y-127994524D02*
X99695000Y-127946905D01*
X99695000Y-127946905D02*
X99742619Y-127851667D01*
X99742619Y-127851667D02*
X99742619Y-127708810D01*
X99695000Y-128423096D02*
X99742619Y-128518334D01*
X99742619Y-128518334D02*
X99742619Y-128708810D01*
X99742619Y-128708810D02*
X99695000Y-128804048D01*
X99695000Y-128804048D02*
X99599761Y-128851667D01*
X99599761Y-128851667D02*
X99552142Y-128851667D01*
X99552142Y-128851667D02*
X99456904Y-128804048D01*
X99456904Y-128804048D02*
X99409285Y-128708810D01*
X99409285Y-128708810D02*
X99409285Y-128565953D01*
X99409285Y-128565953D02*
X99361666Y-128470715D01*
X99361666Y-128470715D02*
X99266428Y-128423096D01*
X99266428Y-128423096D02*
X99218809Y-128423096D01*
X99218809Y-128423096D02*
X99123571Y-128470715D01*
X99123571Y-128470715D02*
X99075952Y-128565953D01*
X99075952Y-128565953D02*
X99075952Y-128708810D01*
X99075952Y-128708810D02*
X99123571Y-128804048D01*
X99695000Y-129232620D02*
X99742619Y-129327858D01*
X99742619Y-129327858D02*
X99742619Y-129518334D01*
X99742619Y-129518334D02*
X99695000Y-129613572D01*
X99695000Y-129613572D02*
X99599761Y-129661191D01*
X99599761Y-129661191D02*
X99552142Y-129661191D01*
X99552142Y-129661191D02*
X99456904Y-129613572D01*
X99456904Y-129613572D02*
X99409285Y-129518334D01*
X99409285Y-129518334D02*
X99409285Y-129375477D01*
X99409285Y-129375477D02*
X99361666Y-129280239D01*
X99361666Y-129280239D02*
X99266428Y-129232620D01*
X99266428Y-129232620D02*
X99218809Y-129232620D01*
X99218809Y-129232620D02*
X99123571Y-129280239D01*
X99123571Y-129280239D02*
X99075952Y-129375477D01*
X99075952Y-129375477D02*
X99075952Y-129518334D01*
X99075952Y-129518334D02*
X99123571Y-129613572D01*
X99075952Y-129946906D02*
X99075952Y-130327858D01*
X98742619Y-130089763D02*
X99599761Y-130089763D01*
X99599761Y-130089763D02*
X99695000Y-130137382D01*
X99695000Y-130137382D02*
X99742619Y-130232620D01*
X99742619Y-130232620D02*
X99742619Y-130327858D01*
X99742619Y-130804049D02*
X99695000Y-130708811D01*
X99695000Y-130708811D02*
X99647380Y-130661192D01*
X99647380Y-130661192D02*
X99552142Y-130613573D01*
X99552142Y-130613573D02*
X99266428Y-130613573D01*
X99266428Y-130613573D02*
X99171190Y-130661192D01*
X99171190Y-130661192D02*
X99123571Y-130708811D01*
X99123571Y-130708811D02*
X99075952Y-130804049D01*
X99075952Y-130804049D02*
X99075952Y-130946906D01*
X99075952Y-130946906D02*
X99123571Y-131042144D01*
X99123571Y-131042144D02*
X99171190Y-131089763D01*
X99171190Y-131089763D02*
X99266428Y-131137382D01*
X99266428Y-131137382D02*
X99552142Y-131137382D01*
X99552142Y-131137382D02*
X99647380Y-131089763D01*
X99647380Y-131089763D02*
X99695000Y-131042144D01*
X99695000Y-131042144D02*
X99742619Y-130946906D01*
X99742619Y-130946906D02*
X99742619Y-130804049D01*
X99742619Y-131994525D02*
X98742619Y-131994525D01*
X99695000Y-131994525D02*
X99742619Y-131899287D01*
X99742619Y-131899287D02*
X99742619Y-131708811D01*
X99742619Y-131708811D02*
X99695000Y-131613573D01*
X99695000Y-131613573D02*
X99647380Y-131565954D01*
X99647380Y-131565954D02*
X99552142Y-131518335D01*
X99552142Y-131518335D02*
X99266428Y-131518335D01*
X99266428Y-131518335D02*
X99171190Y-131565954D01*
X99171190Y-131565954D02*
X99123571Y-131613573D01*
X99123571Y-131613573D02*
X99075952Y-131708811D01*
X99075952Y-131708811D02*
X99075952Y-131899287D01*
X99075952Y-131899287D02*
X99123571Y-131994525D01*
X99742619Y-132613573D02*
X99695000Y-132518335D01*
X99695000Y-132518335D02*
X99647380Y-132470716D01*
X99647380Y-132470716D02*
X99552142Y-132423097D01*
X99552142Y-132423097D02*
X99266428Y-132423097D01*
X99266428Y-132423097D02*
X99171190Y-132470716D01*
X99171190Y-132470716D02*
X99123571Y-132518335D01*
X99123571Y-132518335D02*
X99075952Y-132613573D01*
X99075952Y-132613573D02*
X99075952Y-132756430D01*
X99075952Y-132756430D02*
X99123571Y-132851668D01*
X99123571Y-132851668D02*
X99171190Y-132899287D01*
X99171190Y-132899287D02*
X99266428Y-132946906D01*
X99266428Y-132946906D02*
X99552142Y-132946906D01*
X99552142Y-132946906D02*
X99647380Y-132899287D01*
X99647380Y-132899287D02*
X99695000Y-132851668D01*
X99695000Y-132851668D02*
X99742619Y-132756430D01*
X99742619Y-132756430D02*
X99742619Y-132613573D01*
X99075952Y-133375478D02*
X99742619Y-133375478D01*
X99171190Y-133375478D02*
X99123571Y-133423097D01*
X99123571Y-133423097D02*
X99075952Y-133518335D01*
X99075952Y-133518335D02*
X99075952Y-133661192D01*
X99075952Y-133661192D02*
X99123571Y-133756430D01*
X99123571Y-133756430D02*
X99218809Y-133804049D01*
X99218809Y-133804049D02*
X99742619Y-133804049D01*
X99647380Y-134280240D02*
X99695000Y-134327859D01*
X99695000Y-134327859D02*
X99742619Y-134280240D01*
X99742619Y-134280240D02*
X99695000Y-134232621D01*
X99695000Y-134232621D02*
X99647380Y-134280240D01*
X99647380Y-134280240D02*
X99742619Y-134280240D01*
X99742619Y-134899287D02*
X99695000Y-134804049D01*
X99695000Y-134804049D02*
X99647380Y-134756430D01*
X99647380Y-134756430D02*
X99552142Y-134708811D01*
X99552142Y-134708811D02*
X99266428Y-134708811D01*
X99266428Y-134708811D02*
X99171190Y-134756430D01*
X99171190Y-134756430D02*
X99123571Y-134804049D01*
X99123571Y-134804049D02*
X99075952Y-134899287D01*
X99075952Y-134899287D02*
X99075952Y-135042144D01*
X99075952Y-135042144D02*
X99123571Y-135137382D01*
X99123571Y-135137382D02*
X99171190Y-135185001D01*
X99171190Y-135185001D02*
X99266428Y-135232620D01*
X99266428Y-135232620D02*
X99552142Y-135232620D01*
X99552142Y-135232620D02*
X99647380Y-135185001D01*
X99647380Y-135185001D02*
X99695000Y-135137382D01*
X99695000Y-135137382D02*
X99742619Y-135042144D01*
X99742619Y-135042144D02*
X99742619Y-134899287D01*
X99742619Y-135661192D02*
X99075952Y-135661192D01*
X99266428Y-135661192D02*
X99171190Y-135708811D01*
X99171190Y-135708811D02*
X99123571Y-135756430D01*
X99123571Y-135756430D02*
X99075952Y-135851668D01*
X99075952Y-135851668D02*
X99075952Y-135946906D01*
X99075952Y-136708811D02*
X99885476Y-136708811D01*
X99885476Y-136708811D02*
X99980714Y-136661192D01*
X99980714Y-136661192D02*
X100028333Y-136613573D01*
X100028333Y-136613573D02*
X100075952Y-136518335D01*
X100075952Y-136518335D02*
X100075952Y-136375478D01*
X100075952Y-136375478D02*
X100028333Y-136280240D01*
X99695000Y-136708811D02*
X99742619Y-136613573D01*
X99742619Y-136613573D02*
X99742619Y-136423097D01*
X99742619Y-136423097D02*
X99695000Y-136327859D01*
X99695000Y-136327859D02*
X99647380Y-136280240D01*
X99647380Y-136280240D02*
X99552142Y-136232621D01*
X99552142Y-136232621D02*
X99266428Y-136232621D01*
X99266428Y-136232621D02*
X99171190Y-136280240D01*
X99171190Y-136280240D02*
X99123571Y-136327859D01*
X99123571Y-136327859D02*
X99075952Y-136423097D01*
X99075952Y-136423097D02*
X99075952Y-136613573D01*
X99075952Y-136613573D02*
X99123571Y-136708811D01*
D12*
%TO.P,X101,2,GND*%
%TO.N,GND*%
X195180000Y-104735000D03*
%TO.P,X101,1,VCC*%
%TO.N,+3V3*%
X195180000Y-102195000D03*
%TO.P,X101,4,SCL*%
%TO.N,SCL*%
X197720000Y-104735000D03*
D13*
%TO.P,X101,3,SDA*%
%TO.N,SDA*%
X197720000Y-102195000D03*
D12*
%TO.P,X101,6,GPIO2*%
%TO.N,unconnected-(X101-GPIO2-Pad6)*%
X200260000Y-104735000D03*
D13*
%TO.P,X101,5,GPIO1*%
%TO.N,unconnected-(X101-GPIO1-Pad5)*%
X200260000Y-102195000D03*
%TD*%
D14*
%TO.P,J101,1,Pin_1*%
%TO.N,+3V3*%
X198680000Y-139700000D03*
%TO.P,J101,2,Pin_2*%
%TO.N,GND*%
X195380000Y-142240000D03*
%TO.P,J101,3,Pin_3*%
%TO.N,SDA*%
X198680000Y-144780000D03*
%TO.P,J101,4,Pin_4*%
%TO.N,SCL*%
X195380000Y-147320000D03*
%TO.P,J101,5,Pin_5*%
%TO.N,Net-(J101-Pin_5)*%
X198680000Y-149860000D03*
%TD*%
D15*
%TO.P,C103,1*%
%TO.N,+3V3*%
X133985000Y-78240000D03*
%TO.P,C103,2*%
%TO.N,GND*%
X132435000Y-78240000D03*
%TD*%
%TO.P,C102,1*%
%TO.N,+3V3*%
X153645000Y-106730000D03*
%TO.P,C102,2*%
%TO.N,GND*%
X152095000Y-106730000D03*
%TD*%
D16*
%TO.P,C101,2*%
%TO.N,GND*%
X193065000Y-153225000D03*
%TO.P,C101,1*%
%TO.N,+3V3*%
X191515000Y-153225000D03*
%TD*%
D17*
%TO.P,D110,4,VSS*%
%TO.N,GND*%
X144440000Y-81020000D03*
D18*
%TO.P,D110,3,DOUT*%
%TO.N,unconnected-(D110-DOUT-Pad3)*%
X143615000Y-81020000D03*
D19*
%TO.P,D110,2,VDD*%
%TO.N,+3V3*%
X142740000Y-81020000D03*
D20*
%TO.P,D110,1,DIN*%
%TO.N,Net-(D109-DOUT)*%
X141765000Y-81020000D03*
%TD*%
%TO.P,D109,1,DIN*%
%TO.N,Net-(D108-DOUT)*%
X122775000Y-81050000D03*
D19*
%TO.P,D109,2,VDD*%
%TO.N,+3V3*%
X123750000Y-81050000D03*
D18*
%TO.P,D109,3,DOUT*%
%TO.N,Net-(D109-DOUT)*%
X124625000Y-81050000D03*
D17*
%TO.P,D109,4,VSS*%
%TO.N,GND*%
X125450000Y-81050000D03*
%TD*%
D20*
%TO.P,D108,1,DIN*%
%TO.N,Net-(D107-DOUT)*%
X179785000Y-107030000D03*
D19*
%TO.P,D108,2,VDD*%
%TO.N,+3V3*%
X180760000Y-107030000D03*
D18*
%TO.P,D108,3,DOUT*%
%TO.N,Net-(D108-DOUT)*%
X181635000Y-107030000D03*
D17*
%TO.P,D108,4,VSS*%
%TO.N,GND*%
X182460000Y-107030000D03*
%TD*%
D20*
%TO.P,D107,1,DIN*%
%TO.N,Net-(D106-DOUT)*%
X160785000Y-107030000D03*
D19*
%TO.P,D107,2,VDD*%
%TO.N,+3V3*%
X161760000Y-107030000D03*
D18*
%TO.P,D107,3,DOUT*%
%TO.N,Net-(D107-DOUT)*%
X162635000Y-107030000D03*
D17*
%TO.P,D107,4,VSS*%
%TO.N,GND*%
X163460000Y-107030000D03*
%TD*%
D20*
%TO.P,D106,1,DIN*%
%TO.N,Net-(D105-DOUT)*%
X141785000Y-107030000D03*
D19*
%TO.P,D106,2,VDD*%
%TO.N,+3V3*%
X142760000Y-107030000D03*
D18*
%TO.P,D106,3,DOUT*%
%TO.N,Net-(D106-DOUT)*%
X143635000Y-107030000D03*
D17*
%TO.P,D106,4,VSS*%
%TO.N,GND*%
X144460000Y-107030000D03*
%TD*%
%TO.P,D105,4,VSS*%
%TO.N,GND*%
X125460000Y-107030000D03*
D18*
%TO.P,D105,3,DOUT*%
%TO.N,Net-(D105-DOUT)*%
X124635000Y-107030000D03*
D19*
%TO.P,D105,2,VDD*%
%TO.N,+3V3*%
X123760000Y-107030000D03*
D20*
%TO.P,D105,1,DIN*%
%TO.N,Net-(D104-DOUT)*%
X122785000Y-107030000D03*
%TD*%
D17*
%TO.P,D104,4,VSS*%
%TO.N,GND*%
X122570000Y-150160000D03*
D18*
%TO.P,D104,3,DOUT*%
%TO.N,Net-(D104-DOUT)*%
X123395000Y-150160000D03*
D19*
%TO.P,D104,2,VDD*%
%TO.N,+3V3*%
X124270000Y-150160000D03*
D20*
%TO.P,D104,1,DIN*%
%TO.N,Net-(D103-DOUT)*%
X125245000Y-150160000D03*
%TD*%
%TO.P,D103,1,DIN*%
%TO.N,Net-(D102-DOUT)*%
X144245000Y-150160000D03*
D19*
%TO.P,D103,2,VDD*%
%TO.N,+3V3*%
X143270000Y-150160000D03*
D18*
%TO.P,D103,3,DOUT*%
%TO.N,Net-(D103-DOUT)*%
X142395000Y-150160000D03*
D17*
%TO.P,D103,4,VSS*%
%TO.N,GND*%
X141570000Y-150160000D03*
%TD*%
D20*
%TO.P,D102,1,DIN*%
%TO.N,Net-(D101-DOUT)*%
X163245000Y-150160000D03*
D19*
%TO.P,D102,2,VDD*%
%TO.N,+3V3*%
X162270000Y-150160000D03*
D18*
%TO.P,D102,3,DOUT*%
%TO.N,Net-(D102-DOUT)*%
X161395000Y-150160000D03*
D17*
%TO.P,D102,4,VSS*%
%TO.N,GND*%
X160570000Y-150160000D03*
%TD*%
D20*
%TO.P,D101,1,DIN*%
%TO.N,Net-(D101-DIN)*%
X182245000Y-150160000D03*
D19*
%TO.P,D101,2,VDD*%
%TO.N,+3V3*%
X181270000Y-150160000D03*
D18*
%TO.P,D101,3,DOUT*%
%TO.N,Net-(D101-DOUT)*%
X180395000Y-150160000D03*
D17*
%TO.P,D101,4,VSS*%
%TO.N,GND*%
X179570000Y-150160000D03*
%TD*%
D21*
%TO.P,R101,2*%
%TO.N,Net-(J101-Pin_5)*%
X190085000Y-150950000D03*
%TO.P,R101,1*%
%TO.N,Net-(D101-DIN)*%
X188435000Y-150950000D03*
%TD*%
D22*
%TO.N,Net-(J101-Pin_5)*%
X192454253Y-150949980D02*
G75*
G03*
X193769999Y-150404999I47J1860680D01*
G01*
X195085746Y-149860020D02*
G75*
G03*
X193770001Y-150405001I-46J-1860680D01*
G01*
%TO.N,SCL*%
X197099992Y-140317920D02*
G75*
G03*
X197228750Y-140628750I439608J20D01*
G01*
X197409998Y-106469998D02*
G75*
G03*
X197100000Y-107218406I748402J-748402D01*
G01*
X197583837Y-147320015D02*
G75*
G03*
X199310000Y-146605000I-37J2441215D01*
G01*
X197410002Y-106470002D02*
G75*
G03*
X197720000Y-105721593I-748402J748402D01*
G01*
X199309989Y-146604989D02*
G75*
G03*
X200025000Y-144878837I-1726189J1726189D01*
G01*
X200025005Y-144657500D02*
G75*
G03*
X199153490Y-142553490I-2975505J0D01*
G01*
X197228750Y-140628750D02*
X197486250Y-140886250D01*
%TO.N,SDA*%
X196519995Y-140412114D02*
G75*
G03*
X196617501Y-140647499I332905J14D01*
G01*
X198680003Y-143745000D02*
G75*
G03*
X197948144Y-141978144I-2498703J0D01*
G01*
X197110004Y-102785004D02*
G75*
G03*
X196520000Y-104209386I1424396J-1424396D01*
G01*
X197710000Y-102194987D02*
G75*
G03*
X197692928Y-102202071I0J-24113D01*
G01*
X196617500Y-140647500D02*
X196812500Y-140842500D01*
D23*
%TO.N,+3V3*%
X200765020Y-140673050D02*
G75*
G03*
X200480000Y-139985000I-973120J-50D01*
G01*
X200479986Y-139985014D02*
G75*
G03*
X199791949Y-139700000I-688086J-688086D01*
G01*
X200309990Y-151519990D02*
G75*
G03*
X200765000Y-150421532I-1098490J1098490D01*
G01*
X161594984Y-108034984D02*
G75*
G03*
X161760000Y-107636654I-398384J398384D01*
G01*
X200273801Y-108021215D02*
G75*
G03*
X198680000Y-111868963I3847799J-3847785D01*
G01*
X193648883Y-151974994D02*
G75*
G03*
X192140001Y-152600001I17J-2133906D01*
G01*
X191512510Y-153222490D02*
G75*
G03*
X191506464Y-153220000I-6010J-6010D01*
G01*
X202240013Y-101742167D02*
G75*
G03*
X201595000Y-100185000I-2202213J-33D01*
G01*
X199211532Y-151975013D02*
G75*
G03*
X200310000Y-151520000I-32J1553513D01*
G01*
X135162205Y-79417213D02*
G75*
G03*
X135772500Y-79670000I610295J610313D01*
G01*
X195630772Y-100469211D02*
G75*
G03*
X195180000Y-101557500I1088328J-1088289D01*
G01*
X161196654Y-108200022D02*
G75*
G03*
X161595000Y-108035000I-54J563422D01*
G01*
X154010004Y-107834996D02*
G75*
G03*
X154891187Y-108200000I881196J881196D01*
G01*
X153645013Y-107100000D02*
G75*
G03*
X153906630Y-107731628I893287J0D01*
G01*
X197535807Y-99540004D02*
G75*
G03*
X195870001Y-100230001I-7J-2355796D01*
G01*
X201594991Y-100185009D02*
G75*
G03*
X200037832Y-99540000I-1557191J-1557191D01*
G01*
X191512501Y-153222499D02*
G75*
G03*
X191517499Y-153222499I2499J2501D01*
G01*
X200646200Y-107648785D02*
G75*
G03*
X202240000Y-103801036I-3847800J3847785D01*
G01*
X135772500Y-79670000D02*
X136487500Y-79670000D01*
X136487500Y-79670000D02*
X135772500Y-79670000D01*
X123050000Y-79670000D02*
X122730000Y-79670000D01*
X202240000Y-101742167D02*
X202240000Y-103801036D01*
X200273792Y-108021206D02*
X200646207Y-107648792D01*
X197535807Y-99540000D02*
X200037832Y-99540000D01*
X195630780Y-100469219D02*
X195870000Y-100230000D01*
X195180000Y-101557500D02*
X195180000Y-102195000D01*
X198680000Y-139700000D02*
X198680000Y-111868963D01*
X199791949Y-139700000D02*
X198680000Y-139700000D01*
X200765000Y-140673050D02*
X200765000Y-150421532D01*
X193648883Y-151975000D02*
X199211532Y-151975000D01*
X192140000Y-152600000D02*
X191517500Y-153222500D01*
X191506464Y-153220000D02*
X181041543Y-153220000D01*
X136487500Y-79670000D02*
X142159583Y-79670000D01*
D22*
%TO.N,SCL*%
X197100000Y-140317920D02*
X197100000Y-107218406D01*
X197486250Y-140886250D02*
X199153490Y-142553490D01*
X197720000Y-105721593D02*
X197720000Y-104735000D01*
%TO.N,SDA*%
X197948144Y-141978144D02*
X196812500Y-140842500D01*
X196520000Y-140412114D02*
X196520000Y-104209386D01*
X197109999Y-102784999D02*
X197692928Y-102202071D01*
X197710000Y-102195000D02*
X197720000Y-102195000D01*
X198680000Y-143745000D02*
X198680000Y-144780000D01*
%TO.N,SCL*%
X200025000Y-144878837D02*
X200025000Y-144657500D01*
X197583837Y-147320000D02*
X195380000Y-147320000D01*
D23*
%TO.N,+3V3*%
X135162209Y-79417209D02*
X133985000Y-78240000D01*
X135772500Y-79670000D02*
X123530000Y-79670000D01*
X161760000Y-107636654D02*
X161760000Y-107030000D01*
X161196654Y-108200000D02*
X154891187Y-108200000D01*
X154010000Y-107835000D02*
X153906629Y-107731629D01*
X153645000Y-107100000D02*
X153645000Y-106730000D01*
D22*
%TO.N,Net-(J101-Pin_5)*%
X192454253Y-150950000D02*
X190085000Y-150950000D01*
X195085746Y-149860000D02*
X198680000Y-149860000D01*
%TO.N,Net-(D109-DOUT)*%
X125350520Y-80180008D02*
G75*
G03*
X124837500Y-80392500I-20J-725492D01*
G01*
X141652500Y-80292500D02*
G75*
G03*
X141380900Y-80180000I-271600J-271600D01*
G01*
X124782324Y-80447661D02*
G75*
G03*
X124625000Y-80827500I379876J-379839D01*
G01*
X141765000Y-80564099D02*
G75*
G03*
X141652500Y-80292500I-384100J-1D01*
G01*
%TO.N,Net-(D108-DOUT)*%
X181634982Y-105066941D02*
G75*
G03*
X181322499Y-104312501I-1066882J41D01*
G01*
X113855004Y-82245004D02*
G75*
G03*
X112660000Y-85129985I2884996J-2884996D01*
G01*
X112779998Y-103880002D02*
G75*
G03*
X113069705Y-104000000I289702J289702D01*
G01*
X112660003Y-103590294D02*
G75*
G03*
X112780000Y-103880000I409697J-6D01*
G01*
X116739985Y-81049994D02*
G75*
G03*
X113855000Y-82245000I15J-4080006D01*
G01*
X181322512Y-104312488D02*
G75*
G03*
X180568058Y-104000000I-754412J-754412D01*
G01*
%TO.N,Net-(D107-DOUT)*%
X179784987Y-106396231D02*
G75*
G03*
X179522500Y-105762500I-896187J31D01*
G01*
X162812493Y-105677493D02*
G75*
G03*
X162635000Y-106106022I428507J-428507D01*
G01*
X163241022Y-105500010D02*
G75*
G03*
X162812500Y-105677500I-22J-605990D01*
G01*
X179522509Y-105762491D02*
G75*
G03*
X178888768Y-105500000I-633709J-633709D01*
G01*
%TO.N,Net-(D106-DOUT)*%
X160785007Y-106061880D02*
G75*
G03*
X160617499Y-105657501I-571907J-20D01*
G01*
X143917496Y-105772496D02*
G75*
G03*
X143635000Y-106454515I682004J-682004D01*
G01*
X160617494Y-105657506D02*
G75*
G03*
X160213119Y-105490000I-404394J-404394D01*
G01*
X144599515Y-105490007D02*
G75*
G03*
X143917500Y-105772500I-15J-964493D01*
G01*
%TO.N,Net-(D105-DOUT)*%
X141785020Y-106198449D02*
G75*
G03*
X141577499Y-105697501I-708520J-51D01*
G01*
X141577514Y-105697486D02*
G75*
G03*
X141076550Y-105490000I-500914J-500914D01*
G01*
X125531231Y-105490013D02*
G75*
G03*
X124897500Y-105752500I-31J-896187D01*
G01*
X124897491Y-105752491D02*
G75*
G03*
X124635000Y-106386231I633709J-633709D01*
G01*
%TO.N,Net-(D104-DOUT)*%
X112640006Y-150371385D02*
G75*
G03*
X113035000Y-151325000I1348594J-15D01*
G01*
X123202511Y-151527511D02*
G75*
G03*
X123395000Y-151062763I-464711J464711D01*
G01*
X122784998Y-106263804D02*
G75*
G03*
X122552500Y-105702500I-793798J4D01*
G01*
X113034996Y-151325004D02*
G75*
G03*
X113988614Y-151720000I953604J953604D01*
G01*
X122552501Y-105702499D02*
G75*
G03*
X121991195Y-105470000I-561301J-561301D01*
G01*
X113664264Y-105469986D02*
G75*
G03*
X112940001Y-105770001I36J-1024314D01*
G01*
X112940011Y-105770011D02*
G75*
G03*
X112640000Y-106494264I724289J-724289D01*
G01*
X122737763Y-151719985D02*
G75*
G03*
X123202500Y-151527500I37J657185D01*
G01*
%TO.N,Net-(D103-DOUT)*%
X125244987Y-151199332D02*
G75*
G03*
X125397500Y-151567500I520713J32D01*
G01*
X125397509Y-151567491D02*
G75*
G03*
X125765667Y-151720000I368191J368191D01*
G01*
X141686550Y-151720020D02*
G75*
G03*
X142187499Y-151512499I-50J708520D01*
G01*
X142187485Y-151512485D02*
G75*
G03*
X142395000Y-151011550I-500985J500985D01*
G01*
%TO.N,Net-(D102-DOUT)*%
X160823119Y-151720007D02*
G75*
G03*
X161227499Y-151552499I-19J571907D01*
G01*
X144407497Y-151557503D02*
G75*
G03*
X144799809Y-151720000I392303J392303D01*
G01*
X144245005Y-151165190D02*
G75*
G03*
X144407501Y-151557499I554795J-10D01*
G01*
X161227494Y-151552494D02*
G75*
G03*
X161395000Y-151148119I-404394J404394D01*
G01*
%TO.N,Net-(D101-DIN)*%
X182639996Y-150555004D02*
G75*
G03*
X183593614Y-150950000I953604J953604D01*
G01*
%TO.N,Net-(D101-DOUT)*%
X179788977Y-151739990D02*
G75*
G03*
X180217500Y-151562500I23J605990D01*
G01*
X163244997Y-150997408D02*
G75*
G03*
X163462500Y-151522500I742603J8D01*
G01*
X163462503Y-151522497D02*
G75*
G03*
X163987591Y-151740000I525097J525097D01*
G01*
X180217507Y-151562507D02*
G75*
G03*
X180395000Y-151133977I-428507J428507D01*
G01*
D23*
%TO.N,+3V3*%
X162580466Y-153219919D02*
G75*
G03*
X162799999Y-152690001I34J310419D01*
G01*
X162799990Y-152690010D02*
G75*
G03*
X164079533Y-153220000I1279510J1279510D01*
G01*
X124384228Y-153220068D02*
G75*
G03*
X124465000Y-153025000I-28J114268D01*
G01*
X124465008Y-153024992D02*
G75*
G03*
X124935771Y-153220000I470792J470792D01*
G01*
X117113963Y-79669988D02*
G75*
G03*
X113266206Y-81263792I37J-5441612D01*
G01*
X162169992Y-105009992D02*
G75*
G03*
X161760000Y-105999827I989808J-989808D01*
G01*
X143603898Y-153219995D02*
G75*
G03*
X143839999Y-152650001I2J333895D01*
G01*
X143839999Y-152650001D02*
G75*
G03*
X145216101Y-153220000I1376101J1376101D01*
G01*
X111329988Y-151786030D02*
G75*
G03*
X111750000Y-152800000I1434012J30D01*
G01*
X143204993Y-105044993D02*
G75*
G03*
X142760000Y-106119325I1074307J-1074307D01*
G01*
X142739993Y-80250416D02*
G75*
G03*
X142570000Y-79840000I-580393J16D01*
G01*
X143205043Y-105045043D02*
G75*
G03*
X143020674Y-104600000I-184343J184343D01*
G01*
X144279325Y-104600011D02*
G75*
G03*
X143205000Y-105045000I-25J-1519289D01*
G01*
X180760008Y-105555979D02*
G75*
G03*
X180480000Y-104880000I-956008J-21D01*
G01*
X111750009Y-152799991D02*
G75*
G03*
X112763969Y-153220000I1013991J1013991D01*
G01*
X143270001Y-151273898D02*
G75*
G03*
X143840000Y-152650000I1946099J-2D01*
G01*
X180880013Y-152830013D02*
G75*
G03*
X181270000Y-151888456I-941513J941513D01*
G01*
X124064990Y-104904990D02*
G75*
G03*
X123760000Y-105641335I736310J-736310D01*
G01*
X123749999Y-80318700D02*
G75*
G03*
X123559999Y-79860001I-648699J0D01*
G01*
X142570005Y-79839995D02*
G75*
G03*
X142159583Y-79670000I-410405J-410405D01*
G01*
X112923821Y-81606236D02*
G75*
G03*
X111330000Y-85453963I3847679J-3847764D01*
G01*
X123483142Y-79783132D02*
G75*
G03*
X123210000Y-79670000I-273142J-273168D01*
G01*
X123530000Y-79670045D02*
G75*
G03*
X123483138Y-79783136I0J-66255D01*
G01*
X112627401Y-104600001D02*
G75*
G03*
X111710000Y-104980000I-1J-1297399D01*
G01*
X111710000Y-104980000D02*
G75*
G03*
X111330000Y-105897401I917400J-917400D01*
G01*
X111330003Y-104822598D02*
G75*
G03*
X111710000Y-104980000I222597J-2D01*
G01*
X124269989Y-152554228D02*
G75*
G03*
X124465001Y-153024999I665811J28D01*
G01*
X162270014Y-151410466D02*
G75*
G03*
X162800000Y-152690000I1809486J-34D01*
G01*
X162170047Y-105010047D02*
G75*
G03*
X162000172Y-104600000I-169847J169847D01*
G01*
X163159827Y-104600012D02*
G75*
G03*
X162170000Y-105010000I-27J-1399788D01*
G01*
X124065060Y-104905060D02*
G75*
G03*
X123938664Y-104600000I-126360J126360D01*
G01*
X124801335Y-104600015D02*
G75*
G03*
X124065000Y-104905000I-35J-1041285D01*
G01*
X179938456Y-153219982D02*
G75*
G03*
X180880000Y-152830000I44J1331482D01*
G01*
X180879926Y-152829926D02*
G75*
G03*
X181041543Y-153220000I161574J-161574D01*
G01*
X180479994Y-104880006D02*
G75*
G03*
X179804020Y-104600000I-675994J-675994D01*
G01*
X164079533Y-153220000D02*
X162580466Y-153220000D01*
X124384228Y-153220000D02*
X124935771Y-153220000D01*
X143603898Y-153220000D02*
X145216101Y-153220000D01*
X123210000Y-79670000D02*
X123050000Y-79670000D01*
X144279325Y-104600000D02*
X143020674Y-104600000D01*
X123210000Y-79670000D02*
X123530000Y-79670000D01*
X111330000Y-105897401D02*
X111330000Y-104822598D01*
X162000172Y-104600000D02*
X163159827Y-104600000D01*
X123938664Y-104600000D02*
X124801335Y-104600000D01*
X179938456Y-153220000D02*
X181041543Y-153220000D01*
D22*
%TO.N,Net-(D108-DOUT)*%
X180568058Y-104000000D02*
X113069705Y-104000000D01*
X181635000Y-105066941D02*
X181635000Y-107030000D01*
X116739985Y-81050000D02*
X122775000Y-81050000D01*
X112660000Y-85129985D02*
X112660000Y-103590294D01*
%TO.N,Net-(D104-DOUT)*%
X121991195Y-105470000D02*
X113664264Y-105470000D01*
X112640000Y-150371385D02*
X112640000Y-106494264D01*
X113988614Y-151720000D02*
X122737763Y-151720000D01*
X123395000Y-151062763D02*
X123395000Y-150160000D01*
X122785000Y-106263804D02*
X122785000Y-107030000D01*
%TO.N,Net-(D109-DOUT)*%
X141765000Y-80564099D02*
X141765000Y-81020000D01*
X124837499Y-80392499D02*
X124782331Y-80447668D01*
X141380900Y-80180000D02*
X125350520Y-80180000D01*
X124625000Y-80827500D02*
X124625000Y-81050000D01*
D23*
%TO.N,+3V3*%
X117113963Y-79670000D02*
X122730000Y-79670000D01*
X142740000Y-80250416D02*
X142740000Y-81020000D01*
X111330000Y-85453963D02*
X111330000Y-104822598D01*
X113266206Y-81263792D02*
X112923792Y-81606207D01*
X123483137Y-79783137D02*
X123560000Y-79860000D01*
X123750000Y-80318700D02*
X123750000Y-81050000D01*
D22*
%TO.N,Net-(D107-DOUT)*%
X179785000Y-106396231D02*
X179785000Y-107030000D01*
X163241022Y-105500000D02*
X178888768Y-105500000D01*
X162635000Y-106106022D02*
X162635000Y-107030000D01*
%TO.N,Net-(D106-DOUT)*%
X144599515Y-105490000D02*
X160213119Y-105490000D01*
X160785000Y-106061880D02*
X160785000Y-107030000D01*
X143635000Y-106454515D02*
X143635000Y-107030000D01*
%TO.N,Net-(D105-DOUT)*%
X141785000Y-106198449D02*
X141785000Y-107030000D01*
X125531231Y-105490000D02*
X141076550Y-105490000D01*
X124635000Y-106386231D02*
X124635000Y-107030000D01*
D23*
%TO.N,+3V3*%
X112627401Y-104600000D02*
X123938664Y-104600000D01*
X111330000Y-105897401D02*
X111330000Y-151786030D01*
X124384228Y-153220000D02*
X112763969Y-153220000D01*
X179804020Y-104600000D02*
X163159827Y-104600000D01*
X180760000Y-105555979D02*
X180760000Y-107030000D01*
X161760000Y-105999827D02*
X161760000Y-107030000D01*
X144279325Y-104600000D02*
X162000172Y-104600000D01*
X142760000Y-106119325D02*
X142760000Y-107030000D01*
X143020674Y-104600000D02*
X124801335Y-104600000D01*
X123760000Y-105641335D02*
X123760000Y-107030000D01*
D22*
%TO.N,Net-(D101-DIN)*%
X183593614Y-150950000D02*
X188435000Y-150950000D01*
X182640000Y-150555000D02*
X182245000Y-150160000D01*
%TO.N,Net-(D103-DOUT)*%
X125245000Y-151199332D02*
X125245000Y-150160000D01*
X141686550Y-151720000D02*
X125765667Y-151720000D01*
X142395000Y-151011550D02*
X142395000Y-150160000D01*
%TO.N,Net-(D102-DOUT)*%
X144799809Y-151720000D02*
X160823119Y-151720000D01*
X144245000Y-151165190D02*
X144245000Y-150160000D01*
X161395000Y-151148119D02*
X161395000Y-150160000D01*
%TO.N,Net-(D101-DOUT)*%
X163987591Y-151740000D02*
X179788977Y-151740000D01*
X180395000Y-151133977D02*
X180395000Y-150160000D01*
X163245000Y-150997408D02*
X163245000Y-150160000D01*
D23*
%TO.N,+3V3*%
X162270000Y-151410466D02*
X162270000Y-150160000D01*
X145216101Y-153220000D02*
X162580466Y-153220000D01*
X179938456Y-153220000D02*
X164079533Y-153220000D01*
X143270000Y-151273898D02*
X143270000Y-150160000D01*
X143603898Y-153220000D02*
X124935771Y-153220000D01*
X124270000Y-152554228D02*
X124270000Y-150160000D01*
X181270000Y-151888456D02*
X181270000Y-150160000D01*
%TD*%
%TA.AperFunction,Conductor*%
%TO.N,GND*%
G36*
X207313986Y-31890185D02*
G01*
X207359741Y-31942989D01*
X207370947Y-31994500D01*
X207370947Y-159241947D01*
X207351262Y-159308986D01*
X207298458Y-159354741D01*
X207246947Y-159365947D01*
X97094500Y-159365947D01*
X97027461Y-159346262D01*
X96981706Y-159293458D01*
X96970500Y-159241947D01*
X96970500Y-156869000D01*
X101865992Y-156869000D01*
X101866281Y-156873225D01*
X101879811Y-157071033D01*
X101885602Y-157155686D01*
X101886461Y-157159824D01*
X101886463Y-157159832D01*
X101943203Y-157432880D01*
X101944066Y-157437032D01*
X102040296Y-157707797D01*
X102042243Y-157711555D01*
X102042245Y-157711559D01*
X102153633Y-157926527D01*
X102172499Y-157962936D01*
X102174945Y-157966401D01*
X102335766Y-158194235D01*
X102335770Y-158194240D01*
X102338211Y-158197698D01*
X102534347Y-158407708D01*
X102757253Y-158589055D01*
X103002775Y-158738361D01*
X103266342Y-158852844D01*
X103486784Y-158914608D01*
X103538962Y-158929228D01*
X103538964Y-158929228D01*
X103543042Y-158930371D01*
X103827722Y-158969500D01*
X103831959Y-158969500D01*
X104110841Y-158969500D01*
X104115078Y-158969500D01*
X104399758Y-158930371D01*
X104676458Y-158852844D01*
X104940025Y-158738361D01*
X105185547Y-158589055D01*
X105408453Y-158407708D01*
X105604589Y-158197698D01*
X105770301Y-157962936D01*
X105902504Y-157707797D01*
X105998734Y-157437032D01*
X106057198Y-157155686D01*
X106076808Y-156869000D01*
X198265992Y-156869000D01*
X198266281Y-156873225D01*
X198279811Y-157071033D01*
X198285602Y-157155686D01*
X198286461Y-157159824D01*
X198286463Y-157159832D01*
X198343203Y-157432880D01*
X198344066Y-157437032D01*
X198440296Y-157707797D01*
X198442243Y-157711555D01*
X198442245Y-157711559D01*
X198553633Y-157926527D01*
X198572499Y-157962936D01*
X198574945Y-157966401D01*
X198735766Y-158194235D01*
X198735770Y-158194240D01*
X198738211Y-158197698D01*
X198934347Y-158407708D01*
X199157253Y-158589055D01*
X199402775Y-158738361D01*
X199666342Y-158852844D01*
X199886784Y-158914608D01*
X199938962Y-158929228D01*
X199938964Y-158929228D01*
X199943042Y-158930371D01*
X200227722Y-158969500D01*
X200231959Y-158969500D01*
X200510841Y-158969500D01*
X200515078Y-158969500D01*
X200799758Y-158930371D01*
X201076458Y-158852844D01*
X201340025Y-158738361D01*
X201585547Y-158589055D01*
X201808453Y-158407708D01*
X202004589Y-158197698D01*
X202170301Y-157962936D01*
X202302504Y-157707797D01*
X202398734Y-157437032D01*
X202457198Y-157155686D01*
X202476808Y-156869000D01*
X202457198Y-156582314D01*
X202398734Y-156300968D01*
X202302504Y-156030203D01*
X202170301Y-155775064D01*
X202004589Y-155540302D01*
X201808453Y-155330292D01*
X201805171Y-155327622D01*
X201805168Y-155327619D01*
X201588829Y-155151615D01*
X201588828Y-155151614D01*
X201585547Y-155148945D01*
X201340025Y-154999639D01*
X201336145Y-154997953D01*
X201336138Y-154997950D01*
X201080339Y-154886841D01*
X201080329Y-154886837D01*
X201076458Y-154885156D01*
X201072386Y-154884015D01*
X200803837Y-154808771D01*
X200803824Y-154808768D01*
X200799758Y-154807629D01*
X200795568Y-154807053D01*
X200795558Y-154807051D01*
X200519275Y-154769076D01*
X200519262Y-154769075D01*
X200515078Y-154768500D01*
X200227722Y-154768500D01*
X200223538Y-154769075D01*
X200223524Y-154769076D01*
X199947241Y-154807051D01*
X199947228Y-154807053D01*
X199943042Y-154807629D01*
X199938977Y-154808767D01*
X199938962Y-154808771D01*
X199670413Y-154884015D01*
X199670408Y-154884016D01*
X199666342Y-154885156D01*
X199662475Y-154886835D01*
X199662460Y-154886841D01*
X199406661Y-154997950D01*
X199406648Y-154997956D01*
X199402775Y-154999639D01*
X199399164Y-155001834D01*
X199399156Y-155001839D01*
X199160865Y-155146748D01*
X199160860Y-155146751D01*
X199157253Y-155148945D01*
X199153978Y-155151609D01*
X199153970Y-155151615D01*
X198937631Y-155327619D01*
X198937620Y-155327628D01*
X198934347Y-155330292D01*
X198931468Y-155333374D01*
X198931459Y-155333383D01*
X198741099Y-155537209D01*
X198741094Y-155537214D01*
X198738211Y-155540302D01*
X198735775Y-155543752D01*
X198735766Y-155543764D01*
X198574945Y-155771598D01*
X198574941Y-155771603D01*
X198572499Y-155775064D01*
X198570553Y-155778818D01*
X198570549Y-155778826D01*
X198442245Y-156026440D01*
X198442240Y-156026450D01*
X198440296Y-156030203D01*
X198438879Y-156034188D01*
X198438875Y-156034199D01*
X198405442Y-156128272D01*
X198344066Y-156300968D01*
X198343204Y-156305113D01*
X198343203Y-156305119D01*
X198286463Y-156578167D01*
X198286461Y-156578177D01*
X198285602Y-156582314D01*
X198285313Y-156586529D01*
X198285313Y-156586534D01*
X198266281Y-156864774D01*
X198265992Y-156869000D01*
X106076808Y-156869000D01*
X106057198Y-156582314D01*
X105998734Y-156300968D01*
X105902504Y-156030203D01*
X105770301Y-155775064D01*
X105604589Y-155540302D01*
X105408453Y-155330292D01*
X105405171Y-155327622D01*
X105405168Y-155327619D01*
X105188829Y-155151615D01*
X105188828Y-155151614D01*
X105185547Y-155148945D01*
X104940025Y-154999639D01*
X104936145Y-154997953D01*
X104936138Y-154997950D01*
X104680339Y-154886841D01*
X104680329Y-154886837D01*
X104676458Y-154885156D01*
X104672386Y-154884015D01*
X104403837Y-154808771D01*
X104403824Y-154808768D01*
X104399758Y-154807629D01*
X104395568Y-154807053D01*
X104395558Y-154807051D01*
X104119275Y-154769076D01*
X104119262Y-154769075D01*
X104115078Y-154768500D01*
X103827722Y-154768500D01*
X103823538Y-154769075D01*
X103823524Y-154769076D01*
X103547241Y-154807051D01*
X103547228Y-154807053D01*
X103543042Y-154807629D01*
X103538977Y-154808767D01*
X103538962Y-154808771D01*
X103270413Y-154884015D01*
X103270408Y-154884016D01*
X103266342Y-154885156D01*
X103262475Y-154886835D01*
X103262460Y-154886841D01*
X103006661Y-154997950D01*
X103006648Y-154997956D01*
X103002775Y-154999639D01*
X102999164Y-155001834D01*
X102999156Y-155001839D01*
X102760865Y-155146748D01*
X102760860Y-155146751D01*
X102757253Y-155148945D01*
X102753978Y-155151609D01*
X102753970Y-155151615D01*
X102537631Y-155327619D01*
X102537620Y-155327628D01*
X102534347Y-155330292D01*
X102531468Y-155333374D01*
X102531459Y-155333383D01*
X102341099Y-155537209D01*
X102341094Y-155537214D01*
X102338211Y-155540302D01*
X102335775Y-155543752D01*
X102335766Y-155543764D01*
X102174945Y-155771598D01*
X102174941Y-155771603D01*
X102172499Y-155775064D01*
X102170553Y-155778818D01*
X102170549Y-155778826D01*
X102042245Y-156026440D01*
X102042240Y-156026450D01*
X102040296Y-156030203D01*
X102038879Y-156034188D01*
X102038875Y-156034199D01*
X102005442Y-156128272D01*
X101944066Y-156300968D01*
X101943204Y-156305113D01*
X101943203Y-156305119D01*
X101886463Y-156578167D01*
X101886461Y-156578177D01*
X101885602Y-156582314D01*
X101885313Y-156586529D01*
X101885313Y-156586534D01*
X101866281Y-156864774D01*
X101865992Y-156869000D01*
X96970500Y-156869000D01*
X96970500Y-151734711D01*
X110638987Y-151734711D01*
X110638990Y-151901895D01*
X110638990Y-151901911D01*
X110638991Y-151905379D01*
X110639380Y-151908837D01*
X110639381Y-151908842D01*
X110665326Y-152139084D01*
X110665327Y-152139095D01*
X110665717Y-152142548D01*
X110666490Y-152145935D01*
X110666491Y-152145940D01*
X110718056Y-152371845D01*
X110718059Y-152371855D01*
X110718830Y-152375233D01*
X110752705Y-152472039D01*
X110770621Y-152523240D01*
X110797660Y-152600509D01*
X110799165Y-152603634D01*
X110899710Y-152812414D01*
X110899714Y-152812422D01*
X110901217Y-152815542D01*
X111028198Y-153017629D01*
X111030360Y-153020340D01*
X111030365Y-153020347D01*
X111174836Y-153201506D01*
X111177007Y-153204228D01*
X111206335Y-153233556D01*
X111206336Y-153233557D01*
X111261389Y-153288611D01*
X111316443Y-153343664D01*
X111316444Y-153343665D01*
X111326486Y-153353706D01*
X111326562Y-153353766D01*
X111345780Y-153372984D01*
X111532378Y-153521792D01*
X111734463Y-153648772D01*
X111949495Y-153752328D01*
X112174769Y-153831158D01*
X112407453Y-153884271D01*
X112644620Y-153910997D01*
X112708556Y-153910997D01*
X112708571Y-153911000D01*
X112763954Y-153911000D01*
X112841811Y-153911001D01*
X112841815Y-153911000D01*
X124292447Y-153911000D01*
X124292641Y-153911021D01*
X124306535Y-153911017D01*
X124306540Y-153911019D01*
X124332958Y-153911012D01*
X124333188Y-153911079D01*
X124384397Y-153911067D01*
X124384397Y-153911068D01*
X124463701Y-153911049D01*
X124463702Y-153911048D01*
X124475709Y-153911046D01*
X124476176Y-153911000D01*
X124893975Y-153911000D01*
X124935741Y-153911000D01*
X125013598Y-153911003D01*
X125013599Y-153911002D01*
X125027700Y-153911003D01*
X125027735Y-153911000D01*
X143562102Y-153911000D01*
X143603894Y-153911000D01*
X145068005Y-153911000D01*
X145174305Y-153911000D01*
X162538670Y-153911000D01*
X162580390Y-153911000D01*
X163939083Y-153911000D01*
X163939101Y-153911000D01*
X163939117Y-153911002D01*
X164079546Y-153911000D01*
X179896660Y-153911000D01*
X179938433Y-153911000D01*
X180938893Y-153911000D01*
X180939076Y-153911017D01*
X180951097Y-153911015D01*
X180951103Y-153911016D01*
X181041673Y-153911000D01*
X190648625Y-153911000D01*
X190715664Y-153930685D01*
X190736306Y-153947319D01*
X190836955Y-154047968D01*
X190981300Y-154137002D01*
X191142292Y-154190349D01*
X191238522Y-154200180D01*
X191238523Y-154200180D01*
X191241655Y-154200500D01*
X191788344Y-154200499D01*
X191887708Y-154190349D01*
X192048697Y-154137003D01*
X192193044Y-154047968D01*
X192202672Y-154038339D01*
X192263992Y-154004854D01*
X192333684Y-154009837D01*
X192378036Y-154038341D01*
X192387269Y-154047574D01*
X192531513Y-154136546D01*
X192692393Y-154189856D01*
X192788536Y-154199678D01*
X192794851Y-154199999D01*
X192815000Y-154199999D01*
X192815000Y-153475000D01*
X193315000Y-153475000D01*
X193315000Y-154199999D01*
X193335165Y-154199999D01*
X193341447Y-154199678D01*
X193437605Y-154189856D01*
X193598486Y-154136546D01*
X193742732Y-154047573D01*
X193862573Y-153927732D01*
X193951546Y-153783486D01*
X194004856Y-153622606D01*
X194014680Y-153526445D01*
X194015000Y-153520167D01*
X194015000Y-153475000D01*
X193315000Y-153475000D01*
X192815000Y-153475000D01*
X192815000Y-153099000D01*
X192834685Y-153031961D01*
X192887489Y-152986206D01*
X192939000Y-152975000D01*
X194014998Y-152975000D01*
X194014999Y-152929834D01*
X194014678Y-152923552D01*
X194003476Y-152813883D01*
X194004864Y-152813741D01*
X194002990Y-152759171D01*
X194038723Y-152699130D01*
X194101245Y-152667940D01*
X194123096Y-152666000D01*
X199133685Y-152666000D01*
X199133689Y-152666001D01*
X199160170Y-152666000D01*
X199160215Y-152666013D01*
X199211546Y-152666012D01*
X199211546Y-152666013D01*
X199337592Y-152666011D01*
X199588098Y-152637781D01*
X199833869Y-152581682D01*
X200071813Y-152498419D01*
X200298939Y-152389038D01*
X200512390Y-152254916D01*
X200709483Y-152097739D01*
X200767277Y-152039944D01*
X200798613Y-152008610D01*
X200821750Y-151985471D01*
X200853664Y-151953557D01*
X200853666Y-151953553D01*
X200863774Y-151943445D01*
X200863836Y-151943366D01*
X200887729Y-151919474D01*
X201044905Y-151722383D01*
X201179027Y-151508932D01*
X201288407Y-151281808D01*
X201371669Y-151043865D01*
X201427768Y-150798096D01*
X201455998Y-150547591D01*
X201455998Y-150475606D01*
X201456000Y-150475600D01*
X201456000Y-150365241D01*
X201456001Y-150343689D01*
X201456000Y-150343684D01*
X201456000Y-148944496D01*
X201475685Y-148877457D01*
X201528489Y-148831702D01*
X201597647Y-148821758D01*
X201661203Y-148850783D01*
X201666195Y-148855431D01*
X201666600Y-148855734D01*
X201666605Y-148855739D01*
X201782089Y-148942189D01*
X201895686Y-149027227D01*
X202035435Y-149103535D01*
X202146839Y-149164367D01*
X202414954Y-149264369D01*
X202414957Y-149264369D01*
X202414958Y-149264370D01*
X202467217Y-149275738D01*
X202694572Y-149325196D01*
X202980000Y-149345610D01*
X203265428Y-149325196D01*
X203545046Y-149264369D01*
X203813161Y-149164367D01*
X204064315Y-149027226D01*
X204293395Y-148855739D01*
X204495739Y-148653395D01*
X204667226Y-148424315D01*
X204804367Y-148173161D01*
X204904369Y-147905046D01*
X204965196Y-147625428D01*
X204985610Y-147340000D01*
X204965196Y-147054572D01*
X204904369Y-146774954D01*
X204804367Y-146506839D01*
X204733035Y-146376204D01*
X204667227Y-146255686D01*
X204605493Y-146173219D01*
X204495739Y-146026605D01*
X204293395Y-145824261D01*
X204159188Y-145723795D01*
X204064313Y-145652772D01*
X203813163Y-145515634D01*
X203813162Y-145515633D01*
X203813161Y-145515633D01*
X203545046Y-145415631D01*
X203545041Y-145415629D01*
X203265429Y-145354804D01*
X202980000Y-145334389D01*
X202694570Y-145354804D01*
X202414958Y-145415629D01*
X202146836Y-145515634D01*
X201895686Y-145652772D01*
X201773371Y-145744337D01*
X201666605Y-145824261D01*
X201666602Y-145824263D01*
X201659506Y-145829576D01*
X201658483Y-145828209D01*
X201606346Y-145856672D01*
X201536655Y-145851681D01*
X201480726Y-145809804D01*
X201456315Y-145744337D01*
X201456000Y-145735503D01*
X201456000Y-140765281D01*
X201456004Y-140765238D01*
X201456003Y-140750873D01*
X201456004Y-140750871D01*
X201456002Y-140724397D01*
X201456021Y-140724331D01*
X201456019Y-140673014D01*
X201456020Y-140673014D01*
X201456015Y-140563949D01*
X201427534Y-140347687D01*
X201371071Y-140136991D01*
X201287591Y-139935467D01*
X201178522Y-139746563D01*
X201045732Y-139573510D01*
X200968611Y-139496389D01*
X200913557Y-139441336D01*
X200913555Y-139441334D01*
X200903680Y-139431460D01*
X200903550Y-139431356D01*
X200894358Y-139422164D01*
X200894356Y-139422163D01*
X200891477Y-139419283D01*
X200718426Y-139286494D01*
X200529523Y-139177427D01*
X200525780Y-139175876D01*
X200525777Y-139175875D01*
X200331750Y-139095500D01*
X200331742Y-139095497D01*
X200328002Y-139093948D01*
X200324093Y-139092900D01*
X200324083Y-139092897D01*
X200163783Y-139049939D01*
X200104124Y-139013571D01*
X200079699Y-138973497D01*
X200073796Y-138957670D01*
X200073796Y-138957669D01*
X199987546Y-138842454D01*
X199872331Y-138756204D01*
X199737483Y-138705909D01*
X199677873Y-138699500D01*
X199674551Y-138699500D01*
X199495000Y-138699500D01*
X199427961Y-138679815D01*
X199382206Y-138627011D01*
X199371000Y-138575500D01*
X199371000Y-111871384D01*
X199371096Y-111866515D01*
X199379694Y-111647724D01*
X199385456Y-111501092D01*
X199386217Y-111491424D01*
X199428921Y-111130635D01*
X199430437Y-111121068D01*
X199501318Y-110764727D01*
X199503580Y-110755308D01*
X199602197Y-110405643D01*
X199605190Y-110396430D01*
X199730939Y-110055573D01*
X199734662Y-110046587D01*
X199886758Y-109716667D01*
X199891165Y-109708020D01*
X200068678Y-109391049D01*
X200073740Y-109382788D01*
X200275591Y-109080696D01*
X200281293Y-109072850D01*
X200506200Y-108787555D01*
X200512505Y-108780172D01*
X200760992Y-108511360D01*
X200764300Y-108507919D01*
X200772662Y-108499558D01*
X201164372Y-108107849D01*
X201164414Y-108107793D01*
X201164465Y-108107739D01*
X201289685Y-107982521D01*
X201576545Y-107651466D01*
X201839057Y-107300791D01*
X202075884Y-106932281D01*
X202285818Y-106547816D01*
X202467791Y-106149354D01*
X202620874Y-105738925D01*
X202744288Y-105318622D01*
X202837403Y-104890585D01*
X202899746Y-104456996D01*
X202930999Y-104020065D01*
X202931000Y-103801041D01*
X202931000Y-103723184D01*
X202931000Y-101820018D01*
X202931001Y-101820014D01*
X202931000Y-101793531D01*
X202931013Y-101793486D01*
X202931012Y-101742157D01*
X202931013Y-101742157D01*
X202931011Y-101600025D01*
X202903144Y-101317131D01*
X202847684Y-101038330D01*
X202765164Y-100766307D01*
X202656379Y-100503683D01*
X202522377Y-100252986D01*
X202507863Y-100231265D01*
X202480981Y-100191034D01*
X202364448Y-100016630D01*
X202184113Y-99796892D01*
X202083611Y-99696389D01*
X202028557Y-99641336D01*
X202018918Y-99631697D01*
X202018822Y-99631620D01*
X201985251Y-99598049D01*
X201983099Y-99595897D01*
X201980754Y-99593973D01*
X201980748Y-99593967D01*
X201765709Y-99417488D01*
X201765707Y-99417486D01*
X201763362Y-99415562D01*
X201527007Y-99257634D01*
X201276311Y-99123632D01*
X201273510Y-99122472D01*
X201273500Y-99122467D01*
X201016505Y-99016015D01*
X201016500Y-99016013D01*
X201013687Y-99014848D01*
X201010782Y-99013966D01*
X201010766Y-99013961D01*
X200744575Y-98933210D01*
X200744566Y-98933207D01*
X200741666Y-98932328D01*
X200738685Y-98931735D01*
X200465846Y-98877460D01*
X200465830Y-98877457D01*
X200462866Y-98876868D01*
X200459853Y-98876571D01*
X200459845Y-98876570D01*
X200183004Y-98849300D01*
X200182992Y-98849299D01*
X200179973Y-98849002D01*
X200176943Y-98849001D01*
X200176924Y-98849001D01*
X200079632Y-98849000D01*
X200079628Y-98849000D01*
X200037842Y-98849000D01*
X199959985Y-98848999D01*
X199959984Y-98848999D01*
X199944725Y-98848999D01*
X199944717Y-98849000D01*
X197494011Y-98849000D01*
X197493989Y-98849002D01*
X197493945Y-98849004D01*
X197386129Y-98849004D01*
X197383112Y-98849301D01*
X197383094Y-98849302D01*
X197091235Y-98878048D01*
X197091233Y-98878048D01*
X197088210Y-98878346D01*
X197085225Y-98878939D01*
X197085223Y-98878940D01*
X196797596Y-98936151D01*
X196797586Y-98936153D01*
X196794602Y-98936747D01*
X196791691Y-98937629D01*
X196791687Y-98937631D01*
X196511049Y-99022760D01*
X196511027Y-99022767D01*
X196508132Y-99023646D01*
X196505331Y-99024806D01*
X196505312Y-99024813D01*
X196263285Y-99125065D01*
X196231560Y-99138206D01*
X196228885Y-99139635D01*
X196228874Y-99139641D01*
X195970245Y-99277880D01*
X195970231Y-99277888D01*
X195967547Y-99279323D01*
X195965012Y-99281016D01*
X195965005Y-99281021D01*
X195721166Y-99443950D01*
X195721159Y-99443955D01*
X195718639Y-99445639D01*
X195716299Y-99447558D01*
X195716290Y-99447566D01*
X195489581Y-99633619D01*
X195489562Y-99633635D01*
X195487230Y-99635550D01*
X195485100Y-99637679D01*
X195485069Y-99637708D01*
X195410944Y-99711833D01*
X195328035Y-99794742D01*
X195197216Y-99925560D01*
X195197213Y-99925563D01*
X195184218Y-99938557D01*
X195180204Y-99942572D01*
X195180170Y-99942590D01*
X195056056Y-100066708D01*
X195056048Y-100066716D01*
X195053598Y-100069167D01*
X195051431Y-100071884D01*
X195051426Y-100071890D01*
X194899603Y-100262276D01*
X194899596Y-100262285D01*
X194897434Y-100264997D01*
X194895597Y-100267919D01*
X194895586Y-100267936D01*
X194766023Y-100474140D01*
X194766016Y-100474152D01*
X194764176Y-100477081D01*
X194762676Y-100480194D01*
X194762667Y-100480212D01*
X194657009Y-100699620D01*
X194657004Y-100699631D01*
X194655502Y-100702751D01*
X194654359Y-100706017D01*
X194654353Y-100706032D01*
X194573926Y-100935886D01*
X194573920Y-100935903D01*
X194572778Y-100939170D01*
X194572247Y-100941495D01*
X194534883Y-101000280D01*
X194505623Y-101019354D01*
X194502175Y-101020961D01*
X194363306Y-101118199D01*
X194329989Y-101141528D01*
X194308595Y-101156508D01*
X194141505Y-101323598D01*
X194005965Y-101517170D01*
X193906097Y-101731336D01*
X193844936Y-101959592D01*
X193824340Y-102195000D01*
X193844936Y-102430407D01*
X193889709Y-102597502D01*
X193906097Y-102658663D01*
X194005965Y-102872830D01*
X194141505Y-103066401D01*
X194308599Y-103233495D01*
X194494596Y-103363732D01*
X194538219Y-103418307D01*
X194545412Y-103487806D01*
X194513890Y-103550160D01*
X194494595Y-103566880D01*
X194308919Y-103696892D01*
X194141890Y-103863921D01*
X194006400Y-104057421D01*
X193906569Y-104271507D01*
X193849364Y-104484999D01*
X193849364Y-104485000D01*
X194746314Y-104485000D01*
X194720507Y-104525156D01*
X194680000Y-104663111D01*
X194680000Y-104806889D01*
X194720507Y-104944844D01*
X194746314Y-104985000D01*
X193849364Y-104985000D01*
X193906569Y-105198492D01*
X194006399Y-105412576D01*
X194141893Y-105606081D01*
X194308918Y-105773106D01*
X194502423Y-105908600D01*
X194716509Y-106008430D01*
X194930000Y-106065634D01*
X194930000Y-105170501D01*
X195037685Y-105219680D01*
X195144237Y-105235000D01*
X195215763Y-105235000D01*
X195322315Y-105219680D01*
X195430000Y-105170501D01*
X195430000Y-106065633D01*
X195643490Y-106008430D01*
X195741495Y-105962730D01*
X195810572Y-105952238D01*
X195874356Y-105980757D01*
X195912596Y-106039234D01*
X195917900Y-106075112D01*
X195917900Y-140324893D01*
X195917896Y-140324929D01*
X195917897Y-140360772D01*
X195917893Y-140360785D01*
X195917897Y-140485719D01*
X195940925Y-140631076D01*
X195986405Y-140771036D01*
X196053218Y-140902160D01*
X196139719Y-141021216D01*
X196146819Y-141028316D01*
X196180306Y-141089638D01*
X196175324Y-141159329D01*
X196133455Y-141215264D01*
X196067991Y-141239684D01*
X196059141Y-141240000D01*
X195630000Y-141240000D01*
X195630000Y-141990000D01*
X196830000Y-141990000D01*
X196838671Y-141981328D01*
X196849685Y-141943821D01*
X196902489Y-141898066D01*
X196971647Y-141888122D01*
X197035203Y-141917147D01*
X197041681Y-141923179D01*
X197519517Y-142401015D01*
X197525060Y-142406933D01*
X197580095Y-142469688D01*
X197680614Y-142584306D01*
X197690488Y-142597174D01*
X197819288Y-142789937D01*
X197827398Y-142803984D01*
X197929936Y-143011909D01*
X197936143Y-143026894D01*
X198010665Y-143246426D01*
X198014863Y-143262094D01*
X198060091Y-143489472D01*
X198062208Y-143505553D01*
X198071505Y-143647390D01*
X198056248Y-143715573D01*
X198006550Y-143764684D01*
X197947771Y-143779500D01*
X197685439Y-143779500D01*
X197685420Y-143779500D01*
X197682128Y-143779501D01*
X197678848Y-143779853D01*
X197678840Y-143779854D01*
X197622515Y-143785909D01*
X197487669Y-143836204D01*
X197372454Y-143922454D01*
X197286204Y-144037668D01*
X197286203Y-144037669D01*
X197286204Y-144037669D01*
X197235909Y-144172517D01*
X197229500Y-144232127D01*
X197229500Y-144235448D01*
X197229500Y-144235449D01*
X197229500Y-145324560D01*
X197229500Y-145324578D01*
X197229501Y-145327872D01*
X197229853Y-145331152D01*
X197229854Y-145331159D01*
X197235909Y-145387484D01*
X197261056Y-145454906D01*
X197286204Y-145522331D01*
X197372454Y-145637546D01*
X197487669Y-145723796D01*
X197622517Y-145774091D01*
X197682127Y-145780500D01*
X198956446Y-145780499D01*
X199023485Y-145800184D01*
X199069240Y-145852987D01*
X199079184Y-145922146D01*
X199059549Y-145973389D01*
X199047369Y-145991618D01*
X199037494Y-146004487D01*
X198889519Y-146173219D01*
X198878050Y-146184688D01*
X198709496Y-146332506D01*
X198696628Y-146342380D01*
X198510122Y-146467001D01*
X198496075Y-146475111D01*
X198294902Y-146574319D01*
X198279918Y-146580526D01*
X198067509Y-146652632D01*
X198051841Y-146656830D01*
X197831845Y-146700592D01*
X197815765Y-146702709D01*
X197588114Y-146717634D01*
X197580002Y-146717900D01*
X196912194Y-146717900D01*
X196845155Y-146698215D01*
X196799400Y-146645411D01*
X196796012Y-146637234D01*
X196794525Y-146633247D01*
X196773796Y-146577669D01*
X196687546Y-146462454D01*
X196572331Y-146376204D01*
X196437483Y-146325909D01*
X196377873Y-146319500D01*
X196374550Y-146319500D01*
X194385439Y-146319500D01*
X194385420Y-146319500D01*
X194382128Y-146319501D01*
X194378848Y-146319853D01*
X194378840Y-146319854D01*
X194322515Y-146325909D01*
X194187669Y-146376204D01*
X194072454Y-146462454D01*
X193986204Y-146577668D01*
X193940357Y-146700592D01*
X193935909Y-146712517D01*
X193929500Y-146772127D01*
X193929500Y-146775448D01*
X193929500Y-146775449D01*
X193929500Y-147864560D01*
X193929500Y-147864578D01*
X193929501Y-147867872D01*
X193929853Y-147871152D01*
X193929854Y-147871159D01*
X193935909Y-147927484D01*
X193947355Y-147958171D01*
X193986204Y-148062331D01*
X194072454Y-148177546D01*
X194187669Y-148263796D01*
X194322517Y-148314091D01*
X194382127Y-148320500D01*
X196377872Y-148320499D01*
X196437483Y-148314091D01*
X196572331Y-148263796D01*
X196687546Y-148177546D01*
X196773796Y-148062331D01*
X196796012Y-148002765D01*
X196837884Y-147946833D01*
X196903348Y-147922416D01*
X196912194Y-147922100D01*
X197510734Y-147922100D01*
X197510738Y-147922101D01*
X197532468Y-147922100D01*
X197532520Y-147922115D01*
X197583846Y-147922114D01*
X197583846Y-147922115D01*
X197733352Y-147922113D01*
X198030923Y-147892800D01*
X198324188Y-147834463D01*
X198610323Y-147747662D01*
X198886572Y-147633233D01*
X199150276Y-147492279D01*
X199398894Y-147326156D01*
X199630032Y-147136465D01*
X199735749Y-147030749D01*
X199787444Y-146979054D01*
X199798544Y-146967954D01*
X199798626Y-146967849D01*
X199808967Y-146957508D01*
X199841454Y-146925022D01*
X199854146Y-146909555D01*
X199911890Y-146870221D01*
X199981735Y-146868350D01*
X200041504Y-146904536D01*
X200072221Y-146967291D01*
X200074000Y-146988220D01*
X200074000Y-148819451D01*
X200054315Y-148886490D01*
X200001511Y-148932245D01*
X199932353Y-148942189D01*
X199875691Y-148918719D01*
X199872333Y-148916205D01*
X199872331Y-148916204D01*
X199737483Y-148865909D01*
X199677873Y-148859500D01*
X199674550Y-148859500D01*
X197685439Y-148859500D01*
X197685420Y-148859500D01*
X197682128Y-148859501D01*
X197678848Y-148859853D01*
X197678840Y-148859854D01*
X197622515Y-148865909D01*
X197487669Y-148916204D01*
X197372454Y-149002454D01*
X197286204Y-149117668D01*
X197263988Y-149177234D01*
X197222116Y-149233167D01*
X197156652Y-149257584D01*
X197147806Y-149257900D01*
X195046286Y-149257900D01*
X195046197Y-149257911D01*
X195045996Y-149257917D01*
X194950922Y-149257916D01*
X194950920Y-149257916D01*
X194947450Y-149257916D01*
X194944008Y-149258303D01*
X194944003Y-149258304D01*
X194676021Y-149288492D01*
X194676007Y-149288494D01*
X194672566Y-149288882D01*
X194669187Y-149289652D01*
X194669176Y-149289655D01*
X194406271Y-149349657D01*
X194406260Y-149349660D01*
X194402878Y-149350432D01*
X194399600Y-149351578D01*
X194399586Y-149351583D01*
X194145059Y-149440642D01*
X194145043Y-149440648D01*
X194141778Y-149441791D01*
X194138658Y-149443293D01*
X194138647Y-149443298D01*
X193895674Y-149560304D01*
X193895658Y-149560312D01*
X193892549Y-149561810D01*
X193889620Y-149563650D01*
X193889608Y-149563657D01*
X193661276Y-149707125D01*
X193661266Y-149707131D01*
X193658325Y-149708980D01*
X193655605Y-149711148D01*
X193655598Y-149711154D01*
X193444774Y-149879279D01*
X193444760Y-149879290D01*
X193442052Y-149881451D01*
X193439598Y-149883904D01*
X193439590Y-149883912D01*
X193395946Y-149927556D01*
X193347711Y-149975790D01*
X193340563Y-149982398D01*
X193201491Y-150101177D01*
X193185748Y-150112615D01*
X193033993Y-150205609D01*
X193016655Y-150214443D01*
X192852216Y-150282553D01*
X192833711Y-150288565D01*
X192660653Y-150330110D01*
X192641433Y-150333154D01*
X192458873Y-150347517D01*
X192449146Y-150347899D01*
X192393104Y-150347898D01*
X192381160Y-150347898D01*
X192381159Y-150347898D01*
X192365905Y-150347898D01*
X192365889Y-150347900D01*
X190975748Y-150347900D01*
X190908709Y-150328215D01*
X190869631Y-150288049D01*
X190840472Y-150239814D01*
X190720186Y-150119528D01*
X190632180Y-150066326D01*
X190574606Y-150031522D01*
X190417732Y-149982639D01*
X190412193Y-149980913D01*
X190344424Y-149974755D01*
X190344420Y-149974754D01*
X190341616Y-149974500D01*
X189828384Y-149974500D01*
X189825580Y-149974754D01*
X189825575Y-149974755D01*
X189757806Y-149980913D01*
X189676599Y-150006218D01*
X189595394Y-150031522D01*
X189595392Y-150031522D01*
X189595392Y-150031523D01*
X189449815Y-150119527D01*
X189347680Y-150221662D01*
X189286357Y-150255146D01*
X189216665Y-150250162D01*
X189172319Y-150221662D01*
X189070185Y-150119528D01*
X189070184Y-150119527D01*
X188988785Y-150070320D01*
X188924606Y-150031522D01*
X188767732Y-149982639D01*
X188762193Y-149980913D01*
X188694424Y-149974755D01*
X188694420Y-149974754D01*
X188691616Y-149974500D01*
X188178384Y-149974500D01*
X188175580Y-149974754D01*
X188175575Y-149974755D01*
X188107806Y-149980913D01*
X188026598Y-150006218D01*
X187945394Y-150031522D01*
X187945392Y-150031522D01*
X187945392Y-150031523D01*
X187799813Y-150119528D01*
X187679527Y-150239814D01*
X187650369Y-150288049D01*
X187598842Y-150335237D01*
X187544252Y-150347900D01*
X183681984Y-150347900D01*
X183681976Y-150347899D01*
X183599698Y-150347899D01*
X183587545Y-150347302D01*
X183460125Y-150334753D01*
X183436284Y-150330011D01*
X183319616Y-150294622D01*
X183297157Y-150285319D01*
X183189639Y-150227850D01*
X183169427Y-150214345D01*
X183070495Y-150133153D01*
X183061479Y-150124981D01*
X183006818Y-150070320D01*
X182973333Y-150008997D01*
X182970499Y-149982639D01*
X182970499Y-149615439D01*
X182970499Y-149615438D01*
X182970499Y-149612128D01*
X182964091Y-149552517D01*
X182913796Y-149417669D01*
X182827546Y-149302454D01*
X182712331Y-149216204D01*
X182577483Y-149165909D01*
X182525816Y-149160354D01*
X182521166Y-149159854D01*
X182521165Y-149159853D01*
X182517873Y-149159500D01*
X182514550Y-149159500D01*
X181975439Y-149159500D01*
X181975420Y-149159500D01*
X181972128Y-149159501D01*
X181968848Y-149159853D01*
X181968840Y-149159854D01*
X181912514Y-149165909D01*
X181838332Y-149193577D01*
X181768640Y-149198561D01*
X181751668Y-149193577D01*
X181677486Y-149165909D01*
X181621166Y-149159854D01*
X181621165Y-149159853D01*
X181617873Y-149159500D01*
X181614550Y-149159500D01*
X180925439Y-149159500D01*
X180925420Y-149159500D01*
X180922128Y-149159501D01*
X180918848Y-149159853D01*
X180918840Y-149159854D01*
X180862514Y-149165909D01*
X180813332Y-149184253D01*
X180743640Y-149189237D01*
X180726667Y-149184253D01*
X180677484Y-149165909D01*
X180621166Y-149159854D01*
X180621165Y-149159853D01*
X180617873Y-149159500D01*
X180614550Y-149159500D01*
X180175439Y-149159500D01*
X180175420Y-149159500D01*
X180172128Y-149159501D01*
X180168848Y-149159853D01*
X180168840Y-149159854D01*
X180112516Y-149165909D01*
X180062616Y-149184520D01*
X179992924Y-149189503D01*
X179975953Y-149184519D01*
X179927375Y-149166401D01*
X179871132Y-149160354D01*
X179864518Y-149160000D01*
X179820000Y-149160000D01*
X179820000Y-149317893D01*
X179800315Y-149384932D01*
X179795268Y-149392203D01*
X179776204Y-149417668D01*
X179725910Y-149552515D01*
X179725909Y-149552517D01*
X179719500Y-149612127D01*
X179719500Y-150133153D01*
X179719501Y-150286000D01*
X179699817Y-150353039D01*
X179647013Y-150398794D01*
X179595501Y-150410000D01*
X178820000Y-150410000D01*
X178820000Y-150704518D01*
X178820354Y-150711132D01*
X178826400Y-150767371D01*
X178876647Y-150902089D01*
X178904720Y-150939589D01*
X178929137Y-151005054D01*
X178914285Y-151073327D01*
X178864880Y-151122732D01*
X178805453Y-151137900D01*
X163995728Y-151137900D01*
X163979533Y-151136838D01*
X163978481Y-151136699D01*
X163969922Y-151135572D01*
X163906028Y-151107300D01*
X163867562Y-151048972D01*
X163866736Y-150979107D01*
X163886849Y-150938326D01*
X163913796Y-150902331D01*
X163964091Y-150767483D01*
X163970500Y-150707873D01*
X163970499Y-149910000D01*
X178820000Y-149910000D01*
X179320000Y-149910000D01*
X179320000Y-149160000D01*
X179275482Y-149160000D01*
X179268867Y-149160354D01*
X179212628Y-149166400D01*
X179077910Y-149216647D01*
X178962811Y-149302811D01*
X178876647Y-149417910D01*
X178826400Y-149552628D01*
X178820354Y-149608867D01*
X178820000Y-149615481D01*
X178820000Y-149910000D01*
X163970499Y-149910000D01*
X163970499Y-149612128D01*
X163964091Y-149552517D01*
X163913796Y-149417669D01*
X163827546Y-149302454D01*
X163712331Y-149216204D01*
X163577483Y-149165909D01*
X163525816Y-149160354D01*
X163521166Y-149159854D01*
X163521165Y-149159853D01*
X163517873Y-149159500D01*
X163514550Y-149159500D01*
X162975439Y-149159500D01*
X162975420Y-149159500D01*
X162972128Y-149159501D01*
X162968848Y-149159853D01*
X162968840Y-149159854D01*
X162912514Y-149165909D01*
X162838332Y-149193577D01*
X162768640Y-149198561D01*
X162751668Y-149193577D01*
X162677486Y-149165909D01*
X162621166Y-149159854D01*
X162621165Y-149159853D01*
X162617873Y-149159500D01*
X162614550Y-149159500D01*
X161925439Y-149159500D01*
X161925420Y-149159500D01*
X161922128Y-149159501D01*
X161918848Y-149159853D01*
X161918840Y-149159854D01*
X161862514Y-149165909D01*
X161813332Y-149184253D01*
X161743640Y-149189237D01*
X161726667Y-149184253D01*
X161677484Y-149165909D01*
X161621166Y-149159854D01*
X161621165Y-149159853D01*
X161617873Y-149159500D01*
X161614550Y-149159500D01*
X161175439Y-149159500D01*
X161175420Y-149159500D01*
X161172128Y-149159501D01*
X161168848Y-149159853D01*
X161168840Y-149159854D01*
X161112516Y-149165909D01*
X161062616Y-149184520D01*
X160992924Y-149189503D01*
X160975953Y-149184519D01*
X160927375Y-149166401D01*
X160871132Y-149160354D01*
X160864518Y-149160000D01*
X160820000Y-149160000D01*
X160820000Y-149317893D01*
X160800315Y-149384932D01*
X160795268Y-149392203D01*
X160776204Y-149417668D01*
X160725910Y-149552515D01*
X160725909Y-149552517D01*
X160719500Y-149612127D01*
X160719500Y-150133153D01*
X160719501Y-150286000D01*
X160699817Y-150353039D01*
X160647013Y-150398794D01*
X160595501Y-150410000D01*
X159820000Y-150410000D01*
X159820000Y-150704518D01*
X159820354Y-150711132D01*
X159826400Y-150767371D01*
X159876648Y-150902091D01*
X159889748Y-150919590D01*
X159914165Y-150985054D01*
X159899313Y-151053327D01*
X159849908Y-151102732D01*
X159790481Y-151117900D01*
X145000143Y-151117900D01*
X144933104Y-151098215D01*
X144887349Y-151045411D01*
X144877405Y-150976253D01*
X144900875Y-150919590D01*
X144913796Y-150902331D01*
X144964091Y-150767483D01*
X144970500Y-150707873D01*
X144970499Y-149910000D01*
X159820000Y-149910000D01*
X160320000Y-149910000D01*
X160320000Y-149160000D01*
X160275482Y-149160000D01*
X160268867Y-149160354D01*
X160212628Y-149166400D01*
X160077910Y-149216647D01*
X159962811Y-149302811D01*
X159876647Y-149417910D01*
X159826400Y-149552628D01*
X159820354Y-149608867D01*
X159820000Y-149615481D01*
X159820000Y-149910000D01*
X144970499Y-149910000D01*
X144970499Y-149612128D01*
X144964091Y-149552517D01*
X144913796Y-149417669D01*
X144827546Y-149302454D01*
X144712331Y-149216204D01*
X144577483Y-149165909D01*
X144525816Y-149160354D01*
X144521166Y-149159854D01*
X144521165Y-149159853D01*
X144517873Y-149159500D01*
X144514550Y-149159500D01*
X143975439Y-149159500D01*
X143975420Y-149159500D01*
X143972128Y-149159501D01*
X143968848Y-149159853D01*
X143968840Y-149159854D01*
X143912514Y-149165909D01*
X143838332Y-149193577D01*
X143768640Y-149198561D01*
X143751668Y-149193577D01*
X143677486Y-149165909D01*
X143621166Y-149159854D01*
X143621165Y-149159853D01*
X143617873Y-149159500D01*
X143614550Y-149159500D01*
X142925439Y-149159500D01*
X142925420Y-149159500D01*
X142922128Y-149159501D01*
X142918848Y-149159853D01*
X142918840Y-149159854D01*
X142862514Y-149165909D01*
X142813332Y-149184253D01*
X142743640Y-149189237D01*
X142726667Y-149184253D01*
X142677484Y-149165909D01*
X142621166Y-149159854D01*
X142621165Y-149159853D01*
X142617873Y-149159500D01*
X142614550Y-149159500D01*
X142175439Y-149159500D01*
X142175420Y-149159500D01*
X142172128Y-149159501D01*
X142168848Y-149159853D01*
X142168840Y-149159854D01*
X142112516Y-149165909D01*
X142062616Y-149184520D01*
X141992924Y-149189503D01*
X141975953Y-149184519D01*
X141927375Y-149166401D01*
X141871132Y-149160354D01*
X141864518Y-149160000D01*
X141820000Y-149160000D01*
X141820000Y-149317893D01*
X141800315Y-149384932D01*
X141795268Y-149392203D01*
X141776204Y-149417668D01*
X141725910Y-149552515D01*
X141725909Y-149552517D01*
X141719500Y-149612127D01*
X141719500Y-150133153D01*
X141719501Y-150286000D01*
X141699817Y-150353039D01*
X141647013Y-150398794D01*
X141595501Y-150410000D01*
X140820000Y-150410000D01*
X140820000Y-150704518D01*
X140820354Y-150711132D01*
X140826400Y-150767371D01*
X140876648Y-150902091D01*
X140889748Y-150919590D01*
X140914165Y-150985054D01*
X140899313Y-151053327D01*
X140849908Y-151102732D01*
X140790481Y-151117900D01*
X126000143Y-151117900D01*
X125933104Y-151098215D01*
X125887349Y-151045411D01*
X125877405Y-150976253D01*
X125900875Y-150919590D01*
X125913796Y-150902331D01*
X125964091Y-150767483D01*
X125970500Y-150707873D01*
X125970499Y-149910000D01*
X140820000Y-149910000D01*
X141320000Y-149910000D01*
X141320000Y-149160000D01*
X141275482Y-149160000D01*
X141268867Y-149160354D01*
X141212628Y-149166400D01*
X141077910Y-149216647D01*
X140962811Y-149302811D01*
X140876647Y-149417910D01*
X140826400Y-149552628D01*
X140820354Y-149608867D01*
X140820000Y-149615481D01*
X140820000Y-149910000D01*
X125970499Y-149910000D01*
X125970499Y-149612128D01*
X125964091Y-149552517D01*
X125913796Y-149417669D01*
X125827546Y-149302454D01*
X125712331Y-149216204D01*
X125577483Y-149165909D01*
X125525816Y-149160354D01*
X125521166Y-149159854D01*
X125521165Y-149159853D01*
X125517873Y-149159500D01*
X125514550Y-149159500D01*
X124975439Y-149159500D01*
X124975420Y-149159500D01*
X124972128Y-149159501D01*
X124968848Y-149159853D01*
X124968840Y-149159854D01*
X124912514Y-149165909D01*
X124838332Y-149193577D01*
X124768640Y-149198561D01*
X124751668Y-149193577D01*
X124677486Y-149165909D01*
X124621166Y-149159854D01*
X124621165Y-149159853D01*
X124617873Y-149159500D01*
X124614550Y-149159500D01*
X123925439Y-149159500D01*
X123925420Y-149159500D01*
X123922128Y-149159501D01*
X123918848Y-149159853D01*
X123918840Y-149159854D01*
X123862514Y-149165909D01*
X123813332Y-149184253D01*
X123743640Y-149189237D01*
X123726667Y-149184253D01*
X123677484Y-149165909D01*
X123621166Y-149159854D01*
X123621165Y-149159853D01*
X123617873Y-149159500D01*
X123614550Y-149159500D01*
X123175439Y-149159500D01*
X123175420Y-149159500D01*
X123172128Y-149159501D01*
X123168848Y-149159853D01*
X123168840Y-149159854D01*
X123112516Y-149165909D01*
X123062616Y-149184520D01*
X122992924Y-149189503D01*
X122975953Y-149184519D01*
X122927375Y-149166401D01*
X122871132Y-149160354D01*
X122864518Y-149160000D01*
X122819999Y-149160000D01*
X122819999Y-149317894D01*
X122800314Y-149384933D01*
X122795268Y-149392201D01*
X122776203Y-149417668D01*
X122725909Y-149552514D01*
X122724910Y-149561810D01*
X122719500Y-149612127D01*
X122719500Y-150133153D01*
X122719501Y-150286000D01*
X122699817Y-150353039D01*
X122647013Y-150398794D01*
X122595501Y-150410000D01*
X121820000Y-150410000D01*
X121820000Y-150704518D01*
X121820354Y-150711132D01*
X121826400Y-150767371D01*
X121876648Y-150902091D01*
X121889748Y-150919590D01*
X121914165Y-150985054D01*
X121899313Y-151053327D01*
X121849908Y-151102732D01*
X121790481Y-151117900D01*
X114076984Y-151117900D01*
X114076976Y-151117899D01*
X113994698Y-151117899D01*
X113982545Y-151117302D01*
X113855125Y-151104753D01*
X113831284Y-151100011D01*
X113714616Y-151064622D01*
X113692157Y-151055319D01*
X113584639Y-150997850D01*
X113564427Y-150984345D01*
X113470208Y-150907021D01*
X113453019Y-150889832D01*
X113375658Y-150795566D01*
X113362154Y-150775355D01*
X113304686Y-150667840D01*
X113295383Y-150645382D01*
X113295111Y-150644484D01*
X113259990Y-150528705D01*
X113255251Y-150504878D01*
X113242696Y-150377392D01*
X113242100Y-150365241D01*
X113242100Y-150335237D01*
X113242101Y-150298284D01*
X113242100Y-150298281D01*
X113242100Y-150274410D01*
X113242099Y-150274400D01*
X113242099Y-149910000D01*
X121820000Y-149910000D01*
X122320000Y-149910000D01*
X122320000Y-149160000D01*
X122275482Y-149160000D01*
X122268867Y-149160354D01*
X122212628Y-149166400D01*
X122077910Y-149216647D01*
X121962811Y-149302811D01*
X121876647Y-149417910D01*
X121826400Y-149552628D01*
X121820354Y-149608867D01*
X121820000Y-149615481D01*
X121820000Y-149910000D01*
X113242099Y-149910000D01*
X113242099Y-133260264D01*
X113242099Y-106500352D01*
X113242695Y-106488236D01*
X113249018Y-106424069D01*
X113253757Y-106400243D01*
X113270698Y-106344402D01*
X113279992Y-106321963D01*
X113307502Y-106270499D01*
X113321001Y-106250298D01*
X113358059Y-106205143D01*
X113375242Y-106187959D01*
X113420289Y-106150989D01*
X113440485Y-106137493D01*
X113491959Y-106109979D01*
X113514397Y-106100685D01*
X113570238Y-106083744D01*
X113594065Y-106079004D01*
X113646353Y-106073852D01*
X113658085Y-106072697D01*
X113670242Y-106072100D01*
X121918091Y-106072100D01*
X121983073Y-106072100D01*
X121999257Y-106073161D01*
X122014078Y-106075112D01*
X122024629Y-106076501D01*
X122055899Y-106084880D01*
X122070333Y-106090859D01*
X122124736Y-106134700D01*
X122146800Y-106200995D01*
X122129520Y-106268694D01*
X122122148Y-106279727D01*
X122116203Y-106287667D01*
X122065909Y-106422514D01*
X122062138Y-106457592D01*
X122059500Y-106482127D01*
X122059500Y-106485448D01*
X122059500Y-106485449D01*
X122059500Y-107574560D01*
X122059500Y-107574578D01*
X122059501Y-107577872D01*
X122059853Y-107581152D01*
X122059854Y-107581159D01*
X122065909Y-107637484D01*
X122083972Y-107685913D01*
X122116204Y-107772331D01*
X122202454Y-107887546D01*
X122317669Y-107973796D01*
X122452517Y-108024091D01*
X122512127Y-108030500D01*
X123057872Y-108030499D01*
X123117483Y-108024091D01*
X123191668Y-107996421D01*
X123261357Y-107991438D01*
X123278332Y-107996422D01*
X123351198Y-108023599D01*
X123352517Y-108024091D01*
X123412127Y-108030500D01*
X124107872Y-108030499D01*
X124167483Y-108024091D01*
X124216665Y-108005746D01*
X124286356Y-108000762D01*
X124303328Y-108005744D01*
X124352517Y-108024091D01*
X124412127Y-108030500D01*
X124857872Y-108030499D01*
X124917483Y-108024091D01*
X124967382Y-108005479D01*
X125037069Y-108000494D01*
X125054048Y-108005480D01*
X125102621Y-108023597D01*
X125158885Y-108029646D01*
X125165482Y-108030000D01*
X125210000Y-108030000D01*
X125210000Y-107872106D01*
X125229685Y-107805067D01*
X125234734Y-107797794D01*
X125253796Y-107772331D01*
X125304091Y-107637483D01*
X125310500Y-107577873D01*
X125310500Y-107280000D01*
X125710000Y-107280000D01*
X125710000Y-108030000D01*
X125754518Y-108030000D01*
X125761132Y-108029645D01*
X125817371Y-108023599D01*
X125952089Y-107973352D01*
X126067188Y-107887188D01*
X126153352Y-107772089D01*
X126203599Y-107637371D01*
X126209645Y-107581132D01*
X126210000Y-107574518D01*
X126210000Y-107280000D01*
X125710000Y-107280000D01*
X125310500Y-107280000D01*
X125310499Y-106903998D01*
X125330183Y-106836961D01*
X125382987Y-106791206D01*
X125434499Y-106780000D01*
X126210000Y-106780000D01*
X126210000Y-106485481D01*
X126209645Y-106478867D01*
X126203599Y-106422628D01*
X126147122Y-106271207D01*
X126147946Y-106270899D01*
X126130807Y-106224945D01*
X126145659Y-106156672D01*
X126195065Y-106107267D01*
X126254491Y-106092100D01*
X140988199Y-106092100D01*
X140988247Y-106092105D01*
X141003481Y-106092104D01*
X141003484Y-106092105D01*
X141014872Y-106092104D01*
X141081913Y-106111784D01*
X141127672Y-106164584D01*
X141137620Y-106233742D01*
X141122235Y-106270890D01*
X141122435Y-106270965D01*
X141116205Y-106287667D01*
X141116204Y-106287669D01*
X141103418Y-106321951D01*
X141065909Y-106422516D01*
X141062439Y-106454795D01*
X141059500Y-106482127D01*
X141059500Y-106485448D01*
X141059500Y-106485449D01*
X141059500Y-107574560D01*
X141059500Y-107574578D01*
X141059501Y-107577872D01*
X141059853Y-107581152D01*
X141059854Y-107581159D01*
X141065909Y-107637484D01*
X141083972Y-107685913D01*
X141116204Y-107772331D01*
X141202454Y-107887546D01*
X141317669Y-107973796D01*
X141452517Y-108024091D01*
X141512127Y-108030500D01*
X142057872Y-108030499D01*
X142117483Y-108024091D01*
X142191668Y-107996421D01*
X142261357Y-107991438D01*
X142278332Y-107996422D01*
X142351198Y-108023599D01*
X142352517Y-108024091D01*
X142412127Y-108030500D01*
X143107872Y-108030499D01*
X143167483Y-108024091D01*
X143216665Y-108005746D01*
X143286356Y-108000762D01*
X143303328Y-108005744D01*
X143352517Y-108024091D01*
X143412127Y-108030500D01*
X143857872Y-108030499D01*
X143917483Y-108024091D01*
X143967382Y-108005479D01*
X144037069Y-108000494D01*
X144054048Y-108005480D01*
X144102621Y-108023597D01*
X144158885Y-108029646D01*
X144165482Y-108030000D01*
X144210000Y-108030000D01*
X144210000Y-107872106D01*
X144229685Y-107805067D01*
X144234734Y-107797794D01*
X144253796Y-107772331D01*
X144304091Y-107637483D01*
X144310500Y-107577873D01*
X144310500Y-107280000D01*
X144710000Y-107280000D01*
X144710000Y-108030000D01*
X144754518Y-108030000D01*
X144761132Y-108029645D01*
X144817371Y-108023599D01*
X144952089Y-107973352D01*
X145067188Y-107887188D01*
X145153352Y-107772089D01*
X145203599Y-107637371D01*
X145209645Y-107581132D01*
X145210000Y-107574518D01*
X145210000Y-107280000D01*
X144710000Y-107280000D01*
X144310500Y-107280000D01*
X144310499Y-106980000D01*
X151145001Y-106980000D01*
X151145001Y-107025165D01*
X151145321Y-107031447D01*
X151155143Y-107127605D01*
X151208453Y-107288486D01*
X151297426Y-107432732D01*
X151417267Y-107552573D01*
X151561513Y-107641546D01*
X151722393Y-107694856D01*
X151818536Y-107704678D01*
X151824851Y-107704999D01*
X151845000Y-107704999D01*
X151845000Y-106980000D01*
X151145001Y-106980000D01*
X144310499Y-106980000D01*
X144310499Y-106903998D01*
X144330183Y-106836961D01*
X144382987Y-106791206D01*
X144434499Y-106780000D01*
X145210000Y-106780000D01*
X145210000Y-106485481D01*
X145209645Y-106478867D01*
X145203599Y-106422628D01*
X145147122Y-106271207D01*
X145147946Y-106270899D01*
X145130807Y-106224945D01*
X145145659Y-106156672D01*
X145195065Y-106107267D01*
X145254491Y-106092100D01*
X151063049Y-106092100D01*
X151130088Y-106111785D01*
X151175843Y-106164589D01*
X151185787Y-106233747D01*
X151180755Y-106255104D01*
X151155143Y-106332393D01*
X151145319Y-106428554D01*
X151145000Y-106434832D01*
X151145000Y-106480000D01*
X152221000Y-106480000D01*
X152288039Y-106499685D01*
X152333794Y-106552489D01*
X152345000Y-106604000D01*
X152345000Y-107704999D01*
X152365165Y-107704999D01*
X152371447Y-107704678D01*
X152467605Y-107694856D01*
X152628484Y-107641546D01*
X152772732Y-107552572D01*
X152781963Y-107543341D01*
X152843285Y-107509854D01*
X152912977Y-107514837D01*
X152957329Y-107543341D01*
X152966955Y-107552968D01*
X152992134Y-107568498D01*
X153038859Y-107620445D01*
X153041600Y-107626586D01*
X153073946Y-107704678D01*
X153114334Y-107802188D01*
X153116361Y-107805699D01*
X153116362Y-107805701D01*
X153216143Y-107978537D01*
X153216148Y-107978545D01*
X153218165Y-107982038D01*
X153220625Y-107985244D01*
X153220627Y-107985247D01*
X153321094Y-108116185D01*
X153344583Y-108146798D01*
X153347462Y-108149677D01*
X153388427Y-108190645D01*
X153388455Y-108190675D01*
X153388464Y-108190686D01*
X153418002Y-108220223D01*
X153418002Y-108220224D01*
X153473054Y-108275278D01*
X153484790Y-108287014D01*
X153484800Y-108287021D01*
X153521389Y-108323611D01*
X153521389Y-108323610D01*
X153579901Y-108382124D01*
X153579980Y-108382195D01*
X153611173Y-108413388D01*
X153812636Y-108567977D01*
X154032552Y-108694946D01*
X154267160Y-108792126D01*
X154271071Y-108793174D01*
X154271080Y-108793177D01*
X154280592Y-108795726D01*
X154340252Y-108832091D01*
X154370780Y-108894939D01*
X154362485Y-108964314D01*
X154317999Y-109018191D01*
X154251446Y-109039465D01*
X154248497Y-109039500D01*
X114128039Y-109039500D01*
X114101844Y-109047190D01*
X114084567Y-109050948D01*
X114057541Y-109054834D01*
X114032711Y-109066174D01*
X114016140Y-109072355D01*
X113989947Y-109080046D01*
X113966979Y-109094806D01*
X113951463Y-109103278D01*
X113926629Y-109114620D01*
X113905998Y-109132497D01*
X113891842Y-109143094D01*
X113868871Y-109157857D01*
X113850992Y-109178490D01*
X113838490Y-109190992D01*
X113817857Y-109208871D01*
X113803094Y-109231842D01*
X113792497Y-109245998D01*
X113774620Y-109266629D01*
X113763278Y-109291463D01*
X113754806Y-109306979D01*
X113740046Y-109329947D01*
X113732355Y-109356140D01*
X113726174Y-109372711D01*
X113714834Y-109397541D01*
X113710948Y-109424567D01*
X113707190Y-109441844D01*
X113699499Y-109468038D01*
X113699500Y-133260264D01*
X113699500Y-147578039D01*
X113699500Y-147721961D01*
X113707046Y-147747662D01*
X113707190Y-147748153D01*
X113710947Y-147765426D01*
X113714835Y-147792457D01*
X113726173Y-147817283D01*
X113732354Y-147833857D01*
X113740045Y-147860049D01*
X113740046Y-147860051D01*
X113740047Y-147860053D01*
X113754810Y-147883025D01*
X113763283Y-147898543D01*
X113774622Y-147923372D01*
X113792495Y-147943998D01*
X113803097Y-147958162D01*
X113817855Y-147981127D01*
X113838487Y-147999005D01*
X113850992Y-148011510D01*
X113868872Y-148032143D01*
X113891836Y-148046901D01*
X113906002Y-148057505D01*
X113926625Y-148075376D01*
X113926626Y-148075376D01*
X113926627Y-148075377D01*
X113951455Y-148086715D01*
X113966977Y-148095192D01*
X113989944Y-148109952D01*
X113989946Y-148109952D01*
X113989947Y-148109953D01*
X114016135Y-148117642D01*
X114032713Y-148123826D01*
X114053191Y-148133177D01*
X114057543Y-148135165D01*
X114084570Y-148139051D01*
X114101849Y-148142810D01*
X114128039Y-148150500D01*
X190441960Y-148150500D01*
X190441961Y-148150500D01*
X190468156Y-148142808D01*
X190485426Y-148139051D01*
X190512457Y-148135165D01*
X190537287Y-148123824D01*
X190553865Y-148117642D01*
X190580051Y-148109954D01*
X190580053Y-148109953D01*
X190603020Y-148095192D01*
X190618546Y-148086715D01*
X190643369Y-148075379D01*
X190643369Y-148075378D01*
X190643373Y-148075377D01*
X190664012Y-148057491D01*
X190678155Y-148046905D01*
X190701128Y-148032143D01*
X190719008Y-148011507D01*
X190731507Y-147999008D01*
X190752143Y-147981128D01*
X190766905Y-147958155D01*
X190777491Y-147944012D01*
X190795377Y-147923373D01*
X190795953Y-147922113D01*
X190806715Y-147898546D01*
X190815194Y-147883018D01*
X190829953Y-147860053D01*
X190829955Y-147860049D01*
X190837642Y-147833865D01*
X190843824Y-147817287D01*
X190855165Y-147792457D01*
X190859051Y-147765426D01*
X190862809Y-147748153D01*
X190870500Y-147721961D01*
X190870500Y-147578039D01*
X190870500Y-147526685D01*
X190870499Y-147526676D01*
X190870499Y-142490000D01*
X193930000Y-142490000D01*
X193930000Y-142784518D01*
X193930354Y-142791132D01*
X193936400Y-142847371D01*
X193986647Y-142982089D01*
X194072811Y-143097188D01*
X194187910Y-143183352D01*
X194322628Y-143233599D01*
X194378867Y-143239645D01*
X194385482Y-143240000D01*
X195130000Y-143240000D01*
X195130000Y-142490000D01*
X195630000Y-142490000D01*
X195630000Y-143240000D01*
X196374518Y-143240000D01*
X196381132Y-143239645D01*
X196437371Y-143233599D01*
X196572089Y-143183352D01*
X196687188Y-143097188D01*
X196773352Y-142982089D01*
X196823599Y-142847371D01*
X196829645Y-142791132D01*
X196830000Y-142784518D01*
X196830000Y-142490000D01*
X195630000Y-142490000D01*
X195130000Y-142490000D01*
X193930000Y-142490000D01*
X190870499Y-142490000D01*
X190870499Y-141990000D01*
X193930000Y-141990000D01*
X195130000Y-141990000D01*
X195130000Y-141240000D01*
X194385482Y-141240000D01*
X194378867Y-141240354D01*
X194322628Y-141246400D01*
X194187910Y-141296647D01*
X194072811Y-141382811D01*
X193986647Y-141497910D01*
X193936400Y-141632628D01*
X193930354Y-141688867D01*
X193930000Y-141695481D01*
X193930000Y-141990000D01*
X190870499Y-141990000D01*
X190870500Y-109504201D01*
X190870500Y-109468039D01*
X190862811Y-109441853D01*
X190859050Y-109424566D01*
X190855165Y-109397543D01*
X190850266Y-109386815D01*
X190843826Y-109372713D01*
X190837642Y-109356135D01*
X190829952Y-109329944D01*
X190815192Y-109306977D01*
X190806713Y-109291450D01*
X190795376Y-109266625D01*
X190777505Y-109246002D01*
X190766901Y-109231836D01*
X190752143Y-109208872D01*
X190731510Y-109190992D01*
X190719005Y-109178487D01*
X190701127Y-109157855D01*
X190678162Y-109143097D01*
X190663998Y-109132495D01*
X190643372Y-109114622D01*
X190618543Y-109103283D01*
X190603025Y-109094810D01*
X190580053Y-109080047D01*
X190580051Y-109080046D01*
X190580049Y-109080045D01*
X190553857Y-109072354D01*
X190537288Y-109066174D01*
X190512457Y-109054835D01*
X190485426Y-109050947D01*
X190468153Y-109047190D01*
X190441961Y-109039500D01*
X190405799Y-109039500D01*
X161721201Y-109039500D01*
X161654162Y-109019815D01*
X161608407Y-108967011D01*
X161598463Y-108897853D01*
X161627488Y-108834297D01*
X161670605Y-108805707D01*
X161669493Y-108803525D01*
X161678185Y-108799095D01*
X161678187Y-108799095D01*
X161854091Y-108709459D01*
X162013810Y-108593412D01*
X162040891Y-108566330D01*
X162083611Y-108523611D01*
X162138664Y-108468557D01*
X162138666Y-108468552D01*
X162148688Y-108458531D01*
X162148797Y-108458393D01*
X162153395Y-108453796D01*
X162269440Y-108294080D01*
X162359075Y-108118178D01*
X162359723Y-108116183D01*
X162361168Y-108114069D01*
X162363505Y-108109484D01*
X162364097Y-108109785D01*
X162399157Y-108058508D01*
X162463515Y-108031308D01*
X162477639Y-108030499D01*
X162857872Y-108030499D01*
X162917483Y-108024091D01*
X162967382Y-108005479D01*
X163037069Y-108000494D01*
X163054048Y-108005480D01*
X163102621Y-108023597D01*
X163158885Y-108029646D01*
X163165482Y-108030000D01*
X163210000Y-108030000D01*
X163210000Y-107872106D01*
X163229685Y-107805067D01*
X163234734Y-107797794D01*
X163253796Y-107772331D01*
X163304091Y-107637483D01*
X163310500Y-107577873D01*
X163310500Y-107280000D01*
X163710000Y-107280000D01*
X163710000Y-108030000D01*
X163754518Y-108030000D01*
X163761132Y-108029645D01*
X163817371Y-108023599D01*
X163952089Y-107973352D01*
X164067188Y-107887188D01*
X164153352Y-107772089D01*
X164203599Y-107637371D01*
X164209645Y-107581132D01*
X164210000Y-107574518D01*
X164210000Y-107280000D01*
X163710000Y-107280000D01*
X163310500Y-107280000D01*
X163310499Y-106903998D01*
X163330183Y-106836961D01*
X163382987Y-106791206D01*
X163434499Y-106780000D01*
X164210000Y-106780000D01*
X164210000Y-106485481D01*
X164209645Y-106478867D01*
X164203599Y-106422628D01*
X164147122Y-106271207D01*
X164151243Y-106269669D01*
X164138292Y-106234935D01*
X164153150Y-106166663D01*
X164202560Y-106117262D01*
X164261977Y-106102100D01*
X178800410Y-106102100D01*
X178800426Y-106102101D01*
X178815676Y-106102100D01*
X178815681Y-106102102D01*
X178880663Y-106102100D01*
X178896842Y-106103159D01*
X178948726Y-106109988D01*
X178979997Y-106118367D01*
X179020766Y-106135254D01*
X179048796Y-106151437D01*
X179067973Y-106166151D01*
X179109178Y-106222577D01*
X179113335Y-106292323D01*
X179108672Y-106307862D01*
X179065909Y-106422514D01*
X179062138Y-106457592D01*
X179059500Y-106482127D01*
X179059500Y-106485448D01*
X179059500Y-106485449D01*
X179059500Y-107574560D01*
X179059500Y-107574578D01*
X179059501Y-107577872D01*
X179059853Y-107581152D01*
X179059854Y-107581159D01*
X179065909Y-107637484D01*
X179083972Y-107685913D01*
X179116204Y-107772331D01*
X179202454Y-107887546D01*
X179317669Y-107973796D01*
X179452517Y-108024091D01*
X179512127Y-108030500D01*
X180057872Y-108030499D01*
X180117483Y-108024091D01*
X180191668Y-107996421D01*
X180261357Y-107991438D01*
X180278332Y-107996422D01*
X180351198Y-108023599D01*
X180352517Y-108024091D01*
X180412127Y-108030500D01*
X181107872Y-108030499D01*
X181167483Y-108024091D01*
X181216665Y-108005746D01*
X181286356Y-108000762D01*
X181303328Y-108005744D01*
X181352517Y-108024091D01*
X181412127Y-108030500D01*
X181857872Y-108030499D01*
X181917483Y-108024091D01*
X181967382Y-108005479D01*
X182037069Y-108000494D01*
X182054048Y-108005480D01*
X182102621Y-108023597D01*
X182158885Y-108029646D01*
X182165482Y-108030000D01*
X182210000Y-108030000D01*
X182210000Y-107872106D01*
X182229685Y-107805067D01*
X182234734Y-107797794D01*
X182253796Y-107772331D01*
X182304091Y-107637483D01*
X182310500Y-107577873D01*
X182310500Y-107280000D01*
X182710000Y-107280000D01*
X182710000Y-108030000D01*
X182754518Y-108030000D01*
X182761132Y-108029645D01*
X182817371Y-108023599D01*
X182952089Y-107973352D01*
X183067188Y-107887188D01*
X183153352Y-107772089D01*
X183203599Y-107637371D01*
X183209645Y-107581132D01*
X183210000Y-107574518D01*
X183210000Y-107280000D01*
X182710000Y-107280000D01*
X182310500Y-107280000D01*
X182310499Y-106482128D01*
X182304091Y-106422517D01*
X182253796Y-106287669D01*
X182253795Y-106287667D01*
X182247565Y-106270964D01*
X182251105Y-106269643D01*
X182237415Y-106232923D01*
X182237100Y-106224094D01*
X182237100Y-106030000D01*
X182710000Y-106030000D01*
X182710000Y-106780000D01*
X183210000Y-106780000D01*
X183210000Y-106485481D01*
X183209645Y-106478867D01*
X183203599Y-106422628D01*
X183153352Y-106287910D01*
X183067188Y-106172811D01*
X182952089Y-106086647D01*
X182817371Y-106036400D01*
X182761132Y-106030354D01*
X182754518Y-106030000D01*
X182710000Y-106030000D01*
X182237100Y-106030000D01*
X182237100Y-105027730D01*
X182237100Y-105027481D01*
X182237088Y-105027398D01*
X182237083Y-105027222D01*
X182237086Y-104957568D01*
X182208535Y-104740646D01*
X182151912Y-104529308D01*
X182068188Y-104327168D01*
X181958794Y-104137687D01*
X181825603Y-103964107D01*
X181810741Y-103949245D01*
X181810736Y-103949239D01*
X181799944Y-103938447D01*
X181799944Y-103938446D01*
X181784578Y-103923080D01*
X181784549Y-103923027D01*
X181673777Y-103812255D01*
X181670905Y-103809383D01*
X181667688Y-103806914D01*
X181667684Y-103806911D01*
X181500552Y-103678668D01*
X181500545Y-103678663D01*
X181497323Y-103676191D01*
X181493800Y-103674157D01*
X181493797Y-103674155D01*
X181311360Y-103568829D01*
X181307839Y-103566796D01*
X181268879Y-103550659D01*
X181109442Y-103484621D01*
X181109439Y-103484620D01*
X181105697Y-103483070D01*
X181101792Y-103482023D01*
X181101781Y-103482020D01*
X180898275Y-103427498D01*
X180894356Y-103426448D01*
X180890343Y-103425919D01*
X180890334Y-103425918D01*
X180681453Y-103398425D01*
X180681449Y-103398424D01*
X180677432Y-103397896D01*
X180673375Y-103397896D01*
X180673373Y-103397896D01*
X180568034Y-103397900D01*
X152609025Y-103397900D01*
X152541986Y-103378215D01*
X152496231Y-103325411D01*
X152486287Y-103256253D01*
X152515312Y-103192697D01*
X152527817Y-103180192D01*
X152535762Y-103173306D01*
X152554004Y-103157499D01*
X152568155Y-103146905D01*
X152591128Y-103132143D01*
X152609008Y-103111507D01*
X152621507Y-103099008D01*
X152642143Y-103081128D01*
X152656905Y-103058155D01*
X152667491Y-103044012D01*
X152685377Y-103023373D01*
X152696714Y-102998546D01*
X152705194Y-102983018D01*
X152719953Y-102960053D01*
X152719955Y-102960049D01*
X152727642Y-102933865D01*
X152733824Y-102917287D01*
X152745165Y-102892457D01*
X152749051Y-102865426D01*
X152752809Y-102848153D01*
X152760500Y-102821961D01*
X152760500Y-102678039D01*
X152760500Y-83674201D01*
X152760500Y-83638039D01*
X152752810Y-83611849D01*
X152749050Y-83594566D01*
X152745165Y-83567543D01*
X152743177Y-83563191D01*
X152733826Y-83542713D01*
X152727642Y-83526135D01*
X152719952Y-83499944D01*
X152705192Y-83476977D01*
X152696713Y-83461450D01*
X152685376Y-83436625D01*
X152667505Y-83416002D01*
X152656901Y-83401836D01*
X152642143Y-83378872D01*
X152621510Y-83360992D01*
X152609005Y-83348487D01*
X152591127Y-83327855D01*
X152568162Y-83313097D01*
X152553998Y-83302495D01*
X152533372Y-83284622D01*
X152508543Y-83273283D01*
X152493025Y-83264810D01*
X152470053Y-83250047D01*
X152470051Y-83250046D01*
X152470049Y-83250045D01*
X152443857Y-83242354D01*
X152427288Y-83236174D01*
X152402457Y-83224835D01*
X152375426Y-83220947D01*
X152358153Y-83217190D01*
X152331961Y-83209500D01*
X152295799Y-83209500D01*
X114271961Y-83209500D01*
X114128039Y-83209500D01*
X114128037Y-83209500D01*
X114114044Y-83213608D01*
X114044174Y-83213604D01*
X113985398Y-83175826D01*
X113956377Y-83112269D01*
X113966325Y-83043111D01*
X113979513Y-83020769D01*
X114047930Y-82928519D01*
X114055633Y-82919134D01*
X114276707Y-82675216D01*
X114285297Y-82666626D01*
X114529131Y-82445628D01*
X114538516Y-82437925D01*
X114802899Y-82241845D01*
X114812992Y-82235102D01*
X115095303Y-82065890D01*
X115106012Y-82060166D01*
X115403572Y-81919430D01*
X115414787Y-81914785D01*
X115724683Y-81803903D01*
X115736294Y-81800379D01*
X116055578Y-81720402D01*
X116067508Y-81718029D01*
X116393069Y-81669735D01*
X116405172Y-81668543D01*
X116736832Y-81652248D01*
X116742917Y-81652100D01*
X116813095Y-81652100D01*
X121967806Y-81652100D01*
X122034845Y-81671785D01*
X122080600Y-81724589D01*
X122083985Y-81732759D01*
X122106204Y-81792331D01*
X122192454Y-81907546D01*
X122307669Y-81993796D01*
X122442517Y-82044091D01*
X122502127Y-82050500D01*
X123047872Y-82050499D01*
X123107483Y-82044091D01*
X123181668Y-82016421D01*
X123251357Y-82011438D01*
X123268332Y-82016422D01*
X123341198Y-82043599D01*
X123342517Y-82044091D01*
X123402127Y-82050500D01*
X124097872Y-82050499D01*
X124157483Y-82044091D01*
X124206665Y-82025746D01*
X124276356Y-82020762D01*
X124293328Y-82025744D01*
X124342517Y-82044091D01*
X124402127Y-82050500D01*
X124847872Y-82050499D01*
X124907483Y-82044091D01*
X124957382Y-82025479D01*
X125027069Y-82020494D01*
X125044048Y-82025480D01*
X125092621Y-82043597D01*
X125148885Y-82049646D01*
X125155482Y-82050000D01*
X125200000Y-82050000D01*
X125200000Y-81892106D01*
X125219685Y-81825067D01*
X125224734Y-81817794D01*
X125235129Y-81803908D01*
X125243796Y-81792331D01*
X125294091Y-81657483D01*
X125300500Y-81597873D01*
X125300500Y-81300000D01*
X125700000Y-81300000D01*
X125700000Y-82050000D01*
X125744518Y-82050000D01*
X125751132Y-82049645D01*
X125807371Y-82043599D01*
X125942089Y-81993352D01*
X126057188Y-81907188D01*
X126143352Y-81792089D01*
X126193599Y-81657371D01*
X126199645Y-81601132D01*
X126200000Y-81594518D01*
X126200000Y-81300000D01*
X125700000Y-81300000D01*
X125300500Y-81300000D01*
X125300499Y-80923999D01*
X125320183Y-80856961D01*
X125372987Y-80811206D01*
X125424499Y-80800000D01*
X126215313Y-80800000D01*
X126242904Y-80784934D01*
X126269262Y-80782100D01*
X140915500Y-80782100D01*
X140982539Y-80801785D01*
X141028294Y-80854589D01*
X141039500Y-80906100D01*
X141039500Y-81564560D01*
X141039500Y-81564578D01*
X141039501Y-81567872D01*
X141039853Y-81571152D01*
X141039854Y-81571159D01*
X141045909Y-81627484D01*
X141071056Y-81694906D01*
X141096204Y-81762331D01*
X141182454Y-81877546D01*
X141297669Y-81963796D01*
X141432517Y-82014091D01*
X141492127Y-82020500D01*
X142037872Y-82020499D01*
X142097483Y-82014091D01*
X142171668Y-81986421D01*
X142241357Y-81981438D01*
X142258332Y-81986422D01*
X142331198Y-82013599D01*
X142332517Y-82014091D01*
X142392127Y-82020500D01*
X143087872Y-82020499D01*
X143147483Y-82014091D01*
X143196665Y-81995746D01*
X143266356Y-81990762D01*
X143283328Y-81995744D01*
X143332517Y-82014091D01*
X143392127Y-82020500D01*
X143837872Y-82020499D01*
X143897483Y-82014091D01*
X143947382Y-81995479D01*
X144017069Y-81990494D01*
X144034048Y-81995480D01*
X144082621Y-82013597D01*
X144138885Y-82019646D01*
X144145482Y-82020000D01*
X144190000Y-82020000D01*
X144190000Y-81862106D01*
X144209685Y-81795067D01*
X144214734Y-81787794D01*
X144233796Y-81762331D01*
X144284091Y-81627483D01*
X144290500Y-81567873D01*
X144290500Y-81270000D01*
X144690000Y-81270000D01*
X144690000Y-82020000D01*
X144734518Y-82020000D01*
X144741132Y-82019645D01*
X144797371Y-82013599D01*
X144932089Y-81963352D01*
X145047188Y-81877188D01*
X145133352Y-81762089D01*
X145183599Y-81627371D01*
X145189645Y-81571132D01*
X145190000Y-81564518D01*
X145190000Y-81270000D01*
X144690000Y-81270000D01*
X144290500Y-81270000D01*
X144290499Y-80472128D01*
X144284091Y-80412517D01*
X144233796Y-80277669D01*
X144214731Y-80252202D01*
X144190316Y-80186738D01*
X144190000Y-80177893D01*
X144190000Y-80020000D01*
X144690000Y-80020000D01*
X144690000Y-80770000D01*
X145190000Y-80770000D01*
X145190000Y-80475481D01*
X145189645Y-80468867D01*
X145183599Y-80412628D01*
X145133352Y-80277910D01*
X145047188Y-80162811D01*
X144932089Y-80076647D01*
X144797371Y-80026400D01*
X144741132Y-80020354D01*
X144734518Y-80020000D01*
X144690000Y-80020000D01*
X144190000Y-80020000D01*
X144145482Y-80020000D01*
X144138867Y-80020354D01*
X144082624Y-80026401D01*
X144034046Y-80044519D01*
X143964354Y-80049503D01*
X143947381Y-80044519D01*
X143897485Y-80025909D01*
X143841166Y-80019854D01*
X143841165Y-80019853D01*
X143837873Y-80019500D01*
X143834551Y-80019500D01*
X143511487Y-80019500D01*
X143444448Y-79999815D01*
X143398693Y-79947011D01*
X143393555Y-79933816D01*
X143387386Y-79914829D01*
X143337852Y-79762371D01*
X143246998Y-79584054D01*
X143129366Y-79422146D01*
X143129365Y-79422145D01*
X143129360Y-79422138D01*
X143094935Y-79387713D01*
X143094920Y-79387686D01*
X142987859Y-79280628D01*
X142825948Y-79162995D01*
X142701829Y-79099755D01*
X142651033Y-79051781D01*
X142634237Y-78983961D01*
X142656774Y-78917826D01*
X142711488Y-78874374D01*
X142758088Y-78865276D01*
X142760000Y-78865342D01*
X143326777Y-78845980D01*
X143890911Y-78787986D01*
X144449772Y-78691628D01*
X145000754Y-78557357D01*
X145541290Y-78385799D01*
X146068857Y-78177754D01*
X146580997Y-77934190D01*
X147075322Y-77656245D01*
X147549527Y-77345214D01*
X148001401Y-77002548D01*
X148428837Y-76629843D01*
X148829843Y-76228837D01*
X149202548Y-75801401D01*
X149545214Y-75349527D01*
X149856245Y-74875322D01*
X150134190Y-74380997D01*
X150377754Y-73868857D01*
X150585799Y-73341290D01*
X150757357Y-72800754D01*
X150891628Y-72249772D01*
X150987986Y-71690911D01*
X151045980Y-71126777D01*
X151065342Y-70560000D01*
X151045980Y-69993223D01*
X150987986Y-69429089D01*
X150891628Y-68870228D01*
X150757357Y-68319246D01*
X150585799Y-67778710D01*
X150377754Y-67251143D01*
X150350313Y-67193444D01*
X150153492Y-66779589D01*
X150134190Y-66739003D01*
X149856245Y-66244678D01*
X149545214Y-65770473D01*
X149535846Y-65758120D01*
X149358106Y-65523734D01*
X149202548Y-65318599D01*
X148976691Y-65059575D01*
X148831241Y-64892766D01*
X148831237Y-64892761D01*
X148829843Y-64891163D01*
X148428837Y-64490157D01*
X148381989Y-64449308D01*
X148172680Y-64266799D01*
X148001401Y-64117452D01*
X147638074Y-63841933D01*
X147551213Y-63776064D01*
X147551202Y-63776056D01*
X147549527Y-63774786D01*
X147075322Y-63463755D01*
X147073486Y-63462722D01*
X147073480Y-63462719D01*
X146582841Y-63186847D01*
X146580997Y-63185810D01*
X146579087Y-63184901D01*
X146579080Y-63184898D01*
X146070766Y-62943153D01*
X146070744Y-62943143D01*
X146068857Y-62942246D01*
X145541290Y-62734201D01*
X145539290Y-62733566D01*
X145539281Y-62733563D01*
X145002769Y-62563282D01*
X145002754Y-62563278D01*
X145000754Y-62562643D01*
X144943301Y-62548642D01*
X144451820Y-62428871D01*
X144451817Y-62428870D01*
X144449772Y-62428372D01*
X144447709Y-62428016D01*
X144447698Y-62428014D01*
X143892999Y-62332374D01*
X143892998Y-62332373D01*
X143890911Y-62332014D01*
X143888815Y-62331798D01*
X143888804Y-62331797D01*
X143328886Y-62274236D01*
X143328862Y-62274234D01*
X143326777Y-62274020D01*
X143324679Y-62273948D01*
X143324660Y-62273947D01*
X142762108Y-62254730D01*
X142760000Y-62254658D01*
X142757892Y-62254730D01*
X142195339Y-62273947D01*
X142195318Y-62273948D01*
X142193223Y-62274020D01*
X142191139Y-62274234D01*
X142191113Y-62274236D01*
X141631195Y-62331797D01*
X141631180Y-62331798D01*
X141629089Y-62332014D01*
X141627005Y-62332373D01*
X141627000Y-62332374D01*
X141072301Y-62428014D01*
X141072284Y-62428017D01*
X141070228Y-62428372D01*
X141068188Y-62428869D01*
X141068179Y-62428871D01*
X140521305Y-62562141D01*
X140521298Y-62562142D01*
X140519246Y-62562643D01*
X140517252Y-62563275D01*
X140517230Y-62563282D01*
X139980718Y-62733563D01*
X139980699Y-62733569D01*
X139978710Y-62734201D01*
X139976762Y-62734968D01*
X139976754Y-62734972D01*
X139453100Y-62941474D01*
X139453093Y-62941476D01*
X139451143Y-62942246D01*
X139449265Y-62943138D01*
X139449233Y-62943153D01*
X138940919Y-63184898D01*
X138940900Y-63184907D01*
X138939003Y-63185810D01*
X138937166Y-63186842D01*
X138937158Y-63186847D01*
X138446519Y-63462719D01*
X138446500Y-63462730D01*
X138444678Y-63463755D01*
X138442918Y-63464908D01*
X138442912Y-63464913D01*
X137972238Y-63773628D01*
X137972231Y-63773632D01*
X137970473Y-63774786D01*
X137968810Y-63776046D01*
X137968786Y-63776064D01*
X137520289Y-64116170D01*
X137520281Y-64116176D01*
X137518599Y-64117452D01*
X137517005Y-64118841D01*
X137516995Y-64118850D01*
X137092766Y-64488758D01*
X137092745Y-64488776D01*
X137091163Y-64490157D01*
X137089675Y-64491644D01*
X137089660Y-64491659D01*
X136691659Y-64889660D01*
X136691644Y-64889675D01*
X136690157Y-64891163D01*
X136688776Y-64892745D01*
X136688758Y-64892766D01*
X136318850Y-65316995D01*
X136318841Y-65317005D01*
X136317452Y-65318599D01*
X136316176Y-65320281D01*
X136316170Y-65320289D01*
X135976064Y-65768786D01*
X135976046Y-65768810D01*
X135974786Y-65770473D01*
X135973632Y-65772231D01*
X135973628Y-65772238D01*
X135682080Y-66216739D01*
X135663755Y-66244678D01*
X135662730Y-66246500D01*
X135662719Y-66246519D01*
X135393287Y-66725705D01*
X135385810Y-66739003D01*
X135384907Y-66740900D01*
X135384898Y-66740919D01*
X135143153Y-67249233D01*
X135143138Y-67249265D01*
X135142246Y-67251143D01*
X135141476Y-67253093D01*
X135141474Y-67253100D01*
X134934988Y-67776715D01*
X134934201Y-67778710D01*
X134933569Y-67780699D01*
X134933563Y-67780718D01*
X134763282Y-68317230D01*
X134763275Y-68317252D01*
X134762643Y-68319246D01*
X134762142Y-68321298D01*
X134762141Y-68321305D01*
X134640122Y-68822013D01*
X134628372Y-68870228D01*
X134628017Y-68872284D01*
X134628014Y-68872301D01*
X134538898Y-69389163D01*
X134532014Y-69429089D01*
X134531798Y-69431180D01*
X134531797Y-69431195D01*
X134474236Y-69991113D01*
X134474234Y-69991139D01*
X134474020Y-69993223D01*
X134473948Y-69995318D01*
X134473947Y-69995339D01*
X134467209Y-70192596D01*
X134454658Y-70560000D01*
X134454730Y-70562107D01*
X134473947Y-71124660D01*
X134473948Y-71124679D01*
X134474020Y-71126777D01*
X134474234Y-71128862D01*
X134474236Y-71128886D01*
X134531797Y-71688804D01*
X134532014Y-71690911D01*
X134532373Y-71692998D01*
X134532374Y-71692999D01*
X134617163Y-72184766D01*
X134628372Y-72249772D01*
X134628870Y-72251817D01*
X134628871Y-72251820D01*
X134653510Y-72352928D01*
X134762643Y-72800754D01*
X134763278Y-72802754D01*
X134763282Y-72802769D01*
X134923016Y-73306049D01*
X134934201Y-73341290D01*
X135142246Y-73868857D01*
X135143143Y-73870744D01*
X135143153Y-73870766D01*
X135372461Y-74352929D01*
X135385810Y-74380997D01*
X135406826Y-74418374D01*
X135591038Y-74745996D01*
X135663755Y-74875322D01*
X135974786Y-75349527D01*
X135976056Y-75351202D01*
X135976064Y-75351213D01*
X136111004Y-75529158D01*
X136317452Y-75801401D01*
X136318850Y-75803004D01*
X136621783Y-76150423D01*
X136690157Y-76228837D01*
X137091163Y-76629843D01*
X137518599Y-77002548D01*
X137583486Y-77051753D01*
X137877421Y-77274651D01*
X137970473Y-77345214D01*
X138444678Y-77656245D01*
X138939003Y-77934190D01*
X138954700Y-77941655D01*
X139449233Y-78176846D01*
X139449241Y-78176849D01*
X139451143Y-78177754D01*
X139978710Y-78385799D01*
X140519246Y-78557357D01*
X141070228Y-78691628D01*
X141274520Y-78726851D01*
X141309036Y-78732803D01*
X141371756Y-78763592D01*
X141407874Y-78823403D01*
X141405922Y-78893245D01*
X141366520Y-78950945D01*
X141302178Y-78978183D01*
X141287967Y-78979000D01*
X135780626Y-78979000D01*
X135764445Y-78977939D01*
X135747222Y-78975672D01*
X135744138Y-78975266D01*
X135712874Y-78966887D01*
X135701530Y-78962188D01*
X135673500Y-78946006D01*
X135657291Y-78933569D01*
X135645094Y-78922872D01*
X134971818Y-78249596D01*
X134938333Y-78188273D01*
X134935499Y-78161915D01*
X134935499Y-77944804D01*
X134935499Y-77944803D01*
X134935499Y-77941656D01*
X134925349Y-77842292D01*
X134872003Y-77681303D01*
X134872002Y-77681302D01*
X134872002Y-77681300D01*
X134782968Y-77536955D01*
X134663044Y-77417031D01*
X134518699Y-77327997D01*
X134357707Y-77274650D01*
X134261477Y-77264819D01*
X134261458Y-77264818D01*
X134258345Y-77264500D01*
X134255196Y-77264500D01*
X133714805Y-77264500D01*
X133714785Y-77264500D01*
X133711656Y-77264501D01*
X133708524Y-77264820D01*
X133708522Y-77264821D01*
X133612292Y-77274650D01*
X133451300Y-77327997D01*
X133306954Y-77417031D01*
X133297325Y-77426661D01*
X133236001Y-77460145D01*
X133166310Y-77455159D01*
X133121965Y-77426659D01*
X133112732Y-77417426D01*
X132968486Y-77328453D01*
X132807606Y-77275143D01*
X132711445Y-77265319D01*
X132705168Y-77265000D01*
X132685000Y-77265000D01*
X132685000Y-78366000D01*
X132665315Y-78433039D01*
X132612511Y-78478794D01*
X132561000Y-78490000D01*
X131485001Y-78490000D01*
X131485001Y-78535165D01*
X131485321Y-78541447D01*
X131495143Y-78637605D01*
X131553012Y-78812242D01*
X131549582Y-78813378D01*
X131561601Y-78857283D01*
X131540685Y-78923949D01*
X131487048Y-78968724D01*
X131437622Y-78979000D01*
X125182033Y-78979000D01*
X125114994Y-78959315D01*
X125069239Y-78906511D01*
X125059295Y-78837353D01*
X125088320Y-78773797D01*
X125147098Y-78736023D01*
X125160964Y-78732803D01*
X125186575Y-78728386D01*
X125399772Y-78691628D01*
X125950754Y-78557357D01*
X126491290Y-78385799D01*
X127018857Y-78177754D01*
X127413646Y-77990000D01*
X131485000Y-77990000D01*
X132185000Y-77990000D01*
X132185000Y-77265000D01*
X132164836Y-77265000D01*
X132158550Y-77265321D01*
X132062394Y-77275143D01*
X131901513Y-77328453D01*
X131757267Y-77417426D01*
X131637426Y-77537267D01*
X131548453Y-77681513D01*
X131495143Y-77842393D01*
X131485319Y-77938554D01*
X131485000Y-77944832D01*
X131485000Y-77990000D01*
X127413646Y-77990000D01*
X127530997Y-77934190D01*
X128025322Y-77656245D01*
X128499527Y-77345214D01*
X128951401Y-77002548D01*
X129378837Y-76629843D01*
X129779843Y-76228837D01*
X130152548Y-75801401D01*
X130495214Y-75349527D01*
X130806245Y-74875322D01*
X131084190Y-74380997D01*
X131327754Y-73868857D01*
X131535799Y-73341290D01*
X131707357Y-72800754D01*
X131841628Y-72249772D01*
X131937986Y-71690911D01*
X131995980Y-71126777D01*
X132015342Y-70560000D01*
X131995980Y-69993223D01*
X131937986Y-69429089D01*
X131841628Y-68870228D01*
X131707357Y-68319246D01*
X131535799Y-67778710D01*
X131327754Y-67251143D01*
X131300313Y-67193444D01*
X131103492Y-66779589D01*
X131084190Y-66739003D01*
X130806245Y-66244678D01*
X130495214Y-65770473D01*
X130485846Y-65758120D01*
X130308106Y-65523734D01*
X130152548Y-65318599D01*
X129926691Y-65059575D01*
X129781241Y-64892766D01*
X129781237Y-64892761D01*
X129779843Y-64891163D01*
X129378837Y-64490157D01*
X129331989Y-64449308D01*
X129122680Y-64266799D01*
X128951401Y-64117452D01*
X128588074Y-63841933D01*
X128501213Y-63776064D01*
X128501202Y-63776056D01*
X128499527Y-63774786D01*
X128025322Y-63463755D01*
X128023486Y-63462722D01*
X128023480Y-63462719D01*
X127532841Y-63186847D01*
X127530997Y-63185810D01*
X127529087Y-63184901D01*
X127529080Y-63184898D01*
X127020766Y-62943153D01*
X127020744Y-62943143D01*
X127018857Y-62942246D01*
X126491290Y-62734201D01*
X126489290Y-62733566D01*
X126489281Y-62733563D01*
X125952769Y-62563282D01*
X125952754Y-62563278D01*
X125950754Y-62562643D01*
X125893301Y-62548642D01*
X125401820Y-62428871D01*
X125401817Y-62428870D01*
X125399772Y-62428372D01*
X125397709Y-62428016D01*
X125397698Y-62428014D01*
X124842999Y-62332374D01*
X124842998Y-62332373D01*
X124840911Y-62332014D01*
X124838815Y-62331798D01*
X124838804Y-62331797D01*
X124278886Y-62274236D01*
X124278862Y-62274234D01*
X124276777Y-62274020D01*
X124274679Y-62273948D01*
X124274660Y-62273947D01*
X123712108Y-62254730D01*
X123710000Y-62254658D01*
X123707892Y-62254730D01*
X123145339Y-62273947D01*
X123145318Y-62273948D01*
X123143223Y-62274020D01*
X123141139Y-62274234D01*
X123141113Y-62274236D01*
X122581195Y-62331797D01*
X122581180Y-62331798D01*
X122579089Y-62332014D01*
X122577005Y-62332373D01*
X122577000Y-62332374D01*
X122022301Y-62428014D01*
X122022284Y-62428017D01*
X122020228Y-62428372D01*
X122018188Y-62428869D01*
X122018179Y-62428871D01*
X121471305Y-62562141D01*
X121471298Y-62562142D01*
X121469246Y-62562643D01*
X121467252Y-62563275D01*
X121467230Y-62563282D01*
X120930718Y-62733563D01*
X120930699Y-62733569D01*
X120928710Y-62734201D01*
X120926762Y-62734968D01*
X120926754Y-62734972D01*
X120403100Y-62941474D01*
X120403093Y-62941476D01*
X120401143Y-62942246D01*
X120399265Y-62943138D01*
X120399233Y-62943153D01*
X119890919Y-63184898D01*
X119890900Y-63184907D01*
X119889003Y-63185810D01*
X119887166Y-63186842D01*
X119887158Y-63186847D01*
X119396519Y-63462719D01*
X119396500Y-63462730D01*
X119394678Y-63463755D01*
X119392918Y-63464908D01*
X119392912Y-63464913D01*
X118922238Y-63773628D01*
X118922231Y-63773632D01*
X118920473Y-63774786D01*
X118918810Y-63776046D01*
X118918786Y-63776064D01*
X118470289Y-64116170D01*
X118470281Y-64116176D01*
X118468599Y-64117452D01*
X118467005Y-64118841D01*
X118466995Y-64118850D01*
X118042766Y-64488758D01*
X118042745Y-64488776D01*
X118041163Y-64490157D01*
X118039675Y-64491644D01*
X118039660Y-64491659D01*
X117641659Y-64889660D01*
X117641644Y-64889675D01*
X117640157Y-64891163D01*
X117638776Y-64892745D01*
X117638758Y-64892766D01*
X117268850Y-65316995D01*
X117268841Y-65317005D01*
X117267452Y-65318599D01*
X117266176Y-65320281D01*
X117266170Y-65320289D01*
X116926064Y-65768786D01*
X116926046Y-65768810D01*
X116924786Y-65770473D01*
X116923632Y-65772231D01*
X116923628Y-65772238D01*
X116632080Y-66216739D01*
X116613755Y-66244678D01*
X116612730Y-66246500D01*
X116612719Y-66246519D01*
X116343287Y-66725705D01*
X116335810Y-66739003D01*
X116334907Y-66740900D01*
X116334898Y-66740919D01*
X116093153Y-67249233D01*
X116093138Y-67249265D01*
X116092246Y-67251143D01*
X116091476Y-67253093D01*
X116091474Y-67253100D01*
X115884988Y-67776715D01*
X115884201Y-67778710D01*
X115883569Y-67780699D01*
X115883563Y-67780718D01*
X115713282Y-68317230D01*
X115713275Y-68317252D01*
X115712643Y-68319246D01*
X115712142Y-68321298D01*
X115712141Y-68321305D01*
X115590122Y-68822013D01*
X115578372Y-68870228D01*
X115578017Y-68872284D01*
X115578014Y-68872301D01*
X115488898Y-69389163D01*
X115482014Y-69429089D01*
X115481798Y-69431180D01*
X115481797Y-69431195D01*
X115424236Y-69991113D01*
X115424234Y-69991139D01*
X115424020Y-69993223D01*
X115423948Y-69995318D01*
X115423947Y-69995339D01*
X115417209Y-70192596D01*
X115404658Y-70560000D01*
X115404730Y-70562107D01*
X115423947Y-71124660D01*
X115423948Y-71124679D01*
X115424020Y-71126777D01*
X115424234Y-71128862D01*
X115424236Y-71128886D01*
X115481797Y-71688804D01*
X115482014Y-71690911D01*
X115482373Y-71692998D01*
X115482374Y-71692999D01*
X115567163Y-72184766D01*
X115578372Y-72249772D01*
X115578870Y-72251817D01*
X115578871Y-72251820D01*
X115603510Y-72352928D01*
X115712643Y-72800754D01*
X115713278Y-72802754D01*
X115713282Y-72802769D01*
X115873016Y-73306049D01*
X115884201Y-73341290D01*
X116092246Y-73868857D01*
X116093143Y-73870744D01*
X116093153Y-73870766D01*
X116322461Y-74352929D01*
X116335810Y-74380997D01*
X116356826Y-74418374D01*
X116541038Y-74745996D01*
X116613755Y-74875322D01*
X116924786Y-75349527D01*
X116926056Y-75351202D01*
X116926064Y-75351213D01*
X117061004Y-75529158D01*
X117267452Y-75801401D01*
X117268850Y-75803004D01*
X117571783Y-76150423D01*
X117640157Y-76228837D01*
X118041163Y-76629843D01*
X118468599Y-77002548D01*
X118533486Y-77051753D01*
X118827421Y-77274651D01*
X118920473Y-77345214D01*
X119394678Y-77656245D01*
X119889003Y-77934190D01*
X119904700Y-77941655D01*
X120399233Y-78176846D01*
X120399241Y-78176849D01*
X120401143Y-78177754D01*
X120928710Y-78385799D01*
X121469246Y-78557357D01*
X122020228Y-78691628D01*
X122224520Y-78726851D01*
X122259036Y-78732803D01*
X122321756Y-78763592D01*
X122357874Y-78823403D01*
X122355922Y-78893245D01*
X122316520Y-78950945D01*
X122252178Y-78978183D01*
X122237967Y-78979000D01*
X117165332Y-78979000D01*
X117165291Y-78978988D01*
X116897148Y-78978988D01*
X116897120Y-78978988D01*
X116894934Y-78978989D01*
X116892726Y-78979146D01*
X116892724Y-78979147D01*
X116460211Y-79010083D01*
X116460185Y-79010085D01*
X116458001Y-79010242D01*
X116455835Y-79010553D01*
X116455811Y-79010556D01*
X116026602Y-79072270D01*
X116026598Y-79072270D01*
X116024412Y-79072585D01*
X116022256Y-79073053D01*
X116022245Y-79073056D01*
X115598538Y-79165230D01*
X115598531Y-79165231D01*
X115596374Y-79165701D01*
X115594261Y-79166321D01*
X115594247Y-79166325D01*
X115178181Y-79288495D01*
X115176070Y-79289115D01*
X115174035Y-79289873D01*
X115174014Y-79289881D01*
X114767697Y-79441432D01*
X114765641Y-79442199D01*
X114763655Y-79443105D01*
X114763638Y-79443113D01*
X114369200Y-79623248D01*
X114369186Y-79623254D01*
X114367178Y-79624172D01*
X114365256Y-79625221D01*
X114365225Y-79625237D01*
X113984662Y-79833041D01*
X113984636Y-79833056D01*
X113982712Y-79834107D01*
X113980848Y-79835304D01*
X113980836Y-79835312D01*
X113647549Y-80049503D01*
X113614202Y-80070934D01*
X113612447Y-80072247D01*
X113612425Y-80072263D01*
X113265308Y-80332112D01*
X113265290Y-80332126D01*
X113263526Y-80333447D01*
X113261861Y-80334889D01*
X113261842Y-80334905D01*
X112934156Y-80618845D01*
X112934139Y-80618860D01*
X112932470Y-80620307D01*
X112930907Y-80621870D01*
X112836183Y-80716594D01*
X112836178Y-80716596D01*
X112777596Y-80775180D01*
X112742375Y-80810402D01*
X112646677Y-80906100D01*
X112406116Y-81146660D01*
X112406099Y-81146677D01*
X112405626Y-81147151D01*
X112405487Y-81147326D01*
X112405181Y-81147652D01*
X112281905Y-81270926D01*
X112281891Y-81270940D01*
X112280341Y-81272491D01*
X112278909Y-81274142D01*
X112278889Y-81274165D01*
X111994934Y-81601860D01*
X111994916Y-81601882D01*
X111993477Y-81603543D01*
X111992147Y-81605318D01*
X111992137Y-81605332D01*
X111732290Y-81952440D01*
X111732283Y-81952449D01*
X111730961Y-81954216D01*
X111729775Y-81956060D01*
X111729769Y-81956070D01*
X111495319Y-82320872D01*
X111495311Y-82320884D01*
X111494130Y-82322723D01*
X111493086Y-82324633D01*
X111493074Y-82324655D01*
X111285252Y-82705245D01*
X111285242Y-82705264D01*
X111284193Y-82707186D01*
X111283275Y-82709195D01*
X111283274Y-82709198D01*
X111103134Y-83103637D01*
X111103124Y-83103659D01*
X111102217Y-83105647D01*
X111101448Y-83107708D01*
X111101440Y-83107728D01*
X110949911Y-83513986D01*
X110949132Y-83516075D01*
X110948515Y-83518174D01*
X110948506Y-83518203D01*
X110826340Y-83934250D01*
X110826336Y-83934264D01*
X110825716Y-83936377D01*
X110825246Y-83938535D01*
X110825244Y-83938545D01*
X110784397Y-84126312D01*
X110732599Y-84364414D01*
X110732284Y-84366601D01*
X110732284Y-84366604D01*
X110670569Y-84795813D01*
X110670566Y-84795837D01*
X110670255Y-84798003D01*
X110670098Y-84800187D01*
X110670096Y-84800213D01*
X110646725Y-85126950D01*
X110639001Y-85234934D01*
X110639000Y-85237120D01*
X110639000Y-85237148D01*
X110639000Y-105855605D01*
X110638999Y-151708182D01*
X110638999Y-151734671D01*
X110638987Y-151734711D01*
X96970500Y-151734711D01*
X96970500Y-147340000D01*
X99314389Y-147340000D01*
X99334804Y-147625429D01*
X99395629Y-147905041D01*
X99404000Y-147927484D01*
X99481460Y-148135163D01*
X99495634Y-148173163D01*
X99632772Y-148424313D01*
X99718517Y-148538855D01*
X99804261Y-148653395D01*
X100006605Y-148855739D01*
X100122089Y-148942189D01*
X100235686Y-149027227D01*
X100375435Y-149103535D01*
X100486839Y-149164367D01*
X100754954Y-149264369D01*
X100754957Y-149264369D01*
X100754958Y-149264370D01*
X100807217Y-149275738D01*
X101034572Y-149325196D01*
X101320000Y-149345610D01*
X101605428Y-149325196D01*
X101885046Y-149264369D01*
X102153161Y-149164367D01*
X102404315Y-149027226D01*
X102633395Y-148855739D01*
X102835739Y-148653395D01*
X103007226Y-148424315D01*
X103144367Y-148173161D01*
X103244369Y-147905046D01*
X103305196Y-147625428D01*
X103325610Y-147340000D01*
X103305196Y-147054572D01*
X103244369Y-146774954D01*
X103144367Y-146506839D01*
X103073035Y-146376204D01*
X103007227Y-146255686D01*
X102945493Y-146173219D01*
X102835739Y-146026605D01*
X102633395Y-145824261D01*
X102499188Y-145723795D01*
X102404313Y-145652772D01*
X102153163Y-145515634D01*
X102153162Y-145515633D01*
X102153161Y-145515633D01*
X101885046Y-145415631D01*
X101885041Y-145415629D01*
X101605429Y-145354804D01*
X101320000Y-145334389D01*
X101034570Y-145354804D01*
X100754958Y-145415629D01*
X100486836Y-145515634D01*
X100235686Y-145652772D01*
X100006602Y-145824263D01*
X99804263Y-146026602D01*
X99632772Y-146255686D01*
X99495634Y-146506836D01*
X99395629Y-146774958D01*
X99334804Y-147054570D01*
X99314389Y-147340000D01*
X96970500Y-147340000D01*
X96970500Y-113036643D01*
X98131643Y-113036643D01*
X98131643Y-133260264D01*
X100793356Y-133260264D01*
X100793357Y-133260264D01*
X100793357Y-113036643D01*
X98131643Y-113036643D01*
X96970500Y-113036643D01*
X96970500Y-73655937D01*
X99384478Y-73655937D01*
X99415291Y-73857071D01*
X99485961Y-74047886D01*
X99593593Y-74220568D01*
X99593596Y-74220571D01*
X99733789Y-74368053D01*
X99900799Y-74484295D01*
X100087790Y-74564540D01*
X100287107Y-74605500D01*
X100287109Y-74605500D01*
X100436448Y-74605500D01*
X100439590Y-74605500D01*
X100591286Y-74590074D01*
X100785436Y-74529159D01*
X100963350Y-74430409D01*
X101117743Y-74297866D01*
X101242296Y-74136958D01*
X101331908Y-73954271D01*
X101382911Y-73757285D01*
X101393217Y-73554064D01*
X101393216Y-73554061D01*
X101393489Y-73548690D01*
X101416544Y-73482733D01*
X101471597Y-73439711D01*
X101541171Y-73433283D01*
X101588168Y-73453196D01*
X101632847Y-73484294D01*
X101632848Y-73484294D01*
X101632849Y-73484295D01*
X101819840Y-73564540D01*
X102019157Y-73605500D01*
X102019159Y-73605500D01*
X102168498Y-73605500D01*
X102171640Y-73605500D01*
X102323336Y-73590074D01*
X102499421Y-73534826D01*
X102569274Y-73533539D01*
X102628738Y-73570224D01*
X102658930Y-73633234D01*
X102650263Y-73702564D01*
X102647867Y-73707746D01*
X102641941Y-73719826D01*
X102626468Y-73779589D01*
X102592149Y-73912138D01*
X102590937Y-73916818D01*
X102580630Y-74120039D01*
X102611443Y-74321173D01*
X102682113Y-74511988D01*
X102743865Y-74611061D01*
X102762621Y-74678366D01*
X102742012Y-74745127D01*
X102688580Y-74790148D01*
X102638633Y-74800652D01*
X102534258Y-74800652D01*
X102531147Y-74800968D01*
X102531134Y-74800969D01*
X102382559Y-74816078D01*
X102188412Y-74876993D01*
X102010500Y-74975741D01*
X101856104Y-75108287D01*
X101731551Y-75269194D01*
X101641940Y-75451879D01*
X101616773Y-75549081D01*
X101602166Y-75605500D01*
X101590937Y-75648868D01*
X101580630Y-75852089D01*
X101611443Y-76053223D01*
X101682113Y-76244038D01*
X101789745Y-76416720D01*
X101789748Y-76416723D01*
X101929941Y-76564205D01*
X102096951Y-76680447D01*
X102283942Y-76760692D01*
X102483259Y-76801652D01*
X102483261Y-76801652D01*
X102632600Y-76801652D01*
X102635742Y-76801652D01*
X102787438Y-76786226D01*
X102981588Y-76725311D01*
X103159502Y-76626561D01*
X103313895Y-76494018D01*
X103438448Y-76333110D01*
X103528060Y-76150423D01*
X103579063Y-75953437D01*
X103589369Y-75750216D01*
X103567150Y-75605182D01*
X103558556Y-75549080D01*
X103487886Y-75358265D01*
X103426135Y-75259193D01*
X103407379Y-75191888D01*
X103427988Y-75125127D01*
X103481420Y-75080106D01*
X103531367Y-75069602D01*
X103632600Y-75069602D01*
X103635742Y-75069602D01*
X103787438Y-75054176D01*
X103981588Y-74993261D01*
X104159502Y-74894511D01*
X104313895Y-74761968D01*
X104373252Y-74685284D01*
X104429852Y-74644322D01*
X104499615Y-74640461D01*
X104560390Y-74674930D01*
X104592882Y-74736785D01*
X104593877Y-74742409D01*
X104611443Y-74857071D01*
X104682113Y-75047886D01*
X104789745Y-75220568D01*
X104789748Y-75220571D01*
X104929941Y-75368053D01*
X105096951Y-75484295D01*
X105283942Y-75564540D01*
X105483259Y-75605500D01*
X105483261Y-75605500D01*
X105632600Y-75605500D01*
X105635742Y-75605500D01*
X105787438Y-75590074D01*
X105981588Y-75529159D01*
X106159502Y-75430409D01*
X106313895Y-75297866D01*
X106438448Y-75136958D01*
X106528060Y-74954271D01*
X106579063Y-74757285D01*
X106579063Y-74757282D01*
X106582223Y-74745078D01*
X106585769Y-74745996D01*
X106601641Y-74700574D01*
X106656691Y-74657546D01*
X106726263Y-74651111D01*
X106788271Y-74683311D01*
X106792305Y-74687363D01*
X106929941Y-74832155D01*
X107096951Y-74948397D01*
X107283942Y-75028642D01*
X107483259Y-75069602D01*
X107483261Y-75069602D01*
X107633256Y-75069602D01*
X107700295Y-75089287D01*
X107746050Y-75142091D01*
X107755994Y-75211249D01*
X107736388Y-75257521D01*
X107737105Y-75257873D01*
X107641940Y-75451879D01*
X107616773Y-75549081D01*
X107602166Y-75605500D01*
X107590937Y-75648868D01*
X107580630Y-75852089D01*
X107611443Y-76053223D01*
X107682113Y-76244038D01*
X107789745Y-76416720D01*
X107789748Y-76416723D01*
X107929941Y-76564205D01*
X108096951Y-76680447D01*
X108283942Y-76760692D01*
X108483259Y-76801652D01*
X108483261Y-76801652D01*
X108632600Y-76801652D01*
X108635742Y-76801652D01*
X108787438Y-76786226D01*
X108981588Y-76725311D01*
X109159502Y-76626561D01*
X109313895Y-76494018D01*
X109438448Y-76333110D01*
X109528060Y-76150423D01*
X109579063Y-75953437D01*
X109589369Y-75750216D01*
X109567150Y-75605182D01*
X109558556Y-75549080D01*
X109487886Y-75358265D01*
X109380254Y-75185583D01*
X109338911Y-75142091D01*
X109240059Y-75038099D01*
X109073049Y-74921857D01*
X108886058Y-74841612D01*
X108686741Y-74800652D01*
X108536744Y-74800652D01*
X108469705Y-74780967D01*
X108423950Y-74728163D01*
X108414006Y-74659005D01*
X108433611Y-74612732D01*
X108432895Y-74612381D01*
X108473717Y-74529159D01*
X108528060Y-74418373D01*
X108579063Y-74221387D01*
X108589369Y-74018166D01*
X108589124Y-74016569D01*
X108558556Y-73817030D01*
X108522557Y-73719831D01*
X108511920Y-73691111D01*
X108507097Y-73621410D01*
X108540723Y-73560164D01*
X108602123Y-73526821D01*
X108671803Y-73531965D01*
X108677099Y-73534094D01*
X108748044Y-73564540D01*
X108947361Y-73605500D01*
X108947363Y-73605500D01*
X109096702Y-73605500D01*
X109099844Y-73605500D01*
X109251540Y-73590074D01*
X109445690Y-73529159D01*
X109597658Y-73444810D01*
X109665823Y-73429488D01*
X109731455Y-73453452D01*
X109773712Y-73509095D01*
X109781673Y-73559511D01*
X109776782Y-73655937D01*
X109807595Y-73857071D01*
X109878265Y-74047886D01*
X109985897Y-74220568D01*
X109985900Y-74220571D01*
X110126093Y-74368053D01*
X110293103Y-74484295D01*
X110480094Y-74564540D01*
X110679411Y-74605500D01*
X110679413Y-74605500D01*
X110828752Y-74605500D01*
X110831894Y-74605500D01*
X110983590Y-74590074D01*
X111177740Y-74529159D01*
X111355654Y-74430409D01*
X111510047Y-74297866D01*
X111634600Y-74136958D01*
X111724212Y-73954271D01*
X111775215Y-73757285D01*
X111785521Y-73554064D01*
X111781347Y-73526821D01*
X111754708Y-73352928D01*
X111684038Y-73162113D01*
X111576406Y-72989431D01*
X111559396Y-72971537D01*
X111436211Y-72841947D01*
X111269201Y-72725705D01*
X111082210Y-72645460D01*
X110882893Y-72604500D01*
X110730410Y-72604500D01*
X110727299Y-72604816D01*
X110727286Y-72604817D01*
X110578711Y-72619926D01*
X110384564Y-72680841D01*
X110232598Y-72765188D01*
X110164429Y-72780511D01*
X110098798Y-72756547D01*
X110056541Y-72700904D01*
X110048580Y-72650492D01*
X110053471Y-72554064D01*
X110022658Y-72352929D01*
X109991425Y-72268598D01*
X109951988Y-72162113D01*
X109844356Y-71989431D01*
X109838050Y-71982797D01*
X109704161Y-71841947D01*
X109673830Y-71820836D01*
X109630052Y-71766382D01*
X109622664Y-71696904D01*
X109654011Y-71634461D01*
X109714142Y-71598878D01*
X109732112Y-71595700D01*
X109787438Y-71590074D01*
X109981588Y-71529159D01*
X110159502Y-71430409D01*
X110313895Y-71297866D01*
X110438448Y-71136958D01*
X110528060Y-70954271D01*
X110579063Y-70757285D01*
X110589369Y-70554064D01*
X110586685Y-70536547D01*
X110558556Y-70352928D01*
X110487886Y-70162113D01*
X110380254Y-69989431D01*
X110373803Y-69982644D01*
X110240059Y-69841947D01*
X110073049Y-69725705D01*
X109886058Y-69645460D01*
X109719790Y-69611291D01*
X109658086Y-69578515D01*
X109623897Y-69517582D01*
X109628079Y-69447837D01*
X109663979Y-69395747D01*
X109777997Y-69297866D01*
X109902550Y-69136958D01*
X109992162Y-68954271D01*
X110043165Y-68757285D01*
X110053471Y-68554064D01*
X110053470Y-68554061D01*
X110053743Y-68548690D01*
X110076798Y-68482733D01*
X110131851Y-68439711D01*
X110201425Y-68433283D01*
X110248422Y-68453196D01*
X110293101Y-68484294D01*
X110293102Y-68484294D01*
X110293103Y-68484295D01*
X110480094Y-68564540D01*
X110679411Y-68605500D01*
X110679413Y-68605500D01*
X110828752Y-68605500D01*
X110831894Y-68605500D01*
X110983590Y-68590074D01*
X111177740Y-68529159D01*
X111355654Y-68430409D01*
X111510047Y-68297866D01*
X111634600Y-68136958D01*
X111724212Y-67954271D01*
X111775215Y-67757285D01*
X111785521Y-67554064D01*
X111754708Y-67352929D01*
X111724988Y-67272683D01*
X111684038Y-67162113D01*
X111576406Y-66989431D01*
X111569955Y-66982644D01*
X111436211Y-66841947D01*
X111269201Y-66725705D01*
X111082210Y-66645460D01*
X110882893Y-66604500D01*
X110730410Y-66604500D01*
X110727299Y-66604816D01*
X110727286Y-66604817D01*
X110578711Y-66619926D01*
X110384564Y-66680841D01*
X110206652Y-66779589D01*
X110052256Y-66912135D01*
X109927703Y-67073042D01*
X109838092Y-67255727D01*
X109812925Y-67352929D01*
X109792865Y-67430409D01*
X109787089Y-67452716D01*
X109776510Y-67661310D01*
X109753455Y-67727266D01*
X109698401Y-67770288D01*
X109628828Y-67776715D01*
X109581832Y-67756804D01*
X109537151Y-67725705D01*
X109350160Y-67645460D01*
X109322496Y-67639775D01*
X109150843Y-67604500D01*
X108998360Y-67604500D01*
X108995249Y-67604816D01*
X108995236Y-67604817D01*
X108846661Y-67619926D01*
X108670582Y-67675172D01*
X108600724Y-67676460D01*
X108541260Y-67639775D01*
X108511069Y-67576765D01*
X108519737Y-67507435D01*
X108522135Y-67502247D01*
X108528060Y-67490169D01*
X108579063Y-67293183D01*
X108589369Y-67089962D01*
X108582923Y-67047887D01*
X108558556Y-66888826D01*
X108487886Y-66698011D01*
X108426135Y-66598939D01*
X108407379Y-66531634D01*
X108427988Y-66464873D01*
X108481420Y-66419852D01*
X108531367Y-66409348D01*
X108632600Y-66409348D01*
X108635742Y-66409348D01*
X108787438Y-66393922D01*
X108981588Y-66333007D01*
X109159502Y-66234257D01*
X109313895Y-66101714D01*
X109438448Y-65940806D01*
X109528060Y-65758119D01*
X109579063Y-65561133D01*
X109589369Y-65357912D01*
X109583605Y-65320289D01*
X109558556Y-65156776D01*
X109487886Y-64965961D01*
X109380254Y-64793279D01*
X109333375Y-64743963D01*
X109240059Y-64645795D01*
X109073049Y-64529553D01*
X108886058Y-64449308D01*
X108686741Y-64408348D01*
X108534258Y-64408348D01*
X108531147Y-64408664D01*
X108531134Y-64408665D01*
X108382559Y-64423774D01*
X108188412Y-64484689D01*
X108010500Y-64583437D01*
X107856104Y-64715983D01*
X107731551Y-64876890D01*
X107641940Y-65059575D01*
X107590937Y-65256564D01*
X107580630Y-65459785D01*
X107611443Y-65660919D01*
X107682113Y-65851734D01*
X107743865Y-65950807D01*
X107762621Y-66018112D01*
X107742012Y-66084873D01*
X107688580Y-66129894D01*
X107638633Y-66140398D01*
X107534258Y-66140398D01*
X107531147Y-66140714D01*
X107531134Y-66140715D01*
X107382559Y-66155824D01*
X107188412Y-66216739D01*
X107010500Y-66315487D01*
X106990093Y-66333006D01*
X106856105Y-66448032D01*
X106856103Y-66448033D01*
X106856101Y-66448036D01*
X106796747Y-66524714D01*
X106740146Y-66565678D01*
X106670383Y-66569537D01*
X106609608Y-66535067D01*
X106577116Y-66473212D01*
X106576122Y-66467589D01*
X106558556Y-66352928D01*
X106487886Y-66162113D01*
X106380254Y-65989431D01*
X106345127Y-65952478D01*
X106240059Y-65841947D01*
X106073049Y-65725705D01*
X105886058Y-65645460D01*
X105686741Y-65604500D01*
X105534258Y-65604500D01*
X105531147Y-65604816D01*
X105531134Y-65604817D01*
X105382559Y-65619926D01*
X105188412Y-65680841D01*
X105010500Y-65779589D01*
X104856104Y-65912135D01*
X104731551Y-66073042D01*
X104641940Y-66255727D01*
X104626467Y-66315489D01*
X104590937Y-66452715D01*
X104590936Y-66452717D01*
X104587777Y-66464922D01*
X104584233Y-66464004D01*
X104568335Y-66509457D01*
X104513272Y-66552467D01*
X104443698Y-66558881D01*
X104381700Y-66526661D01*
X104377690Y-66522632D01*
X104338911Y-66481837D01*
X104240059Y-66377845D01*
X104073049Y-66261603D01*
X103886058Y-66181358D01*
X103686741Y-66140398D01*
X103536744Y-66140398D01*
X103469705Y-66120713D01*
X103423950Y-66067909D01*
X103414006Y-65998751D01*
X103433611Y-65952478D01*
X103432895Y-65952127D01*
X103482140Y-65851734D01*
X103528060Y-65758119D01*
X103579063Y-65561133D01*
X103589369Y-65357912D01*
X103583605Y-65320289D01*
X103558556Y-65156776D01*
X103487886Y-64965961D01*
X103380254Y-64793279D01*
X103333375Y-64743963D01*
X103240059Y-64645795D01*
X103073049Y-64529553D01*
X102886058Y-64449308D01*
X102686741Y-64408348D01*
X102534258Y-64408348D01*
X102531147Y-64408664D01*
X102531134Y-64408665D01*
X102382559Y-64423774D01*
X102188412Y-64484689D01*
X102010500Y-64583437D01*
X101856104Y-64715983D01*
X101731551Y-64876890D01*
X101641940Y-65059575D01*
X101590937Y-65256564D01*
X101580630Y-65459785D01*
X101611443Y-65660919D01*
X101682113Y-65851734D01*
X101789745Y-66024416D01*
X101789748Y-66024419D01*
X101929941Y-66171901D01*
X102096951Y-66288143D01*
X102283942Y-66368388D01*
X102483259Y-66409348D01*
X102483261Y-66409348D01*
X102633256Y-66409348D01*
X102700295Y-66429033D01*
X102746050Y-66481837D01*
X102755994Y-66550995D01*
X102736388Y-66597267D01*
X102737105Y-66597619D01*
X102641940Y-66791625D01*
X102590937Y-66988614D01*
X102580630Y-67191835D01*
X102611443Y-67392969D01*
X102658078Y-67518886D01*
X102662902Y-67588589D01*
X102629276Y-67649835D01*
X102567876Y-67683179D01*
X102498196Y-67678034D01*
X102492898Y-67675903D01*
X102421959Y-67645461D01*
X102421957Y-67645460D01*
X102421956Y-67645460D01*
X102222639Y-67604500D01*
X102070156Y-67604500D01*
X102067045Y-67604816D01*
X102067032Y-67604817D01*
X101918457Y-67619926D01*
X101724310Y-67680841D01*
X101572344Y-67765188D01*
X101504175Y-67780511D01*
X101438544Y-67756547D01*
X101396287Y-67700904D01*
X101388326Y-67650492D01*
X101393217Y-67554064D01*
X101362404Y-67352929D01*
X101332684Y-67272683D01*
X101291734Y-67162113D01*
X101184102Y-66989431D01*
X101177651Y-66982644D01*
X101043907Y-66841947D01*
X100876897Y-66725705D01*
X100689906Y-66645460D01*
X100490589Y-66604500D01*
X100338106Y-66604500D01*
X100334995Y-66604816D01*
X100334982Y-66604817D01*
X100186407Y-66619926D01*
X99992260Y-66680841D01*
X99814348Y-66779589D01*
X99659952Y-66912135D01*
X99535399Y-67073042D01*
X99445788Y-67255727D01*
X99420621Y-67352929D01*
X99400561Y-67430409D01*
X99394785Y-67452716D01*
X99384478Y-67655937D01*
X99415291Y-67857071D01*
X99485961Y-68047886D01*
X99593593Y-68220568D01*
X99593596Y-68220571D01*
X99733789Y-68368053D01*
X99900799Y-68484295D01*
X100087790Y-68564540D01*
X100287107Y-68605500D01*
X100287109Y-68605500D01*
X100436448Y-68605500D01*
X100439590Y-68605500D01*
X100591286Y-68590074D01*
X100785436Y-68529159D01*
X100937404Y-68444810D01*
X101005569Y-68429488D01*
X101071201Y-68453452D01*
X101113458Y-68509095D01*
X101121419Y-68559511D01*
X101116528Y-68655937D01*
X101147341Y-68857071D01*
X101218011Y-69047886D01*
X101325643Y-69220568D01*
X101327214Y-69222221D01*
X101465839Y-69368053D01*
X101496169Y-69389163D01*
X101539947Y-69443617D01*
X101547335Y-69513095D01*
X101515988Y-69575538D01*
X101455858Y-69611121D01*
X101437877Y-69614301D01*
X101382559Y-69619926D01*
X101188412Y-69680841D01*
X101010500Y-69779589D01*
X100856104Y-69912135D01*
X100731551Y-70073042D01*
X100641940Y-70255727D01*
X100590937Y-70452716D01*
X100580630Y-70655937D01*
X100611443Y-70857071D01*
X100682113Y-71047886D01*
X100789745Y-71220568D01*
X100789748Y-71220571D01*
X100929941Y-71368053D01*
X101096951Y-71484295D01*
X101283942Y-71564540D01*
X101450209Y-71598708D01*
X101511912Y-71631483D01*
X101546102Y-71692417D01*
X101541920Y-71762161D01*
X101506018Y-71814254D01*
X101392003Y-71912134D01*
X101392002Y-71912135D01*
X101267449Y-72073042D01*
X101177838Y-72255727D01*
X101126835Y-72452716D01*
X101116256Y-72661310D01*
X101093201Y-72727266D01*
X101038147Y-72770288D01*
X100968574Y-72776715D01*
X100921578Y-72756804D01*
X100911019Y-72749455D01*
X100876897Y-72725705D01*
X100689906Y-72645460D01*
X100490589Y-72604500D01*
X100338106Y-72604500D01*
X100334995Y-72604816D01*
X100334982Y-72604817D01*
X100186407Y-72619926D01*
X99992260Y-72680841D01*
X99814348Y-72779589D01*
X99659952Y-72912135D01*
X99535399Y-73073042D01*
X99445788Y-73255727D01*
X99420621Y-73352929D01*
X99396832Y-73444811D01*
X99394785Y-73452716D01*
X99384478Y-73655937D01*
X96970500Y-73655937D01*
X96970500Y-62220000D01*
X178714559Y-62220000D01*
X178714729Y-62223243D01*
X178732549Y-62563282D01*
X178734310Y-62596871D01*
X178734815Y-62600064D01*
X178734817Y-62600076D01*
X178792838Y-62966404D01*
X178792840Y-62966417D01*
X178793347Y-62969613D01*
X178794184Y-62972737D01*
X178794186Y-62972746D01*
X178851554Y-63186847D01*
X178891022Y-63334143D01*
X178892179Y-63337158D01*
X178892182Y-63337166D01*
X178940775Y-63463755D01*
X179026266Y-63686465D01*
X179027735Y-63689348D01*
X179027739Y-63689357D01*
X179157378Y-63943787D01*
X179197597Y-64022721D01*
X179403137Y-64339225D01*
X179550937Y-64521743D01*
X179633250Y-64623392D01*
X179640635Y-64632511D01*
X179907489Y-64899365D01*
X180200775Y-65136863D01*
X180517279Y-65342403D01*
X180853535Y-65513734D01*
X181205857Y-65648978D01*
X181570387Y-65746653D01*
X181943129Y-65805690D01*
X182320000Y-65825441D01*
X182696871Y-65805690D01*
X183069613Y-65746653D01*
X183434143Y-65648978D01*
X183786465Y-65513734D01*
X184122721Y-65342403D01*
X184439225Y-65136863D01*
X184732511Y-64899365D01*
X184999365Y-64632511D01*
X185236863Y-64339225D01*
X185442403Y-64022721D01*
X185613734Y-63686465D01*
X185748978Y-63334143D01*
X185846653Y-62969613D01*
X185905690Y-62596871D01*
X185924917Y-62230000D01*
X195464559Y-62230000D01*
X195464729Y-62233243D01*
X195482025Y-62563282D01*
X195484310Y-62606871D01*
X195484815Y-62610064D01*
X195484817Y-62610076D01*
X195542838Y-62976404D01*
X195542840Y-62976417D01*
X195543347Y-62979613D01*
X195544184Y-62982737D01*
X195544186Y-62982746D01*
X195640183Y-63341013D01*
X195641022Y-63344143D01*
X195642179Y-63347158D01*
X195642182Y-63347166D01*
X195686539Y-63462719D01*
X195776266Y-63696465D01*
X195777735Y-63699348D01*
X195777739Y-63699357D01*
X195943891Y-64025448D01*
X195947597Y-64032721D01*
X196153137Y-64349225D01*
X196267261Y-64490157D01*
X196342799Y-64583439D01*
X196390635Y-64642511D01*
X196657489Y-64909365D01*
X196950775Y-65146863D01*
X197267279Y-65352403D01*
X197603535Y-65523734D01*
X197955857Y-65658978D01*
X198320387Y-65756653D01*
X198693129Y-65815690D01*
X199070000Y-65835441D01*
X199446871Y-65815690D01*
X199819613Y-65756653D01*
X200184143Y-65658978D01*
X200536465Y-65523734D01*
X200872721Y-65352403D01*
X201189225Y-65146863D01*
X201482511Y-64909365D01*
X201749365Y-64642511D01*
X201986863Y-64349225D01*
X202192403Y-64032721D01*
X202363734Y-63696465D01*
X202498978Y-63344143D01*
X202596653Y-62979613D01*
X202655690Y-62606871D01*
X202675441Y-62230000D01*
X202655690Y-61853129D01*
X202596653Y-61480387D01*
X202498978Y-61115857D01*
X202363734Y-60763535D01*
X202192403Y-60427280D01*
X201986863Y-60110775D01*
X201749365Y-59817489D01*
X201482511Y-59550635D01*
X201189225Y-59313137D01*
X200872721Y-59107597D01*
X200869833Y-59106125D01*
X200869827Y-59106122D01*
X200539357Y-58937739D01*
X200539348Y-58937735D01*
X200536465Y-58936266D01*
X200533433Y-58935102D01*
X200187166Y-58802182D01*
X200187158Y-58802179D01*
X200184143Y-58801022D01*
X200181018Y-58800184D01*
X200181013Y-58800183D01*
X199822746Y-58704186D01*
X199822737Y-58704184D01*
X199819613Y-58703347D01*
X199816417Y-58702840D01*
X199816404Y-58702838D01*
X199450076Y-58644817D01*
X199450064Y-58644815D01*
X199446871Y-58644310D01*
X199443638Y-58644140D01*
X199443633Y-58644140D01*
X199073244Y-58624729D01*
X199070000Y-58624559D01*
X199066756Y-58624729D01*
X198696366Y-58644140D01*
X198696359Y-58644140D01*
X198693129Y-58644310D01*
X198689937Y-58644815D01*
X198689923Y-58644817D01*
X198323595Y-58702838D01*
X198323578Y-58702841D01*
X198320387Y-58703347D01*
X198317266Y-58704183D01*
X198317253Y-58704186D01*
X197958986Y-58800183D01*
X197958975Y-58800186D01*
X197955857Y-58801022D01*
X197952846Y-58802177D01*
X197952833Y-58802182D01*
X197606566Y-58935102D01*
X197606557Y-58935105D01*
X197603535Y-58936266D01*
X197600658Y-58937731D01*
X197600642Y-58937739D01*
X197270173Y-59106122D01*
X197270159Y-59106129D01*
X197267280Y-59107597D01*
X197264560Y-59109363D01*
X197264552Y-59109368D01*
X196953503Y-59311365D01*
X196953497Y-59311368D01*
X196950775Y-59313137D01*
X196948255Y-59315177D01*
X196948249Y-59315182D01*
X196660007Y-59548595D01*
X196659996Y-59548604D01*
X196657489Y-59550635D01*
X196655204Y-59552919D01*
X196655194Y-59552929D01*
X196392929Y-59815194D01*
X196392919Y-59815204D01*
X196390635Y-59817489D01*
X196388604Y-59819996D01*
X196388595Y-59820007D01*
X196155182Y-60108249D01*
X196155177Y-60108255D01*
X196153137Y-60110775D01*
X196151368Y-60113497D01*
X196151365Y-60113503D01*
X195949368Y-60424552D01*
X195949363Y-60424560D01*
X195947597Y-60427280D01*
X195946129Y-60430159D01*
X195946122Y-60430173D01*
X195777739Y-60760642D01*
X195777731Y-60760658D01*
X195776266Y-60763535D01*
X195775105Y-60766557D01*
X195775102Y-60766566D01*
X195642182Y-61112833D01*
X195642177Y-61112846D01*
X195641022Y-61115857D01*
X195640186Y-61118975D01*
X195640183Y-61118986D01*
X195544186Y-61477253D01*
X195544183Y-61477266D01*
X195543347Y-61480387D01*
X195542841Y-61483578D01*
X195542838Y-61483595D01*
X195484817Y-61849923D01*
X195484815Y-61849937D01*
X195484310Y-61853129D01*
X195464559Y-62230000D01*
X185924917Y-62230000D01*
X185925441Y-62220000D01*
X185905690Y-61843129D01*
X185846653Y-61470387D01*
X185748978Y-61105857D01*
X185613734Y-60753535D01*
X185442403Y-60417280D01*
X185236863Y-60100775D01*
X184999365Y-59807489D01*
X184732511Y-59540635D01*
X184439225Y-59303137D01*
X184122721Y-59097597D01*
X184119833Y-59096125D01*
X184119827Y-59096122D01*
X183789357Y-58927739D01*
X183789348Y-58927735D01*
X183786465Y-58926266D01*
X183783433Y-58925102D01*
X183437166Y-58792182D01*
X183437158Y-58792179D01*
X183434143Y-58791022D01*
X183431018Y-58790184D01*
X183431013Y-58790183D01*
X183072746Y-58694186D01*
X183072737Y-58694184D01*
X183069613Y-58693347D01*
X183066417Y-58692840D01*
X183066404Y-58692838D01*
X182700076Y-58634817D01*
X182700064Y-58634815D01*
X182696871Y-58634310D01*
X182693638Y-58634140D01*
X182693633Y-58634140D01*
X182323244Y-58614729D01*
X182320000Y-58614559D01*
X182316756Y-58614729D01*
X181946366Y-58634140D01*
X181946359Y-58634140D01*
X181943129Y-58634310D01*
X181939937Y-58634815D01*
X181939923Y-58634817D01*
X181573595Y-58692838D01*
X181573578Y-58692841D01*
X181570387Y-58693347D01*
X181567266Y-58694183D01*
X181567253Y-58694186D01*
X181208986Y-58790183D01*
X181208975Y-58790186D01*
X181205857Y-58791022D01*
X181202846Y-58792177D01*
X181202833Y-58792182D01*
X180856566Y-58925102D01*
X180856557Y-58925105D01*
X180853535Y-58926266D01*
X180850658Y-58927731D01*
X180850642Y-58927739D01*
X180520173Y-59096122D01*
X180520159Y-59096129D01*
X180517280Y-59097597D01*
X180514560Y-59099363D01*
X180514552Y-59099368D01*
X180203503Y-59301365D01*
X180203497Y-59301368D01*
X180200775Y-59303137D01*
X180198255Y-59305177D01*
X180198249Y-59305182D01*
X179910007Y-59538595D01*
X179909996Y-59538604D01*
X179907489Y-59540635D01*
X179905204Y-59542919D01*
X179905194Y-59542929D01*
X179642929Y-59805194D01*
X179642919Y-59805204D01*
X179640635Y-59807489D01*
X179638604Y-59809996D01*
X179638595Y-59810007D01*
X179405182Y-60098249D01*
X179405177Y-60098255D01*
X179403137Y-60100775D01*
X179401368Y-60103497D01*
X179401365Y-60103503D01*
X179199368Y-60414552D01*
X179199363Y-60414560D01*
X179197597Y-60417280D01*
X179196129Y-60420159D01*
X179196122Y-60420173D01*
X179027739Y-60750642D01*
X179027731Y-60750658D01*
X179026266Y-60753535D01*
X179025105Y-60756557D01*
X179025102Y-60756566D01*
X178892182Y-61102833D01*
X178892177Y-61102846D01*
X178891022Y-61105857D01*
X178890186Y-61108975D01*
X178890183Y-61108986D01*
X178794186Y-61467253D01*
X178794183Y-61467266D01*
X178793347Y-61470387D01*
X178792841Y-61473578D01*
X178792838Y-61473595D01*
X178734817Y-61839923D01*
X178734815Y-61839937D01*
X178734310Y-61843129D01*
X178714559Y-62220000D01*
X96970500Y-62220000D01*
X96970500Y-53461960D01*
X118449500Y-53461960D01*
X118457190Y-53488153D01*
X118460947Y-53505426D01*
X118464835Y-53532457D01*
X118476173Y-53557283D01*
X118482354Y-53573857D01*
X118490045Y-53600049D01*
X118490046Y-53600051D01*
X118490047Y-53600053D01*
X118504810Y-53623025D01*
X118513283Y-53638543D01*
X118524622Y-53663372D01*
X118542495Y-53683998D01*
X118553097Y-53698162D01*
X118567855Y-53721127D01*
X118588487Y-53739005D01*
X118600992Y-53751510D01*
X118618872Y-53772143D01*
X118641836Y-53786901D01*
X118656002Y-53797505D01*
X118676625Y-53815376D01*
X118676626Y-53815376D01*
X118676627Y-53815377D01*
X118701455Y-53826715D01*
X118716977Y-53835192D01*
X118739944Y-53849952D01*
X118739946Y-53849952D01*
X118739947Y-53849953D01*
X118766135Y-53857642D01*
X118782713Y-53863826D01*
X118803191Y-53873177D01*
X118807543Y-53875165D01*
X118834570Y-53879051D01*
X118851849Y-53882810D01*
X118878039Y-53890500D01*
X149061960Y-53890500D01*
X149061961Y-53890500D01*
X149088156Y-53882808D01*
X149105426Y-53879051D01*
X149132457Y-53875165D01*
X149157287Y-53863824D01*
X149173865Y-53857642D01*
X149200051Y-53849954D01*
X149200053Y-53849953D01*
X149223020Y-53835192D01*
X149238546Y-53826715D01*
X149263369Y-53815379D01*
X149263369Y-53815378D01*
X149263373Y-53815377D01*
X149284012Y-53797491D01*
X149298155Y-53786905D01*
X149321128Y-53772143D01*
X149339008Y-53751507D01*
X149351507Y-53739008D01*
X149372143Y-53721128D01*
X149386905Y-53698155D01*
X149397491Y-53684012D01*
X149415377Y-53663373D01*
X149426714Y-53638546D01*
X149435194Y-53623018D01*
X149449953Y-53600053D01*
X149449955Y-53600049D01*
X149457642Y-53573865D01*
X149463824Y-53557287D01*
X149475165Y-53532457D01*
X149479051Y-53505426D01*
X149482809Y-53488153D01*
X149490500Y-53461961D01*
X149490500Y-53318039D01*
X149490500Y-53318038D01*
X149490500Y-51200000D01*
X161984559Y-51200000D01*
X162004310Y-51576871D01*
X162004815Y-51580064D01*
X162004817Y-51580076D01*
X162062838Y-51946404D01*
X162062840Y-51946417D01*
X162063347Y-51949613D01*
X162064184Y-51952737D01*
X162064186Y-51952746D01*
X162112162Y-52131795D01*
X162161022Y-52314143D01*
X162162179Y-52317158D01*
X162162182Y-52317166D01*
X162200907Y-52418048D01*
X162296266Y-52666465D01*
X162297735Y-52669348D01*
X162297739Y-52669357D01*
X162306568Y-52686684D01*
X162467597Y-53002721D01*
X162673137Y-53319225D01*
X162910635Y-53612511D01*
X163177489Y-53879365D01*
X163470775Y-54116863D01*
X163787279Y-54322403D01*
X164123535Y-54493734D01*
X164475857Y-54628978D01*
X164840387Y-54726653D01*
X165213129Y-54785690D01*
X165590000Y-54805441D01*
X165966871Y-54785690D01*
X166339613Y-54726653D01*
X166704143Y-54628978D01*
X167056465Y-54493734D01*
X167392721Y-54322403D01*
X167709225Y-54116863D01*
X168002511Y-53879365D01*
X168269365Y-53612511D01*
X168506863Y-53319225D01*
X168712403Y-53002721D01*
X168883734Y-52666465D01*
X169018978Y-52314143D01*
X169116653Y-51949613D01*
X169175690Y-51576871D01*
X169194917Y-51210000D01*
X178704559Y-51210000D01*
X178724310Y-51586871D01*
X178724815Y-51590064D01*
X178724817Y-51590076D01*
X178782838Y-51956404D01*
X178782840Y-51956417D01*
X178783347Y-51959613D01*
X178784184Y-51962737D01*
X178784186Y-51962746D01*
X178880183Y-52321013D01*
X178881022Y-52324143D01*
X178882179Y-52327158D01*
X178882182Y-52327166D01*
X179011263Y-52663433D01*
X179016266Y-52676465D01*
X179017735Y-52679348D01*
X179017739Y-52679357D01*
X179183891Y-53005448D01*
X179187597Y-53012721D01*
X179393137Y-53329225D01*
X179630635Y-53622511D01*
X179897489Y-53889365D01*
X180190775Y-54126863D01*
X180507279Y-54332403D01*
X180843535Y-54503734D01*
X181195857Y-54638978D01*
X181560387Y-54736653D01*
X181933129Y-54795690D01*
X182310000Y-54815441D01*
X182686871Y-54795690D01*
X183059613Y-54736653D01*
X183424143Y-54638978D01*
X183776465Y-54503734D01*
X184112721Y-54332403D01*
X184429225Y-54126863D01*
X184722511Y-53889365D01*
X184989365Y-53622511D01*
X185226863Y-53329225D01*
X185432403Y-53012721D01*
X185603734Y-52676465D01*
X185738978Y-52324143D01*
X185836653Y-51959613D01*
X185895690Y-51586871D01*
X185915441Y-51210000D01*
X185914917Y-51200000D01*
X195474559Y-51200000D01*
X195494310Y-51576871D01*
X195494815Y-51580064D01*
X195494817Y-51580076D01*
X195552838Y-51946404D01*
X195552840Y-51946417D01*
X195553347Y-51949613D01*
X195554184Y-51952737D01*
X195554186Y-51952746D01*
X195602162Y-52131795D01*
X195651022Y-52314143D01*
X195652179Y-52317158D01*
X195652182Y-52317166D01*
X195690907Y-52418048D01*
X195786266Y-52666465D01*
X195787735Y-52669348D01*
X195787739Y-52669357D01*
X195796568Y-52686684D01*
X195957597Y-53002721D01*
X196163137Y-53319225D01*
X196400635Y-53612511D01*
X196667489Y-53879365D01*
X196960775Y-54116863D01*
X197277279Y-54322403D01*
X197613535Y-54493734D01*
X197965857Y-54628978D01*
X198330387Y-54726653D01*
X198703129Y-54785690D01*
X199080000Y-54805441D01*
X199456871Y-54785690D01*
X199829613Y-54726653D01*
X200194143Y-54628978D01*
X200546465Y-54493734D01*
X200882721Y-54322403D01*
X201199225Y-54116863D01*
X201492511Y-53879365D01*
X201759365Y-53612511D01*
X201996863Y-53319225D01*
X202202403Y-53002721D01*
X202373734Y-52666465D01*
X202508978Y-52314143D01*
X202606653Y-51949613D01*
X202665690Y-51576871D01*
X202685441Y-51200000D01*
X202665690Y-50823129D01*
X202606653Y-50450387D01*
X202508978Y-50085857D01*
X202373734Y-49733535D01*
X202202403Y-49397280D01*
X201996863Y-49080775D01*
X201759365Y-48787489D01*
X201492511Y-48520635D01*
X201199225Y-48283137D01*
X200882721Y-48077597D01*
X200879833Y-48076125D01*
X200879827Y-48076122D01*
X200549357Y-47907739D01*
X200549348Y-47907735D01*
X200546465Y-47906266D01*
X200543433Y-47905102D01*
X200197166Y-47772182D01*
X200197158Y-47772179D01*
X200194143Y-47771022D01*
X200191018Y-47770184D01*
X200191013Y-47770183D01*
X199832746Y-47674186D01*
X199832737Y-47674184D01*
X199829613Y-47673347D01*
X199826417Y-47672840D01*
X199826404Y-47672838D01*
X199460076Y-47614817D01*
X199460064Y-47614815D01*
X199456871Y-47614310D01*
X199453638Y-47614140D01*
X199453633Y-47614140D01*
X199083244Y-47594729D01*
X199080000Y-47594559D01*
X199076756Y-47594729D01*
X198706366Y-47614140D01*
X198706359Y-47614140D01*
X198703129Y-47614310D01*
X198699937Y-47614815D01*
X198699923Y-47614817D01*
X198333595Y-47672838D01*
X198333578Y-47672841D01*
X198330387Y-47673347D01*
X198327266Y-47674183D01*
X198327253Y-47674186D01*
X197968986Y-47770183D01*
X197968975Y-47770186D01*
X197965857Y-47771022D01*
X197962846Y-47772177D01*
X197962833Y-47772182D01*
X197616566Y-47905102D01*
X197616557Y-47905105D01*
X197613535Y-47906266D01*
X197610658Y-47907731D01*
X197610642Y-47907739D01*
X197280173Y-48076122D01*
X197280159Y-48076129D01*
X197277280Y-48077597D01*
X197274560Y-48079363D01*
X197274552Y-48079368D01*
X196963503Y-48281365D01*
X196963497Y-48281368D01*
X196960775Y-48283137D01*
X196958255Y-48285177D01*
X196958249Y-48285182D01*
X196670007Y-48518595D01*
X196669996Y-48518604D01*
X196667489Y-48520635D01*
X196665204Y-48522919D01*
X196665194Y-48522929D01*
X196402929Y-48785194D01*
X196402919Y-48785204D01*
X196400635Y-48787489D01*
X196398604Y-48789996D01*
X196398595Y-48790007D01*
X196165182Y-49078249D01*
X196165177Y-49078255D01*
X196163137Y-49080775D01*
X196161368Y-49083497D01*
X196161365Y-49083503D01*
X195959368Y-49394552D01*
X195959363Y-49394560D01*
X195957597Y-49397280D01*
X195956129Y-49400159D01*
X195956122Y-49400173D01*
X195787739Y-49730642D01*
X195787731Y-49730658D01*
X195786266Y-49733535D01*
X195785105Y-49736557D01*
X195785102Y-49736566D01*
X195652182Y-50082833D01*
X195652177Y-50082846D01*
X195651022Y-50085857D01*
X195650186Y-50088975D01*
X195650183Y-50088986D01*
X195554186Y-50447253D01*
X195554183Y-50447266D01*
X195553347Y-50450387D01*
X195552841Y-50453578D01*
X195552838Y-50453595D01*
X195494817Y-50819923D01*
X195494815Y-50819937D01*
X195494310Y-50823129D01*
X195474559Y-51200000D01*
X185914917Y-51200000D01*
X185895690Y-50833129D01*
X185836653Y-50460387D01*
X185738978Y-50095857D01*
X185603734Y-49743535D01*
X185432403Y-49407280D01*
X185226863Y-49090775D01*
X184989365Y-48797489D01*
X184722511Y-48530635D01*
X184429225Y-48293137D01*
X184112721Y-48087597D01*
X184109833Y-48086125D01*
X184109827Y-48086122D01*
X183779357Y-47917739D01*
X183779348Y-47917735D01*
X183776465Y-47916266D01*
X183773433Y-47915102D01*
X183427166Y-47782182D01*
X183427158Y-47782179D01*
X183424143Y-47781022D01*
X183421018Y-47780184D01*
X183421013Y-47780183D01*
X183062746Y-47684186D01*
X183062737Y-47684184D01*
X183059613Y-47683347D01*
X183056417Y-47682840D01*
X183056404Y-47682838D01*
X182690076Y-47624817D01*
X182690064Y-47624815D01*
X182686871Y-47624310D01*
X182683638Y-47624140D01*
X182683633Y-47624140D01*
X182313244Y-47604729D01*
X182310000Y-47604559D01*
X182306756Y-47604729D01*
X181936366Y-47624140D01*
X181936359Y-47624140D01*
X181933129Y-47624310D01*
X181929937Y-47624815D01*
X181929923Y-47624817D01*
X181563595Y-47682838D01*
X181563578Y-47682841D01*
X181560387Y-47683347D01*
X181557266Y-47684183D01*
X181557253Y-47684186D01*
X181198986Y-47780183D01*
X181198975Y-47780186D01*
X181195857Y-47781022D01*
X181192846Y-47782177D01*
X181192833Y-47782182D01*
X180846566Y-47915102D01*
X180846557Y-47915105D01*
X180843535Y-47916266D01*
X180840658Y-47917731D01*
X180840642Y-47917739D01*
X180510173Y-48086122D01*
X180510159Y-48086129D01*
X180507280Y-48087597D01*
X180504560Y-48089363D01*
X180504552Y-48089368D01*
X180193503Y-48291365D01*
X180193497Y-48291368D01*
X180190775Y-48293137D01*
X180188255Y-48295177D01*
X180188249Y-48295182D01*
X179900007Y-48528595D01*
X179899996Y-48528604D01*
X179897489Y-48530635D01*
X179895204Y-48532919D01*
X179895194Y-48532929D01*
X179632929Y-48795194D01*
X179632919Y-48795204D01*
X179630635Y-48797489D01*
X179628604Y-48799996D01*
X179628595Y-48800007D01*
X179395182Y-49088249D01*
X179395177Y-49088255D01*
X179393137Y-49090775D01*
X179391368Y-49093497D01*
X179391365Y-49093503D01*
X179189368Y-49404552D01*
X179189363Y-49404560D01*
X179187597Y-49407280D01*
X179186129Y-49410159D01*
X179186122Y-49410173D01*
X179017739Y-49740642D01*
X179017731Y-49740658D01*
X179016266Y-49743535D01*
X179015105Y-49746557D01*
X179015102Y-49746566D01*
X178882182Y-50092833D01*
X178882177Y-50092846D01*
X178881022Y-50095857D01*
X178880186Y-50098975D01*
X178880183Y-50098986D01*
X178784186Y-50457253D01*
X178784183Y-50457266D01*
X178783347Y-50460387D01*
X178782841Y-50463578D01*
X178782838Y-50463595D01*
X178724817Y-50829923D01*
X178724815Y-50829937D01*
X178724310Y-50833129D01*
X178704559Y-51210000D01*
X169194917Y-51210000D01*
X169195441Y-51200000D01*
X169175690Y-50823129D01*
X169116653Y-50450387D01*
X169018978Y-50085857D01*
X168883734Y-49733535D01*
X168712403Y-49397280D01*
X168506863Y-49080775D01*
X168269365Y-48787489D01*
X168002511Y-48520635D01*
X167709225Y-48283137D01*
X167392721Y-48077597D01*
X167389833Y-48076125D01*
X167389827Y-48076122D01*
X167059357Y-47907739D01*
X167059348Y-47907735D01*
X167056465Y-47906266D01*
X167053433Y-47905102D01*
X166707166Y-47772182D01*
X166707158Y-47772179D01*
X166704143Y-47771022D01*
X166701018Y-47770184D01*
X166701013Y-47770183D01*
X166342746Y-47674186D01*
X166342737Y-47674184D01*
X166339613Y-47673347D01*
X166336417Y-47672840D01*
X166336404Y-47672838D01*
X165970076Y-47614817D01*
X165970064Y-47614815D01*
X165966871Y-47614310D01*
X165963638Y-47614140D01*
X165963633Y-47614140D01*
X165593244Y-47594729D01*
X165590000Y-47594559D01*
X165586756Y-47594729D01*
X165216366Y-47614140D01*
X165216359Y-47614140D01*
X165213129Y-47614310D01*
X165209937Y-47614815D01*
X165209923Y-47614817D01*
X164843595Y-47672838D01*
X164843578Y-47672841D01*
X164840387Y-47673347D01*
X164837266Y-47674183D01*
X164837253Y-47674186D01*
X164478986Y-47770183D01*
X164478975Y-47770186D01*
X164475857Y-47771022D01*
X164472846Y-47772177D01*
X164472833Y-47772182D01*
X164126566Y-47905102D01*
X164126557Y-47905105D01*
X164123535Y-47906266D01*
X164120658Y-47907731D01*
X164120642Y-47907739D01*
X163790173Y-48076122D01*
X163790159Y-48076129D01*
X163787280Y-48077597D01*
X163784560Y-48079363D01*
X163784552Y-48079368D01*
X163473503Y-48281365D01*
X163473497Y-48281368D01*
X163470775Y-48283137D01*
X163468255Y-48285177D01*
X163468249Y-48285182D01*
X163180007Y-48518595D01*
X163179996Y-48518604D01*
X163177489Y-48520635D01*
X163175204Y-48522919D01*
X163175194Y-48522929D01*
X162912929Y-48785194D01*
X162912919Y-48785204D01*
X162910635Y-48787489D01*
X162908604Y-48789996D01*
X162908595Y-48790007D01*
X162675182Y-49078249D01*
X162675177Y-49078255D01*
X162673137Y-49080775D01*
X162671368Y-49083497D01*
X162671365Y-49083503D01*
X162469368Y-49394552D01*
X162469363Y-49394560D01*
X162467597Y-49397280D01*
X162466129Y-49400159D01*
X162466122Y-49400173D01*
X162297739Y-49730642D01*
X162297731Y-49730658D01*
X162296266Y-49733535D01*
X162295105Y-49736557D01*
X162295102Y-49736566D01*
X162162182Y-50082833D01*
X162162177Y-50082846D01*
X162161022Y-50085857D01*
X162160186Y-50088975D01*
X162160183Y-50088986D01*
X162064186Y-50447253D01*
X162064183Y-50447266D01*
X162063347Y-50450387D01*
X162062841Y-50453578D01*
X162062838Y-50453595D01*
X162004817Y-50819923D01*
X162004815Y-50819937D01*
X162004310Y-50823129D01*
X161984559Y-51200000D01*
X149490500Y-51200000D01*
X149490500Y-43859999D01*
X200974389Y-43859999D01*
X200994804Y-44145429D01*
X201055629Y-44425041D01*
X201155634Y-44693163D01*
X201292772Y-44944313D01*
X201378517Y-45058855D01*
X201464261Y-45173395D01*
X201666605Y-45375739D01*
X201838415Y-45504354D01*
X201895686Y-45547227D01*
X202035435Y-45623535D01*
X202146839Y-45684367D01*
X202414954Y-45784369D01*
X202414957Y-45784369D01*
X202414958Y-45784370D01*
X202467217Y-45795738D01*
X202694572Y-45845196D01*
X202980000Y-45865610D01*
X203265428Y-45845196D01*
X203545046Y-45784369D01*
X203813161Y-45684367D01*
X204064315Y-45547226D01*
X204293395Y-45375739D01*
X204495739Y-45173395D01*
X204667226Y-44944315D01*
X204804367Y-44693161D01*
X204904369Y-44425046D01*
X204965196Y-44145428D01*
X204985610Y-43860000D01*
X204965196Y-43574572D01*
X204904369Y-43294954D01*
X204804367Y-43026839D01*
X204743535Y-42915435D01*
X204667227Y-42775686D01*
X204624354Y-42718414D01*
X204495739Y-42546605D01*
X204293395Y-42344261D01*
X204178854Y-42258517D01*
X204064313Y-42172772D01*
X203813163Y-42035634D01*
X203813162Y-42035633D01*
X203813161Y-42035633D01*
X203545046Y-41935631D01*
X203545041Y-41935629D01*
X203265429Y-41874804D01*
X202980000Y-41854389D01*
X202694570Y-41874804D01*
X202414958Y-41935629D01*
X202146836Y-42035634D01*
X201895686Y-42172772D01*
X201666602Y-42344263D01*
X201464263Y-42546602D01*
X201292772Y-42775686D01*
X201155634Y-43026836D01*
X201055629Y-43294958D01*
X200994804Y-43574570D01*
X200974389Y-43859999D01*
X149490500Y-43859999D01*
X149490500Y-41354201D01*
X149490500Y-41318039D01*
X149482809Y-41291844D01*
X149479050Y-41274566D01*
X149475165Y-41247543D01*
X149473177Y-41243191D01*
X149463826Y-41222713D01*
X149457642Y-41206135D01*
X149449952Y-41179944D01*
X149435192Y-41156977D01*
X149426713Y-41141450D01*
X149415376Y-41116625D01*
X149397505Y-41096002D01*
X149386901Y-41081836D01*
X149372143Y-41058872D01*
X149351510Y-41040992D01*
X149339005Y-41028487D01*
X149321127Y-41007855D01*
X149298162Y-40993097D01*
X149283998Y-40982495D01*
X149263372Y-40964622D01*
X149238543Y-40953283D01*
X149223025Y-40944810D01*
X149200053Y-40930047D01*
X149200051Y-40930046D01*
X149200049Y-40930045D01*
X149173857Y-40922354D01*
X149157288Y-40916174D01*
X149132457Y-40904835D01*
X149105426Y-40900947D01*
X149088153Y-40897190D01*
X149061961Y-40889500D01*
X149025799Y-40889500D01*
X119021961Y-40889500D01*
X118878039Y-40889500D01*
X118851844Y-40897190D01*
X118834567Y-40900948D01*
X118807541Y-40904834D01*
X118782711Y-40916174D01*
X118766140Y-40922355D01*
X118739947Y-40930046D01*
X118716979Y-40944806D01*
X118701463Y-40953278D01*
X118676629Y-40964620D01*
X118655998Y-40982497D01*
X118641842Y-40993094D01*
X118618871Y-41007857D01*
X118600992Y-41028490D01*
X118588490Y-41040992D01*
X118567857Y-41058871D01*
X118553094Y-41081842D01*
X118542497Y-41095998D01*
X118524620Y-41116629D01*
X118513278Y-41141463D01*
X118504806Y-41156979D01*
X118490046Y-41179947D01*
X118482355Y-41206140D01*
X118476174Y-41222711D01*
X118464834Y-41247541D01*
X118460948Y-41274567D01*
X118457190Y-41291844D01*
X118449500Y-41318038D01*
X118449500Y-53461960D01*
X96970500Y-53461960D01*
X96970500Y-43860000D01*
X99314389Y-43860000D01*
X99334804Y-44145429D01*
X99395629Y-44425041D01*
X99495634Y-44693163D01*
X99632772Y-44944313D01*
X99718517Y-45058854D01*
X99804261Y-45173395D01*
X100006605Y-45375739D01*
X100178415Y-45504354D01*
X100235686Y-45547227D01*
X100375435Y-45623535D01*
X100486839Y-45684367D01*
X100754954Y-45784369D01*
X100754957Y-45784369D01*
X100754958Y-45784370D01*
X100807217Y-45795738D01*
X101034572Y-45845196D01*
X101320000Y-45865610D01*
X101605428Y-45845196D01*
X101885046Y-45784369D01*
X102153161Y-45684367D01*
X102404315Y-45547226D01*
X102633395Y-45375739D01*
X102835739Y-45173395D01*
X103007226Y-44944315D01*
X103144367Y-44693161D01*
X103244369Y-44425046D01*
X103305196Y-44145428D01*
X103325610Y-43860000D01*
X103305196Y-43574572D01*
X103244369Y-43294954D01*
X103144367Y-43026839D01*
X103083535Y-42915435D01*
X103007227Y-42775686D01*
X102964354Y-42718415D01*
X102835739Y-42546605D01*
X102633395Y-42344261D01*
X102518854Y-42258517D01*
X102404313Y-42172772D01*
X102153163Y-42035634D01*
X102153162Y-42035633D01*
X102153161Y-42035633D01*
X101885046Y-41935631D01*
X101885041Y-41935629D01*
X101605429Y-41874804D01*
X101320000Y-41854389D01*
X101034570Y-41874804D01*
X100754958Y-41935629D01*
X100486836Y-42035634D01*
X100235686Y-42172772D01*
X100006602Y-42344263D01*
X99804263Y-42546602D01*
X99632772Y-42775686D01*
X99495634Y-43026836D01*
X99395629Y-43294958D01*
X99334804Y-43574570D01*
X99314389Y-43860000D01*
X96970500Y-43860000D01*
X96970500Y-34369000D01*
X101865992Y-34369000D01*
X101866281Y-34373225D01*
X101879811Y-34571033D01*
X101885602Y-34655686D01*
X101886461Y-34659824D01*
X101886463Y-34659832D01*
X101943203Y-34932880D01*
X101944066Y-34937032D01*
X102040296Y-35207797D01*
X102042243Y-35211555D01*
X102042245Y-35211559D01*
X102153633Y-35426527D01*
X102172499Y-35462936D01*
X102174945Y-35466401D01*
X102335766Y-35694235D01*
X102335770Y-35694240D01*
X102338211Y-35697698D01*
X102534347Y-35907708D01*
X102757253Y-36089055D01*
X103002775Y-36238361D01*
X103266342Y-36352844D01*
X103486784Y-36414608D01*
X103538962Y-36429228D01*
X103538964Y-36429228D01*
X103543042Y-36430371D01*
X103827722Y-36469500D01*
X103831959Y-36469500D01*
X104110841Y-36469500D01*
X104115078Y-36469500D01*
X104399758Y-36430371D01*
X104676458Y-36352844D01*
X104940025Y-36238361D01*
X105185547Y-36089055D01*
X105408453Y-35907708D01*
X105604589Y-35697698D01*
X105770301Y-35462936D01*
X105902504Y-35207797D01*
X105998734Y-34937032D01*
X106057198Y-34655686D01*
X106076808Y-34369000D01*
X198265992Y-34369000D01*
X198266281Y-34373225D01*
X198279811Y-34571033D01*
X198285602Y-34655686D01*
X198286461Y-34659824D01*
X198286463Y-34659832D01*
X198343203Y-34932880D01*
X198344066Y-34937032D01*
X198440296Y-35207797D01*
X198442243Y-35211555D01*
X198442245Y-35211559D01*
X198553633Y-35426527D01*
X198572499Y-35462936D01*
X198574945Y-35466401D01*
X198735766Y-35694235D01*
X198735770Y-35694240D01*
X198738211Y-35697698D01*
X198934347Y-35907708D01*
X199157253Y-36089055D01*
X199402775Y-36238361D01*
X199666342Y-36352844D01*
X199886784Y-36414608D01*
X199938962Y-36429228D01*
X199938964Y-36429228D01*
X199943042Y-36430371D01*
X200227722Y-36469500D01*
X200231959Y-36469500D01*
X200510841Y-36469500D01*
X200515078Y-36469500D01*
X200799758Y-36430371D01*
X201076458Y-36352844D01*
X201340025Y-36238361D01*
X201585547Y-36089055D01*
X201808453Y-35907708D01*
X202004589Y-35697698D01*
X202170301Y-35462936D01*
X202302504Y-35207797D01*
X202398734Y-34937032D01*
X202457198Y-34655686D01*
X202476808Y-34369000D01*
X202457198Y-34082314D01*
X202398734Y-33800968D01*
X202302504Y-33530203D01*
X202170301Y-33275064D01*
X202004589Y-33040302D01*
X201808453Y-32830292D01*
X201805171Y-32827622D01*
X201805168Y-32827619D01*
X201588829Y-32651615D01*
X201588828Y-32651614D01*
X201585547Y-32648945D01*
X201340025Y-32499639D01*
X201336145Y-32497953D01*
X201336138Y-32497950D01*
X201080339Y-32386841D01*
X201080329Y-32386837D01*
X201076458Y-32385156D01*
X201072386Y-32384015D01*
X200803837Y-32308771D01*
X200803824Y-32308768D01*
X200799758Y-32307629D01*
X200795568Y-32307053D01*
X200795558Y-32307051D01*
X200519275Y-32269076D01*
X200519262Y-32269075D01*
X200515078Y-32268500D01*
X200227722Y-32268500D01*
X200223538Y-32269075D01*
X200223524Y-32269076D01*
X199947241Y-32307051D01*
X199947228Y-32307053D01*
X199943042Y-32307629D01*
X199938977Y-32308767D01*
X199938962Y-32308771D01*
X199670413Y-32384015D01*
X199670408Y-32384016D01*
X199666342Y-32385156D01*
X199662475Y-32386835D01*
X199662460Y-32386841D01*
X199406661Y-32497950D01*
X199406648Y-32497956D01*
X199402775Y-32499639D01*
X199399164Y-32501834D01*
X199399156Y-32501839D01*
X199160865Y-32646748D01*
X199160860Y-32646751D01*
X199157253Y-32648945D01*
X199153978Y-32651609D01*
X199153970Y-32651615D01*
X198937631Y-32827619D01*
X198937620Y-32827628D01*
X198934347Y-32830292D01*
X198931468Y-32833374D01*
X198931459Y-32833383D01*
X198741099Y-33037209D01*
X198741094Y-33037214D01*
X198738211Y-33040302D01*
X198735775Y-33043752D01*
X198735766Y-33043764D01*
X198574945Y-33271598D01*
X198574941Y-33271603D01*
X198572499Y-33275064D01*
X198570553Y-33278818D01*
X198570549Y-33278826D01*
X198442245Y-33526440D01*
X198442240Y-33526450D01*
X198440296Y-33530203D01*
X198438879Y-33534188D01*
X198438875Y-33534199D01*
X198405442Y-33628272D01*
X198344066Y-33800968D01*
X198343204Y-33805113D01*
X198343203Y-33805119D01*
X198286463Y-34078167D01*
X198286461Y-34078177D01*
X198285602Y-34082314D01*
X198285313Y-34086529D01*
X198285313Y-34086534D01*
X198266281Y-34364774D01*
X198265992Y-34369000D01*
X106076808Y-34369000D01*
X106057198Y-34082314D01*
X105998734Y-33800968D01*
X105902504Y-33530203D01*
X105770301Y-33275064D01*
X105604589Y-33040302D01*
X105408453Y-32830292D01*
X105405171Y-32827622D01*
X105405168Y-32827619D01*
X105188829Y-32651615D01*
X105188828Y-32651614D01*
X105185547Y-32648945D01*
X104940025Y-32499639D01*
X104936145Y-32497953D01*
X104936138Y-32497950D01*
X104680339Y-32386841D01*
X104680329Y-32386837D01*
X104676458Y-32385156D01*
X104672386Y-32384015D01*
X104403837Y-32308771D01*
X104403824Y-32308768D01*
X104399758Y-32307629D01*
X104395568Y-32307053D01*
X104395558Y-32307051D01*
X104119275Y-32269076D01*
X104119262Y-32269075D01*
X104115078Y-32268500D01*
X103827722Y-32268500D01*
X103823538Y-32269075D01*
X103823524Y-32269076D01*
X103547241Y-32307051D01*
X103547228Y-32307053D01*
X103543042Y-32307629D01*
X103538977Y-32308767D01*
X103538962Y-32308771D01*
X103270413Y-32384015D01*
X103270408Y-32384016D01*
X103266342Y-32385156D01*
X103262475Y-32386835D01*
X103262460Y-32386841D01*
X103006661Y-32497950D01*
X103006648Y-32497956D01*
X103002775Y-32499639D01*
X102999164Y-32501834D01*
X102999156Y-32501839D01*
X102760865Y-32646748D01*
X102760860Y-32646751D01*
X102757253Y-32648945D01*
X102753978Y-32651609D01*
X102753970Y-32651615D01*
X102537631Y-32827619D01*
X102537620Y-32827628D01*
X102534347Y-32830292D01*
X102531468Y-32833374D01*
X102531459Y-32833383D01*
X102341099Y-33037209D01*
X102341094Y-33037214D01*
X102338211Y-33040302D01*
X102335775Y-33043752D01*
X102335766Y-33043764D01*
X102174945Y-33271598D01*
X102174941Y-33271603D01*
X102172499Y-33275064D01*
X102170553Y-33278818D01*
X102170549Y-33278826D01*
X102042245Y-33526440D01*
X102042240Y-33526450D01*
X102040296Y-33530203D01*
X102038879Y-33534188D01*
X102038875Y-33534199D01*
X102005442Y-33628272D01*
X101944066Y-33800968D01*
X101943204Y-33805113D01*
X101943203Y-33805119D01*
X101886463Y-34078167D01*
X101886461Y-34078177D01*
X101885602Y-34082314D01*
X101885313Y-34086529D01*
X101885313Y-34086534D01*
X101866281Y-34364774D01*
X101865992Y-34369000D01*
X96970500Y-34369000D01*
X96970500Y-31994500D01*
X96990185Y-31927461D01*
X97042989Y-31881706D01*
X97094500Y-31870500D01*
X207246947Y-31870500D01*
X207313986Y-31890185D01*
G37*
%TD.AperFunction*%
%TD*%
M02*
