M48
; DRILL file {KiCad 7.0.2} date Sun Jul 16 23:30:03 2023
; FORMAT={-:-/ absolute / metric / decimal}
; #@! TF.CreationDate,2023-07-16T23:30:03-06:00
; #@! TF.GenerationSoftware,Kicad,Pcbnew,7.0.2
; #@! TF.FileFunction,MixedPlating,1,2
FMAT,2
METRIC
; #@! TA.AperFunction,Plated,PTH,ComponentDrill
T1C1.000
; #@! TA.AperFunction,NonPlated,NPTH,ComponentDrill
T2C1.500
%
G90
G05
T1
X195.18Y-102.195
X195.18Y-104.735
X197.72Y-102.195
X197.72Y-104.735
X200.26Y-102.195
X200.26Y-104.735
T2
X100.389Y-67.605
X100.389Y-73.605
X101.585Y-70.605
X102.121Y-68.605
X102.121Y-72.605
X102.585Y-65.409
X102.585Y-75.801
X103.585Y-67.141
X103.585Y-70.605
X103.585Y-74.069
X104.585Y-68.873
X104.585Y-72.337
X105.585Y-66.605
X105.585Y-70.605
X105.585Y-74.605
X106.585Y-68.873
X106.585Y-72.337
X107.585Y-67.141
X107.585Y-70.605
X107.585Y-74.069
X108.585Y-65.409
X108.585Y-75.801
X109.049Y-68.605
X109.049Y-72.605
X109.585Y-70.605
X110.781Y-67.605
X110.781Y-73.605
T0
M30
